<svg xmlns="http://www.w3.org/2000/svg" xmlns:xlink="http://www.w3.org/1999/xlink" width="400" height="400" viewBox="0 0 400 400">
  <defs>
    <clipPath id="a">
      <circle cx="200" cy="200" r="200" style="fill: none"/>
    </clipPath>
  </defs>
  <title>meme</title>
  <g>
    <path d="M200,399.37313h0C90.34492,399.37313.62712,309.65534.62712,200.00024h0C.62712,90.34516,90.34492.62736,200,.62736h0c109.65509,0,199.37288,89.7178,199.37288,199.37288h0C399.37288,309.65534,309.65509,399.37313,200,399.37313Z" style="fill: #4d4d4d"/>
    <g>
      <path d="M281.85547,104.0625V80.01563h58.44531V104.0625c0,19.28906-11.85547,30.8125-29.22266,30.8125S281.85547,123.35156,281.85547,104.0625Zm42.918-.918V96.80078H297.38672v6.34375c0,7.09766,3.75781,13.77734,13.69141,13.77734C320.93359,116.92188,324.77344,110.24219,324.77344,103.14453Z" style="fill: #12d247"/>
      <path d="M313.332,140.37109l11.52344,4.00781a8.99639,8.99639,0,0,1,7.01563-3.17578,9.535,9.535,0,0,1,9.43359,9.4375c0,6.17969-4.42578,9.60156-9.51953,9.60156a11.45133,11.45133,0,0,1-5.84375-1.418L313.332,151.55859Z" style="fill: #12d247"/>
      <path d="M311.07813,225.94531c-17.61719,0-30.22266-13.77734-30.22266-30.80859,0-17.03516,12.60547-30.8125,30.22266-30.8125s30.22656,13.77734,30.22656,30.8125C341.30469,212.168,328.69531,225.94531,311.07813,225.94531Zm0-17.95312c8.43359,0,14.52734-5.00781,14.52734-12.85547,0-7.85156-6.09375-12.85937-14.52734-12.85937-8.34766,0-14.52734,5.00781-14.52734,12.85938C296.55078,202.98438,302.73047,207.99219,311.07813,207.99219Z" style="fill: #12d247"/>
      <path d="M281.85547,267.59375h21.71094V249.55859H281.85547V232.77344h58.44531v16.78516h-21.375v18.03516h21.375V284.375H281.85547Z" style="fill: #12d247"/>
      <path d="M299.64063,302.73047a9.39267,9.39267,0,1,1-9.43359-9.35156A9.37064,9.37064,0,0,1,299.64063,302.73047Zm2.42188-7.51562,38.23828-1.50391V312l-38.23828-1.50391Z" style="fill: #12d247"/>
    </g>
    <g style="clip-path: url(#a)">
      <g>
        <path d="M261.59182,394.47546,54.86609,468.36564a123.25387,123.25387,0,0,1-1.577-16.70351c-.3591-12.78323.02826-25.50223,3.36266-37.97526.66261-2.47855,1.76651-4.0069,4.34-4.84618a59.75951,59.75951,0,0,0,12.64281-6.18876c18.24354-11.217,31.00441-27.16884,39.9348-46.3855a6.3,6.3,0,0,1,4.19428-3.79961c5.74324-1.79219,10.94914-4.641,14.89436-9.309.99569-1.1781,1.6591-1.058,2.78324-.47417a23.29631,23.29631,0,0,0,9.25767,2.82379c4.09068.25979,7.49523-.93738,9.57139-4.81792,4.7169-8.81622.60381-17.78451-9.07607-19.70687-.32762-.06507-.6728-.05758-.99145-.14833-.50135-.14282-1.17294-.12032-1.15968-.91349a1.28825,1.28825,0,0,1,1.25214-1.32692,7.87516,7.87516,0,0,1,3.96753.39586c2.46921,1.05107,4.87865,2.25772,7.39078,3.18994,8.17224,3.03282,14.67582-1.32617,15.16386-10.04349a12.46848,12.46848,0,0,0-.952-6.23507,1.89316,1.89316,0,0,1,.19731-2.37974c4.86128-6.10424,4.39464-11.17536-1.40691-17.04092-3.39492-3.43238-3.48033-4.7444-.57242-9.04515a51.68336,51.68336,0,0,1,21.35376,20.73784,217.53774,217.53774,0,0,1,12.37506,27.9456c1.4603,3.84441,3.23439,6.11028,7.48144,7.61423,20.93509,7.41338,36.08053,21.62256,45.89813,41.44819C258.20726,381.27049,260.866,387.57865,261.59182,394.47546Z" style="fill: #fff;stroke: #1d1d1b;stroke-miterlimit: 10;stroke-width: 1.4173228740692139px"/>
        <path d="M261.59182,394.47546c-.72577-6.89681-3.38456-13.205-6.4-19.29426-9.8176-19.82563-24.963-34.03481-45.89813-41.44819-4.24705-1.504-6.02115-3.76982-7.48144-7.61423a217.53774,217.53774,0,0,0-12.37506-27.9456,51.68336,51.68336,0,0,0-21.35376-20.73784c-2.90791,4.30075-2.82249,5.61277.57242,9.04515,5.80155,5.86556,6.26819,10.93667,1.40691,17.04092a1.89316,1.89316,0,0,0-.19731,2.37974,12.46848,12.46848,0,0,1,.952,6.23507c-.488,8.71732-6.99162,13.07631-15.16386,10.04349-2.51213-.93222-4.92157-2.13887-7.39078-3.18994a7.87516,7.87516,0,0,0-3.96753-.39586,1.28825,1.28825,0,0,0-1.25214,1.32692c-.01326.79317.65833.77067,1.15968.91349.31864.09075.66383.08326.99145.14833,9.67988,1.92236,13.793,10.89065,9.07607,19.70687-2.07616,3.88054-5.48071,5.0777-9.57139,4.81792a23.29631,23.29631,0,0,1-9.25767-2.82379c-1.12414-.58383-1.78755-.70393-2.78324.47417-3.94522,4.668-9.15111,7.51681-14.89436,9.309a6.3,6.3,0,0,0-4.19428,3.79961c-8.93039,19.21666-21.69126,35.16854-39.9348,46.3855a59.75951,59.75951,0,0,1-12.64281,6.18876c-2.57352.83928-3.67741,2.36762-4.34,4.84618-3.33441,12.473-3.72176,25.192-3.36266,37.97526a123.25387,123.25387,0,0,0,1.577,16.70351l-1.90238.68a173.78787,173.78787,0,0,1-.709-41.85211,111.7575,111.7575,0,0,1,3.15365-16.02643c-1.30153-.73579-2.36671-.01626-3.43861.07-11.21131.90218-21.13834-5.08588-26.89871-16.01831-6.91635-13.12633-8.1982-27.31411-8.22809-41.77056a15.76839,15.76839,0,0,1,.10925-2.34445c.67288-4.52274.67423-8.16749-5.39518-9.26741-3.74805-.67926-4.96861-4.56794-5.14206-8.25372a68.30393,68.30393,0,0,1,3.32358-23.48418c4.07519-13.19329,9.85836-25.52869,18.76115-36.20194,7.87733-9.44385,17.16654-16.43763,30.25467-16.13867,1.94035.04434,1.4621-1.32515,1.63592-2.25227A168.137,168.137,0,0,1,67.696,228.6017c.77034-2.10336,1.64255-4.17769,2.60086-6.20245,3.46338-7.31765,10.39817-10.36129,18.04538-7.69883,1.97887.689,2.37433.32748,2.69886-1.56232,1.11831-6.51222,2.088-13.04015,2.76532-19.61311.19368-1.87952.00286-3.10369-2.07827-4.24769a13.85556,13.85556,0,0,1-1.57535-23.17507,3.17507,3.17507,0,0,0,1.41822-3.65646c-.41029-1.96327-.40332-4.01032-.73467-5.99477-.19741-1.18224.83891-3.44428-2.18562-2.63284-.77323.20744-.66-1.41613-.7665-2.27618a89.95388,89.95388,0,0,0-3.69112-16.57467,76.08322,76.08322,0,0,0-3.29317,14.1612c-.10738.77514-.12112,1.56336-.23086,2.33807-.10108.71357.139,1.84622-1.05742,1.671-1.03385-.15145-.76238-1.23405-.771-1.96276a16.50713,16.50713,0,0,1,.25671-2.333,87.86317,87.86317,0,0,1,3.45818-15.04767c.32252-1.01628.34626-2.59807,1.68722-2.61,1.62549-.01451,1.51272,1.72126,1.79465,2.82686,1.18887,4.66248,2.28065,9.34973,3.45983,14.24314.58859-2.97226-.2041-5.69765-.4712-8.424-1.38646-14.15221-2.69231-28.30975-1.51771-42.54279.973-11.79061,3.59977-23.05,11.40815-32.45318.88755-1.06884.7088-2.2864.79143-3.49378.57629-8.41987,3.20469-16.03028,9.113-22.23633,8.1369-8.547,19.23717-10.5719,29.80258-5.36313a4.702,4.702,0,0,0,5.173-.18713c12.40119-7.27325,29.02192-2.72068,35.5338,9.62357a7.34018,7.34018,0,0,1,1.167,3.45818c-.20614,3.76146,1.79334,5.55371,4.82433,7.39455A31.81968,31.81968,0,0,1,200.4615,74.9286c.69,3.13616,3.62418,2.95678,5.54691,4.53392-.54365-2.30407-1.17231-4.592-1.614-6.91541-1.06964-5.62662.326-9.56791,4.07178-11.821,3.96279-2.38363,8.89539-1.89386,13.16656,1.35448,3.96124,3.01259,6.36091,7.1658,8.26587,11.63348,3.81975,8.95853,5.664,18.40762,6.68856,28.03066a6.53778,6.53778,0,0,0,2.95248,5.1818c16.76733,11.9453,32.35542,25.17623,44.15381,42.29922,9.72726,14.11721,16.69308,29.53141,19.33634,46.50259,2.33748,15.00844-1.685,29.17913-8.14394,42.62637-8.50925,17.71585-20.073,33.00569-37.60071,42.64072-4.671,2.56771-6.82644,4.92017-7.253,10.42316-.69216,8.92915-6.49624,13.53959-17.08413,15.77972-12.34769,2.61245-24.60417,2.86934-36.26188-.8818,2.32011,6.49106,4.80951,13.126,7.04041,19.84686,1.00262,3.02042,2.75464,4.4834,5.80454,5.62792,28.2194,10.58954,45.68039,30.97222,53.65734,59.79852.19645.71-.04627,1.64005.93994,1.979ZM177.11328,158.13465c-6.08666,1.62445-11.63845.62259-17.09454-1.11208-5.87846-1.86892-11.676-3.99692-17.57456-5.79675-6.88932-2.10215-13.87709-3.72325-21.16545-2.25157-.99556.201-2.4693-.13537-2.084,1.762.13108.64559.24946,1.50843-.62478,1.64673-1.11028.17565-1.13253-.918-1.30326-1.598-1.26969-5.05694.20513-9.5089,3.11877-13.62014.33576-.47377.754-.951,1.36937-.63129.88808.46144.42433,1.14136.07007,1.6818a17.00252,17.00252,0,0,0-3.00235,7.05371c-.20019,1.48688-.17371,2.43581,1.81041,1.9858,6.65473-1.50935,13.17683-.44831,19.5591,1.45325,7.62836,2.27282,15.15245,4.89457,22.7747,7.18919,4.21647,1.26935,8.54238,1.79387,12.924.53175a2.962,2.962,0,0,0,2.49187-3.02988c.296-4.76653-1.50583-8.75088-4.25064-12.44245a2.03518,2.03518,0,0,0-1.6718-.9272c-5.36443-.18089-9.81677-2.94311-14.43719-5.2007-9.26749-4.52813-18.33971-9.81026-29.35758-7.179-.54378.12987-1.18441.15393-1.34939-.55284-.16853-.722.459-.95784.98267-1.10528a23.113,23.113,0,0,1,2.93834-.67571c5.73556-.82875,11.19863.40018,16.38837,2.66036,5.96165,2.59638,11.72048,5.65666,17.66929,8.28483,8.44882,3.73267,10.68116,2.71337,13.95506-5.929.24146-.63742.3678-1.49382,1.20326-1.30638,1.11176.24943.76014,1.26176.551,1.954-.62733,2.07647-1.36244,4.12036-2.08246,6.25691,4.11214.94333,7.9909,1.17727,11.46909-1.30035,1.30332-.92837,3.0629-2.0102,2.36435-4.01457-1.15657-3.31839-1.31691-6.81517-2.15976-10.184-1.66021-6.63586-5.74647-11.783-9.92781-16.95556-4.43947-5.49188-3.754-10.87143,1.84821-15.09646,1.28138-.96637,1.02092-1.58363.65789-2.69841-1.32537-4.06982-.1505-7.51716,2.9202-10.3371a8.99624,8.99624,0,0,1,9.98112-1.79781c.78167.2994,1.54878.96049,2.69462.40631-.1309-.49933-.23855-1.013-.39965-1.50932-3.88913-11.98094-12.42863-19.14581-24.05261-22.99344-11.87433-3.93049-23.99613-3.859-36.2189-2.00423C129.959,49.987,128.87475,51.03,128.50913,59.25853a49.907,49.907,0,0,0,.49934,6.00608c.0967,1.23987,1.64337,3.23659.25582,3.51345-1.96251.39159-1.748-2.12554-2.08914-3.51467A23.68746,23.68746,0,0,1,127.5354,53.624c.20387-.80131.90632-1.57882.16792-2.75216-7.14,1.82812-14.10843,4.15551-20.25235,8.50524-6.68505,4.73282-7.26919,7.59469-3.1099,14.78514.39281.67908,1.74229,1.37848.67138,2.19159-1.19189.905-1.69373-.55093-2.25868-1.26609-1.72495-2.1835-1.87722-5.10525-3.184-7.625a10.39536,10.39536,0,0,0-2.99361,3.88312c-4.06047,6.90092-5.93893,14.48942-6.845,22.35308-1.8908,16.41066-.13894,32.70782,1.4519,49.18928,1.48562-.69793,1.66423-2.03136,2.21836-3.07665,1.57625-2.97327,3.10218-5.97319,4.66347-8.95448.31012-.59217.67434-1.33557,1.45343-1.16308.789.17471.80923,1.02092.81091,1.67743.00667,2.57423.04086,5.15265-.08633,7.722-.21031,4.24778-.51144,8.49178-.83835,12.73244-.06344.82315.04281,2.15223-1.16793,2.06925-1.40725-.09645-.70594-1.40433-.66-2.15989.23094-3.79935.62584-7.58952.81463-11.39029.077-1.54973.63456-3.21752-.58171-5.17164-2.34124,4.88177-5.61178,9.03385-5.77041,14.18314-.12627,4.09825.85879,8.22746,1.301,12.34823.16782,1.56394.51942,2.29228,2.46964,1.91037a13.55819,13.55819,0,0,1,11.0614,2.8392c.58988.44673,1.95918.867,1.05975,1.99089-.66272.828-1.40552-.02445-2.00944-.45342a13.72075,13.72075,0,0,0-7.81639-2.72208A11.25281,11.25281,0,0,0,87.322,172.884a12.33126,12.33126,0,0,0,4.39319,14.36581c3.82182,2.63487,6.59525,2.30187,11.26482-1.397.486-.385,1.02495-.681,1.46072-.24782.44181.43925.10467,1.045-.1756,1.54266a6.74088,6.74088,0,0,1-6.04789,3.66184c-2.21941-.00947-2.50245.94082-2.67023,2.76491-1.152,12.52419-3.08856,24.91884-6.93774,36.92939-.62073,1.93681.37063,2.29534,1.61589,2.93276a110.04788,110.04788,0,0,0,22.96638,8.56733c.68064.17422,1.47443.73086,2.2167-.07689-4.93069-14.095-2.71445-27.44142,4.87278-39.94431,7.395-12.18609,17.931-20.26841,32.33565-22.36156,7.18132-1.04351,14.28676.51319,21.36559,1.63454,6.42268,1.01741,12.83353,2.06066,19.37788,1.19245a26.45656,26.45656,0,0,0,7.08783-2.03583,8.62894,8.62894,0,0,0,5.18747-8.61536c-.27382-3.53738-2.31262-5.81581-6.41161-6.74719-5.6125-1.27528-11.41367-.5344-17.05123-1.33652-3.75828-.53472-6.88712-.52656-9.35605,2.89288-.80143,1.11-2.29614,1.76115-3.5525,2.48557-.79367.45763-1.94895,1.45368-2.569.15178-.437-.91748.86034-1.348,1.63141-1.77537A19.4383,19.4383,0,0,0,177.11328,158.13465Zm39.566,65.34561c.65381.52034,1.06519.87016,1.49886,1.18963,17.1802,12.6561,27.16416,29.78613,31.19924,50.52763,1.52767,7.85283,1.38271,7.91778,8.393,3.638,15.30414-9.34318,26.05486-22.786,34.125-38.50283,7.03334-13.69761,11.5346-28.203,9.38251-43.72075-2.28285-16.46072-9.08579-31.36649-18.31867-45.13221-11.93162-17.78931-27.9347-31.39275-45.27906-43.55253a5.966,5.966,0,0,1-2.82166-4.85139,100.15269,100.15269,0,0,0-4.89441-23.991c-2.09267-6.0618-4.49943-12.05379-10.039-15.94721-3.24047-2.2775-6.87745-2.98156-10.45693-.94583-3.53895,2.01266-3.79338,5.48985-3.37542,9.13954a22.25885,22.25885,0,0,0,8.83157,15.94941c1.02735.78182,3.16289,2.132,2.11619,3.21729-1.39936,1.451-2.30644-.9796-3.20121-1.8415-5.63792-5.43058-11.75689-10.07772-19.37856-12.33813-5.54255-1.64378-11.1297,3.6632-9.757,9.17642a3.75144,3.75144,0,0,0,3.54588,3.28737,17.16855,17.16855,0,0,1,13.0378,9.033c.44122.78666,1.36447,2.057.20734,2.65742-1.36622.70892-1.434-.97159-1.84567-1.7397a15.95245,15.95245,0,0,0-10.99373-8.107,6.47385,6.47385,0,0,0-7.56148,2.9872c-1.75133,2.79343-2.04456,5.71066-.10651,8.53092,1.20244,1.74983,2.58573,3.38082,3.95086,5.01243,4.49414,5.37134,7.53847,11.42041,8.30076,18.43093a18.52344,18.52344,0,0,0,6.87388,12.62916c6.93292,5.85056,13.76508,11.79609,19.7428,18.68355,9.85423,11.354,17.57042,23.7178,20.14729,38.86739a10.48906,10.48906,0,0,1-2.6177,9.49885A110.7592,110.7592,0,0,1,216.6793,223.48026ZM23.23283,386.28631a54.58616,54.58616,0,0,0,4.28525,9.49894c6.8897,11.77609,18.73178,16.43934,30.95994,12.10463a73.995,73.995,0,0,0,15.38359-7.50375c18.01894-11.594,30.55238-27.73762,39.1042-47.17185,1.317-2.993,1.23831-3.00809,3.5762-2.20164.26512.09145.65405-.10774.96467-.22675,4.85186-1.8588,9.4061-4.21508,13.07775-7.99554.51122-.52637,1.26047-1.02266.95568-1.969-.221-.68612-1.966-1.05017-.60348-2.02078.84081-.599,1.66437.35226,2.419.75076,3.97935,2.10119,7.94616,4.15987,12.63714,4.13868a7.09586,7.09586,0,0,0,6.93-4.39522c3.769-8.09236.22632-15.0024-8.45932-16.54091-.33054-.05859-.67217-.05863-1.00023-.12657-1.31716-.27274-2.3288-.91887-2.40217-2.38895a2.92724,2.92724,0,0,1,1.79439-2.95877c2.218-1.10428,4.40444-.65921,6.52155.14563,2.82254,1.073,5.50071,2.58592,8.381,3.434,5.54877,1.63383,9.75466-1.11823,10.95917-6.78409a10.9786,10.9786,0,0,0-4.62688-12.05214c-4.22227-3.08212-9.036-4.93452-13.8418-6.82383-.73481-.28888-2.09684-.33446-1.56773-1.63.41353-1.01247,1.38824-.341,2.05927-.09035,5.57751,2.08381,11.1892,4.17191,15.72678,8.18052,1.43455,1.26731,2.15733,1.00543,3.22951-.22456,2.409-2.76359,2.60437-6.69678.28913-10.306-3.09368-4.82271-7.64468-7.84019-12.87407-9.8389-13.68044-5.22875-26.50088-2.24588-38.68461,4.62658-13.74742,7.75446-25.50829,18.15322-37.03345,28.80083C73.49363,322.01551,66.003,329.72843,58.707,337.63c-.62082.67234-1.33408,1.96745-2.31345.96321-.76765-.78714.41661-1.548.98744-2.17281,1.96466-2.15026,3.86822-4.3682,5.96984-6.37756,1.60691-1.53642,1.05564-2.35815-.55924-3.21168a23.7035,23.7035,0,0,0-9.6935-2.50531c-10.46392-.68887-20.48784,1.48954-30.378,4.61937a3.06152,3.06152,0,0,0-2.37376,3.13066c-.2508,3.23655-.8032,6.44971-1.05464,9.68623C18.12174,356.82087,18.30143,371.7687,23.23283,386.28631ZM144.75494,183.606a42.38224,42.38224,0,0,0-21.69736,17.58687c-7.7718,12.0576-10.82626,24.98587-6.01808,39.07867.68035,1.99411,1.59817,3.18055,3.87982,3.40426a62.76884,62.76884,0,0,1,10.49029,2.3,10.22476,10.22476,0,0,1,7.44258,7.03967c.27942.81667.40855,1.75191,1.53124,1.99174,6.22113,1.32889,12.45579,2.02926,18.46134-.72018,2.22465-1.01847,4.91385-2.65572,4.59022-5.27934-.36771-2.98082,1.00763-2.04134,2.32555-1.72295a12.34075,12.34075,0,0,0,11.1163-2.206,18.475,18.475,0,0,0,6.43846-8.83946c.31244-.96612.63557-2.28061,1.92257-1.13339,2.5478,2.27108,5.62469,2.53454,8.741,2.58646a16.59806,16.59806,0,0,0,13.95567-6.81332c3.119-4.04273,4.53639-8.46886,1.818-13.452-.41394-.75878-.03583-1.96274.01319-2.959.54443-11.06915-2.72426-20.97839-9.02381-29.99762a2.30732,2.30732,0,0,0-3.08766-.98453,31.53374,31.53374,0,0,1-13.63414,1.01641c-6.7844-.78956-13.528-1.92326-20.30545-2.78092C157.32082,180.91233,150.97092,180.92545,144.75494,183.606Zm30.54886,64.76125c1.15008.9607,1.9368,1.72722,2.82742,2.34365,4.89168,3.38578,6.97777,8.02671,7.14349,13.97091.19664,7.05423.1033,14.08188-.3328,21.11532a4.64493,4.64493,0,0,0,.94065,3.73657,44.43828,44.43828,0,0,1,6.77552,10.76241,7.77026,7.77026,0,0,0,5.43173,4.45435c13.67134,4.08065,27.23131,3.203,40.61721-1.18785,5.31244-1.74259,8.34689-5.7977,9.49686-11.26566a26.51,26.51,0,0,0,.51136-7.67472c-1.68655-20.30428-9.40545-37.85419-24.04776-52.17912a45.414,45.414,0,0,0-11.41532-8.54161c-3.81872,12.75251-13.77542,18.131-26.46292,14.43592-1.5432-.44945-2.12727-.18349-2.79841,1.17907A19.98591,19.98591,0,0,1,175.3038,248.36721ZM8.5895,334.80969c1.57782-1.16446,2.91131-2.33323,4.40985-3.22446,9.36251-5.56813,19.74514-7.85,30.40143-8.89619,7.59893-.746,15.284-1.06646,22.0104,3.72287,1.40286.99885,1.74166-.47294,2.33246-1.02769,5.95306-5.5896,11.75965-11.33888,17.81321-16.8158,2.19635-1.98713,3.09713-3.72018,2.45374-6.84427-2.29781-11.15741-4.95906-22.14581-11.82027-31.53181-5.62194-7.69069-12.96215-11.92007-22.85405-10.3526A32.00486,32.00486,0,0,0,35.95521,268.787c-15.61315,15.06232-23.80728,33.90744-27.224,55.02344C8.15522,327.37007,7.49245,331.0552,8.5895,334.80969ZM72.40406,222.71505a5.82821,5.82821,0,0,0-.71708.93487c-4.65429,10.50815-7.4231,21.56429-9.60236,32.80155-.30244,1.55951.34306,1.83466,1.59285,2.1863a23.34477,23.34477,0,0,1,12.9278,9.14392c2.97285,4.20958,6.89837,6.9716,11.26064,9.28441,7.057,3.74151,14.35049,6.82268,22.42994,7.665,3.2301.3367,5.33837-.516,6.22345-3.90424,1.10311-4.22285,2.44616-8.38313,3.68936-12.56928,2.16774-7.29916,4.5321-14.50386,10.27956-20.67252-10.69815-2.33146-21.21827-3.96113-31.07042-8.0278C89.55132,235.48463,79.93776,231.00967,72.40406,222.71505Zm140.83085-69.794c.47864,4.89006.66248,9.63764-2.4419,13.613-1.92605,2.4664-3.62563,4.68631-3.64546,8.12012a7.55649,7.55649,0,0,1-3.72488,6.11624c-1.83489,1.14522-1.5908,1.91189-.48222,3.5362a48.5764,48.5764,0,0,1,8.84364,28.06367,20.2219,20.2219,0,0,0,.95477,7.48185c.82427,2.20993,1.364,2.98358,3.67279,1.4576a93.482,93.482,0,0,0,20.18822-18.02485,7.60863,7.60863,0,0,0,1.623-6.51389C235.64728,178.87421,225.42564,165.376,213.23491,152.92107Zm-73.97948-116.538a22.03879,22.03879,0,0,0-23.89008-.24135c-9.12588,5.74889-12.75674,14.55508-13.97272,25.837,8.0258-7.39558,17.00362-10.59544,26.355-13.00695a2.89563,2.89563,0,0,0,2.21016-1.30384A38.81368,38.81368,0,0,1,139.25542,36.38309Zm54.99986,98.35962c-3.73188,4.79016-8.72118,5.49022-14.18317,4.6705a21.99842,21.99842,0,0,1-2.304-.44347,1.67882,1.67882,0,0,0-1.86189.33356c-.51726.68582.204,1.18538.57775,1.71722,2.72687,3.88011,4.27521,8.11451,3.61237,12.92278-.23931,1.7359.68309,2.08769,2.06776,2.25981a58.80474,58.80474,0,0,0,25.518-2.15116c3.39412-1.08873,3.80488-2.86767,1.4633-5.598a18.77258,18.77258,0,0,0-1.99361-1.78711C202.78077,142.85144,198.0606,139.4194,194.25528,134.74272ZM117.12165,284.48418c5.21375-3.05438,10.56349-4.55171,15.7958-6.38763,2.96654-1.04089,7.58237.59583,8.70075-2.43554,1.00931-2.73582-.66648-6.51373-1.321-9.79963a60.83465,60.83465,0,0,0-4.04523-13.82869c-1.86074-4.02131-3.96841-4.22966-6.544-.72366a32.53741,32.53741,0,0,0-4.92626,9.12536C122.22616,268.288,119.7626,276.17152,117.12165,284.48418Zm44.36377-3.37847a134.305,134.305,0,0,1-.869-15.605c.05875-2.5714.23968-5.14066.26417-7.71186.0088-.92167.11617-2.36329-1.57505-1.6306-6.149,2.664-12.4611,2.07314-18.898.91156,1.14014,6.0936,2.268,12.01339,3.33937,17.94336.20208,1.11857.55339,1.88168,1.841,1.92148C151.02946,277.10277,156.12024,278.72381,161.48542,281.10572Zm17.475-230.66554a11.27118,11.27118,0,0,0-1.06071-6.01443C173.05212,33.676,157.08939,27.741,144.27942,35.27425c-1.5097.88782-.707,1.48629.1472,2.20111a18.44474,18.44474,0,0,1,5.61041,7.00321,1.833,1.833,0,0,0,2.05207,1.24252A69.40137,69.40137,0,0,1,178.96037,50.44017ZM113.41975,286.71985c-12.0569-.52372-21.60168-5.3021-31.77818-10.99109,5.005,9.39171,6.68062,18.80947,8.75277,28.4183A209.09134,209.09134,0,0,1,113.41975,286.71985Zm69.65809-.66807c.41537-6.31421.63516-12.191.4461-18.0789-.10384-3.23375-.14984-6.47927-1.21631-9.59027-.47184-1.37645-.86652-2.95661-2.59241-3.16822-1.59385-.19543-2.296,1.21317-3.00217,2.313a95.62054,95.62054,0,0,0-7.85012,16.276c-.37.921-.54834,1.59542.51009,2.20171A73.96218,73.96218,0,0,1,183.07785,286.05179Zm-19.75873-4.75228.835.156c.55229-1.53343,1.04719-3.09048,1.66647-4.59635,3.26219-7.9324,5.6215-16.32657,11.62276-22.87128.25266-.27549.54412-.5236.28078-1.11528-1.04426-2.3464-10.711-5.0477-11.98053-2.99328-1.38135,2.23532-4.3009,4.0444-3.1321,7.55485.43281,1.3.11079,2.87769.01886,4.32147A127.23162,127.23162,0,0,0,163.31912,281.2995Zm16.51954-123.60958a4.19124,4.19124,0,0,0-1.648,2.835c-.32537,1.49531,1.15313,1.08525,1.83267,1.13774,5.894.45534,11.80169.73865,17.69312,1.22146,3.208.26289,6.16262,1.38989,8.14433,4.07851.87058,1.18113,1.343,1.14368,2.24348.16088,2.84231-3.102,3.67718-6.79543,3.37924-10.86165-.10451-1.42639-.7455-1.58765-1.99853-1.09785-9.18064,3.58867-18.68584,4.00267-28.34466,2.77633C180.70323,157.8848,180.273,157.77476,179.83866,157.68992ZM90.01931,217.69732c-.5436-.38378-.96487-.73578-1.43412-1.00374-3.346-1.9106-10.91274-.942-13.64741,1.71153-1.34514,1.30525-1.51923,2.52389-.1986,4.05255a34.41715,34.41715,0,0,0,6.00056,5.30709c5.72238,4.14034,5.74531,4.12221,7.58807-2.52492.38755-1.398.70783-2.81545,1.02759-4.23106C89.5975,219.937,89.78945,218.85382,90.01931,217.69732ZM148.41947,45.731c-1.20339-3.496-3.60037-5.48449-5.947-7.51261a1.46275,1.46275,0,0,0-2.0874-.2064A29.67655,29.67655,0,0,0,132.04,47.97215,119.9199,119.9199,0,0,1,148.41947,45.731ZM18.48085,331.4826a13.24148,13.24148,0,0,0-7.85819,4.2912c-1.244,1.27648-1.29342,2.59643.29083,3.64788,1.91806,1.273,3.88167,2.52145,6.35966,1.96826.15269-.03408.23282-.5965.268-.92163C17.85034,337.61109,18.14164,334.7519,18.48085,331.4826Z" style="fill: #18180e;stroke: #1d1d1b;stroke-miterlimit: 10;stroke-width: 1.4173228740692139px"/>
        <path d="M177.11328,158.13465a19.4383,19.4383,0,0,1-8.78687,9.33334c-.77107.42737-2.0684.85789-1.63141,1.77537.62008,1.30191,1.77535.30586,2.569-.15178,1.25636-.72442,2.75107-1.37561,3.5525-2.48557,2.46893-3.41944,5.59777-3.4276,9.35605-2.89288,5.63757.80212,11.43874.06123,17.05123,1.33652,4.099.93138,6.13779,3.20981,6.41161,6.74719a8.62894,8.62894,0,0,1-5.18747,8.61536,26.45656,26.45656,0,0,1-7.08783,2.03583c-6.54435.86821-12.9552-.175-19.37788-1.19245-7.07883-1.12135-14.18427-2.67805-21.36559-1.63454C138.212,181.71421,127.676,189.79653,120.281,201.98262c-7.58723,12.50289-9.80347,25.84933-4.87278,39.94431-.74227.80776-1.53606.25111-2.2167.07689a110.04788,110.04788,0,0,1-22.96638-8.56733c-1.24525-.63742-2.23661-.99595-1.61589-2.93276,3.84918-12.01054,5.7857-24.4052,6.93774-36.92939.16778-1.82409.45081-2.77438,2.67023-2.76491a6.74088,6.74088,0,0,0,6.04789-3.66184c.28027-.49769.61741-1.1034.1756-1.54266-.43577-.43322-.97469-.13718-1.46072.24782-4.66957,3.69891-7.443,4.03191-11.26482,1.397A12.33126,12.33126,0,0,1,87.322,172.884a11.25281,11.25281,0,0,1,10.78309-7.61437,13.72075,13.72075,0,0,1,7.81639,2.72208c.60391.429,1.34672,1.28145,2.00944.45342.89943-1.12384-.46987-1.54416-1.05975-1.99089a13.55819,13.55819,0,0,0-11.0614-2.8392c-1.95022.3819-2.30182-.34644-2.46964-1.91037-.44217-4.12077-1.42722-8.25-1.301-12.34823.15862-5.14929,3.42916-9.30137,5.77041-14.18314,1.21627,1.95412.65871,3.62191.58171,5.17164-.18879,3.80077-.58369,7.59094-.81463,11.39029-.04594.75556-.74724,2.06344.66,2.15989,1.21073.083,1.10449-1.24609,1.16793-2.06925.32691-4.24066.628-8.48466.83835-12.73244.12719-2.56938.093-5.1478.08633-7.722-.00168-.65651-.02191-1.50272-.81091-1.67743-.77909-.17249-1.14331.57091-1.45343,1.16308-1.56129,2.98128-3.08722,5.9812-4.66347,8.95448-.55414,1.04529-.73274,2.37872-2.21836,3.07665-1.59084-16.48147-3.3427-32.77862-1.4519-49.18928.906-7.86366,2.78449-15.45216,6.845-22.35308a10.39536,10.39536,0,0,1,2.99361-3.88312c1.30678,2.5198,1.45906,5.44154,3.184,7.625.565.71516,1.06679,2.17106,2.25868,1.26609,1.07091-.81311-.27857-1.51252-.67138-2.19159-4.1593-7.19045-3.57516-10.05232,3.1099-14.78514,6.14392-4.34972,13.11235-6.67711,20.25235-8.50524.73839,1.17334.03595,1.95084-.16792,2.75216a23.68746,23.68746,0,0,0-.36024,11.63938c.34111,1.38913.12663,3.90626,2.08914,3.51467,1.38755-.27686-.15912-2.27359-.25582-3.51345a49.907,49.907,0,0,1-.49934-6.00608c.36562-8.22852,1.4499-9.27153,9.58913-10.50667,12.22277-1.85482,24.34457-1.92626,36.2189,2.00423,11.624,3.84762,20.16349,11.0125,24.05261,22.99344.1611.49632.26875,1.01.39965,1.50932-1.14585.55417-1.913-.10691-2.69462-.40631a8.99624,8.99624,0,0,0-9.98112,1.79781c-3.0707,2.81994-4.24557,6.26728-2.9202,10.3371.363,1.11478.62349,1.732-.65789,2.69841-5.60222,4.225-6.28768,9.60458-1.84821,15.09646,4.18135,5.17258,8.2676,10.3197,9.92781,16.95556.84285,3.3688,1.00319,6.86558,2.15976,10.184.69855,2.00437-1.061,3.0862-2.36435,4.01457-3.47819,2.47762-7.35694,2.24368-11.46909,1.30035.72-2.13655,1.45513-4.18044,2.08246-6.25691.20913-.69222.56075-1.70455-.551-1.954-.83546-.18744-.96181.669-1.20326,1.30638-3.2739,8.64236-5.50624,9.66165-13.95506,5.929-5.94881-2.62817-11.70764-5.68845-17.66929-8.28483-5.18974-2.26018-10.6528-3.48911-16.38837-2.66036a23.113,23.113,0,0,0-2.93834.67571c-.52368.14744-1.1512.38325-.98267,1.10528.165.70677.80561.68271,1.34939.55284,11.01787-2.6313,20.09009,2.65082,29.35758,7.179,4.62042,2.25759,9.07276,5.0198,14.43719,5.2007a2.03518,2.03518,0,0,1,1.6718.9272c2.74481,3.69157,4.54662,7.67593,4.25064,12.44245a2.962,2.962,0,0,1-2.49187,3.02988c-4.38159,1.26211-8.7075.7376-12.924-.53175-7.62225-2.29462-15.14634-4.91638-22.7747-7.18919-6.38226-1.90156-12.90436-2.9626-19.5591-1.45325-1.98412.45-2.0106-.49892-1.81041-1.9858a17.00252,17.00252,0,0,1,3.00235-7.05371c.35425-.54043.818-1.22036-.07007-1.6818-.61533-.31975-1.03361.15752-1.36937.63129-2.91364,4.11125-4.38846,8.56321-3.11877,13.62014.17073.67995.193,1.7736,1.30326,1.598.87424-.1383.75586-1.00113.62478-1.64673-.38527-1.89735,1.08848-1.561,2.084-1.762,7.28836-1.47168,14.27613.14942,21.16545,2.25157,5.89853,1.79984,11.6961,3.92783,17.57456,5.79675C165.47484,158.75724,171.02662,159.7591,177.11328,158.13465ZM96.29544,177.80288c.569,1.19705.49028,2.7974,1.99188,2.57811,1.07522-.157.43756-1.244.27418-1.95323-.34-1.47583-1.78037-3.52189-.49833-4.3202,1.69978-1.05843,2.56708,1.46153,3.83013,2.38139.44288.32251.84514.86272,1.43012.42163.55928-.42172.26335-.96853.016-1.47463-1.08122-2.21271-6.21281-5.10842-8.74262-4.97149-.60818.03291-1.20213.12347-1.301.74834-.10546.66662.49012,1.00988,1.0594,1.02226,1.92915.04191,1.57516,1.26515,1.5287,2.5377A15.7662,15.7662,0,0,0,96.29544,177.80288Z" style="fill: #e6e6e6;stroke: #1d1d1b;stroke-miterlimit: 10;stroke-width: 1.4173228740692139px"/>
        <path d="M216.6793,223.48026a110.7592,110.7592,0,0,0,20.7059-18.2139,10.48906,10.48906,0,0,0,2.6177-9.49885c-2.57687-15.14959-10.29306-27.51344-20.14729-38.86739-5.97773-6.88746-12.80989-12.833-19.7428-18.68355a18.52344,18.52344,0,0,1-6.87388-12.62916c-.76229-7.01052-3.80662-13.05959-8.30076-18.43093-1.36514-1.63161-2.74843-3.26261-3.95086-5.01243-1.93805-2.82026-1.64482-5.73749.10651-8.53092a6.47385,6.47385,0,0,1,7.56148-2.9872,15.95245,15.95245,0,0,1,10.99373,8.107c.41171.76811.47945,2.44862,1.84567,1.7397,1.15713-.60045.23388-1.87076-.20734-2.65742a17.16855,17.16855,0,0,0-13.0378-9.033,3.75144,3.75144,0,0,1-3.54588-3.28737c-1.37265-5.51322,4.2145-10.8202,9.757-9.17642,7.62167,2.26041,13.74065,6.90755,19.37856,12.33813.89477.8619,1.80185,3.2925,3.20121,1.8415,1.0467-1.08534-1.08884-2.43547-2.11619-3.21729a22.25885,22.25885,0,0,1-8.83157-15.94941c-.418-3.64969-.16353-7.12688,3.37542-9.13954,3.57948-2.03573,7.21647-1.33167,10.45693.94583,5.5396,3.89342,7.94636,9.88541,10.039,15.94721a100.15269,100.15269,0,0,1,4.89441,23.991,5.966,5.966,0,0,0,2.82166,4.85139c17.34436,12.15978,33.34744,25.76322,45.27906,43.55253,9.23288,13.76572,16.03582,28.67149,18.31867,45.13221,2.15209,15.51776-2.34917,30.02314-9.38251,43.72075-8.07018,15.71687-18.8209,29.15965-34.125,38.50283-7.01026,4.27977-6.86529,4.21482-8.393-3.638-4.03509-20.74151-14.019-37.87153-31.19924-50.52763C217.74448,224.35042,217.33311,224.0006,216.6793,223.48026Z" style="fill: #e6e6e6;stroke: #1d1d1b;stroke-miterlimit: 10;stroke-width: 1.4173228740692139px"/>
        <path d="M23.23283,386.28631c-4.93139-14.51761-5.11108-29.46544-3.94109-44.52423.25145-3.23652.80384-6.44968,1.05464-9.68623a3.06152,3.06152,0,0,1,2.37376-3.13066c9.89014-3.12983,19.91406-5.30824,30.378-4.61937a23.7035,23.7035,0,0,1,9.6935,2.50531c1.61488.85353,2.16615,1.67526.55924,3.21168-2.10162,2.00936-4.00518,4.2273-5.96984,6.37756-.57083.62478-1.75509,1.38568-.98744,2.17281.97937,1.00423,1.69263-.29088,2.31345-.96321,7.296-7.90154,14.7866-15.61446,22.68633-22.91267,11.52516-10.64761,23.286-21.04637,37.03345-28.80083,12.18373-6.87246,25.00417-9.85533,38.68461-4.62658,5.22939,1.99871,9.78039,5.01619,12.87407,9.8389,2.31524,3.60921,2.11992,7.5424-.28913,10.306-1.07218,1.23-1.795,1.49188-3.22951.22456-4.53758-4.00861-10.14927-6.0967-15.72678-8.18052-.671-.2507-1.64574-.92212-2.05927.09035-.52911,1.29551.83292,1.34108,1.56773,1.63,4.80579,1.88931,9.61953,3.74172,13.8418,6.82383a10.9786,10.9786,0,0,1,4.62688,12.05214c-1.20451,5.66586-5.4104,8.41792-10.95917,6.78409-2.88029-.84809-5.55846-2.361-8.381-3.434-2.11711-.80484-4.30355-1.24991-6.52155-.14563a2.92724,2.92724,0,0,0-1.79439,2.95877c.07337,1.47008,1.085,2.11621,2.40217,2.38895.32806.06794.66969.068,1.00023.12657,8.68564,1.53852,12.2283,8.44856,8.45932,16.54091a7.09586,7.09586,0,0,1-6.93,4.39522c-4.691.02119-8.65779-2.03749-12.63714-4.13868-.75467-.3985-1.57822-1.34972-2.419-.75076-1.36255.9706.38251,1.33466.60348,2.02078.30479.94636-.44446,1.44264-.95568,1.969-3.67165,3.78046-8.22589,6.13674-13.07775,7.99554-.31061.119-.69955.3182-.96467.22675-2.33789-.80646-2.25918-.79138-3.5762,2.20164-8.55182,19.43422-21.08526,35.57788-39.1042,47.17185A73.995,73.995,0,0,1,58.478,407.88988c-12.22816,4.33471-24.07024-.32854-30.95994-12.10463A54.58616,54.58616,0,0,1,23.23283,386.28631Z" style="fill: #e6e6e6;stroke: #1d1d1b;stroke-miterlimit: 10;stroke-width: 1.4173228740692139px"/>
        <path d="M144.75494,183.606c6.216-2.68051,12.56588-2.69363,18.95974-1.88451,6.7774.85766,13.521,1.99136,20.30545,2.78092a31.53374,31.53374,0,0,0,13.63414-1.01641,2.30732,2.30732,0,0,1,3.08766.98453c6.29955,9.01923,9.56825,18.92847,9.02381,29.99762-.049.99622-.42714,2.20017-.01319,2.959,2.71841,4.9831,1.301,9.40923-1.818,13.452a16.59806,16.59806,0,0,1-13.95567,6.81332c-3.11634-.05192-6.19323-.31538-8.741-2.58646-1.287-1.14722-1.61013.16726-1.92257,1.13339a18.475,18.475,0,0,1-6.43846,8.83946,12.34075,12.34075,0,0,1-11.1163,2.206c-1.31792-.31839-2.69326-1.25787-2.32555,1.72295.32362,2.62362-2.36557,4.26087-4.59022,5.27934-6.00555,2.74945-12.2402,2.04907-18.46134.72018-1.12269-.23983-1.25182-1.17507-1.53124-1.99174a10.22476,10.22476,0,0,0-7.44258-7.03967,62.76884,62.76884,0,0,0-10.49029-2.3c-2.28165-.2237-3.19948-1.41015-3.87982-3.40426-4.80818-14.0928-1.75372-27.02107,6.01808-39.07867A42.38224,42.38224,0,0,1,144.75494,183.606Zm23.31322,56.50216c.75155,1.70375,1.95375,3.088,4.06064,2.377,2.04446-.68988,2.43983-2.61372,1.97152-4.45073-.47172-1.85035-1.69734-3.32359-3.9041-2.68257C167.86225,236.02977,167.769,237.9791,168.06815,240.10812Z" style="fill: gray;stroke: #1d1d1b;stroke-miterlimit: 10;stroke-width: 1.4173228740692139px"/>
        <path d="M175.3038,248.36721a19.98591,19.98591,0,0,0,8.687-8.85078c.67114-1.36255,1.2552-1.62852,2.79841-1.17907,12.68749,3.69506,22.6442-1.68341,26.46292-14.43592a45.414,45.414,0,0,1,11.41532,8.54161c14.64232,14.32494,22.36122,31.87484,24.04777,52.17913a26.51,26.51,0,0,1-.51136,7.67472c-1.15,5.468-4.18442,9.52307-9.49686,11.26566-13.3859,4.3908-26.94587,5.2685-40.61721,1.18785a7.77026,7.77026,0,0,1-5.43173-4.45435,44.43828,44.43828,0,0,0-6.77552-10.76241,4.64493,4.64493,0,0,1-.94065-3.73657c.4361-7.03345.52944-14.0611.3328-21.11532-.16573-5.9442-2.25182-10.58514-7.14349-13.97091C177.2406,250.09444,176.45388,249.32791,175.3038,248.36721Z" style="fill: #fff;stroke: #1d1d1b;stroke-miterlimit: 10;stroke-width: 1.4173228740692139px"/>
        <path d="M8.5895,334.80969c-1.09705-3.75449-.43428-7.43963.1417-10.99926,3.41673-21.116,11.61086-39.96112,27.224-55.02344a32.00486,32.00486,0,0,1,17.38106-8.94726c9.89191-1.56746,17.23211,2.66192,22.85405,10.3526,6.86121,9.386,9.52246,20.3744,11.82027,31.53181.6434,3.12409-.25739,4.85714-2.45374,6.84427-6.05356,5.47692-11.86015,11.2262-17.81321,16.8158-.5908.55475-.9296,2.02654-2.33246,1.02769-6.72635-4.78934-14.41147-4.46887-22.0104-3.72287-10.65629,1.04616-21.03892,3.32806-30.40143,8.89619C11.50081,332.47646,10.16733,333.64523,8.5895,334.80969Z" style="fill: #fff;stroke: #1d1d1b;stroke-miterlimit: 10;stroke-width: 1.4173228740692139px"/>
        <path d="M72.40406,222.71505c7.5337,8.29461,17.14726,12.76958,27.01376,16.84218,9.85214,4.06667,20.37227,5.69633,31.07042,8.0278-5.74746,6.16866-8.11182,13.37336-10.27956,20.67252-1.2432,4.18615-2.58625,8.34643-3.68936,12.56928-.88508,3.38825-2.99335,4.24094-6.22345,3.90424-8.07946-.84229-15.37292-3.92346-22.42994-7.665-4.36228-2.31281-8.2878-5.07483-11.26064-9.28441a23.34477,23.34477,0,0,0-12.9278-9.14392c-1.24979-.35165-1.89529-.62679-1.59285-2.1863,2.17925-11.23726,4.94806-22.2934,9.60236-32.80155A5.82821,5.82821,0,0,1,72.40406,222.71505Z" style="fill: #fff;stroke: #1d1d1b;stroke-miterlimit: 10;stroke-width: 1.4173228740692139px"/>
        <path d="M194.25528,134.74272c3.80532,4.67669,8.52549,8.10872,12.89646,11.9241a18.77258,18.77258,0,0,1,1.99361,1.78711c2.34158,2.73036,1.93081,4.50929-1.4633,5.598a58.80474,58.80474,0,0,1-25.518,2.15116c-1.38467-.17212-2.30707-.52391-2.06776-2.25981.66283-4.80827-.88551-9.04267-3.61237-12.92278-.37379-.53183-1.095-1.0314-.57775-1.71722a1.67882,1.67882,0,0,1,1.86189-.33356,21.99842,21.99842,0,0,0,2.304.44347C185.5341,140.23294,190.5234,139.53287,194.25528,134.74272Z" style="fill: #e6e6e6;stroke: #1d1d1b;stroke-miterlimit: 10;stroke-width: 1.4173228740692139px"/>
        <path d="M117.12165,284.48418c2.641-8.31266,5.10451-16.19619,7.66007-24.04979A32.53741,32.53741,0,0,1,129.708,251.309c2.57559-3.506,4.68326-3.29766,6.544.72366a60.83465,60.83465,0,0,1,4.04523,13.82869c.65451,3.2859,2.3303,7.0638,1.321,9.79963-1.11838,3.03137-5.73421,1.39466-8.70075,2.43554C127.68513,279.93248,122.3354,281.4298,117.12165,284.48418Z" style="fill: #fff;stroke: #1d1d1b;stroke-miterlimit: 10;stroke-width: 1.4173228740692139px"/>
        <path d="M161.48542,281.10572c-5.36518-2.3819-10.456-4.00294-15.89742-4.17105-1.28764-.0398-1.63894-.8029-1.841-1.92148-1.07137-5.93-2.19923-11.84976-3.33937-17.94336,6.43687,1.16158,12.749,1.75241,18.898-.91156,1.69122-.73269,1.58385.70893,1.57505,1.6306-.02449,2.5712-.20543,5.14046-.26417,7.71186A134.305,134.305,0,0,0,161.48542,281.10572Z" style="fill: #e6e6e6;stroke: #1d1d1b;stroke-miterlimit: 10;stroke-width: 1.4173228740692139px"/>
        <path d="M113.41975,286.71985a209.09134,209.09134,0,0,0-23.02541,17.42722c-2.07215-9.60883-3.74773-19.02659-8.75277-28.4183C91.81807,281.41775,101.36285,286.19613,113.41975,286.71985Z" style="fill: #fff;stroke: #1d1d1b;stroke-miterlimit: 10;stroke-width: 1.4173228740692139px"/>
        <path d="M183.07785,286.05179A73.96218,73.96218,0,0,0,169.373,276.00511c-1.05843-.60629-.88012-1.28067-.51009-2.20171a95.62054,95.62054,0,0,1,7.85012-16.276c.70619-1.09986,1.40832-2.50845,3.00217-2.313,1.72589.21161,2.12056,1.79177,2.59241,3.16822,1.06646,3.111,1.11247,6.35652,1.21631,9.59027C183.713,273.8608,183.49322,279.73757,183.07785,286.05179Z" style="fill: #fff;stroke: #1d1d1b;stroke-miterlimit: 10;stroke-width: 1.4173228740692139px"/>
        <path d="M163.31912,281.2995a127.23162,127.23162,0,0,1-.68873-19.54385c.09193-1.44379.41395-3.02149-.01886-4.32147-1.1688-3.51045,1.75075-5.31953,3.1321-7.55485,1.26954-2.05442,10.93626.64689,11.98053,2.99328.26334.59168-.02812.83979-.28078,1.11528-6.00127,6.54471-8.36057,14.93887-11.62276,22.87128-.61928,1.50587-1.11418,3.06291-1.66647,4.59635Z" style="fill: #fff;stroke: #1d1d1b;stroke-miterlimit: 10;stroke-width: 1.4173228740692139px"/>
        <path d="M179.83866,157.68992c.43438.08484.86457.19488,1.30169.25038,9.65882,1.22633,19.164.81233,28.34466-2.77633,1.253-.4898,1.894-.32853,1.99853,1.09785.29794,4.06622-.53693,7.75968-3.37924,10.86165-.9005.9828-1.37291,1.02024-2.24348-.16088-1.9817-2.68862-4.93632-3.81562-8.14433-4.07851-5.89144-.48281-11.79909-.76611-17.69312-1.22146-.67954-.05249-2.158.35757-1.83267-1.13774A4.19124,4.19124,0,0,1,179.83866,157.68992Z" style="fill: #e6e6e6;stroke: #1d1d1b;stroke-miterlimit: 10;stroke-width: 1.4173228740692139px"/>
        <path d="M90.01931,217.69732c-.22986,1.15651-.4218,2.23964-.66391,3.31144-.31976,1.41562-.64,2.8331-1.02759,4.23106-1.84277,6.64713-1.8657,6.66525-7.58807,2.52492a34.41715,34.41715,0,0,1-6.00056-5.30709c-1.32062-1.52866-1.14653-2.74729.1986-4.05255,2.73467-2.65355,10.30144-3.62212,13.64741-1.71153C89.05444,216.96153,89.4757,217.31353,90.01931,217.69732Z" style="fill: #fff;stroke: #1d1d1b;stroke-miterlimit: 10;stroke-width: 1.4173228740692139px"/>
        <path d="M18.48085,331.4826c-.33921,3.26931-.63051,6.1285-.9397,8.98572-.03519.32512-.11532.88755-.268.92163-2.478.55319-4.44159-.69525-6.35966-1.96826-1.58424-1.05146-1.53488-2.37141-.29083-3.64788A13.24148,13.24148,0,0,1,18.48085,331.4826Z" style="fill: #fff;stroke: #1d1d1b;stroke-miterlimit: 10;stroke-width: 1.4173228740692139px"/>
        <path d="M96.29544,177.80288a15.7662,15.7662,0,0,1-.4115-3.03012c.04646-1.27255.40045-2.4958-1.5287-2.5377-.56928-.01238-1.16487-.35564-1.0594-1.02226.09887-.62487.69282-.71543,1.301-.74834,2.52981-.13693,7.6614,2.75879,8.74262,4.97149.24731.5061.54323,1.05291-.016,1.47463-.585.44109-.98723-.09912-1.43012-.42163-1.263-.91985-2.13034-3.43981-3.83013-2.38139-1.282.79831.15833,2.84437.49833,4.3202.16338.70928.801,1.79622-.27418,1.95323C96.78572,180.60027,96.8644,178.99993,96.29544,177.80288Z" style="fill: #18180e;stroke: #1d1d1b;stroke-miterlimit: 10;stroke-width: 1.4173228740692139px"/>
        <path d="M168.06815,240.10812c-.29917-2.129-.2059-4.07835,2.12806-4.75631,2.20677-.641,3.43239.83223,3.9041,2.68257.4683,1.837.07293,3.76086-1.97152,4.45073C170.02191,243.19608,168.81971,241.81187,168.06815,240.10812Z" style="fill: #18180e;stroke: #1d1d1b;stroke-miterlimit: 10;stroke-width: 1.4173228740692139px"/>
      </g>
    </g>
    <path d="M200,8.50393a189.05741,189.05741,0,0,1,74.33105,15.10421A193.445,193.445,0,0,1,376.39185,125.66893a190.4513,190.4513,0,0,1,0,148.66216A193.445,193.445,0,0,1,274.33105,376.39185a190.45154,190.45154,0,0,1-148.66211,0A193.44556,193.44556,0,0,1,23.60815,274.33109a190.4513,190.4513,0,0,1,0-148.66216A193.44559,193.44559,0,0,1,125.66895,23.60814,189.05741,189.05741,0,0,1,200,8.50393M200,0C90,0,0,90,0,200S90,400,200,400s200-90,200-200S310,0,200,0Z"/>
  </g>
</svg>
