<svg xmlns="http://www.w3.org/2000/svg" xmlns:xlink="http://www.w3.org/1999/xlink" width="400" height="400" viewBox="0 0 400 400">
  <defs>
    <clipPath id="a">
      <circle cx="200" cy="-250" r="200" style="fill: none"/>
    </clipPath>
    <clipPath id="b">
      <circle cx="-250" cy="200" r="200" style="fill: none"/>
    </clipPath>
    <clipPath id="c">
      <path d="M200.475,325.11725c-27.59877-.06646-51.01422-9.62577-67.7214-27.64762-17.92226-19.33371-27.61349-48.21293-28.028-83.51386-.49554-42.26613,15.9478-85.59772,42.91231-113.08509,16.22825-16.543,34.80339-25.76314,52.33269-25.98694l.27175-.00881.42027.0029.002.0039c17.57325.1134,36.23637,9.27386,52.56921,25.80718,27.05929,27.39349,43.65016,70.66742,43.30026,112.93456-.29126,35.30193-9.8818,64.21338-27.7376,83.60955-16.6319,18.06689-39.9867,27.70637-67.55424,27.88423l-.344.002-.07527-.27174-.06846.27174-.27755.00581Z" style="fill: #fff;stroke: #1d1d1b;stroke-linecap: round;stroke-linejoin: round;stroke-width: 8.503936767578125px"/>
    </clipPath>
  </defs>
  <title>meme</title>
  <g style="clip-path: url(#a)">
    <g>
      <path d="M261.59182-55.52454,54.86609,18.36564a123.25387,123.25387,0,0,1-1.577-16.70351c-.3591-12.78323.02826-25.50223,3.36266-37.97526.66261-2.47855,1.76651-4.0069,4.34-4.84618a59.75951,59.75951,0,0,0,12.64281-6.18876c18.24354-11.217,31.00441-27.16884,39.9348-46.3855a6.3,6.3,0,0,1,4.19428-3.79961c5.74324-1.79219,10.94914-4.641,14.89436-9.309.99569-1.1781,1.6591-1.058,2.78324-.47417a23.29631,23.29631,0,0,0,9.25767,2.82379c4.09068.25979,7.49523-.93738,9.57139-4.81792,4.7169-8.81622.60381-17.78451-9.07607-19.70687-.32762-.06507-.6728-.05758-.99145-.14833-.50135-.14282-1.17294-.12032-1.15968-.91349a1.28825,1.28825,0,0,1,1.25214-1.32692,7.87516,7.87516,0,0,1,3.96753.39586c2.46921,1.05107,4.87865,2.25772,7.39078,3.18994,8.17224,3.03282,14.67582-1.32617,15.16386-10.04349a12.46848,12.46848,0,0,0-.952-6.23507,1.89316,1.89316,0,0,1,.19731-2.37974c4.86128-6.10424,4.39464-11.17536-1.40691-17.04092-3.39492-3.43238-3.48033-4.7444-.57242-9.04515a51.68336,51.68336,0,0,1,21.35376,20.73784,217.53774,217.53774,0,0,1,12.37506,27.9456c1.4603,3.84441,3.23439,6.11028,7.48144,7.61423,20.93509,7.41338,36.08053,21.62256,45.89813,41.44819C258.20726-68.72951,260.866-62.42135,261.59182-55.52454Z" style="fill: #fff;stroke: #1d1d1b;stroke-miterlimit: 10;stroke-width: 1.4173228740692139px"/>
      <path d="M261.59182-55.52454c-.72577-6.89681-3.38456-13.205-6.4-19.29426-9.8176-19.82563-24.963-34.03481-45.89813-41.44819-4.24705-1.504-6.02115-3.76982-7.48144-7.61423a217.53774,217.53774,0,0,0-12.37506-27.9456,51.68336,51.68336,0,0,0-21.35376-20.73784c-2.90791,4.30075-2.82249,5.61277.57242,9.04515,5.80155,5.86556,6.26819,10.93667,1.40691,17.04092a1.89316,1.89316,0,0,0-.19731,2.37974,12.46848,12.46848,0,0,1,.952,6.23507c-.488,8.71732-6.99162,13.07631-15.16386,10.04349-2.51213-.93222-4.92157-2.13887-7.39078-3.18994a7.87516,7.87516,0,0,0-3.96753-.39586,1.28825,1.28825,0,0,0-1.25214,1.32692c-.01326.79317.65833.77067,1.15968.91349.31864.09075.66383.08326.99145.14833,9.67988,1.92236,13.793,10.89065,9.07607,19.70687-2.07616,3.88054-5.48071,5.07771-9.57139,4.81792a23.29631,23.29631,0,0,1-9.25767-2.82379c-1.12414-.58383-1.78755-.70393-2.78324.47417-3.94522,4.668-9.15111,7.51681-14.89436,9.309a6.3,6.3,0,0,0-4.19428,3.79961C104.639-74.51692,91.87817-58.565,73.63462-47.34808a59.75951,59.75951,0,0,1-12.64281,6.18876c-2.57352.83928-3.67741,2.36762-4.34,4.84618C53.31738-23.8401,52.93-11.1211,53.28912,1.66213a123.25387,123.25387,0,0,0,1.577,16.70351l-1.90238.68a173.78787,173.78787,0,0,1-.709-41.85211,111.7575,111.7575,0,0,1,3.15365-16.02643c-1.30153-.73579-2.36671-.01626-3.43861.07C40.75845-37.86074,30.83142-43.8488,25.071-54.78123,18.1547-67.90757,16.87285-82.09534,16.843-96.55179a15.76839,15.76839,0,0,1,.10925-2.34445c.67288-4.52274.67423-8.16749-5.39518-9.26741-3.74805-.67926-4.96861-4.56794-5.14206-8.25372a68.30393,68.30393,0,0,1,3.32358-23.48418c4.07519-13.19329,9.85836-25.52869,18.76115-36.20194,7.87733-9.44385,17.16654-16.43763,30.25467-16.13867,1.94035.04434,1.4621-1.32515,1.63592-2.25227A168.137,168.137,0,0,1,67.696-221.3983c.77034-2.10336,1.64255-4.17769,2.60086-6.20245,3.46338-7.31765,10.39817-10.36129,18.04538-7.69883,1.97887.689,2.37433.32748,2.69886-1.56232,1.11831-6.51222,2.088-13.04015,2.76532-19.61311.19368-1.87952.00286-3.10369-2.07827-4.24769a13.85556,13.85556,0,0,1-1.57535-23.17507,3.17507,3.17507,0,0,0,1.41822-3.65646c-.41029-1.96327-.40332-4.01032-.73467-5.99477-.19741-1.18224.83891-3.44428-2.18562-2.63284-.77323.20744-.66-1.41613-.7665-2.27618a89.95388,89.95388,0,0,0-3.69112-16.57467,76.08322,76.08322,0,0,0-3.29317,14.1612c-.10738.77514-.12112,1.56336-.23086,2.33807-.10108.71357.139,1.84622-1.05742,1.671-1.03385-.15145-.76238-1.23405-.771-1.96276a16.50713,16.50713,0,0,1,.25671-2.333,87.86317,87.86317,0,0,1,3.45818-15.04767c.32252-1.01628.34626-2.59807,1.68722-2.61,1.62549-.01451,1.51272,1.72126,1.79465,2.82686,1.18887,4.66248,2.28065,9.34973,3.45983,14.24314.58859-2.97226-.2041-5.69765-.4712-8.424-1.38646-14.15221-2.69231-28.30975-1.51771-42.54279.973-11.79061,3.59977-23.05,11.40815-32.45318.88755-1.06884.7088-2.2864.79143-3.49378.57629-8.41987,3.20469-16.03028,9.113-22.23633,8.1369-8.547,19.23717-10.5719,29.80258-5.36313a4.702,4.702,0,0,0,5.173-.18713c12.40119-7.27325,29.02192-2.72068,35.5338,9.62357a7.34018,7.34018,0,0,1,1.167,3.45819c-.20614,3.76146,1.79334,5.55371,4.82433,7.39455a31.81968,31.81968,0,0,1,15.13994,20.8985c.69,3.13616,3.62418,2.95678,5.54691,4.53392-.54365-2.30407-1.17231-4.592-1.614-6.91541-1.06964-5.62662.326-9.56791,4.07178-11.821,3.96279-2.38363,8.89539-1.89386,13.16656,1.35448,3.96124,3.01259,6.36091,7.1658,8.26587,11.63348,3.81975,8.95853,5.664,18.40762,6.68856,28.03066a6.53778,6.53778,0,0,0,2.95248,5.1818c16.76733,11.9453,32.35542,25.17623,44.15381,42.29922,9.72726,14.11721,16.69308,29.53141,19.33634,46.50259,2.33748,15.00844-1.685,29.17913-8.14394,42.62637-8.50925,17.71585-20.073,33.00569-37.60071,42.64072-4.671,2.56771-6.82644,4.92017-7.253,10.42316-.69216,8.92915-6.49624,13.53959-17.08413,15.77972-12.34769,2.61245-24.60417,2.86934-36.26188-.8818,2.32011,6.49106,4.80951,13.126,7.04041,19.84686,1.00262,3.02042,2.75464,4.4834,5.80454,5.62792,28.2194,10.58954,45.68039,30.97222,53.65734,59.79852.19645.71-.04627,1.64005.93994,1.979ZM177.11328-291.86535c-6.08666,1.62445-11.63845.62259-17.09454-1.11208-5.87846-1.86892-11.676-3.99692-17.57456-5.79675-6.88932-2.10215-13.87709-3.72325-21.16545-2.25157-.99556.201-2.4693-.13537-2.084,1.762.13108.64559.24946,1.50843-.62478,1.64673-1.11028.17565-1.13253-.918-1.30326-1.598-1.26969-5.05694.20513-9.5089,3.11877-13.62014.33576-.47377.754-.951,1.36937-.63129.88808.46144.42433,1.14136.07007,1.6818a17.00252,17.00252,0,0,0-3.00235,7.05371c-.20019,1.48688-.17371,2.43581,1.81041,1.9858,6.65473-1.50935,13.17683-.44831,19.5591,1.45325,7.62836,2.27282,15.15245,4.89457,22.7747,7.18919,4.21647,1.26935,8.54238,1.79387,12.924.53175a2.962,2.962,0,0,0,2.49187-3.02988c.296-4.76653-1.50583-8.75088-4.25064-12.44245a2.03518,2.03518,0,0,0-1.6718-.9272c-5.36443-.18089-9.81677-2.94311-14.43719-5.2007-9.26749-4.52813-18.33971-9.81026-29.35758-7.179-.54378.12987-1.18441.15393-1.34939-.55284-.16853-.722.459-.95784.98267-1.10528a23.113,23.113,0,0,1,2.93834-.67571c5.73556-.82875,11.19863.40017,16.38837,2.66036,5.96165,2.59638,11.72048,5.65666,17.66929,8.28483,8.44882,3.73267,10.68116,2.71337,13.95506-5.929.24146-.63742.3678-1.49382,1.20326-1.30638,1.11176.24943.76014,1.26176.551,1.954-.62733,2.07647-1.36244,4.12036-2.08246,6.25691,4.11214.94333,7.9909,1.17727,11.46909-1.30035,1.30332-.92837,3.0629-2.0102,2.36435-4.01457-1.15657-3.31839-1.31691-6.81517-2.15976-10.184-1.66021-6.63586-5.74647-11.783-9.92781-16.95556-4.43947-5.49188-3.754-10.87143,1.84821-15.09646,1.28138-.96637,1.02092-1.58363.65789-2.69841-1.32537-4.06982-.1505-7.51716,2.9202-10.3371a8.99624,8.99624,0,0,1,9.98112-1.79781c.78167.2994,1.54878.96049,2.69462.40631-.1309-.49933-.23855-1.013-.39965-1.50932-3.88913-11.98094-12.42863-19.14581-24.05261-22.99344-11.87433-3.93049-23.99613-3.859-36.2189-2.00423-8.13923,1.23514-9.22351,2.27815-9.58913,10.50667a49.907,49.907,0,0,0,.49934,6.00608c.0967,1.23987,1.64337,3.23659.25582,3.51345-1.96251.39159-1.748-2.12554-2.08914-3.51467a23.68746,23.68746,0,0,1,.36024-11.63938c.20387-.80131.90632-1.57882.16792-2.75216-7.14,1.82812-14.10843,4.15551-20.25235,8.50524-6.68505,4.73282-7.26919,7.59469-3.1099,14.78514.39281.67908,1.74229,1.37848.67138,2.19159-1.19189.905-1.69373-.55093-2.25868-1.26609-1.72495-2.1835-1.87722-5.10525-3.184-7.625a10.39536,10.39536,0,0,0-2.99361,3.88312c-4.06047,6.90092-5.93893,14.48942-6.845,22.35308-1.8908,16.41066-.13894,32.70782,1.4519,49.18928,1.48562-.69793,1.66423-2.03136,2.21836-3.07665,1.57625-2.97327,3.10218-5.97319,4.66347-8.95448.31012-.59217.67434-1.33557,1.45343-1.16308.789.17471.80923,1.02092.81091,1.67743.00667,2.57423.04086,5.15265-.08633,7.722-.21031,4.24778-.51144,8.49178-.83835,12.73244-.06344.82315.04281,2.15223-1.16793,2.06925-1.40725-.09645-.70594-1.40433-.66-2.15989.23094-3.79935.62584-7.58952.81463-11.39029.077-1.54973.63456-3.21752-.58171-5.17164-2.34124,4.88177-5.61178,9.03385-5.77041,14.18314-.12627,4.09825.85879,8.22746,1.301,12.34823.16782,1.56394.51942,2.29228,2.46964,1.91037a13.55819,13.55819,0,0,1,11.0614,2.8392c.58988.44673,1.95918.867,1.05975,1.99089-.66272.828-1.40552-.02445-2.00944-.45342a13.72075,13.72075,0,0,0-7.81639-2.72208A11.25281,11.25281,0,0,0,87.322-277.116a12.33126,12.33126,0,0,0,4.39319,14.36581c3.82182,2.63487,6.59525,2.30187,11.26482-1.397.486-.385,1.02495-.681,1.46072-.24782.44181.43925.10467,1.045-.1756,1.54266a6.74088,6.74088,0,0,1-6.04789,3.66184c-2.21941-.00947-2.50245.94082-2.67023,2.76491-1.152,12.52419-3.08856,24.91884-6.93774,36.92939-.62073,1.93681.37063,2.29534,1.61589,2.93276a110.04788,110.04788,0,0,0,22.96638,8.56733c.68064.17422,1.47443.73086,2.2167-.07689-4.93069-14.095-2.71445-27.44142,4.87278-39.94431,7.395-12.18609,17.931-20.26841,32.33565-22.36156,7.18132-1.04351,14.28676.51319,21.36559,1.63454,6.42268,1.01741,12.83353,2.06066,19.37788,1.19245a26.45656,26.45656,0,0,0,7.08783-2.03583,8.62894,8.62894,0,0,0,5.18747-8.61536c-.27382-3.53738-2.31262-5.81581-6.41161-6.74719-5.6125-1.27528-11.41367-.5344-17.05123-1.33652-3.75828-.53472-6.88712-.52656-9.35605,2.89288-.80143,1.11-2.29614,1.76115-3.5525,2.48557-.79367.45763-1.94895,1.45368-2.569.15178-.437-.91748.86034-1.348,1.63141-1.77537A19.4383,19.4383,0,0,0,177.11328-291.86535Zm39.566,65.34561c.65381.52034,1.06519.87016,1.49886,1.18963,17.1802,12.6561,27.16416,29.78613,31.19924,50.52763,1.52767,7.85283,1.38271,7.91778,8.393,3.638,15.30414-9.34318,26.05486-22.786,34.125-38.50283,7.03334-13.69761,11.5346-28.203,9.38251-43.72075-2.28285-16.46072-9.08579-31.36649-18.31867-45.13221-11.93162-17.78931-27.9347-31.39275-45.27906-43.55253a5.966,5.966,0,0,1-2.82166-4.85139,100.15269,100.15269,0,0,0-4.89441-23.991c-2.09267-6.0618-4.49943-12.05379-10.039-15.94721-3.24047-2.2775-6.87745-2.98156-10.45693-.94583-3.53895,2.01266-3.79338,5.48985-3.37542,9.13954a22.25885,22.25885,0,0,0,8.83157,15.94941c1.02735.78182,3.16289,2.132,2.11619,3.21729-1.39936,1.451-2.30644-.9796-3.20121-1.8415-5.63792-5.43058-11.75689-10.07772-19.37856-12.33813-5.54255-1.64378-11.1297,3.6632-9.757,9.17642a3.75144,3.75144,0,0,0,3.54588,3.28737,17.16855,17.16855,0,0,1,13.0378,9.033c.44122.78666,1.36447,2.057.20734,2.65742-1.36622.70892-1.434-.97159-1.84567-1.7397a15.95245,15.95245,0,0,0-10.99373-8.107,6.47385,6.47385,0,0,0-7.56148,2.9872c-1.75133,2.79343-2.04456,5.71066-.10651,8.53092,1.20244,1.74983,2.58573,3.38082,3.95086,5.01243,4.49414,5.37134,7.53847,11.42041,8.30076,18.43093a18.52344,18.52344,0,0,0,6.87388,12.62916c6.93292,5.85056,13.76508,11.79609,19.7428,18.68355,9.85423,11.354,17.57042,23.7178,20.14729,38.86739a10.48906,10.48906,0,0,1-2.6177,9.49885A110.7592,110.7592,0,0,1,216.6793-226.51974ZM23.23283-63.71369a54.58616,54.58616,0,0,0,4.28525,9.49894C34.40778-42.43866,46.24986-37.77541,58.478-42.11012A73.995,73.995,0,0,0,73.8616-49.61387c18.01894-11.594,30.55238-27.73762,39.1042-47.17185,1.317-2.993,1.23831-3.00809,3.5762-2.20164.26512.09145.65405-.10774.96467-.22675,4.85186-1.8588,9.4061-4.21508,13.07775-7.99554.51122-.52637,1.26047-1.02266.95568-1.969-.221-.68612-1.966-1.05017-.60348-2.02078.84081-.599,1.66437.35226,2.419.75076,3.97935,2.10119,7.94616,4.15987,12.63714,4.13868a7.09586,7.09586,0,0,0,6.93-4.39522c3.769-8.09236.22632-15.0024-8.45932-16.54091-.33054-.05859-.67217-.05863-1.00023-.12657-1.31716-.27274-2.3288-.91887-2.40217-2.38895a2.92724,2.92724,0,0,1,1.79439-2.95877c2.218-1.10428,4.40444-.65921,6.52155.14563,2.82254,1.073,5.50071,2.58592,8.381,3.434,5.54877,1.63383,9.75466-1.11823,10.95917-6.78409a10.9786,10.9786,0,0,0-4.62688-12.05214c-4.22227-3.08212-9.036-4.93452-13.8418-6.82383-.73481-.28888-2.09684-.33446-1.56773-1.63.41353-1.01247,1.38824-.341,2.05927-.09035,5.57751,2.08381,11.1892,4.17191,15.72678,8.18052,1.43455,1.26731,2.15733,1.00543,3.22951-.22457,2.409-2.76359,2.60437-6.69678.28913-10.306-3.09368-4.82271-7.64468-7.84019-12.87407-9.8389-13.68044-5.22875-26.50088-2.24588-38.68461,4.62658-13.74742,7.75446-25.50829,18.15322-37.03345,28.80083C73.49363-127.98449,66.003-120.27157,58.707-112.37c-.62082.67234-1.33408,1.96745-2.31345.96321-.76765-.78714.41661-1.548.98744-2.17281,1.96466-2.15026,3.86822-4.3682,5.96984-6.37756,1.60691-1.53642,1.05564-2.35815-.55924-3.21168a23.7035,23.7035,0,0,0-9.6935-2.50531c-10.46392-.68887-20.48784,1.48954-30.378,4.61937a3.06152,3.06152,0,0,0-2.37376,3.13066c-.2508,3.23655-.8032,6.44971-1.05464,9.68623C18.12174-93.17913,18.30143-78.2313,23.23283-63.71369ZM144.75494-266.394a42.38224,42.38224,0,0,0-21.69736,17.58687c-7.7718,12.0576-10.82626,24.98587-6.01808,39.07867.68035,1.99411,1.59817,3.18055,3.87982,3.40426a62.76884,62.76884,0,0,1,10.49029,2.3,10.22476,10.22476,0,0,1,7.44258,7.03967c.27942.81667.40855,1.75191,1.53124,1.99174,6.22113,1.32889,12.45579,2.02926,18.46134-.72018,2.22465-1.01847,4.91385-2.65572,4.59022-5.27934-.36771-2.98082,1.00763-2.04134,2.32555-1.72295a12.34075,12.34075,0,0,0,11.1163-2.206,18.475,18.475,0,0,0,6.43846-8.83946c.31244-.96612.63557-2.28061,1.92257-1.13339,2.5478,2.27108,5.62469,2.53454,8.741,2.58646a16.59806,16.59806,0,0,0,13.95567-6.81332c3.119-4.04273,4.53639-8.46886,1.818-13.452-.41394-.75878-.03583-1.96274.01319-2.959.54443-11.06915-2.72426-20.97839-9.02381-29.99762a2.30732,2.30732,0,0,0-3.08766-.98453,31.53374,31.53374,0,0,1-13.63414,1.01641c-6.7844-.78956-13.528-1.92326-20.30545-2.78092C157.32082-269.08767,150.97092-269.07455,144.75494-266.394Zm30.54886,64.76125c1.15008.9607,1.9368,1.72722,2.82742,2.34365,4.89168,3.38578,6.97777,8.02671,7.14349,13.97091.19664,7.05423.1033,14.08188-.3328,21.11532a4.64493,4.64493,0,0,0,.94065,3.73657,44.43828,44.43828,0,0,1,6.77552,10.76241,7.77026,7.77026,0,0,0,5.43173,4.45435c13.67134,4.08065,27.23131,3.203,40.61721-1.18785,5.31244-1.74259,8.34689-5.7977,9.49686-11.26566a26.51,26.51,0,0,0,.51136-7.67472c-1.68655-20.30428-9.40545-37.85419-24.04776-52.17912a45.414,45.414,0,0,0-11.41532-8.54161c-3.81872,12.75251-13.77542,18.131-26.46292,14.43592-1.5432-.44945-2.12727-.18349-2.79841,1.17907A19.98591,19.98591,0,0,1,175.3038-201.63279ZM8.5895-115.19031c1.57782-1.16446,2.91131-2.33323,4.40985-3.22446,9.36251-5.56813,19.74514-7.85,30.40143-8.89619,7.59893-.746,15.284-1.06646,22.0104,3.72287,1.40286.99885,1.74166-.47294,2.33246-1.02769,5.95306-5.5896,11.75965-11.33888,17.81321-16.8158,2.19635-1.98713,3.09713-3.72018,2.45374-6.84427-2.29781-11.15741-4.95906-22.14581-11.82027-31.53181-5.62194-7.69069-12.96215-11.92007-22.85405-10.3526A32.00486,32.00486,0,0,0,35.95521-181.213c-15.61315,15.06232-23.80728,33.90744-27.224,55.02344C8.15522-122.62993,7.49245-118.9448,8.5895-115.19031ZM72.40406-227.28495a5.82821,5.82821,0,0,0-.71708.93487c-4.65429,10.50815-7.4231,21.56429-9.60236,32.80155-.30244,1.55951.34306,1.83466,1.59285,2.1863a23.34477,23.34477,0,0,1,12.9278,9.14392c2.97285,4.20958,6.89837,6.9716,11.26064,9.28441,7.057,3.74151,14.35049,6.82268,22.42994,7.665,3.2301.3367,5.33837-.516,6.22345-3.90424,1.10311-4.22286,2.44616-8.38313,3.68936-12.56928,2.16774-7.29916,4.5321-14.50386,10.27956-20.67252-10.69815-2.33146-21.21827-3.96113-31.07042-8.0278C89.55132-214.51537,79.93776-218.99033,72.40406-227.28495Zm140.83085-69.794c.47864,4.89006.66248,9.63764-2.4419,13.613-1.92605,2.4664-3.62563,4.68631-3.64546,8.12012a7.55649,7.55649,0,0,1-3.72488,6.11624c-1.83489,1.14522-1.5908,1.91189-.48222,3.5362a48.5764,48.5764,0,0,1,8.84364,28.06367,20.2219,20.2219,0,0,0,.95477,7.48185c.82427,2.20993,1.364,2.98358,3.67279,1.4576a93.482,93.482,0,0,0,20.18822-18.02485,7.60863,7.60863,0,0,0,1.623-6.51389C235.64728-271.12579,225.42564-284.624,213.23491-297.07893Zm-73.97948-116.538a22.03879,22.03879,0,0,0-23.89008-.24135c-9.12588,5.74889-12.75674,14.55508-13.97272,25.837,8.0258-7.39558,17.00362-10.59544,26.355-13.00695a2.89563,2.89563,0,0,0,2.21016-1.30384A38.81368,38.81368,0,0,1,139.25542-413.61691Zm54.99986,98.35962c-3.73188,4.79016-8.72118,5.49022-14.18317,4.6705a21.99842,21.99842,0,0,1-2.304-.44347,1.67882,1.67882,0,0,0-1.86189.33356c-.51726.68582.204,1.18538.57775,1.71722,2.72687,3.88011,4.27521,8.11451,3.61237,12.92278-.23931,1.7359.68309,2.08769,2.06776,2.25981a58.80474,58.80474,0,0,0,25.518-2.15116c3.39412-1.08873,3.80488-2.86767,1.4633-5.598a18.77258,18.77258,0,0,0-1.99361-1.78711C202.78077-307.14856,198.0606-310.5806,194.25528-315.25728ZM117.12165-165.51582c5.21375-3.05438,10.56349-4.55171,15.7958-6.38763,2.96654-1.04089,7.58237.59583,8.70075-2.43554,1.00931-2.73582-.66648-6.51373-1.321-9.79963a60.83465,60.83465,0,0,0-4.04523-13.82869c-1.86074-4.02131-3.96841-4.22966-6.544-.72366a32.53741,32.53741,0,0,0-4.92626,9.12536C122.22616-181.712,119.7626-173.82848,117.12165-165.51582Zm44.36377-3.37847a134.305,134.305,0,0,1-.869-15.605c.05875-2.5714.23968-5.14066.26417-7.71186.0088-.92167.11617-2.36329-1.57505-1.6306-6.149,2.664-12.4611,2.07314-18.898.91156,1.14014,6.0936,2.268,12.01339,3.33937,17.94336.20208,1.11857.55339,1.88168,1.841,1.92148C151.02946-172.89723,156.12024-171.27619,161.48542-168.89428Zm17.475-230.66554a11.27118,11.27118,0,0,0-1.06071-6.01443c-4.84755-10.74975-20.81028-16.68478-33.62025-9.15149-1.5097.88782-.707,1.48629.1472,2.20111a18.44474,18.44474,0,0,1,5.61041,7.00321,1.833,1.833,0,0,0,2.05207,1.24252A69.40137,69.40137,0,0,1,178.96037-399.55983ZM113.41975-163.28015c-12.0569-.52372-21.60168-5.3021-31.77818-10.99109,5.005,9.39171,6.68062,18.80947,8.75277,28.4183A209.09134,209.09134,0,0,1,113.41975-163.28015Zm69.65809-.66807c.41537-6.31421.63516-12.191.4461-18.0789-.10384-3.23375-.14984-6.47927-1.21631-9.59027-.47184-1.37645-.86652-2.95661-2.59241-3.16822-1.59385-.19543-2.296,1.21317-3.00217,2.313a95.62054,95.62054,0,0,0-7.85012,16.276c-.37.921-.54834,1.59542.51009,2.20171A73.96218,73.96218,0,0,1,183.07785-163.94821Zm-19.75873-4.75228.835.156c.55229-1.53343,1.04719-3.09048,1.66647-4.59635,3.26219-7.9324,5.6215-16.32657,11.62276-22.87128.25266-.27549.54412-.5236.28078-1.11528-1.04426-2.3464-10.711-5.0477-11.98053-2.99328-1.38135,2.23532-4.3009,4.0444-3.1321,7.55485.43281,1.3.11079,2.87769.01886,4.32147A127.23162,127.23162,0,0,0,163.31912-168.7005Zm16.51954-123.60958a4.19124,4.19124,0,0,0-1.648,2.835c-.32537,1.49531,1.15313,1.08525,1.83267,1.13774,5.894.45534,11.80169.73865,17.69312,1.22146,3.208.26289,6.16262,1.38989,8.14433,4.07851.87058,1.18113,1.343,1.14368,2.24348.16088,2.84231-3.102,3.67718-6.79543,3.37924-10.86165-.10451-1.42639-.7455-1.58765-1.99853-1.09785-9.18064,3.58867-18.68584,4.00267-28.34466,2.77633C180.70323-292.1152,180.273-292.22524,179.83866-292.31008ZM90.01931-232.30268c-.5436-.38378-.96487-.73578-1.43412-1.00374-3.346-1.9106-10.91274-.942-13.64741,1.71153-1.34514,1.30525-1.51923,2.52389-.1986,4.05255a34.41715,34.41715,0,0,0,6.00056,5.30709c5.72238,4.14034,5.74531,4.12221,7.58807-2.52492.38755-1.398.70783-2.81545,1.02759-4.23106C89.5975-230.063,89.78945-231.14618,90.01931-232.30268ZM148.41947-404.269c-1.20339-3.496-3.60037-5.48449-5.947-7.51261a1.46275,1.46275,0,0,0-2.0874-.2064,29.67655,29.67655,0,0,0-8.34512,9.96017A119.91988,119.91988,0,0,1,148.41947-404.269ZM18.48085-118.5174a13.24148,13.24148,0,0,0-7.85819,4.2912c-1.244,1.27648-1.29342,2.59643.29083,3.64788,1.91806,1.273,3.88167,2.52145,6.35966,1.96826.15269-.03408.23282-.5965.268-.92163C17.85034-112.38891,18.14164-115.2481,18.48085-118.5174Z" style="fill: #18180e;stroke: #1d1d1b;stroke-miterlimit: 10;stroke-width: 1.4173228740692139px"/>
    </g>
  </g>
  <g style="clip-path: url(#b)">
    <g>
      <path d="M-4.17363,322.83538a35.753,35.753,0,0,1,8.363,1.57927c1.15546.33053,2.28557.75009,3.42663,1.13091a1.78253,1.78253,0,0,1,1.14018,1.09506c.46721,1.16821.9629,2.325,1.44042,3.489q8.34642,20.3471,16.69882,40.69163c1.4999,3.64152,3.06939,7.25533,4.66463,10.85635,1.10757,2.50006,2.32235,4.95248,3.47448,7.433,3.57258,7.69162,6.91743,15.48376,10.2476,23.28207q4.8345,11.321,9.29352,22.79581c2.55505,6.57928,5.00875,13.19667,7.15511,19.92286a92.38295,92.38295,0,0,1,3.214,12.21126,8.67958,8.67958,0,0,1,.18786,3.736H44.76179a2.92858,2.92858,0,0,1-1.38973-2.1107q-2.37162-9.2246-5.27322-18.29686a185.84645,185.84645,0,0,0-8.51158-21.86487c-5.98758-12.798-11.27535-25.884-16.27155-39.09331C9.84937,380.52836,6.56155,371.3,3.5431,361.97934c-3.89512-12.02749-7.57323-24.12152-10.82158-36.343-.733-2.75759-.58649-2.97718,2.30787-2.92284A1.49251,1.49251,0,0,1-4.17363,322.83538Z" style="fill: #c1c1c1"/>
      <path d="M-4.17363,322.83538c-.65632.01945-1.31392.01993-1.9686.06385-.63358.04247-.83777.3355-.72418.99872a9.27715,9.27715,0,0,0,.22785.95785c1.84868,6.53059,3.673,13.06828,5.562,19.58724.99005,3.4168,2.06642,6.8095,3.15326,10.19718,1.5887,4.95192,3.16,9.91082,4.85161,14.82792q3.25834,9.471,6.757,18.85861,3.718,9.9203,7.73506,19.72032c1.78856,4.35275,3.66218,8.67145,5.55538,12.98009,1.91506,4.35841,3.955,8.66243,5.837,13.03471,1.276,2.96447,2.42739,5.986,3.54093,9.01634a278.75248,278.75248,0,0,1,8.40815,27.98043H23.40532a7.35968,7.35968,0,0,0-.2082-2.116C21.826,463.02313,20.49977,457.093,19.09,451.18282c-1.47339-6.1772-3.01593-12.33792-4.54711-18.50117-.39582-1.59335-.85594-3.17094-1.29989-4.752a7.48922,7.48922,0,0,1-.327-1.77043,93.43826,93.43826,0,0,0-2.9528-19.27444A118.00729,118.00729,0,0,0,3.315,387.48722c-1.08587-2.45157-2.14772-4.92-3.37272-7.30254a128.565,128.565,0,0,0-7.28846-12.84713,36.15981,36.15981,0,0,1-4.13477-8.7191,159.1606,159.1606,0,0,1-6.56344-25.91822c-.145-.919-.34083-1.83091-.45719-2.75314a18.07638,18.07638,0,0,1-.14788-2.2889,2.77942,2.77942,0,0,1,1.61425-2.64533,17.9677,17.9677,0,0,1,4.90471-1.82906,29.391,29.391,0,0,1,6.19232-.64144A3.90043,3.90043,0,0,1-4.17363,322.83538Z" style="fill: #919191"/>
      <path d="M40.77534,112.908a3.95554,3.95554,0,0,1,1.89424-.30389c.91541-.00583,1.83087-.00139,2.74632-.00133q.21279.14364.42594.28716Q43.30893,112.89887,40.77534,112.908Z" style="fill: #686868"/>
      <path d="M.70256,116.15422c.76.031,1.51992.06481,2.28011.092a4.512,4.512,0,0,1,1.7606.267c-.91638.00969-1.83332.02152-2.75021.0286a3.19681,3.19681,0,0,1-1.57506-.286A1.72338,1.72338,0,0,1,.70256,116.15422Z" style="fill: #686868"/>
      <path d="M-121.52887,445.73717a53.81671,53.81671,0,0,1,2.595-6.387,94.7477,94.7477,0,0,1,6.35528-11.67651,79.39387,79.39387,0,0,1,5.82149-7.94446q2.2214-2.63555,4.56175-5.1701a65.693,65.693,0,0,1,5.43834-4.99576c.33061-.28653.69254-.53656,1.03289-.81226.48594-.39366.66093-.75514.44255-.893-.41792-.26371-.74981.01308-1.03305.23748-.94333.74732-1.91064,1.47636-2.77352,2.31088-2.00686,1.941-4.0136,3.88795-5.91747,5.92846a72.53821,72.53821,0,0,0-6.05732,7.5551,93.23415,93.23415,0,0,0-9.47665,16.86647c-.06546.1506-.12281.3053-.19693.45149-.30983.61108-.51129.76654-1.16693.62243a13.81727,13.81727,0,0,0-4.89665-.18177,1.03283,1.03283,0,0,1-1.17323-.683c-.31372-.69915-.59816-1.41191-.92693-2.10376a56.77923,56.77923,0,0,0-8.85823-13.56457,44.9966,44.9966,0,0,0-15.66362-11.41669c-.749-.329-1.54334-.55681-2.32265-.81334-.20776-.06838-.47933-.06915-.57821.15786-.14465.332.13282.48987.37888.61016.24526.11992.5054.21016.76128.30742a42.65872,42.65872,0,0,1,16.02284,10.89838,51.49347,51.49347,0,0,1,6.91831,9.35729,66.71205,66.71205,0,0,1,4.18522,8.72917,33.88762,33.88762,0,0,1-3.28264,14.447,11.734,11.734,0,0,1-2.907,3.73261,6.35321,6.35321,0,0,1-3.70058,1.568c-4.26139.43136-8.52923.24618-12.79491.28448a11.76176,11.76176,0,0,1-2.45284-.17415,4.09526,4.09526,0,0,0-.97744-.10528,48.60469,48.60469,0,0,1-6.875-.40489,60.79944,60.79944,0,0,1-13.6722-2.63114c-2.95567-1.00141-5.90864-2.0124-8.88029-2.96451a82.12248,82.12248,0,0,0-14.38142-3.29844,63.60762,63.60762,0,0,0-11.78526-.54185,86.10183,86.10183,0,0,0-9.78051,1.04625,121.48381,121.48381,0,0,0-14.67575,3.53488c-2.20471.66587-4.348,1.49192-6.527,2.22168a6.20817,6.20817,0,0,0-1.3349.62014,11.68478,11.68478,0,0,1-5.12362,1.62359,8.79746,8.79746,0,0,1-4.30552-.85393c-.70527-.29656-1.37866-.66891-2.06652-1.007a29.80515,29.80515,0,0,1-.96489-5.32163c-.35792-2.49064-.54552-4.99965-.75685-7.508-.21678-2.57306-.21321-5.13866-.2244-7.70939-.0136-3.122.28043-6.22613.56879-9.33166a108.51453,108.51453,0,0,1,3.35788-18.05882,159.07792,159.07792,0,0,1,8.16277-23.21942,135.12063,135.12063,0,0,1,13.093-23.30264c2.018-2.86219,4.18655-5.6181,6.28417-8.42415,4.00275-5.3546,7.6762-10.93067,11.19638-16.611,3.49116-5.63355,6.718-11.41385,9.81552-17.27288a164.0601,164.0601,0,0,0,7.01142-14.84224c1.36091-3.34589,2.532-6.769,3.89164-10.11536,3.11231-7.66014,6.34566-15.2687,10.19546-22.597a46.48232,46.48232,0,0,1,3.67-6.02536c.22739-.30837.4842-.59606.69849-.91285a2.88714,2.88714,0,0,1,2.4999-1.31071c1.58423-.04273,3.15231-.38682,4.74777-.29242.273.01614.54779-.00156.82112.01063,1.58637.07075,1.78525.37029,1.11014,1.75946-.76583,1.57585-1.52365,3.15763-2.35409,4.69958a72.507,72.507,0,0,0-3.91578,9.0336,312.29933,312.29933,0,0,0-11.49308,37.50858c-1.60448,6.76743-2.91953,13.592-3.98787,20.46508q-.98367,6.32807-1.57117,12.7033c-.21377,2.28408-.309,4.58734-.49039,6.87339-.3735,4.7073-.2693,9.41116-.20994,14.11533a28.88664,28.88664,0,0,0,6.40664,17.74442,35.60018,35.60018,0,0,0,11.34767,9.30664,63.88605,63.88605,0,0,0,18.74184,6.37112c3.27939.62812,6.58476,1.05647,9.90911,1.40453a133.15659,133.15659,0,0,0,17.05333.52778c2.40324-.057,4.80147-.32254,7.20211-.49172.43673-.03076.87358-.0673,1.311-.079a77.28277,77.28277,0,0,0,14.468-1.867,70.31526,70.31526,0,0,0,12.67054-3.99455,63.08121,63.08121,0,0,0,15.05024-8.96307,54.27388,54.27388,0,0,0,5.02981-4.4683,68.36633,68.36633,0,0,0,7.38869-9.00126,65.62739,65.62739,0,0,0,8.95858-19.09773,3.35616,3.35616,0,0,1,.60234-1.491c.51362-.04785.79365.36277,1.181.53676a3.11516,3.11516,0,0,0,2.70509.021c1.65544-.78061,2.21526-1.9467,1.72218-3.58987a14.8928,14.8928,0,0,0-1.51719-3.272,60.58852,60.58852,0,0,1-3.20511-6.83392,4.6822,4.6822,0,0,1-.41311-1.91068q.03345-6.57064.06-13.14132c.001-.1997-.04644-.44227.22569-.54422.30875.09514.33791.39013.44166.62845,1.15815,2.65985,2.2453,5.35323,3.48595,7.974a86.178,86.178,0,0,0,8.07581,13.707q.19258.266.40019.521a2.94485,2.94485,0,0,0,3.93956.8419,20.98683,20.98683,0,0,0,1.83039-1.09706c.92015-.59359,1.82854-1.20559,2.73626-1.8182A21.83318,21.83318,0,0,1-29.986,350.002c.62925-.23266.74652-.55581.47211-1.15678-.29535-.64681-.62455-1.27947-.96535-1.90395-2.88626-5.28882-5.55522-10.6891-8.14171-16.1274-1.103-2.319-1.973-4.7511-2.90347-7.14941-2.2986-5.92461-4.33526-11.93821-6.04613-18.06023-.07276-.26014-.14435-.52068-.23788-.85834.49922-.00951.52814.37689.6505.609,1.3783,2.61513,2.70578,5.2577,4.118,7.85422,2.40613,4.42394,4.82666,8.84075,7.30832,13.22258,2.72463,4.8107,5.55012,9.56425,8.28185,14.371a44.31678,44.31678,0,0,0,4.50676,6.44961A181.70492,181.70492,0,0,1-5.35031,372.383,140.89485,140.89485,0,0,1,6.847,399.25473a114.30781,114.30781,0,0,1,4.66222,20.46692,93.15642,93.15642,0,0,1,.66117,17.36958A82.37574,82.37574,0,0,1,7.47777,460.849c-.13011.35852-.31581.69691-.47539,1.045a6.34236,6.34236,0,0,1-2.10452.29134c-2.90174-.00357-5.81471.15329-8.70185-.05274a53.82085,53.82085,0,0,1-7.51082-.6116,50.9513,50.9513,0,0,1-5.53476-1.53881c-3.78876-1.27045-7.56264-2.58513-11.34566-3.87278a75.52937,75.52937,0,0,0-7.5841-2.13837,47.17514,47.17514,0,0,0-5.52453-.70357c-4.64722-.49368-9.298-.17543-13.94543-.26716a12.71479,12.71479,0,0,0-2.77981.19572,5.46046,5.46046,0,0,1-1.14315.09794,60.9907,60.9907,0,0,0-8.49739.66506,60.1081,60.1081,0,0,0-5.93211,1.29218c-5.65324,1.30658-11.28305,2.7144-16.93513,4.02624-5.49169,1.27454-11.00086,2.47548-16.56285,3.40962a10.661,10.661,0,0,1-4.717-.165,10.25932,10.25932,0,0,1-5.44753-4.01067,18.11667,18.11667,0,0,1-2.91606-6.02816A29.70019,29.70019,0,0,1-121.52887,445.73717Z" style="fill: #a4a4a4"/>
      <path d="M195.94347,317.34488c-.38854-3.86507-.885-7.71268-1.53821-11.54174-.50611-2.9667-1.20147-5.89243-1.85222-8.82809-.3989-1.06155.27758-2.13953-.07361-3.2142-1.7334-5.304-2.81321-10.79942-4.6986-16.05956-.5651-.60541-.44778-1.43723-.71442-2.14538-2.67576-7.106-5.37541-14.2025-8.24486-21.2331a1.362,1.362,0,0,1-.17814-.27378c-3.39134-9.02733-7.25587-17.86319-10.84416-26.81079-.349-.87023-.67807-1.74253-1.71819-2.01718-1.59695-3.81523-3.14911-7.65005-4.8038-11.44007a101.69364,101.69364,0,0,1-3.89018-11.42474c.399-2.40792-.66378-4.53282-1.30483-6.73934-.04579-.15734-.07821-.31875-.128-.47436-2.46068-7.69557-4.82828-15.4207-7.33258-23.10241-.255-.78216-.49341-1.58423-1.38973-1.90124-.468-1.39436-.94629-2.78541-1.40234-4.18372q-2.58669-7.93252-5.16184-15.86884c-.376-.84965.26521-1.7085-.04813-2.57373-1.65444-4.56954-3.07149-9.23-5.27339-13.588a5.82058,5.82058,0,0,0-2.9581-2.9192,22.268,22.268,0,0,1-4.89128-3.26672c-1.31327-1.03306-2.442-2.391-4.266-2.59a12.69734,12.69734,0,0,0-4.44032-2.66134c-.772-.25811-1.5469-.51077-2.33092-.72833a79.4579,79.4579,0,0,0-10.88828-1.97563,2.87218,2.87218,0,0,0-1.78178-1.05186c-2.40111-.16737-4.78851-.4877-7.18635-.697-5.61138-.48986-11.21925-1.03112-16.83071-1.50146-4.22257-.35387-8.432-1.67731-12.723-.50669-.08815.02406-.2038-.06275-.30465-.10668-2.83017-.281-5.65826-.58572-8.49127-.8347a29.15133,29.15133,0,0,1-5.46758-1.04142,15.37538,15.37538,0,0,0-1.59762-.37214,27.57784,27.57784,0,0,0-5.34609-.78155,10.30879,10.30879,0,0,0-4.58563-.97374,2.95614,2.95614,0,0,0-.81335.14543c-.23772.073-.4721.1461-.70372.23977-.06777.03685-.13219.07031-.20054.10883a3.50615,3.50615,0,0,0-.34183.249c-.04988.04374-.09709.08262-.14648.12642-.08991.08044-.17572.158-.26053.24225-.00084.00453-.11706.109-.11715.1132-.076.06983-.1504.13728-.22184.21-.07261.06384-.14581.12527-.21549.191-.076.05732-.15383.11224-.228.17073-.08372.049-.16971.0967-.25218.14756-.09108.04376-.18316.0893-.27139.13956-.09275.04947-.188.09726-.28176.146-.09726.04775-.19619.09392-.294.1415-.09876.04859-.19837.09668-.29638.14775-.151.07157-.30482.13743-.45923.20091-.105.0403-.21165.07779-.31693.117-.16561.05147-.32947.11084-.49382.16632-.11213.03888-.22477.07813-.335.122-.23555.07027-.46926.14967-.70589.217-.18424.05387-.37158.09768-.55967.1349a10.084,10.084,0,0,0-1.00553.18182c-.21215.05026-.42656.09711-.641.13768-.39589.04769-.78669.13235-1.17707.20979a9.50641,9.50641,0,0,1-1.58442.14731,44.30737,44.30737,0,0,1-9.90715.00031,49.715,49.715,0,0,1-5.79646-.18264c-1.66839-.13745-3.34271-.04161-5.01085-.14437a26.29018,26.29018,0,0,1-3.88458-.18422c-1.537-.37434-2.88791.40143-4.31641.69683a18.80432,18.80432,0,0,0-3.18011-.07942c-1.22186-.34463-2.49344.08026-3.71672-.24048-.64991-.03894-1.29965-.10716-1.94973-.112q-5.45951-.04033-10.88878-.60569c-1.18752-.122-2.37478-.25412-3.55637-.422-.707-.1005-1.06369-.30883-1.05174-1.18.00142-.10821-.01379-.21658-.02122-.32489-.26438-.42263.0046-.935-.22945-1.36276l-.022-.63123a5.01769,5.01769,0,0,0,.30423-3.35777c-.47636-3.40858-.99107-6.81145-1.49885-10.21545-.97528-6.53841-1.96092-13.07514-3.08979-19.589-.17363-1.00215-.22811-2.10715-1.29539-2.70108q-.04663-.42715-.09333-.85425A96.62693,96.62693,0,0,0-32.801,56.84456a169.5391,169.5391,0,0,0-14.05912-36.7183A148.36464,148.36464,0,0,0-67.24759-9.18637c-.56334-.63282-1.0865-1.41065-2.08141-1.46252a1.23724,1.23724,0,0,0-.989.82255c-.27641,1.00165.49959,1.49624,1.02893,2.085A145.34256,145.34256,0,0,1-54.32269,12.1765c2.27268,3.61619,4.23519,7.40644,6.37936,11.09395.59125,1.01694,1.44462,1.90212,1.33583,3.19906.332.56472.66336,1.13.9452,1.72478A146.47717,146.47717,0,0,1-34.64542,60.2736a519.67852,519.67852,0,0,1,9.67118,61.73694q1.09907,12.08675,2.17274,24.176,1.14595,12.66208,2.46987,25.30535,1.439,13.78782,3.14335,27.54939c1.41972,11.45664,2.97289,22.89364,4.77915,34.29567.95038,5.99988,2.04757,11.97356,3.23192,17.932.356,1.79043-.093,2.21064-1.88589,1.92345-1.51314-.2424-3.02962-.45831-4.54636-.66328a8.18171,8.18171,0,0,0-2.70709.14435c-.81769.23429-1.87561.15195-2.21778,1.26138.24783,1.251,1.28536,1.01251,2.1013,1.05529a42.22447,42.22447,0,0,1,13.57239,2.8981Q9.78075,263.72435,24.58473,269.145c10.27355,3.78164,20.60291,7.40043,30.95793,10.94953,2.24067.768,2.46862,1.307,1.51,3.51977-.71868,1.659-1.31544,3.36327-1.92892,5.06174a147.82579,147.82579,0,0,0-7.3599,33.26829c-.09241.48622-.00836.9813-.07612,1.46785-.03284.159-.06125.31936-.079.48108-.27156,3.81452-.65267,7.62123-.73163,11.45-.02691,1.30863-.51806,1.61554-1.81119,1.36478a13.04333,13.04333,0,0,1-1.2725-.324q-14.07211-4.23981-27.82887-9.41178c-4.80388-1.81767-9.47156-4.03557-14.56539-5.03312-5.59743-1.096-11.18249-1.57088-16.67338.44645a16.45343,16.45343,0,0,0-9.38308,8.474c-.33.67247-.53711,1.41759.32262,1.84461a1.29154,1.29154,0,0,0,1.79348-.66917c.46316-.7798.911-1.56866,1.40126-2.3676-.1606.38186-.29379.74145-.40759,1.10718-.95882,3.08331-1.80334,6.19954-2.68687,9.30457-.112.39376-.09977.9663-.66445,1.00215-.4274.02711-.61164-.41908-.805-.73936-.62217-1.03043-1.15877-2.12094-1.83325-3.109a3.8787,3.8787,0,0,1-.09927-4.44509A42.31016,42.31016,0,0,0-23.30869,320.27a24.75546,24.75546,0,0,0-.16335-10.57619,7.10062,7.10062,0,0,0-1.3873-2.55652c-1.13321-1.50591-2.82307-1.15953-4.29042-1.55776-3.72415.46216-6.48831,2.70659-9.12413,4.77213a87.80243,87.80243,0,0,0,4.89329-14.51375,12.08338,12.08338,0,0,0,.374-4.55755c-.63178-3.96931-3.01275-5.85478-6.93426-4.7019a9.73715,9.73715,0,0,0-2.62813,1.3253,21.71679,21.71679,0,0,0-4.17912,3.69762,95.38339,95.38339,0,0,0,4.75425-17.5509c.588-3.90155.98731-7.8287-.19761-11.70856-.58691-1.92149-.48714-2.18657,1.35321-2.96215a60.23236,60.23236,0,0,1,12.15543-3.3705c2.09554-.40245,4.22207-.57809,6.32922-.88817.75035-.11046,1.74317-.17814,1.65719-1.388-.28677-.849-1.02491-.87953-1.73841-.94269a22.27515,22.27515,0,0,0-5.54462.4891c-3.89545.6314-4.25056.38741-4.58137-3.50319-.62994-7.40991-.961-14.83962-1.33675-22.2642-.33147-6.55107-.414-13.11433-.64-19.67144-.25794-7.48726-.23931-14.98723-.3064-22.47832-.11172-12.47067-.365-24.948.20446-37.42253a167.5376,167.5376,0,0,0-.27891-18.46961c-.1931-2.97882.62417-5.85508.51764-8.80465-.0793-.5966-.16945-1.18844-.20538-1.79026q-.456-7.61974-1.43727-15.19044C-37.667,91.13211-40.0876,78.72384-42.84224,66.37708c-.50076-2.24433-1.04823-4.4784-1.69362-6.68625-.214-.73186-.61289-1.36621-1.50052-1.17781-.9091.19294-.94654.97641-.86415,1.70564a25.216,25.216,0,0,0,.67615,3.0441q4.38363,18.21364,7.11383,36.74744c.71383,4.858,1.05023,9.76435,1.72571,13.719A27.04556,27.04556,0,0,0-43.46165,103.92c-3.57492-3.63439-6.26756-3.8479-10.41852-.887a8.79423,8.79423,0,0,0-1.12919.95107,42.011,42.011,0,0,0-3.83261,4.055c-.31969.41979-.63654,1.07409-1.2242.96513-.69177-.12824-.49-.8878-.5524-1.3881-.46709-3.74646-.60872-7.52058-.89966-11.28188q-.68972-8.915-1.46585-17.82258-.809-9.39964-1.816-18.78322c-.89064-8.272-1.82-16.53718-3.38232-24.71526a25.275,25.275,0,0,0-.97528-3.98435c-.3-.81813-.6012-1.8212-1.77559-1.483-1.10613.31849-.835,1.30251-.643,2.076A155.09691,155.09691,0,0,1-68.58,49.09109c1.28244,9.87637,2.21277,19.78991,3.08611,29.70762.52766,5.99175.96885,11.99243,1.44939,17.98855.5417,6.7591,1.08366,13.51959,1.48991,20.28581q.54559,9.08749,1.12117,18.1744.79425,12.35814,1.522,24.72027c.40016,6.93422.40308,13.88513.6342,20.82743.271,8.144.43182,16.29334.66361,24.44026.23805,8.36493.41553,16.73178.66019,25.09757.23989,8.20057.36632,16.40413.6647,24.60487.18324,5.03667.57889,10.05279,1.134,15.04931a212.29613,212.29613,0,0,0,6.38763,34.0183c3.26016,11.615,7.09252,23.02065,12.67164,33.76872,1.48807,2.86685,2.83552,5.80486,4.40055,8.63369.82705,1.495.71341,2.36584-.51563,3.11966-1.86809,1.14582-3.64519,2.43093-5.52757,3.54889-1.73181,1.02834-2.67877.79446-3.90831-.871a73.5435,73.5435,0,0,1-6.96376-11.69824,161.80067,161.80067,0,0,1-11.25526-32.364,299.43389,299.43389,0,0,1-7.6318-48.27641c-.12032-1.58124-.24332-3.16248-.34868-4.74522-.05155-.7742-.34518-1.43631-1.22462-1.48481-.94813-.05231-1.14064.66808-1.23406,1.41964a3.581,3.581,0,0,0-.04454.655c.23521,3.87715-.22168,7.73971-.14714,11.6301.18533,9.684.40141,19.35849,1.10212,29.02048a105.82571,105.82571,0,0,0,2.36584,17.8718c3.55729,14.39318,8.15771,28.40391,14.85116,41.67467a4.471,4.471,0,0,1,.53293,1.54439,1.22935,1.22935,0,0,1-.62885,1.39077,1.22231,1.22231,0,0,1-1.47579-.38837,6.767,6.767,0,0,1-1.195-1.95223,267.0593,267.0593,0,0,1-12.80743-32.52179,172.22621,172.22621,0,0,1-8.545-50.63732c-.084-5.524-.39564-11.03852-.6205-16.557-.33849-8.30483-.70982-16.6105-.96258-24.91625-.22636-7.43512-.65191-14.86271-.8146-22.30174-.07395-3.38487-.08439-6.78392-.296-10.16714-.49834-7.97064-.603-15.95616-.87017-23.93349-.172-5.13629-.3603-10.27948-.49207-15.41935-.0869-3.38631-.05089-6.78576-.27816-10.16756-.51354-7.64143-.54571-15.30059-.85747-22.94885q-.33039-8.108-.49884-16.24042c-.06835-3.38424-.1001-6.78208-.28384-10.16751-.44737-8.24615-.69261-16.49981-.91688-24.75325-.10687-3.93718-.28042-7.87523-.45288-11.80548-.14414-3.28163-.05832-6.56714-.27925-9.84061-.46408-6.87574-.59877-13.76556-.885-20.648-.134-3.22293-.52048-6.43783-.41578-9.67187a5.36781,5.36781,0,0,0-.46391-2.07323.96819.96819,0,0,0-1.01556-.67827.99174.99174,0,0,0-.91044.81724,6.85127,6.85127,0,0,0-.16636,2.12185c.23989,5.90126.52223,11.80094.76,17.70209.1123,2.78753.044,5.58256.26187,8.36217.543,6.92735.56585,13.87677.86415,20.81336.21357,4.96764.38854,9.94829.49006,14.92639.0701,3.43949.08331,6.89392.30206,10.33089.33005,5.18722.38528,10.382.583,15.57259.02181.5726.24967,1.37448-.37509,1.651-.69186.30613-.962-.528-1.361-.92816-4.32794-4.34139-8.51909-8.82-13.09754-12.909a93.138,93.138,0,0,0-13.74628-10.3691,3.6676,3.6676,0,0,1-1.95249-2.86213q-.85993-8.161-1.64533-16.32931Q-118.92663,56.967-120.11937,43.976c-.72745-7.95243-1.269-15.91671-1.89157-23.87589-.0737-.94192.37693-2.48058-1.103-2.47992-1.39182.00063-1.32606,1.53877-1.43552,2.57616-.62008,5.87759-.814,11.78918-.97562,17.68609-.294,10.72382-.08665,21.45661.34108,32.17578.109,2.72842.13486,5.46746.34952,8.19421.08356,1.06143.70564,2.3372-.31033,3.08985-1.02124.75659-2.0642-.24242-3.04191-.62595A60.60773,60.60773,0,0,0-156.17826,76.54c-2.56663.23388-5.10435.61761-7.64237,1.03927-1.87026.31073-2.48976-.1757-2.7797-2.05-.05026-.32493-.05314-.65507-.08987-.98113-.83219-7.39355-1.468-14.8036-2.03634-22.22259-.66031-8.61921-1.0077-17.24868-1.23774-25.88616-.11957-4.48942.4462-8.95426.46529-13.43694.01228-.21331.05511-.42652.05811-.64073.01074-.76013.07516-1.60991-.88086-1.84233-1.04179-.25326-1.40786.55778-1.7049,1.33039a23.51633,23.51633,0,0,0-.83394,2.60951c.19753,1.04255-.44306,1.89349-.64991,2.84371a150.28452,150.28452,0,0,0-3.30515,29.12658,247.2735,247.2735,0,0,0,.918,29.49531c.3171,3.16352.07119,3.44353-2.72456,4.85117-.29324.14765-.58749.29335-.8812.44a95.4181,95.4181,0,0,0-21.87232,14.67332c-1.31361,1.19629-1.85238.99642-2.22747-.76908-.0569-.26763-.10382-.53719-.14292-.8081a245.27194,245.27194,0,0,1-2.01135-29.59079c-.05289-2.34651.33774-4.68091.33578-7.04028a163.28526,163.28526,0,0,1,1.153-16.34726c.33669-3.37214,1.04046-6.70054,1.17482-10.09284.10908-.75028.06534-1.49029-.84589-1.64343-.86077-.14466-1.24592.46829-1.43836,1.21738-.14815.57672-.33064,1.1436-.49462,1.71755a15.45338,15.45338,0,0,1-.54977,3.71014c-.90952,5.83918-1.83977,11.676-2.49327,17.55092-.76171,6.84814-1.4163,13.703-1.82878,20.58647-.223,3.72091-.00631,7.45177-.3575,11.149-.52608,5.53908.1484,11.0324.34083,16.54221.10737,3.07236.16394,6.01058-1.106,8.98321a196.0645,196.0645,0,0,0-8.39839,24.35481,75.31753,75.31753,0,0,0-2.17161,10.10029c-.18871-1.14956-.60633-2.38086-.94081-3.63424-4.17-15.62565-6.046-31.58486-6.65292-47.69335a246.8921,246.8921,0,0,1,.33628-25.10658c.13637-2.12422.25268-4.25585.43454-6.38122.38683-4.52053.94545-9.02331,1.31578-13.54356a5.45579,5.45579,0,0,1,.218-1.6139c.55541-3.28327.99341-6.5841,1.4445-9.88234.10319-.75473.08247-1.66064-.91917-1.82821-1.0819-.181-1.3594.639-1.514,1.51134-.77149,4.35308-1.39156,8.72692-1.82163,13.12776a17.83663,17.83663,0,0,1-.4736,3.55957c-.86286,8.10724-1.30675,16.24554-1.64228,24.38512-.29086,7.056-.017,14.12053.36013,21.16956.11067,2.06775.23914,4.1471.4172,6.21815.33273,3.87075.85688,7.72448,1.1142,11.598.4241,6.38523.95736,12.7622,1.45043,19.14118.62793,8.1237,1.25052,16.24874,1.81524,24.37611.50786,7.30922.96279,14.62476,1.45557,21.935.65091,9.65635,1.21676,19.31811,1.83037,28.97632.52,8.18411.91759,16.37821,1.31436,24.5699.38357,7.91923.66821,15.84417,1.00432,23.76633.34547,8.142.34029,16.29536.651,24.44191.336,8.80833-.03961,17.624-.3588,26.42732a72.33705,72.33705,0,0,1-1.44767,14.0236,248.40711,248.40711,0,0,1-9.22532,31.15955,35.23366,35.23366,0,0,1-3.53126,7.39633c-.43809.6479-.91236,1.29581-1.80944,1.19955a2.31593,2.31593,0,0,1-1.76615-1.55521,3.4603,3.4603,0,0,1,.38558-3.28614,130.89975,130.89975,0,0,0,5.64468-12.58028c5.98338-15.37982,8.70334-31.377,9.17778-47.81162.08072-2.797-.2129-5.57407-.31977-8.36084A120.76056,120.76056,0,0,0-226.42291,274.27a3.85776,3.85776,0,0,0-.42614-1.4056,1.21533,1.21533,0,0,0-1.19579-.70736c-.58156.06714-.80528.49779-.90551,1.01844a13.79032,13.79032,0,0,0-.13173,2.29248c-.13219,5.4695.01028,10.93641-.241,16.41334-.34384,7.49405-.84823,14.96408-1.75964,22.40449a129.512,129.512,0,0,1-6.41061,28.46094,47.2083,47.2083,0,0,1-6.03255,11.80921c-1.16341,1.60376-2.01047,1.76014-3.55432.5298a34.15578,34.15578,0,0,1-7.42115-8.27782,3.84228,3.84228,0,0,1-.16465-4.17373,75.35825,75.35825,0,0,0,5.92075-16.33626c4.15021-16.73859,5.38569-33.76379,4.91288-50.96382-.16833-6.12471-.435-12.24308-.64623-18.364-.22439-6.50461-.65129-13.00023-.79877-19.50969-.063-2.78208-.13662-5.57741-.30114-8.36033-.452-7.64366-.71759-15.29395-.95247-22.94582-.12659-1.7667.0061-3.541-.15349-5.3056-.33285-1.05888.16782-2.3521-.89912-3.20674-.82927.02283-.77587.59994-.85371,1.20734a62.23207,62.23207,0,0,0-.45643,7.77825c-.00969,4.46729.22694,8.934.35863,13.3993.19979,6.77581.62693,13.54133.81318,20.31792.07637,2.77906.14593,5.572.31823,8.35461.28706,4.6366.5961,9.27207.59088,13.92246a2.61085,2.61085,0,0,1-2.05133,2.7744,18.95507,18.95507,0,0,0-3.11644,1.01794c-1.063.54521-1.07714,1.14461-.12467,2.08359,1.19094.50807,2.23357-.23283,3.34-.40555,1.52789-.23847,2.12236.09634,2.22814,1.55876.14163,1.95771.38361,3.90418.38821,5.87881q.02406,10.40045-.62363,20.77692a175.29779,175.29779,0,0,1-3.3832,24.9662,89.41321,89.41321,0,0,1-3.97742,13.69815,2.743,2.743,0,0,1-2.94277,1.87611,55.07611,55.07611,0,0,0-7.3632.48551c-8.92819.91057-17.812,2.17454-26.6894,3.486-2.70613.39974-3.01772.13469-3.81682-2.5401-.7371-2.4672-1.30425-4.97718-1.915-7.47672-.38612-1.58015-.72724-1.76983-2.25421-1.46635-.60011.63111-.28184,1.35054-.16143,2.0271.48,2.698,1.26832,5.32131,1.95641,7.96945.468,1.80075.03685,2.44564-1.75746,2.73625-3.24044.52478-6.48213,1.04271-9.72783,1.53378-1.90523.28827-2.62863-.13829-3.49207-1.93164a44.90677,44.90677,0,0,1-2.892-8.19255,123.61565,123.61565,0,0,1-3.3321-20.54726c-.57692-6.59615-.73008-13.20524-.9343-19.81513-.01521-.49194-.00125-.98485.02716-1.47721a2.22684,2.22684,0,0,1,1.63864-2.21515c4.19659-1.24831,8.412-2.435,12.67524-3.4317,1.49455-.3494,2.165.31911,1.99172,1.90277-.1433,1.30985-.19431,2.61526-.22068,3.92887a160.60077,160.60077,0,0,0,1.03632,22.10795,122.1752,122.1752,0,0,0,2.19434,13.43791c.17188.73693.23187,1.56775,1.23331,1.71146a.97916.97916,0,0,0,.97156-.45129c.54885-1.02349.13921-2.03817-.04537-3.04454a147.2159,147.2159,0,0,1-2.78309-28.36861c.03292-2.73663.00209-5.47393.00731-8.21093a14.00977,14.00977,0,0,1,.13511-2.12762,2.96224,2.96224,0,0,1,2.33042-2.63578c7.11784-1.99088,14.108-4.38112,21.10162-6.76481,7.92454-2.70091,15.76431-5.64535,23.72746-8.22585a1.19937,1.19937,0,0,0,.50256-.71755,1.48975,1.48975,0,0,0-.01692-.613c-.1034-.4655-.47181-.66257-.85793-.84146-1.7329-.58645-2.06124-1.09418-1.83642-3.24566.42639-4.08178.59635-8.18219.85287-12.27341q.8724-13.91588,1.64658-27.83852.776-14.00342,1.30625-28.02057c.2607-7.10463.47607-14.21612.43107-21.33448-.04082-6.45339-.04571-12.90636.20426-19.36777.44858-11.59384.36824-23.19981,1.22579-34.79091.51137-6.91237.67786-13.86409,1.10513-20.78893.40041-6.48957.80708-12.98212,1.34373-19.46478.54187-6.54548,1.07325-13.09032,2.22146-19.5636a66.98233,66.98233,0,0,1,2.99862-10.69014,23.80475,23.80475,0,0,1,.8314-4.01824,216.82385,216.82385,0,0,1,10.49255-30.90864c-.04746-.73856-.17217-1.38624-1.17749-.99092-1.1312,2.61127-2.311,5.20269-3.38432,7.83755A184.21994,184.21994,0,0,0-243.05042,45.059c-.83633,3.23114-1.55112,6.49646-2.625,9.66272a30.87525,30.87525,0,0,0-1.02659,3.80108A159.19075,159.19075,0,0,0-248.955,76.433c-.30636,3.54425-.542,7.09521-.76409,10.646q-.47672,7.621-.88174,15.24636c-.17677,3.3345-.28455,6.67264-.43646,10.00852q-.2016,4.42928-.43433,8.85715c-.23446,4.3727-.52553,8.74271-.72014,13.11711-.202,4.53917-.31,9.08246-.47481,13.62338-.07349,2.02386-.18546,4.04631-.27992,6.06942-.3773,2.31381.10566,4.65926-.2566,6.97362q-.00119,2.06278-.00242,4.12556c.37262,1.32892-.54818,2.453-.54634,3.76545.01095,7.87284-.327,15.73849-.57976,23.6068-.24227,7.53972-.63349,15.0692-.98222,22.6028-.3715,8.02539-.8715,16.04179-1.31837,24.06213q-.74343,13.34171-1.66839,26.6701a3.32726,3.32726,0,0,1-2.49348,3.23509c-5.575,1.95859-11.13373,3.96471-16.72033,5.88983-10.349,3.56615-20.83808,6.63441-31.41791,9.47486a285.43558,285.43558,0,0,1-43.10325,8.48028c-8.20822.89528-16.4044,2.01235-24.356,4.40485-.3476.114-.69545.22377-1.03841.34944a18.09886,18.09886,0,0,0-3.29492,1.87971,3.874,3.874,0,0,1-1.7893-.0333c-.63295-.13018-.80144-.39276-.66687-1.05888.32508-1.60919.69077-3.21048.99509-4.82343a28.80067,28.80067,0,0,0,.62426-6.36185c-.14664-4.10271-.35169-8.20346-.54864-12.3042-.10236-2.13222-.23191-4.26326-.36172-6.39406-.29621-4.86237-.58887-9.725-.90476-14.58607-.2236-3.441-.38888-6.88956-.7493-10.31694-.4815-4.579-.7376-9.168-.83407-13.76414a351.50512,351.50512,0,0,1,1.21513-39.53835q.81813-8.91478,2.11726-17.76723c.20706-1.40761.45388-2.80939.68814-4.21288a1.92536,1.92536,0,0,1,.8667-1.4986,2.8309,2.8309,0,0,0,1.12063-1.38417,1.68765,1.68765,0,0,1,1.00156-1.00369,5.119,5.119,0,0,0,3.14309-3.555,1.15409,1.15409,0,0,1,1.29167-.96037c4.48925.02035,8.9787.009,13.468.0094a2.18991,2.18991,0,0,1,1.26259.26782,10.49128,10.49128,0,0,0,4.53165,1.31877,86.20605,86.20605,0,0,0,10.64684.64774c4.59946.02874,9.19582-.03829,13.79169-.25092,2.4748-.11452,1.98507-.31065,2.97548,1.88758a94.9262,94.9262,0,0,0,8.50773,15.3455,45.21978,45.21978,0,0,0,5.66837,6.80308,19.1153,19.1153,0,0,0,5.86577,4.15086,10.44587,10.44587,0,0,1,3.46416,2.42185c.50013.50515.96835,1.04209,1.44776,1.56758a1.74661,1.74661,0,0,0,.76129.59886,6.21673,6.21673,0,0,0,3.40066.17,2.6446,2.6446,0,0,0,2.1971-2.53008,11.77119,11.77119,0,0,0,.02444-1.4747q-.142-10.103-1.0697-20.16444c-.30716-3.2709-.66963-6.53387-1.27174-9.76443-.2805-1.50514-.6385-2.99582-.961-4.49315-.18683-.86735-.12254-.99272.7404-1.3407.91324-.36824,1.87064-.64966,2.73784-1.10425a14.49828,14.49828,0,0,1,4.19671-1.3497,17.69168,17.69168,0,0,0,3.62376-1.03828,8.66745,8.66745,0,0,0,3.00589-1.95758,2.5559,2.5559,0,0,0,.42706-3.15874,3.93678,3.93678,0,0,0-1.3393-1.41743,8.24572,8.24572,0,0,0-2.23487-1.01157,25.05568,25.05568,0,0,0-6.651-.88552,4.68731,4.68731,0,0,0-1.13158.16306,54.92875,54.92875,0,0,0-7.40586,2.13959c-1.01493.38733-1.05165.36567-1.56553-.50765-.05544-.09425-.10432-.19243-.15479-.28957q-3.36891-6.4847-6.73406-12.97132c-.14714-.28405-.333-.57951-.152-.93377a4.56691,4.56691,0,0,1,1.61579-.15573c3.55524-.14418,7.11124-.271,10.66635-.41912,3.9925-.16626,7.98387-.359,11.97649-.52165,3.93747-.16035,7.87913-.25995,11.79964-.68866a48.25815,48.25815,0,0,0,11.66586-2.60288,23.99763,23.99763,0,0,0,6.20948-3.307,14.46331,14.46331,0,0,0,4.00825-4.50817,4.1904,4.1904,0,0,0,.6042-1.68531c.12279-1.46827-.48772-2.13222-1.98424-2.11649a8.78923,8.78923,0,0,0-.98255.07027c-1.35756.16768-2.713.353-4.071.51653q-4.9707.59845-9.94333,1.18158c-3.10056.36151-6.21663.51651-9.33215.67619a3.44031,3.44031,0,0,1-1.94776-.00013,9.29149,9.29149,0,0,0-2.32423.002c-1.33011.32757-2.70693-.11-4.03528.24641a18.98874,18.98874,0,0,0-3.19239.07788c-1.98812.352-4.01113-.12371-5.99821.25249l-6.48719.0784a33.06535,33.06535,0,0,1-6.21913-.00253c-2.2944-.12364-4.58931-.23841-6.88283-.37686-.59873-.03618-1.19216-.15324-1.78951-.21994a1.3701,1.3701,0,0,1-1.11616-.84583c-.519-1.02521-1.09443-2.02326-1.57907-3.064a1.62623,1.62623,0,0,0-1.83555-1.03732c-1.1952.13668-2.39831.22661-3.58357.42359a52.47251,52.47251,0,0,0-8.54374,2.31145c-1.49827.5187-3.0033,1.03035-4.53232,1.44556a186.17518,186.17518,0,0,1-24.66351,4.59756c-3.41654.44824-6.85359.73046-10.25358,1.31732a100.508,100.508,0,0,0-14.04855,3.28752A37.14777,37.14777,0,0,0-394.59,128.4003a13.96146,13.96146,0,0,0-4.93924,4.476A34.27183,34.27183,0,0,0-402.122,137.439a75.28381,75.28381,0,0,0-3.57245,9.17118,192.47258,192.47258,0,0,0-5.58853,21.9362,27.87612,27.87612,0,0,1-1.017,4.47279c-.06839.541-.10315,1.08867-.2104,1.62177-1.23055,6.11632-2.48053,12.22875-3.709,18.34544q-3.863,19.23426-7.71,38.47172-2.94822,14.72865-5.88762,29.45906c-2.75447,13.79269-5.54332,27.57862-8.24381,41.38188-1.16546,5.95727-2.57173,11.874-3.27491,17.91541-.21483,1.84566-.35742,3.70072-.49182,5.55439-.15822,2.18135-.20651,4.37222-.41871,6.54764-.36694,3.76129-.30686,7.53863-.502,11.30607-.09,1.7377.19519,3.49178.23358,5.24009.0338,1.539.28627,3.05005.47143,4.5685a10.38567,10.38567,0,0,0,.57634,2.21987c.57592,1.60472,1.23657,2.03688,2.92242,2.094,3.8365.13,7.65469-.233,11.47418-.47344,1.36044-.08569,2.72752-.17894,4.08838-.30661,1.905-.17877,3.8085-.3735,5.71395-.547,2.28642-.20814,4.57326-.41327,6.86177-.59681,1.79761-.14422,3.598-.2536,5.39718-.37839a50.99849,50.99849,0,0,1,5.40558-.31146c6.29492.01613,12.58232-.29279,18.87315-.449,2.789-.06923,5.57641-.22665,8.36242-.38161q4.01451-.22329,8.02435-.52829c3.05415-.2345,6.10775-.48434,9.15605-.784,4.35927-.42848,8.65914-1.24663,12.96811-2.01565,6.73113-1.2013,13.474-2.33785,20.21792-3.46634q9.54929-1.59791,19.11145-3.11861,6.96818-1.11192,13.94995-2.138c4.27446-.63286,8.55147-1.25186,12.83508-1.81871,3.74132-.495,7.49326-.91048,11.24123-1.35488a3.00922,3.00922,0,0,1,.65229.01329.42459.42459,0,0,1,.40935.43157,9.92324,9.92324,0,0,1-.18679,1.45524q-4.33187,21.14645-9.31481,42.14894c-3.97056,16.82992-8.17968,33.59826-13.128,50.17228-2.34859,7.86655-4.86325,15.67837-7.89822,23.31285a3.91782,3.91782,0,0,1-.62526,1.32631,4.62341,4.62341,0,0,0-1.04309,1.30876c-2.16155,3.29057-3.41645,7.10589-5.92188,10.19947a1.09054,1.09054,0,0,0,.05,1.61379h.98568a6.8482,6.8482,0,0,0,3.07955-3.26166c3.78114-6.46534,6.33135-13.46218,8.71215-20.512,5.589-16.54942,10.03253-33.42651,14.19627-50.38114q3.13177-12.75232,6.07216-25.54943c2.23478-9.81561,4.29882-19.66832,6.44775-29.50257.43884-2.00839.90422-2.38226,2.90266-2.36948.93488.006,2.1389-.44114,2.70705.61164.50231.93091-.31405,1.77075-.79346,2.53229a3.428,3.428,0,0,0-.14347,3.71362c.586,1.11812,1.30751,2.14989,1.919,3.24821.29362.38478.823.456,1.07359.95272a16.36643,16.36643,0,0,0,4.24375,4.90824,4.44735,4.44735,0,0,1,1.56816,4.37047,262.73448,262.73448,0,0,1-5.35557,27.689c-4.7,19.36192-10.67274,38.35288-16.80569,57.2948-2.544,7.85744-5.32156,15.63668-8.012,23.445-.31221.90622-.82241,1.84169-.12692,2.81029h.98568a4.24669,4.24669,0,0,0,1.79427-2.63795c1.04509-3.17159,2.2141-6.30031,3.27817-9.46471,4.67554-13.90449,9.309-27.8229,13.43072-41.90491,5.42889-18.54757,10.724-37.12693,13.196-56.36631.1047-.815.40128-1.38129,1.32121-1.31244a2.3446,2.3446,0,0,0,2.02994-1.14724,43.12035,43.12035,0,0,0,6.08812-9.89219,23.59383,23.59383,0,0,1,1.84081-3.83737,2.02746,2.02746,0,0,1-.16365,1.15856c-1.83083,4.634-3.56251,9.34117-6.17957,13.583-1.42482,2.30944-1.02362,4.05922.3682,5.98283a12.25381,12.25381,0,0,0,2.0068,2.16q2.22653,1.89113,4.12072-.37835a20.18887,20.18887,0,0,0,1.65958-2.44293,62.55985,62.55985,0,0,0,4.66137-10.48336,19.06017,19.06017,0,0,0,.264,2.84705,6.79748,6.79748,0,0,1-1.35451,5.21519A124.70162,124.70162,0,0,0-241.03681,380.094c-7.86726,15.43785-13.37482,31.62777-15.51118,48.88517a87.31058,87.31058,0,0,0-.69532,12.92273c.08013,3.15346.20033,6.33089.54342,9.48995a98.07408,98.07408,0,0,0,3.40734,17.36891,3.28018,3.28018,0,0,0,1.69229,2.29791h.65714a1.4069,1.4069,0,0,0,.4609-1.59979c-.24161-.88738-.4754-1.7771-.71408-2.66544a45.988,45.988,0,0,1-1.632-6.56832,98.94737,98.94737,0,0,1-1.84912-15.29109,100.10942,100.10942,0,0,1,1.48632-21.5693,138.37718,138.37718,0,0,1,6.4279-23.74546,132.33867,132.33867,0,0,1,17.88675-34.41382c7.11408-9.58992,14.09709-19.24953,20.06919-29.60831,4.5403-7.87524,9.019-15.79372,12.47123-24.21054,3.73756-9.1126,7.11295-18.37527,11.29658-27.302,2.20571-4.70637,4.3571-9.45013,7.42834-13.68988a3.616,3.616,0,0,1,2.42734-1.811,35.99618,35.99618,0,0,1,3.58507-.41273c2.10928-.02858,2.46845.53,1.55233,2.44832-1.22662,2.56847-2.69648,5.02681-3.73915,7.67508a307.68482,307.68482,0,0,0-10.75313,32.39913c-5.61109,20.74684-9.15476,41.76988-8.75234,63.35371a30.7056,30.7056,0,0,0,4.88314,16.29052c4.31478,6.74864,10.632,11.06768,17.87606,14.14986,10.33981,4.39925,21.28365,5.77766,32.375,6.23493,5.84818.241,11.69026-.20885,17.53677-.54755a88.94325,88.94325,0,0,0,18.93009-2.94118A63.936,63.936,0,0,0-70.79979,388.543a66.20915,66.20915,0,0,0,14.24846-24.86543c.42054-1.33.96049-1.85013,2.43135-1.65481a3.76958,3.76958,0,0,0,4.05262-5.3488,28.44814,28.44814,0,0,0-1.8132-3.67594c-1.90553-3.54-3.52245-7.12285-3.13842-11.355a41.36219,41.36219,0,0,0-.05231-7.22608,1.24083,1.24083,0,0,0,.06016.19987A90.81469,90.81469,0,0,0-43.98463,354.7137c1.49969,2.02907,3.39937,2.38711,5.59726,1.14557,2.99737-1.69317,5.66268-3.94307,8.89945-5.24435a1.40984,1.40984,0,0,0,.69386-2.07214c-.3786-.91178-.87359-1.76369-1.31812-2.64192-3.31121-6.54112-6.84619-12.96894-9.57785-19.79767-2.07523-5.18791-3.76434-10.514-5.58155-15.35994a15.58321,15.58321,0,0,0,.73313,1.54c3.044,5.50806,6.06167,11.03033,9.19039,16.49181,4.75926,8.30769,9.6325,16.48537,15.6574,24.02175,12.02842,15.04584,21.35459,31.654,26.81,50.24916,4.08579,13.92709,5.56016,28.086,3.31614,42.51843A66.77343,66.77343,0,0,1,6.207,461.55428a6.41236,6.41236,0,0,1-.549,1.85059c-.82371,1.88865-1.7583,3.72248-2.63958,5.58255-.32345.68262-.73221,1.3873.016,2.07122h.98564a4.93214,4.93214,0,0,0,1.8538-2.19677,72.86439,72.86439,0,0,0,6.52349-19.8778c.90576-5.05769,1.77827-10.12444,1.16-15.29794.21675,1.25169.14113,2.54733.45388,3.78411,2.66832,10.54929,5.06107,21.16358,7.49769,31.76731a2.67883,2.67883,0,0,0,1.23916,1.82109h.6571c1.10371-.87113.66629-1.97939.42882-3.0254-3.064-13.49569-6.1281-26.99158-9.78273-40.34406a7.90345,7.90345,0,0,1-.33105-1.93632,76.53889,76.53889,0,0,0-1.57188-12.6805c-3.0074-16.01361-9.35692-30.7004-17.775-44.55852a44.08653,44.08653,0,0,1-4.25976-7.92847A160.63947,160.63947,0,0,1-17.573,330.42357c-.53928-3.57245-.04947-4.56963,3.25481-5.71357A18.851,18.851,0,0,1-4.358,323.668c3.37848.09233,6.56627,1.10647,9.78749,1.982a4.71191,4.71191,0,0,1,3.33787,3.0798c3.35224,8.50318,6.8492,16.94807,10.3383,25.39572,3.78147,9.15547,7.40385,18.37966,11.50351,27.39939,2.966,6.52541,6.07646,12.9862,8.92067,19.56655,6.55842,15.17339,13.0459,30.37846,18.57481,45.96609,2.59713,7.32192,5.24857,14.642,6.28753,22.407a2.29252,2.29252,0,0,0,.74032,1.59411h.98573c1.24693-1.67825.65952-6.14694-1.03335-7.86074-.173-.511-.363-1.01689-.516-1.53378-.55449-1.87336-1.05708-3.763-1.652-5.62333-.99166-3.10119-2.03947-6.1845-3.06363-9.27537.32512-1.96857-.47486-3.70234-1.12928-5.47046-.7216-1.94956-1.47186-3.88834-2.23725-5.82032-2.53764-6.40518-4.98779-12.84615-7.76365-19.155q-4.57991-11.11-9.49638-22.07452-3.014-6.6425-6.12426-13.24084c-2.4347-5.13845-4.37807-10.49121-6.74108-15.66212-2.93587-7.49163-6.11933-14.8827-9.09631-22.358-.10679-.60007-.60136-.981-.80173-1.57192-1.54239-4.54828-3.52428-8.92547-5.34475-13.36576a2.48921,2.48921,0,0,0-.29972-.55908,5.50059,5.50059,0,0,0,1.89316.97687c4.56992,1.78337,9.2188,3.351,13.81446,5.06107,5.74557,1.89032,11.48914,3.78795,17.28334,5.53116,2.33585.70272,4.72793,1.20055,7.03745,1.99092,8.63858,2.52916,17.39548,4.59052,26.15171,6.65973,2.37687.56163,4.81917.81051,7.15276,1.5568,8.85483,1.73143,17.69913,3.52662,26.66174,4.63794a6.32931,6.32931,0,0,0,1.42106.34923c6.649,1.0181,13.35105,1.56578,20.04124,2.19021,2.34579.219,4.75091.93806,7.1058-.06856.9279.03451,1.85924.02945,2.783.11076,2.99587.26362,5.98739.57529,8.98325.83854,5.55615.48818,11.1143.95318,16.6712,1.4323,1.30742.11276,2.622.1842,3.91842.37572,5.14112.75954,10.29435,1.39578,15.48369,1.71552a31.81834,31.81834,0,0,0,6.71267-.15893,5.816,5.816,0,0,0,1.87728-.5529,1.4162,1.4162,0,0,0,.81778-1.31248c.04136-1.585.14238-3.16871.17572-4.75379C197.063,341.81407,197.1721,329.56464,195.94347,317.34488Zm-242.38085-9.5857c.15542.3316.31167.74224.48137,1.20055Q-46.19452,308.3536-46.43738,307.75917Zm242.65776,38.00909c-.01345,1.93511-.41712,2.24235-2.26173,1.83642-3.26191-.71784-6.55692-1.25144-9.86169-1.7189-4.16918-.58975-8.34371-1.14181-12.51731-1.69993-2.27543-.30423-4.55037-.61883-6.8319-.86975-1.6831-.185-3.3763-.28-5.06583-.4045-1.1449-.08439-2.29357-.21712-3.41959-.37973-1.84628-.26646-3.72323-.11623-5.54946-.52031a2.977,2.977,0,0,0-.65308-.06037c-3.77471.01817-7.52969-.51864-11.31233-.36222a41.44743,41.44743,0,0,1-5.40332-.21783c-1.79139-.16026-3.59054-.33181-5.391-.43876-.92582-.055-1.84779-.201-2.76734-.33469-4.06064-.59063-8.12679-1.15155-12.15551-1.93765-6.39381-1.24751-12.78395-2.51445-19.11392-4.06327-4.148-1.01489-8.30042-2.01139-12.44437-3.0422q-3.10733-.773-6.19035-1.6432c-1.87494-.527-2.13063-.91178-1.87486-2.8054.46174-3.41833,1.12844-6.80015,1.83333-10.17645a163.68128,163.68128,0,0,1,5.89548-20.16424c.78928-2.27393,1.69764-4.50792,2.5968-6.742.61741-1.534.84869-1.64027,2.4931-1.21455,4.18664,1.08386,8.35992,2.21974,12.55,3.29016,5.35879,1.36884,10.76578,2.52874,16.23119,3.37488a42.45713,42.45713,0,0,0,6.83767.80925,4.81176,4.81176,0,0,1,.814.09413,2.04225,2.04225,0,0,1,1.8086,1.64888,84.76868,84.76868,0,0,1,2.46026,12.05411c.16478,1.63075.48146,3.25168.55432,4.88485a41.792,41.792,0,0,1-.12617,7.5388c-.19912,1.462-.32145,2.93144-.62225,4.38225a27.65968,27.65968,0,0,1-2.20825,6.68442c-.17965.36418-.548.75356-.18124,1.19608.21934.26479.659-.08932.998-.79263a30.93225,30.93225,0,0,0,2.45809-7.80881c.40341-2.15649.4741-4.34661.70748-6.51919a11.9934,11.9934,0,0,0-.2-4.08617,3.03111,3.03111,0,0,1-.06952-.65217,63.678,63.678,0,0,0-1.55793-11.69319,45.22485,45.22485,0,0,0-1.29-5.09128,4.90582,4.90582,0,0,1-.2043-.79321.90216.90216,0,0,1,.06392-.47573c.30264-.6845,2.04055-.89594,2.41531-.26592.4182.70305.75344,1.45691,1.10371,2.1986.35044.74186.66044,1.50286,1.013,2.24364,1.24651,2.61919,2.47372,5.24816,3.76317,7.84621q3.94383,7.94631,8.61752,15.48949a77.75571,77.75571,0,0,0,7.42884,10.41965,39.0516,39.0516,0,0,0,6.266,6.01651,20.25127,20.25127,0,0,0,2.11166,1.2539.4551.4551,0,0,0,.42815-.1011.43951.43951,0,0,0-.00927-.42994,3.19259,3.19259,0,0,0-.74207-.62693,37.20049,37.20049,0,0,1-4.18748-3.16114,8.37249,8.37249,0,0,1-1.15568-1.16421,88.42047,88.42047,0,0,1-7.04113-9.06706,124.4341,124.4341,0,0,1-6.4462-10.67884c-.93367-1.79523-1.99067-3.52612-2.93119-5.318-1.32271-2.52-2.65069-5.039-3.77763-7.65682-.30281-.70343-.64924-1.38793-.97211-2.08279-.78394-1.68736-1.57113-3.37325-2.345-5.06525a3.24935,3.24935,0,0,1-.37375-1.74443,62.45743,62.45743,0,0,0,.121-6.72825,26.24146,26.24146,0,0,0-.26529-5.56647,8.45578,8.45578,0,0,1-.05256-1.63856,17.89414,17.89414,0,0,0-.26571-4.08738,3.59045,3.59045,0,0,1-.05582-.81778,27.16113,27.16113,0,0,0-.26713-3.92461c-.17288-1.184-.1682-2.39267-.33014-3.58992-.21925-1.622-.26513-3.2668-.40943-4.89968-.11071-1.25219-.23446-2.50421-.39447-3.75093-.52223-4.06749-1.01614-8.13945-1.60982-12.19675-.75235-5.142-1.45615-10.29226-2.44514-15.39816-.83257-4.29815-1.53662-8.62189-2.41531-12.9102-1.05466-5.14722-2.1938-10.27819-3.37179-15.39883-1.01865-4.428-2.08534-8.84676-3.23551-13.24224-1.27467-4.87117-2.65119-9.716-4.01627-14.56307-.80106-2.84492-1.65544-5.67505-2.51023-8.50447a2.35467,2.35467,0,0,1,.1235-1.89951,20.72807,20.72807,0,0,0,1.99376-6.56715,5.78594,5.78594,0,0,0-.429-3.043,1.83907,1.83907,0,0,0-1.93084-1.23462,2.93258,2.93258,0,0,0-1.83141.61912,4.81712,4.81712,0,0,0-.72545.66445,2.8965,2.8965,0,0,1-3.13415.88984,8.85745,8.85745,0,0,1-3.195-1.24651,5.63633,5.63633,0,0,0-3.411-.95429c-5.63987.02914-11.28008-.00825-16.92.025-1.59987.00944-3.15321-.32564-4.73244-.45764a3.57667,3.57667,0,0,1-1.82857-.69129,25.13219,25.13219,0,0,0-6.26714-3.20158,36.54834,36.54834,0,0,0-6.57856-2.04066c-.16168-.02843-.32036-.07545-.48263-.09866-1.43911-.20561-1.99986.08968-2.5038,1.46856a9.43738,9.43738,0,0,1-3.50924,4.43512,3.96724,3.96724,0,0,1-2.2497.90267c-.79572.01784-1.11131.45439-1.27308,1.21367a14.45341,14.45341,0,0,1-1.82665,4.37373q-4.87846,8.17668-9.76168,16.35049c-1.15418,1.924-2.305,3.85406-3.55562,5.71526-1.92316,2.862-3.61971,5.872-5.69945,8.63215-.98748,1.31049-1.8879,2.68673-2.82248,4.03685a30.888,30.888,0,0,1-4.31215,4.935,3.66784,3.66784,0,0,1-.38044.31171.465.465,0,0,1-.76112-.27735,5.21167,5.21167,0,0,1,.09893-2.278c.45054-1.80618.862-3.62388,1.37485-5.41239,1.70574-5.94713,3.54367-11.85418,5.56208-17.70309,1.42858-4.13952,2.8915-8.26719,4.35693-12.3938a8.48356,8.48356,0,0,1,.71809-1.46929q4.19074-7.05974,8.40011-14.10833c.83967-1.41055,1.66931-2.82708,2.50254-4.24146a1.60022,1.60022,0,0,0,.22836-.43262.57062.57062,0,0,0-.05874-.44185.38488.38488,0,0,0-.57747.04,7.99718,7.99718,0,0,0-.8,1.03463c-.41419.64433-.79839,1.30815-1.18785,1.96815q-2.37788,4.03024-4.75249,8.06245c-1.5611,2.63736-3.13892,5.26491-4.69283,7.90649a9.16371,9.16371,0,0,0-.697,1.48331c-.64114,1.747-1.26113,3.502-1.87469,5.259-.9564,2.73916-1.93978,5.46977-2.84112,8.22708-1.25846,3.85-2.46344,7.71772-3.66834,11.585-.56978,1.82884-1.11875,3.66547-1.61876,5.51439a38.77915,38.77915,0,0,0-1.57222,7.70545,1.67528,1.67528,0,0,1-.11548.47486.53144.53144,0,0,1-.48789.37058.49309.49309,0,0,1-.5087-.33594,2.4139,2.4139,0,0,1-.153-.79806c-.0071-2.19006-.038-4.38139.02557-6.5698.03-1.03281.23864-2.0589.32186-3.09689.18316-2.28711.45789-4.56835.75035-6.84492.36214-2.82038.77508-5.6343,1.17507-8.44974.35387-2.49126.70405-4.98324,1.08516-7.47039.38938-2.54165.8314-5.0753,1.21543-7.61772a5.1712,5.1712,0,0,1,1.14691-2.66329,41.059,41.059,0,0,0,3.64527-5.25862c1.774-2.95626,3.566-5.902,5.31124-8.87507,1.27408-2.17019,2.48349-4.37824,3.72557-6.56728.297-.52345.61707-1.0339.91144-1.55876a3.225,3.225,0,0,0,.55073-1.35568.38929.38929,0,0,0-.12843-.28251.32115.32115,0,0,0-.43609.03785,1.79987,1.79987,0,0,0-.30966.37743c-.371.60721-.75335,1.20882-1.0931,1.83342-2.58936,4.76043-5.32344,9.4368-8.12671,14.07382a75.13265,75.13265,0,0,1-4.19232,6.2799,2.06288,2.06288,0,0,1-.29462.39305c-1.216.97672-1.46292,2.36816-1.68042,3.79213-.72678,4.759-1.50219,9.51065-2.20516,14.273-.42313,2.86662-.75185,5.74727-1.11248,8.62291-.30607,2.44029-.67021,4.87637-.87543,7.32548a62.09264,62.09264,0,0,0-.42079,8.35085,11.83994,11.83994,0,0,1-.07395,1.80125.648.648,0,0,1-.64314.62777.6954.6954,0,0,1-.7404-.52946,5.51109,5.51109,0,0,1-.16778-1.29123c-.01872-1.58774-.00744-3.17585-.008-4.76382-.00058-1.2594.00142-2.51886-.00125-3.77828a13.41462,13.41462,0,0,1,.18424-2.45174,10.59617,10.59617,0,0,0,.13637-1.79657c.017-1.80685.00376-3.61394.00869-5.421a30.20761,30.20761,0,0,1,.24048-4.41914,25.84514,25.84514,0,0,0,.085-3.60736,15.63206,15.63206,0,0,1,.23922-3.43273,4.246,4.246,0,0,0,.08172-1.14355,28.948,28.948,0,0,1,.51572-5.38254c.27139-1.94981.56176-3.89783.78109-5.85363a5.31876,5.31876,0,0,1,.7318-2.323,6.96652,6.96652,0,0,0,.94044-2.2624,4.5927,4.5927,0,0,1,.573-1.35407c1.97571-3.34482,3.98786-6.66928,5.9-10.05018,1.72371-3.04759,3.34489-6.15346,4.988-9.246a10.81025,10.81025,0,0,0,.82363-1.96477,14.00085,14.00085,0,0,1,1.75479-3.69434,27.22475,27.22475,0,0,0,2.12169-4.79576.65641.65641,0,0,0-.03534-.62783.29336.29336,0,0,0-.42481-.11656,2.03694,2.03694,0,0,0-.644,1.11528,37.34765,37.34765,0,0,1-1.72137,3.72551c-.14706.2936-.30148.58375-.46048.87111a1.39494,1.39494,0,0,1-1.505.76127c-.9767-.12026-1.959-.21025-2.92752-.3791a13.16744,13.16744,0,0,0-4.73369.0042,3.41522,3.41522,0,0,1-.81377.09425c-2.08827-.12293-4.14252.30139-6.21876.37672-.87092.03163-1.73624.20559-2.60507.3067q-2.52377.29379-5.049.57594a10.57257,10.57257,0,0,1-1.14591.0748c-1.20523.002-2.39818.151-3.59581.24144a27.45209,27.45209,0,0,1-6.551-.11243c-.86131-.14173-1.75153-.11886-2.60666-.28435-1.17991-.2283-2.35239-.51918-3.50465-.86181a60.08742,60.08742,0,0,1-10.72944-4.0758c-.388-.20194-.77683-.40594-1.14649-.63873a1.56428,1.56428,0,0,1-.75979-1.21073c-.13929-1.5235-.2607-3.04867-.37843-4.574a4.99458,4.99458,0,0,1,.0188-.82035c.06091-.6864.2673-.88287.91947-.86432.43742.01241.87585.03812,1.31093.08471,1.73816.186,3.47331.40383,5.21365.56581.81535.07593,1.64006.057,2.46068.07178a44.26789,44.26789,0,0,1,6.06117.26463,25.21323,25.21323,0,0,0,3.77237.06346,13.78217,13.78217,0,0,1,2.45116.19143,11.57607,11.57607,0,0,0,1.797.13319,63.93159,63.93159,0,0,1,6.88237.26918,40.40726,40.40726,0,0,0,5.08656.06463,16.89548,16.89548,0,0,1,3.59765.23728,6.98493,6.98493,0,0,0,1.472.08608c3.833.00639,7.668.07957,11.49842-.01913a20.75066,20.75066,0,0,0,9.17067-2.2479,5.72253,5.72253,0,0,0,1.50161-.99043,3.84341,3.84341,0,0,1,2.84688-1.02138,37.20733,37.20733,0,0,1,8.45643.993c1.12569.22911,2.236.537,3.34781.82981a14.663,14.663,0,0,0,3.39778.51847c1.03452.02523,2.06579.20058,3.09756.31781,1.57439.17885,3.14652.37789,4.72233.54377,1.52175.16016,3.04742.28313,4.57017.43408.97887.09707,1.95574.21489,2.93345.32376,1.629.18142,3.25707.37187,4.88736.54212,1.52191.15893,3.04642.29327,4.56925.44448q2.60925.25913,5.21741.52992a4.41361,4.41361,0,0,0,.65016.08456,37.41337,37.41337,0,0,1,5.5564.42974c1.84729.18213,3.70961.19022,5.55139.49065,1.23506.20148,2.49887.25456,3.7493.38858a87.66547,87.66547,0,0,1,13.41163,2.30464,25.42286,25.42286,0,0,1,3.39218,1.23157,8.89663,8.89663,0,0,1,2.29,1.57416q2.53567,2.207,5.127,4.34966a16.79712,16.79712,0,0,0,4.16458,2.60415,4.23012,4.23012,0,0,1,2.11693,1.97129,16.469,16.469,0,0,1,.81811,1.60944c.78661,1.92571,1.6048,3.84189,2.29766,5.80181q2.21669,6.2711,4.31323,12.58454,2.77306,8.33814,5.46056,16.70465,2.34692,7.26683,4.63326,14.55321,2.66978,8.4563,5.3094,16.92213c.71742,2.29887,1.36391,4.6206,2.11835,6.907.47954,1.4534,1.07238,2.87158,1.6587,4.28718q3.20447,7.73634,6.44144,15.45918c4.91719,11.71023,9.63534,23.50127,14.30686,35.31073,1.69087,4.27455,3.378,8.55381,4.82427,12.921.37835,1.1424.87944,2.23671,1.19278,3.40764q1.91,7.13563,3.99663,14.22247a96.25816,96.25816,0,0,1,2.84672,13.1508c.326,2.21832.67247,4.43481.934,6.66107.19745,1.68113.14848,3.39832.43609,5.06019.39422,2.27832.15993,4.58613.53318,6.86612a27.61929,27.61929,0,0,1,.08205,4.09937,24.26644,24.26644,0,0,0,.27307,5.073,4.57249,4.57249,0,0,1,.04988.98234C196.22656,339.964,196.24052,342.86631,196.22038,345.76826Z" style="stroke: #000;stroke-miterlimit: 10;stroke-width: 2.8346457481384277px"/>
      <path d="M-29.20728,306.4034a11.65428,11.65428,0,0,0-4.2869,1.57458,34.76394,34.76394,0,0,0-4.95228,3.50785,3.47262,3.47262,0,0,1-1.36362.93964,1.89051,1.89051,0,0,1,.31637-1.25914c1.31192-3.13124,2.54912-6.29087,3.62428-9.51146a48.15247,48.15247,0,0,0,1.93-7.2944,16.73433,16.73433,0,0,0,.18931-2.452,5.66461,5.66461,0,0,0-1.24081-3.49429,3.301,3.301,0,0,0-2.6769-1.37509,5.89718,5.89718,0,0,0-2.55172.51983,13.60864,13.60864,0,0,0-2.8113,1.68263,35.88009,35.88009,0,0,0-4.2222,3.89176c-.28893.29916-.49625.71688-1.00373.83a3.068,3.068,0,0,1,.399-1.581,116.48987,116.48987,0,0,0,4.38889-14.95612,44.65769,44.65769,0,0,0,1.181-10.41791,20.18042,20.18042,0,0,0-.2852-2.93784,5.6512,5.6512,0,0,0-1.46641-3.22882c-.39506-.39283-.33345-.596.1575-.87671.37962-.217.77271-.41124,1.1652-.60468a35.02654,35.02654,0,0,1,6.43546-2.45011A79.39615,79.39615,0,0,1-25.36092,254.638c1.46665-.178,2.94181-.28559,4.41311-.42524a.4718.4718,0,0,1,.66879-.0292c1.91293.06742,3.82562.06054,5.73418.3045a35.73992,35.73992,0,0,1,8.743,2.136c20.90265,8.30627,41.99316,16.10107,63.32721,23.23181,1.92681.644,1.83123.49713,1.03321,2.32772a124.61474,124.61474,0,0,0-7.86417,26.036c-.79834,4.08359-1.39474,8.199-1.90812,12.32681-.06746.54245-.08639,1.091-.12786,1.63671-.28889.40047.1.96234-.31729,1.33221l.00834-.0168a2.02919,2.02919,0,0,1-2.01873.26c-13.44269-3.70465-26.92231-7.27836-39.943-12.36139a52.71018,52.71018,0,0,0-19.03284-3.82141,7.6665,7.6665,0,0,1-.98284-.0509c-1.47151-.19653-1.88116-.91722-1.2076-2.269a42.36127,42.36127,0,0,1,5.43261-7.98461c.17395-.21073.37059-.40244.53584-.6209.16709-.22091.34232-.46465.23543-.74424-.14571-.38118-.51478-.37717-.83825-.33871a11.99155,11.99155,0,0,0-2.84439.76337c-4.87118,1.85413-9.00118,4.92164-13.10843,8.02059A10.125,10.125,0,0,1-29.20728,306.4034Z" style="fill: #fff"/>
      <path d="M70.658,344.44188c-.93158-.20407-1.9534-.40039-2.961-.65327-5.786-1.45205-11.56184-2.94373-17.29008-4.61209-1.65416-.48181-1.7154-.56475-1.72154-2.271-.00706-1.97044-.04227-3.9441.05386-5.91053.10131-2.07248.33634-4.13866.52633-6.20636.115-1.25188.26788-2.50034.3821-3.75226.35319-3.87222.99066-7.703,1.69583-11.52234a127.42343,127.42343,0,0,1,5.31224-20.14049c.79766-2.21277,1.70954-4.38436,2.57278-6.57331.08013-.20322.18309-.39775.28127-.59339.66771-1.33091.7837-1.39215,2.142-.96567,3.86376,1.21313,7.72122,2.4464,11.58743,3.65155,2.87347.89568,5.75672,1.75992,8.63556,2.63823.314.09578.63506.17379.94012.29266a.7054.7054,0,0,1,.466.91638c-.07925.26046-.19986.50844-.30325.76148a169.41457,169.41457,0,0,0-8.093,24.964,121.92422,121.92422,0,0,0-2.42763,13.23232c-.20716,1.677-.31541,3.37746-.49068,5.0584-.34224,3.28152-.21558,6.55867-.24815,9.83878a9.43473,9.43473,0,0,1-.05523,1.14575C71.59478,344.25425,71.26325,344.48993,70.658,344.44188Z" style="fill: #242424"/>
      <path d="M-29.20728,306.4034a78.89282,78.89282,0,0,1,11.81757-8.54961,31.37335,31.37335,0,0,1,5.19292-2.43938,11.37805,11.37805,0,0,1,4.32628-.82421,6.93459,6.93459,0,0,1,.97457.106.44735.44735,0,0,1,.25926.75695c-.31452.37769-.66045.7294-.99487,1.09044a47.5232,47.5232,0,0,0-6.43694,8.88667c-.0811.1427-.16384.285-.23427.433-.27434.57683-.13853.84964.449.89584.21778.01717.43745.01865.65612.0164A54.10576,54.10576,0,0,1,7.73153,311.033c4.67518,1.88526,9.46562,3.425,14.27379,4.91169,8.46807,2.61838,17.00119,5.01288,25.56431,7.30054.26367.07047.52007.16825.77985.25332a13.338,13.338,0,0,1-.18241,3.27017,3.44516,3.44516,0,0,0-.07452.65179c-.00273,2.95508-.46376,5.88775-.38848,8.84989.0525,2.06582-.0981,2.13861-2.007,1.54214-5.17087-1.61585-10.36459-3.16332-15.50377-4.87439q-10.90454-3.63068-21.56551-7.93993a42.90754,42.90754,0,0,0-12.23256-3.01669,24.96829,24.96829,0,0,0-11.4953,1.19015,16.19227,16.19227,0,0,0-8.81985,7.93949c-.35251.68632-.37332,1.10937-.08848,1.14154.49773.05623.62588-.36478.81912-.67669.46072-.74359.87053-1.52072,1.363-2.24193a6.90174,6.90174,0,0,1,1.78021-1.85257c.34813.39674.10981.70172.02731.98957-.93527,3.2613-1.89829,6.51471-2.82405,9.7787-.388,1.368-.70224,2.75687-1.05647,4.13457a9.20357,9.20357,0,0,1-.28885.933.33085.33085,0,0,1-.547.09377,8.9201,8.9201,0,0,1-.6649-.93174c-1.25212-2.12021-2.46693-4.263-3.7511-6.36338a1.82717,1.82717,0,0,1-.04011-2.11038,46.75739,46.75739,0,0,0,3.78968-8.71738,39.08887,39.08887,0,0,0,1.76353-9.32914,20.14714,20.14714,0,0,0-.67641-6.177,4.015,4.015,0,0,0-4.23664-3.35752C-28.76982,306.417-28.98857,306.41042-29.20728,306.4034Z" style="fill: #9b9b9b"/>
      <path d="M19.48248,116.91776q5.073-.00009,10.14593-.00006a3.59856,3.59856,0,0,1-1.74408.28214q-3.32873,0-6.65741-.00185A3.62354,3.62354,0,0,1,19.48248,116.91776Z" style="fill: #686868"/>
      <path d="M8.63969,116.58836c1.23816.00243,2.47692-.01538,3.7142.01845a7.91432,7.91432,0,0,1,1.26094.23473q-1.69872.0145-3.39847.02862A3.24279,3.24279,0,0,1,8.63969,116.58836Z" style="fill: #686868"/>
      <path d="M48.3411,323.51532a3.33668,3.33668,0,0,1,.31737-1.33217A1.39073,1.39073,0,0,1,48.3411,323.51532Z" style="fill: #9b9b9b"/>
      <path d="M31.22421,116.84028a1.725,1.725,0,0,1,1.03293-.24939A1.74007,1.74007,0,0,1,31.22421,116.84028Z" style="fill: #686868"/>
      <path d="M32.90648,116.52944a1.6816,1.6816,0,0,1,.99667-.27592A1.728,1.728,0,0,1,32.90648,116.52944Z" style="fill: #686868"/>
      <path d="M35.50272,115.86l.71042-.28968Z" style="fill: #686868"/>
      <path d="M34.493,116.17882q.36566-.13545.7312-.27083Q34.85855,116.04348,34.493,116.17882Z" style="fill: #686868"/>
      <path d="M125.86085,295.58463q.34912-.13488.69807-.26956Q126.20974,295.45,125.86085,295.58463Z" style="fill: #686868"/>
      <path d="M36.45218,115.53363l.406-.26Z" style="fill: #686868"/>
      <path d="M37.143,115.21369l.36783-.25653Q37.32661,115.08573,37.143,115.21369Z" style="fill: #686868"/>
      <path d="M37.80024,114.88517l.372-.27032Z" style="fill: #686868"/>
      <path d="M38.4209,114.548l.4249-.31693Z" style="fill: #686868"/>
      <path d="M38.83682,114.23878q.17224-.14469.34448-.2892Q39.009,114.09436,38.83682,114.23878Z" style="fill: #686868"/>
      <path d="M39.21924,113.9185q.14541-.134.29078-.26768Q39.36455,113.785,39.21924,113.9185Z" style="fill: #686868"/>
      <path d="M39.57412,113.59q.13211-.13061.26415-.26084Q39.70609,113.45991,39.57412,113.59Z" style="fill: #686868"/>
      <path d="M39.90749,113.26216a.48838.48838,0,0,1,.21766-.22478A1.62763,1.62763,0,0,1,39.90749,113.26216Z" style="fill: #686868"/>
      <path d="M127.89863,300.77936a10.27576,10.27576,0,0,1,.68367,1.19091c1.25986,3.09967,2.88337,6.02275,4.37421,9.00884a152.27878,152.27878,0,0,0,10.88539,18.71755,55.67709,55.67709,0,0,0,7.65453,9.402,10.61443,10.61443,0,0,1,.78811.83484c.22737.26226.1421.57081-.17623.628a5.0291,5.0291,0,0,1-2.895-.041,6.23905,6.23905,0,0,0-3.41026-.13115,7.79123,7.79123,0,0,1-4.04248-.20282,4.93757,4.93757,0,0,0-1.61762-.20972c-2.07861.01544-4.15959-.11651-6.23648.09064a2.15329,2.15329,0,0,1-.96607-.08972,6.77062,6.77062,0,0,0-2.75154-.33839,15.29574,15.29574,0,0,1-2.76943-.30037c-2.1616-.32431-4.33262-.59247-6.4969-.88706-3.69294-.50267-7.32364-1.29591-10.98117-1.96639-3.55032-.65083-7.09089-1.34485-10.61105-2.13873-2.88213-.65-5.75206-1.35387-8.62729-2.03458q-2.87451-.68048-5.74861-1.36314c-.31962-.07588-.64008-.149-.957-.23487q-3.72194-1.00866-7.44232-2.02327-.39574-.10793-.78426-.24157a1.0143,1.0143,0,0,1-.73682-.98384,9.20247,9.20247,0,0,1,.06341-1.63462,132.87265,132.87265,0,0,1,2.86268-13.8203,156.70944,156.70944,0,0,1,5.742-17.80418,21.183,21.183,0,0,1,1.16384-2.89031c.49272-.85024.75655-1.00514,1.74556-.75482,2.59977.658,5.18759,1.36318,7.78231,2.04139,1.69446.44295,3.39206.87394,5.08945,1.30558.901.22909,1.7987.47523,2.70778.667,2.8883.60915,5.77071,1.25525,8.67526,1.7762,3.17455.56949,6.3706,1.01965,9.55919,1.50953.37637.05784.76533.02856,1.14732.05583,1.08142.07725,1.27049.235,1.6252,1.28489a49.77527,49.77527,0,0,1,1.66141,7.185,32.47743,32.47743,0,0,1,.764,5.52165c.61353,1.59231.27125,3.24205.293,4.87q.03519,2.62676.06991,5.25353a3.21,3.21,0,0,1-.02378.65419c-.52882,2.67967-.79533,5.42033-1.82537,7.98437-.326.8115-.67321,1.61481-1.02535,2.4154a4.2165,4.2165,0,0,0-.43978,1.40108,1.80649,1.80649,0,0,0,1.19773,1.94209,1.6634,1.6634,0,0,0,2.06173-.51582,6.12365,6.12365,0,0,0,1.08816-1.82658,37.32728,37.32728,0,0,0,2.4928-9.16113c.06658-.54261.13981-1.08507.23278-1.62363a5.637,5.637,0,0,0,.02892-1.96058,17.89494,17.89494,0,0,1,.00465-6.2038,5.11475,5.11475,0,0,0,.04665-1.472,88.04619,88.04619,0,0,0-1.6185-10.53332A7.64617,7.64617,0,0,1,127.89863,300.77936Z" style="fill: #686868"/>
      <polygon points="127.888 300.864 127.786 300.741 127.846 300.71 127.888 300.864" style="fill: #686868"/>
      <path d="M13.87862,195.21421c-.00056-1.25942.00144-2.51885-.00128-3.77827a13.41133,13.41133,0,0,1,.18429-2.45175,10.59783,10.59783,0,0,0,.13637-1.79658c.017-1.80684.00373-3.61393.00862-5.42094a30.20818,30.20818,0,0,1,.24048-4.41915,25.83986,25.83986,0,0,0,.085-3.60735,15.63,15.63,0,0,1,.23928-3.43272,4.24734,4.24734,0,0,0,.0817-1.14355,28.95773,28.95773,0,0,1,.51566-5.38255c.27141-1.94979.56179-3.89781.78117-5.85362a5.31915,5.31915,0,0,1,.73172-2.323,6.96615,6.96615,0,0,0,.94048-2.26239,4.592,4.592,0,0,1,.57306-1.35407c1.9757-3.34483,3.98781-6.66928,5.9-10.05019,1.7237-3.04757,3.34489-6.15346,4.988-9.246a10.80769,10.80769,0,0,0,.82361-1.96477A14.00074,14.00074,0,0,1,31.8616,127.033a27.22167,27.22167,0,0,0,2.12165-4.79576.65632.65632,0,0,0-.03533-.62782.29334.29334,0,0,0-.42478-.11657,2.03711,2.03711,0,0,0-.644,1.11529,37.33214,37.33214,0,0,1-1.72142,3.72551c-.14707.29359-.30149.58375-.46043.8711a1.395,1.395,0,0,1-1.505.76128c-.97674-.12026-1.95905-.21024-2.92753-.3791a13.16732,13.16732,0,0,0-4.73369.00419,3.41521,3.41521,0,0,1-.81382.09425c-2.08824-.12293-4.14247.30141-6.21872.37673-.8709.0316-1.73626.20557-2.60507.3067q-2.52377.29377-5.04894.57592a10.5773,10.5773,0,0,1-1.14591.07482c-1.20527.002-2.39815.151-3.5958.24143a27.452,27.452,0,0,1-6.551-.11242c-.86131-.14174-1.75154-.11886-2.60667-.28434-1.17992-.22831-2.35235-.51919-3.50464-.86183A60.08725,60.08725,0,0,1-21.289,123.92658c-.388-.20194-.7768-.40595-1.14651-.63873a1.5643,1.5643,0,0,1-.75972-1.21073c-.13933-1.52351-.2607-3.04867-.37841-4.574a4.98527,4.98527,0,0,1,.01877-.82034c.06092-.6864.26732-.88287.91943-.86432.43749.01241.87587.03812,1.311.08471,1.73814.186,3.47327.40382,5.21358.56582.81543.07592,1.64012.057,2.46072.07175a44.27,44.27,0,0,1,6.06113.26465,25.21383,25.21383,0,0,0,3.7724.06345,13.78318,13.78318,0,0,1,2.45113.19143,11.57578,11.57578,0,0,0,1.79706.13318,63.93232,63.93232,0,0,1,6.88229.2692,40.40628,40.40628,0,0,0,5.0866.06461,16.89566,16.89566,0,0,1,3.59761.2373,6.98493,6.98493,0,0,0,1.472.08607c3.833.0064,7.668.07957,11.49847-.01913a20.75063,20.75063,0,0,0,9.17067-2.24791,5.722,5.722,0,0,0,1.50155-.99042,3.84359,3.84359,0,0,1,2.847-1.0214,37.20783,37.20783,0,0,1,8.4564.993c1.12566.22911,2.236.537,3.34782.82981a14.66186,14.66186,0,0,0,3.39779.51849c1.03453.02523,2.06578.20058,3.09755.31781,1.57438.17884,3.14656.37789,4.7223.54376,1.52176.16017,3.04741.28314,4.57021.43408.97886.09706,1.95572.2149,2.93343.32377,1.629.18143,3.25709.37188,4.88731.54211,1.522.15893,3.04649.29327,4.56929.44449q2.60926.25914,5.21743.52992a4.41294,4.41294,0,0,0,.65018.08455,37.41348,37.41348,0,0,1,5.55634.42975c1.84735.18213,3.70963.19021,5.55141.49064,1.23507.20148,2.4989.25456,3.74933.3886a87.661,87.661,0,0,1,13.4116,2.30464,25.42194,25.42194,0,0,1,3.39214,1.23156,8.89777,8.89777,0,0,1,2.29006,1.57416q2.53562,2.207,5.12695,4.34966a16.79888,16.79888,0,0,0,4.16457,2.60414,4.23,4.23,0,0,1,2.11692,1.97129,16.46349,16.46349,0,0,1,.81811,1.60944c.78659,1.9257,1.60482,3.8419,2.29764,5.80182q2.21676,6.2711,4.31329,12.58454,2.773,8.33812,5.46052,16.70463,2.347,7.26683,4.63326,14.55322,2.66978,8.45627,5.3094,16.92212c.71748,2.29886,1.364,4.62059,2.1184,6.907.47953,1.4534,1.07236,2.87156,1.65869,4.28718q3.20449,7.73635,6.44143,15.45919c4.91723,11.71022,9.63536,23.50126,14.30684,35.31072,1.69085,4.27452,3.378,8.5538,4.8243,12.921.37829,1.14238.8794,2.23672,1.1928,3.40762q1.90988,7.13564,3.99664,14.22248a96.26171,96.26171,0,0,1,2.84667,13.15078c.326,2.21835.67248,4.43485.934,6.6611.19745,1.68115.14844,3.39831.436,5.06017.3943,2.27835.15995,4.58614.53319,6.86613a27.62507,27.62507,0,0,1,.0821,4.09939,24.26411,24.26411,0,0,0,.273,5.073,4.57252,4.57252,0,0,1,.04989.98235c.00353,2.90214.01745,5.80444-.00269,8.70643-.0134,1.93507-.41708,2.24233-2.2617,1.8364-3.26191-.71784-6.55694-1.25144-9.86172-1.71889-4.16918-.58974-8.34369-1.14182-12.51728-1.69992-2.27546-.30426-4.55032-.61886-6.83192-.86977-1.68311-.185-3.37629-.28-5.06578-.40448-1.14491-.08439-2.29359-.21714-3.41965-.37974-1.84623-.26647-3.72318-.11623-5.5494-.52032a2.97764,2.97764,0,0,0-.65315-.06036c-3.77468.01817-7.52967-.51867-11.31233-.36221a41.44863,41.44863,0,0,1-5.40329-.21786c-1.79136-.16023-3.59055-.33181-5.39094-.43874-.92588-.055-1.84783-.20094-2.76738-.3347-4.06061-.59062-8.12675-1.15157-12.15551-1.93764-6.39382-1.24755-12.78392-2.51446-19.11389-4.0633-4.14792-1.01488-8.30042-2.01139-12.44437-3.0422q-3.10733-.773-6.19032-1.64321c-1.875-.527-2.13067-.91176-1.87487-2.80536.46172-3.41837,1.12839-6.80015,1.83328-10.17649a163.67879,163.67879,0,0,1,5.89553-20.16423c.78928-2.27394,1.69759-4.50793,2.59676-6.742.61742-1.534.84872-1.64028,2.49313-1.21454,4.18667,1.08387,8.35994,2.21975,12.55,3.29014,5.35877,1.36887,10.76575,2.52874,16.2312,3.37489a42.45578,42.45578,0,0,0,6.83765.80925,4.8141,4.8141,0,0,1,.814.09413,2.04216,2.04216,0,0,1,1.80857,1.64886,84.75389,84.75389,0,0,1,2.46028,12.05412c.16476,1.63077.48145,3.25168.55437,4.88486a41.80048,41.80048,0,0,1-.12618,7.53881c-.19917,1.462-.32146,2.93142-.62227,4.38223a27.66235,27.66235,0,0,1-2.20828,6.68444c-.17964.36418-.54795.75354-.18125,1.19609.21939.26479.659-.08932.998-.79265a30.93225,30.93225,0,0,0,2.45815-7.80882c.40344-2.1565.47411-4.34662.70746-6.51916a11.99243,11.99243,0,0,0-.20006-4.0862,3.03558,3.03558,0,0,1-.06947-.65215,63.6844,63.6844,0,0,0-1.55794-11.69319,45.22827,45.22827,0,0,0-1.29006-5.09125,4.90924,4.90924,0,0,1-.20431-.79325.9028.9028,0,0,1,.06393-.47572c.30265-.68452,2.04055-.896,2.41532-.266.4182.70309.75346,1.45691,1.10372,2.19862.35038.74187.66037,1.50287,1.01292,2.24366,1.24654,2.61918,2.47379,5.24815,3.76321,7.8462q3.94375,7.94635,8.61751,15.48949a77.75537,77.75537,0,0,0,7.42884,10.41966,39.05078,39.05078,0,0,0,6.266,6.01649,20.24725,20.24725,0,0,0,2.11166,1.25392.45513.45513,0,0,0,.42811-.10111.43946.43946,0,0,0-.00926-.43,3.19079,3.19079,0,0,0-.74211-.62692,37.20837,37.20837,0,0,1-4.18747-3.16116,8.37561,8.37561,0,0,1-1.15566-1.1642,88.42074,88.42074,0,0,1-7.04112-9.06707,124.42423,124.42423,0,0,1-6.44621-10.67883c-.9337-1.79521-1.9907-3.52614-2.93118-5.318-1.32271-2.52-2.65071-5.039-3.77765-7.65681-.30281-.70341-.64926-1.38792-.97209-2.08278-.7839-1.68736-1.57117-3.37325-2.345-5.06526a3.24911,3.24911,0,0,1-.37376-1.74444,62.45887,62.45887,0,0,0,.121-6.72824,26.245,26.245,0,0,0-.26527-5.56645,8.44442,8.44442,0,0,1-.05254-1.63857,17.8969,17.8969,0,0,0-.26571-4.08738,3.59,3.59,0,0,1-.05583-.81777,27.15862,27.15862,0,0,0-.2672-3.92458c-.17282-1.18408-.16817-2.3927-.33009-3.58995-.21931-1.622-.26515-3.26678-.4095-4.89968-.1107-1.2522-.23439-2.50421-.39446-3.75092-.5222-4.06751-1.01612-8.13947-1.60976-12.19674-.75238-5.142-1.45622-10.29228-2.4452-15.39817-.83255-4.29815-1.53664-8.6219-2.41532-12.91022-1.05463-5.14722-2.19376-10.27818-3.37176-15.39883-1.01865-4.428-2.08535-8.84676-3.23548-13.24223-1.27466-4.87116-2.65127-9.716-4.01629-14.56307-.80111-2.84493-1.65548-5.67506-2.51025-8.50446a2.35464,2.35464,0,0,1,.12353-1.89951,20.72979,20.72979,0,0,0,1.99375-6.56717,5.78636,5.78636,0,0,0-.429-3.043,1.83909,1.83909,0,0,0-1.93082-1.23463,2.93255,2.93255,0,0,0-1.83143.61914,4.81994,4.81994,0,0,0-.72547.66442,2.89648,2.89648,0,0,1-3.13412.88987,8.85811,8.85811,0,0,1-3.195-1.24652,5.63639,5.63639,0,0,0-3.411-.95428c-5.63988.02914-11.28009-.00824-16.91993.025-1.59993.00943-3.15322-.32565-4.73249-.45765a3.57694,3.57694,0,0,1-1.82854-.69129,25.1305,25.1305,0,0,0-6.26717-3.20158,36.54391,36.54391,0,0,0-6.57852-2.04065c-.16171-.02844-.32038-.07546-.48265-.09866-1.43906-.20561-1.99984.08966-2.50375,1.46856a9.43764,9.43764,0,0,1-3.50921,4.43511,3.96742,3.96742,0,0,1-2.24979.90268c-.79569.01783-1.1113.45438-1.273,1.21367a14.45458,14.45458,0,0,1-1.8267,4.37373q-4.87842,8.17668-9.76162,16.35048c-1.15417,1.924-2.305,3.85405-3.55569,5.71527-1.92312,2.862-3.61967,5.872-5.6994,8.63215-.98745,1.31049-1.8879,2.68672-2.82249,4.03684a30.88828,30.88828,0,0,1-4.31216,4.935,3.66556,3.66556,0,0,1-.38042.31172.465.465,0,0,1-.76112-.27736,5.213,5.213,0,0,1,.09891-2.278c.45057-1.80618.862-3.6239,1.37493-5.41239,1.70569-5.94715,3.54358-11.85419,5.562-17.70311,1.42859-4.1395,2.89151-8.26719,4.357-12.39379a8.47824,8.47824,0,0,1,.71809-1.4693q4.19066-7.05972,8.40008-14.10833c.83969-1.41054,1.66936-2.82706,2.50259-4.24143a1.60157,1.60157,0,0,0,.22833-.43264.57073.57073,0,0,0-.05872-.44184.38492.38492,0,0,0-.57751.04,7.99868,7.99868,0,0,0-.8,1.03463c-.41419.64433-.79842,1.30815-1.18783,1.96816q-2.37794,4.03024-4.75254,8.06244c-1.56107,2.63737-3.13886,5.26492-4.69282,7.90648a9.16426,9.16426,0,0,0-.697,1.48334c-.6412,1.747-1.26118,3.502-1.87471,5.259-.9564,2.73916-1.93976,5.46979-2.8411,8.22708-1.25853,3.85-2.46349,7.71771-3.66836,11.585-.56977,1.82884-1.1188,3.66549-1.61878,5.51441a38.77723,38.77723,0,0,0-1.57222,7.70544,1.67257,1.67257,0,0,1-.11551.47485.53125.53125,0,0,1-.48783.37057.493.493,0,0,1-.50868-.33594,2.41115,2.41115,0,0,1-.153-.798c-.0071-2.19007-.038-4.38141.02551-6.56982.03-1.03281.23872-2.0589.32186-3.09688.18317-2.28711.458-4.56835.75037-6.84491.36217-2.82038.77512-5.63431,1.17507-8.44976.35387-2.49124.70409-4.98322,1.08519-7.47037.38936-2.54166.83139-5.07529,1.21538-7.61773a5.17149,5.17149,0,0,1,1.147-2.66328,41.05986,41.05986,0,0,0,3.64529-5.25862c1.774-2.95627,3.56592-5.902,5.31124-8.87506,1.274-2.17022,2.4835-4.37824,3.72555-6.56729.297-.52344.61705-1.03389.9114-1.55876a3.22346,3.22346,0,0,0,.55072-1.35568.38924.38924,0,0,0-.12838-.28252.32111.32111,0,0,0-.436.03784,1.80051,1.80051,0,0,0-.30971.37745c-.371.60719-.75334,1.20882-1.09309,1.8334-2.58934,4.76044-5.32347,9.43682-8.12671,14.07384a75.13011,75.13011,0,0,1-4.19236,6.2799,2.05918,2.05918,0,0,1-.29463.39305c-1.216.97672-1.46288,2.36817-1.68035,3.79213-.72679,4.759-1.50223,9.51064-2.20519,14.27305-.42309,2.86661-.75186,5.74725-1.1125,8.6229-.30606,2.4403-.6702,4.87636-.87543,7.32548a62.09287,62.09287,0,0,0-.42077,8.35083,11.84253,11.84253,0,0,1-.074,1.80127.648.648,0,0,1-.64316.62774.69546.69546,0,0,1-.74043-.52946,5.51463,5.51463,0,0,1-.16773-1.29122C13.86787,198.39029,13.87918,196.80217,13.87862,195.21421Z" style="fill: #686868"/>
    </g>
  </g>
  <g>
    <path d="M200.62712,399.37288h0C90.972,399.37288,1.25423,309.65509,1.25423,200h0C1.25423,90.34492,90.972.62712,200.62712.62712h0C310.28221.62712,400,90.34492,400,200h0C400,309.65509,310.28221,399.37288,200.62712,399.37288Z" style="fill: #b3b3b3"/>
    <path d="M200.62707,8.50394a189.05738,189.05738,0,0,1,74.33105,15.10422A193.4452,193.4452,0,0,1,377.01891,125.66895a190.45119,190.45119,0,0,1,0,148.66211A193.4452,193.4452,0,0,1,274.95812,376.39185a190.45119,190.45119,0,0,1-148.66211,0A193.44592,193.44592,0,0,1,24.23528,274.33105a190.4519,190.4519,0,0,1,0-148.66211A193.44592,193.44592,0,0,1,126.296,23.60815,189.05738,189.05738,0,0,1,200.62707,8.50394m0-8.50394C90.62713,0,.62713,90,.62713,200s90,200,199.99994,200,200-90,200-200-90-200-200-200Z"/>
    <g>
      <path d="M200.475,325.11725c-27.59877-.06646-51.01422-9.62577-67.7214-27.64762-17.92226-19.33371-27.61349-48.21293-28.028-83.51386-.49554-42.26613,15.9478-85.59772,42.91231-113.08509,16.22825-16.543,34.80339-25.76314,52.33269-25.98694l.27175-.00881.42027.0029.002.0039c17.57325.1134,36.23637,9.27386,52.56921,25.80718,27.05929,27.39349,43.65016,70.66742,43.30026,112.93456-.29126,35.30193-9.8818,64.21338-27.7376,83.60955-16.6319,18.06689-39.9867,27.70637-67.55424,27.88423l-.344.002-.07527-.27174-.06846.27174-.27755.00581Z" style="fill: #fff"/>
      <g style="clip-path: url(#c)">
        <path d="M298.3473,301.32267c-65.82231-23.07525-129.6179,23.07515-195.44021,0V273.25858c65.82231,23.07525,129.61791-23.07425,195.44021,0Z" style="fill: #4d4d4d"/>
        <path d="M298.3473,253.36787c-65.82231-23.07525-129.6179,23.07515-195.44021,0V225.30378c65.82231,23.07525,129.61791-23.07425,195.44021,0Z" style="fill: #12d247"/>
        <path d="M298.3473,205.413c-65.82231-23.07515-129.6179,23.07525-195.44021,0V177.349c65.82231,23.07525,129.61791-23.07425,195.44021,0Z" style="fill: #4d4d4d"/>
        <path d="M298.3473,157.45817c-65.82231-23.07525-129.6179,23.07525-195.44021,0v-28.064c65.82231,23.07525,129.61791-23.07425,195.44021,0Z" style="fill: #12d247"/>
        <path d="M298.3473,109.50337c-65.82231-23.07525-129.6179,23.07525-195.44021,0v-28.064c65.82231,23.07515,129.61791-23.07435,195.44021,0Z" style="fill: #4d4d4d"/>
      </g>
      <path d="M200.475,325.11725c-27.59877-.06646-51.01422-9.62577-67.7214-27.64762-17.92226-19.33371-27.61349-48.21293-28.028-83.51386-.49554-42.26613,15.9478-85.59772,42.91231-113.08509,16.22825-16.543,34.80339-25.76314,52.33269-25.98694l.27175-.00881.42027.0029.002.0039c17.57325.1134,36.23637,9.27386,52.56921,25.80718,27.05929,27.39349,43.65016,70.66742,43.30026,112.93456-.29126,35.30193-9.8818,64.21338-27.7376,83.60955-16.6319,18.06689-39.9867,27.70637-67.55424,27.88423l-.344.002-.07527-.27174-.06846.27174-.27755.00581Z" style="fill: none;stroke: #1d1d1b;stroke-linecap: round;stroke-linejoin: round;stroke-width: 8.503936767578125px"/>
    </g>
  </g>
</svg>
