<?xml version="1.0" encoding="utf-8"?>
<!-- Generator: Adobe Illustrator 20.0.0, SVG Export Plug-In . SVG Version: 6.00 Build 0)  -->
<svg version="1.1" id="Laag_3" xmlns="http://www.w3.org/2000/svg" xmlns:xlink="http://www.w3.org/1999/xlink" x="0px" y="0px"
	 viewBox="0 0 31.155 31.155" style="enable-background:new 0 0 31.155 31.155;" xml:space="preserve">
<style type="text/css">
	.st0{fill:#03587B;}
	.st1{fill:none;}
	.st2{fill:#FAB609;stroke:#1D1D1B;stroke-width:0.4;stroke-miterlimit:10;}
	.st3{fill:#FFFFFF;stroke:#1D1D1B;stroke-width:0.07558;stroke-miterlimit:10;}
	.st4{fill:#231F20;stroke:#1D1D1B;stroke-width:0.07558;stroke-miterlimit:10;}
	.st5{fill:#2BABE2;stroke:#1D1D1B;stroke-width:0.2;stroke-miterlimit:10;}
	.st6{fill:#EA701D;stroke:#1D1D1B;stroke-width:0.07558;stroke-miterlimit:10;}
	.st7{fill:#3C3C3B;}
	.st8{fill:#FFFFFF;}
</style>
<path class="st0" d="M15.78681,27.57749L15.78681,27.57749c-6.6,0-12-5.4-12-12l0,0c0-6.6,5.4-12,12-12l0,0c6.6,0,12,5.4,12,12l0,0
	C27.78681,22.17749,22.38681,27.57749,15.78681,27.57749z"/>
<path class="st1" d="M15.78681,27.57749L15.78681,27.57749c-6.6,0-12-5.4-12-12l0,0c0-6.6,5.4-12,12-12l0,0c6.6,0,12,5.4,12,12l0,0
	C27.78681,22.17749,22.38681,27.57749,15.78681,27.57749z"/>
<g>
	<g>
		<path class="st2" d="M24.01846,22.6848c-0.14111-0.19435-0.86429-0.74205-1.70241-2.15544L22.3159,20.5287
			c1.05316-0.26338,0.66568-1.2193,0.1151-1.62482c-0.16231-0.11955-0.34797-0.18836-0.54071-0.22797
			c0.12266-0.07554,0.77842-0.51837,0.92098-1.41628l0.00024-0.00001l-0.00022-0.00006
			c0.01249-0.07867,0.02151-0.16042,0.02541-0.24613c0.0062-0.13648-0.00336-0.26541-0.02522-0.38745
			c-0.13742-0.76771-0.78147-1.25146-1.33502-1.47242l0.12554-0.08359c0.05292-0.38869-0.14111-0.63604-0.65263-1.02473
			c-0.46055-0.34996-0.32061-0.85723-0.28814-0.95491c2.75763-0.02312,2.06983-3.21411,1.58752-4.66345
			c-0.54092-1.62544-3.80993-3.98115-3.80993-3.98115s1.62797,5.06477,0.91721,3.91048
			c-1.59924-2.87397-4.13919-4.02826-4.13919-4.02826s2.61051,4.85275,0.79961,3.93403c-1.81088-0.91873-4.96231-0.44759-5.5973,0
			c-0.63501,0.4476-1.62277,1.79035-1.74036,1.86102C8.56121,10.19367,6.4916,9.06293,6.4916,9.06293
			s0.61148,1.69611,0.82314,1.95523s-2.23422,1.22497-2.23422,1.22497s0.2587,0.16489,2.23422,1.15429
			c-0.74082,0.95995-0.99952,3.03886-0.79961,3.68122c0.1999,0.64236,0.75257,1.83114,3.56294,2.91822
			c-0.00029-0.00229-0.00045-0.00453-0.00073-0.00682c0.02318,0.11588,0.05972,0.2314,0.11249,0.34495
			c0.38515,0.82872,1.04715,1.20654,1.69682,1.07789c0.02632,0.04068,0.05226,0.07995,0.0779,0.11822l-0.04614-0.01237
			c0.0422,0.07878,0.08629,0.16593,0.13055,0.26258c0.36268,0.79192,0.73715,2.22149,0.18694,4.91409
			c0,0-0.05292,0.17668,0.27844,1.0954c0.70176,0.58304,4.02536,1.99646,5.26007,1.20141
			c1.05831-2.19081,1.28761-2.98586,1.81677-3.32155c0.52916-0.33569,1.48164-0.84805,1.56983-1.14841
			c0.08819-0.30035-0.35303-0.62008-0.35303-0.62008c0.89588-0.00623,1.93159-0.02364,2.6284-0.06896
			C24.79456,23.74487,24.15957,22.87915,24.01846,22.6848z"/>
	</g>
	<g>
		<path class="st3" d="M22.84088,17.29007c-1.25423-0.1824-1.96977-0.15148-2.93708-0.04989s-0.77788,0.23852-0.77788,0.23852
			s-0.11435-0.24293-0.11435-0.2606s0.09455-0.35973,0.09455-0.35973c0.82712-0.31017,2.86148-0.55306,3.73475-0.20193
			C22.8545,17.19111,22.84088,17.29007,22.84088,17.29007"/>
	</g>
	<g>
		<path class="st4" d="M11.65006,21.53944c-0.13437,0-0.26881-0.02043-0.40153-0.06156
			c-0.45998-0.14265-0.85571-0.52714-1.11431-1.08264c-0.21678-0.46571-0.19828-0.98305,0.05207-1.45677
			c0.29059-0.54977,0.84557-0.94067,1.48465-1.04557c0.08161-0.01346,0.13203-0.04969,0.1587-0.11415
			c0.25608-0.61879-1.56395-3.15066-2.24912-4.10379c-0.34411-0.47869-0.35394-0.49604-0.35394-0.53566
			c0-0.11104,0.73207-1.22418,0.81555-1.35076c0.83377-1.26408,0.91835-1.26408,0.9689-1.26408
			c0.14141,0,8.09472,0.93615,9.00116,1.04288l0.03899,0.00459l0.71872,1.52958l-0.01118,0.02837
			c-0.00842,0.02167-0.20249,0.53894,0.25963,0.8895c0.4987,0.37834,0.74094,0.65091,0.68104,1.09061l-0.1401-0.01912
			c0.04582-0.33593-0.10049-0.55995-0.62638-0.95886c-0.47965-0.36388-0.35625-0.89209-0.31595-1.02353l-0.66033-1.40535
			c-2.99642-0.35284-8.58538-1.00775-8.93228-1.0364c-0.20394,0.15532-1.53561,2.19747-1.65139,2.46752
			c0.03703,0.06129,0.17036,0.2468,0.32233,0.45819c1.26152,1.75491,2.51711,3.63108,2.26496,4.24034
			c-0.04527,0.10939-0.13737,0.1784-0.2664,0.19952c-0.5957,0.09786-1.11255,0.4613-1.38261,0.97221
			c-0.2292,0.43369-0.24656,0.90644-0.04886,1.33109c0.24152,0.51885,0.60661,0.87656,1.02801,1.00727
			c0.34118,0.10573,0.69646,0.05832,1.02742-0.13727l0.07191,0.12174C12.15129,21.46821,11.90079,21.53944,11.65006,21.53944z
			 M9.36654,13.15134L9.36654,13.15134L9.36654,13.15134z"/>
	</g>
	<g>
		<path class="st4" d="M21.93231,18.78016l-0.06867-0.12347c0.00877-0.00497,0.88132-0.50526,0.93184-1.61605
			c0.04962-1.09202-0.94405-1.72806-1.62413-1.88911l0.03258-0.13755c0.72583,0.17192,1.78631,0.85523,1.73276,2.03307
			C22.88251,18.23887,21.97109,18.75862,21.93231,18.78016z"/>
	</g>
	<g>
		<path class="st4" d="M20.59383,20.82444l-0.0138-0.14065l1.44089-0.14134c0.5094-0.04997,0.82003-0.22678,0.89816-0.51126
			c0.09607-0.34963-0.17944-0.80326-0.50126-1.03992c-0.37254-0.27392-0.8936-0.26916-1.31245-0.26529
			c-0.24211,0.00235-0.45129,0.00414-0.60892-0.04182c-0.19711-0.05749-0.37254-0.21671-0.55826-0.38531
			c-0.23927-0.21712-0.51043-0.46323-0.88656-0.55005l0.03175-0.13775c0.41209,0.0951,0.69774,0.35439,0.94978,0.58318
			c0.18089,0.16412,0.33707,0.30587,0.50291,0.35425c0.13762,0.0401,0.33721,0.03844,0.56799,0.03616
			c0.43949-0.00414,0.98698-0.00918,1.39755,0.29276c0.35529,0.26129,0.67013,0.76758,0.55378,1.19127
			c-0.06626,0.24114-0.29711,0.54349-1.02066,0.61444L20.59383,20.82444z"/>
	</g>
	<g>
		<path class="st4" d="M18.32283,24.2001l-0.06543-0.12519c0.01649-0.00863,0.40864-0.21125,0.8101-0.21125l0.1782,0.00041
			c0.31775,0.00083,0.90934,0.00269,1.58789-0.00214c1.16573-0.00808,2.05009-0.03119,2.62864-0.06881
			c0.42065-0.02733,0.67586-0.13058,0.75854-0.30691c0.11857-0.2528-0.14093-0.60954-0.22623-0.7268
			c-0.03154-0.04341-0.09503-0.10677-0.18282-0.19435c-0.30746-0.30684-0.87966-0.87787-1.52785-1.9692l0.12147-0.07219
			c0.63915,1.07601,1.20321,1.6389,1.50625,1.94132c0.09241,0.09221,0.15915,0.1588,0.19538,0.2087
			c0.09931,0.13651,0.3958,0.54411,0.24176,0.87255c-0.10621,0.22651-0.40139,0.35701-0.87738,0.38793
			c-0.58117,0.03775-1.46836,0.06101-2.63678,0.06908c-0.67924,0.00476-1.27118,0.00297-1.58927,0.00214l-0.17778-0.00042
			C18.70041,24.00499,18.32656,24.19816,18.32283,24.2001z"/>
	</g>
	<g>
		<path class="st4" d="M16.78277,29.32749c-1.52488,0.00014-3.71997-0.96973-4.30121-1.45187l-0.01484-0.01228l-0.00652-0.01808
			c-0.32344-0.89533-0.2901-1.10651-0.28013-1.13971c0.67251-3.28711-0.06895-4.66885-0.3126-5.12297l0.12457-0.0668
			c0.24963,0.46523,1.00927,1.88093,0.32496,5.22421c-0.00186,0.00973-0.03157,0.20152,0.2695,1.03888
			c0.67434,0.54011,3.93809,1.94463,5.15413,1.19478c0.27896-0.57703,0.50353-1.064,0.68428-1.45608
			c0.51257-1.11169,0.74653-1.61902,1.15248-1.87617c0.10808-0.06846,0.23368-0.14417,0.36599-0.22395
			c0.47006-0.28351,1.11383-0.67172,1.17649-0.8847c0.06087-0.20711-0.21553-0.46212-0.3272-0.54287l0.08282-0.11456
			c0.01974,0.01429,0.48124,0.35301,0.37993,0.69733c-0.07253,0.24666-0.5593,0.55591-1.23909,0.96579
			c-0.13134,0.07923-0.25605,0.15446-0.36329,0.22237c-0.37075,0.23479-0.59919,0.73031-1.09975,1.81592
			c-0.18296,0.39677-0.41057,0.8905-0.69422,1.47671l-0.0087,0.01788l-0.0167,0.01077
			C17.56395,29.25543,17.1981,29.32742,16.78277,29.32749z"/>
	</g>
	<g>
		<path class="st3" d="M14.12082,17.33428c0.05879,0.27512,0.15394,0.57761,0.15394,0.57761s0.17235-0.12933,0.84829-0.35193
			c0.67594-0.22261,1.72515-0.28168,1.72515-0.28168l0.80001-0.01896c0,0,1.24945-0.0291,1.34911,0.2247
			s0.11928-0.53455,0.11928-0.53455l-0.01047-0.09111l-0.96322-0.18264h-1.14252l-1.72583,0.30679L14.12082,17.33428z"/>
	</g>
	<g>
		<path class="st4" d="M18.71608,18.51942l-0.10987-0.08889c0.55861-0.69063,0.47669-1.44669,0.37813-1.83597
			c-0.15087-0.59594-0.53307-1.11338-0.95109-1.28757l0.05438-0.13044c0.4642,0.19341,0.86993,0.73639,1.0337,1.38333
			C19.22638,16.97473,19.3134,17.78096,18.71608,18.51942z"/>
	</g>
	<g>
		<path class="st4" d="M19.1301,16.92483l-0.0479-0.13296c1.88576-0.67969,3.80154-0.20366,3.82052-0.19876l-0.03492,0.13693
			C22.84903,16.72534,20.9739,16.26035,19.1301,16.92483z"/>
	</g>
	<g>
		<path class="st4" d="M19.12485,17.5156l-0.03741-0.13623c1.42902-0.39297,2.80462-0.45018,3.77387-0.15694l-0.04086,0.13527
			C21.87599,17.07204,20.52903,17.12967,19.12485,17.5156z"/>
	</g>
	<g>
		<path class="st4" d="M14.54651,18.52383c-0.39476-0.41271-0.64884-1.46588-0.49428-2.04888l0.13665,0.03623
			c-0.14193,0.53525,0.09873,1.53748,0.45978,1.91492L14.54651,18.52383z"/>
	</g>
	<g>
		<path class="st4" d="M14.11586,17.50752l-0.0746-0.12009c0.59926-0.3724,1.69269-0.64939,2.92495-0.74094
			c0.88201-0.06546,1.98915-0.03637,2.20737,0.26115l-0.11401,0.08365C18.78537,16.61733,15.48515,16.6566,14.11586,17.50752z"/>
	</g>
	<g>
		<ellipse class="st4" cx="21.68196" cy="16.77851" rx="0.21279" ry="0.33057"/>
	</g>
	<g>
		
			<ellipse transform="matrix(0.99442 -0.10552 0.10552 0.99442 -1.69973 1.87273)" class="st4" cx="16.84827" cy="16.99956" rx="0.26343" ry="0.31492"/>
	</g>
	<g>
		<path class="st5" d="M7.31844,13.42786c-1.97879-0.9894-2.23792-1.15429-2.23792-1.15429s2.44994-0.96585,2.23792-1.22497
			s-0.8245-1.95523-0.8245-1.95523s2.07302,1.13074,2.19081,1.06007c0.11778-0.07067,1.60777-4.19414,7.3498-1.86101
			c1.81389,0.91873-0.80094-3.93403-0.80094-3.93403s2.54416,1.15429,4.14605,4.02826
			c0.71194,1.15429-0.61249-3.13408-0.91873-3.91048c4.8292,2.54318,6.66665,9.52888,1.06007,8.5041
			c-4.09893-0.91873-6.69021-1.649-7.98584-1.29564c1.29563,1.17785,1.69611,1.93168,1.69611,2.33215
			c-1.83745-0.96584-2.59128-0.84805-2.59128-0.84805c3.01531,2.61483,2.68551,6.00705,2.52061,6.80799
			c-0.89517-2.79151-3.33333-2.00235-3.07425,0.05057c-2.81502-1.08709-3.36861-2.27586-3.56885-2.91821
			C6.31726,16.46672,6.57639,14.38781,7.31844,13.42786z"/>
		<path class="st5" d="M13.1755,20.25473l-0.0822-0.25639c-0.47834-1.49176-1.35714-1.86423-1.96433-1.72958
			c-0.55912,0.12381-1.10193,0.72417-0.97249,1.74973l0.0148,0.1174l-0.11039-0.04265
			c-3.05491-1.17974-3.47334-2.52201-3.61086-2.96308c-0.19773-0.63432,0.02968-2.65334,0.76144-3.6768
			c-1.89135-0.94654-2.15834-1.11342-2.16889-1.12015L4.9255,12.2587l0.12909-0.05086
			c1.03367-0.40753,2.1621-0.94785,2.20527-1.11932C7.0396,10.80856,6.45249,9.18668,6.42747,9.11739l-0.06332-0.1753
			l0.16363,0.08924c0.90123,0.49156,1.92365,1.01262,2.1211,1.05223C8.6612,10.06272,8.67949,10.029,8.69733,9.99608
			c0.19583-0.36112,0.71603-1.32032,1.85833-1.94311c1.43865-0.78442,3.29104-0.72583,5.50549,0.17399
			c0.16743,0.08451,0.38048,0.16215,0.47462,0.0656c0.3459-0.35484-0.65329-2.58088-1.36435-3.90065L15.07203,4.2075
			l0.19076,0.08654c0.02567,0.01163,2.58385,1.19699,4.17857,4.05821c0.03326,0.0538,0.05873,0.08996,0.07764,0.11418
			c-0.01001-0.50553-0.81748-3.18769-1.12384-3.96435l-0.06984-0.17723l0.16853,0.08879
			c1.48154,0.78021,2.81732,2.06927,3.66476,3.53663c0.80623,1.39596,1.08567,2.8136,0.7475,3.79212
			c-0.40429,1.1697-1.61129,1.63389-3.39781,1.30742c-0.69491-0.1557-1.33351-0.30304-1.95112-0.44553
			c-2.8617-0.6602-4.7897-1.10489-5.87613-0.88177c1.40742,1.30155,1.62088,1.99429,1.62088,2.29426v0.11698l-0.10356-0.05442
			c-1.30248-0.68463-2.05685-0.81834-2.37235-0.84019c1.21697,1.10192,2.00247,2.44637,2.33595,3.99893
			c0.30839,1.43592,0.11063,2.54513,0.06784,2.75293L13.1755,20.25473z M5.24328,12.28476
			c0.21188,0.11629,0.75871,0.40584,2.10678,1.07987l0.07688,0.03844l-0.05259,0.06801
			c-0.7337,0.94916-0.97925,3.00787-0.78939,3.61696c0.13089,0.41982,0.526,1.68693,3.4191,2.8312
			c-0.08547-1.04233,0.49667-1.65615,1.09433-1.78852c0.6271-0.13913,1.5128,0.19897,2.03742,1.56263
			c0.05959-0.44425,0.12154-1.33806-0.11205-2.42559c-0.33948-1.58054-1.15707-2.94169-2.43008-4.04565l-0.11498-0.09973
			l0.15038-0.02346c0.03085-0.00487,0.76541-0.10594,2.51866,0.79481c-0.05921-0.30891-0.3616-0.97632-1.66015-2.15682
			l-0.09524-0.08658l0.12419-0.03389c1.09406-0.29846,3.07454,0.15853,6.07237,0.85012
			c0.61741,0.14241,1.25579,0.28972,1.94753,0.44477c1.70681,0.31181,2.85728-0.11936,3.23604-1.21511
			c0.32499-0.94033,0.04976-2.31427-0.73632-3.67528c-0.80285-1.3902-2.05085-2.61784-3.44329-3.39294
			c0.1557,0.4349,0.42796,1.28343,0.66151,2.09598c0.52479,1.82627,0.41271,1.88238,0.33859,1.91951
			c-0.08786,0.04389-0.16971-0.05145-0.27351-0.21974c-1.31694-2.36265-3.29601-3.56582-3.91977-3.90148
			c0.16087,0.30974,0.48145,0.94288,0.76682,1.60321c0.82293,1.90412,0.55757,2.17631,0.47041,2.26572
			c-0.1254,0.12868-0.33272,0.11695-0.63432-0.03575c-2.16803-0.8807-3.97977-0.94153-5.37929-0.1784
			C9.51771,8.77987,9.01197,9.7124,8.8216,10.06344c-0.05576,0.10283-0.0726,0.13385-0.10049,0.15059
			C8.68053,10.23826,8.575,10.3023,6.62454,9.24486c0.20346,0.55101,0.59895,1.57606,0.7486,1.75898
			c0.02667,0.03261,0.0353,0.07388,0.02426,0.11626C7.31818,11.42435,5.79809,12.06139,5.24328,12.28476z M8.63688,10.10209
			L8.63688,10.10209L8.63688,10.10209z"/>
	</g>
	<g>
		<path class="st4" d="M10.79839,19.72117l-0.1401-0.01891c0.0363-0.26902,0.13989-0.45812,0.30798-0.56199
			c0.22492-0.13893,0.48704-0.0744,0.54908-0.05611c0.24469-0.00635,0.69277,0.11615,0.72345,0.62327L12.09773,19.716
			c-0.03064-0.50553-0.56609-0.49076-0.58918-0.49021l-0.01311,0.00048l-0.0126-0.00421
			c-0.00228-0.00083-0.24911-0.08151-0.44314,0.03899C10.90985,19.3418,10.82865,19.4966,10.79839,19.72117z"/>
	</g>
	<g>
		<path class="st4" d="M12.07606,20.68331c-0.18344-0.01001-0.63149-0.07033-0.82928-0.41374
			c-0.16246-0.28206-0.11584-0.67828,0.13855-1.17774l0.12595,0.06418c-0.23134,0.45412-0.2791,0.80499-0.14203,1.04302
			c0.16329,0.28344,0.55409,0.33445,0.71455,0.34321L12.07606,20.68331z"/>
	</g>
	<g>
		<path class="st4" d="M14.21297,17.95771l-0.02398-0.07578c-0.00255-0.00801-0.06291-0.19938-0.12278-0.45212l0.13755-0.03258
			c0.03661,0.15459,0.07409,0.28786,0.09717,0.36654c0.78739-0.33769,1.91116-0.55115,3.02796-0.57337
			c0.90216-0.01829,1.57913,0.09634,1.80888,0.30567l-0.09524,0.10449c-0.19752-0.18006-0.86855-0.28565-1.71088-0.26881
			c-1.13398,0.02257-2.27273,0.24431-3.04625,0.59325L14.21297,17.95771z"/>
	</g>
	<g>
		<path class="st6" d="M15.97566,4.54587"/>
	</g>
	<g>
		<path class="st3" d="M22.84088,17.29007"/>
	</g>
</g>
<path class="st7" d="M15.78662,29.57715c-7.71973,0-14-6.28027-14-13.99951c0-7.71973,6.28027-14,14-14
	c7.72021,0,14.00049,6.28027,14.00049,14C29.78711,23.29688,23.50684,29.57715,15.78662,29.57715z M15.78662,2.07764
	c-7.44385,0-13.5,6.05615-13.5,13.5s6.05615,13.49951,13.5,13.49951s13.50049-6.05566,13.50049-13.49951
	S23.23047,2.07764,15.78662,2.07764z"/>
<path class="st8" d="M15.7868,1.82749c-7.5625,0-13.75,6.1875-13.75,13.75s6.1875,13.75,13.75,13.75s13.75-6.1875,13.75-13.75
	S23.3493,1.82749,15.7868,1.82749z M15.7868,27.57749c-6.59998,0-12-5.39996-12-12c0-6.59998,5.40002-12,12-12
	c6.60004,0,12,5.40002,12,12C27.7868,22.17752,22.38684,27.57749,15.7868,27.57749z"/>
</svg>
