<svg xmlns="http://www.w3.org/2000/svg" xmlns:xlink="http://www.w3.org/1999/xlink" width="400" height="400" viewBox="0 0 400 400">
  <defs>
    <clipPath id="a">
      <path d="M200,400h0C90,400,0,310,0,200H0C0,90,90,0,200,0h0C310,0,400,90,400,200h0C400,310,310,400,200,400Z" style="fill: none"/>
    </clipPath>
  </defs>
  <title>meme</title>
  <g>
    <path d="M200,400h0C90,400,0,310,0,200H0C0,90,90,0,200,0h0C310,0,400,90,400,200h0C400,310,310,400,200,400Z" style="fill: #4d4d4d"/>
    <g style="clip-path: url(#a)">
      <g>
        <path d="M323.32389,318.68624c-2.1427-2.95109-13.124-11.26779-25.85071-32.72973l-.00235-.01c15.992-3.99932,10.10823-18.51478,1.74774-24.6724a20.63247,20.63247,0,0,0-8.21061-3.46171,31.71369,31.71369,0,0,0,13.9848-21.50582l.00366-.00013-.0034-.00092a33.43273,33.43273,0,0,0,.3858-3.73746,26.43533,26.43533,0,0,0-.38292-5.88331c-2.08672-11.65751-11.86643-19.00313-20.27191-22.35835l1.90625-1.26922c.80351-5.90218-2.1427-9.65811-9.91-15.56028-6.99332-5.314-4.86841-13.01686-4.37537-14.5,41.87384-.35107,31.42977-48.80535,24.10611-70.81329C288.23725,77.50183,238.59824,41.731,238.59824,41.731s24.72025,76.90711,13.92752,59.37952c-24.284-43.64043-62.85248-61.168-62.85248-61.168s39.63986,73.68774,12.14185,59.73714c-27.49775-13.9506-75.35136-6.79649-84.99349,0s-24.641,27.18583-26.42666,28.259c-1.7854,1.07312-33.21178-16.09685-33.21178-16.09685s9.2851,25.755,12.49914,29.68969-33.92609,18.60084-33.92609,18.60084,3.92836,2.50387,33.92609,17.52759c-11.24915,14.57663-15.17751,46.14429-12.14185,55.89829,3.0354,9.75413,11.42753,27.80531,54.10227,44.31244-.00445-.03485-.0068-.06877-.01112-.10362a23.16551,23.16551,0,0,0,1.70811,5.23789c5.84834,12.58391,15.90072,18.321,25.7657,16.36748.39966.61778.79357,1.21408,1.1829,1.79518l-.70059-.18785c.64082,1.19626,1.31028,2.51959,1.98236,3.98714,5.50713,12.02508,11.19344,33.73277,2.8387,74.61913,0,0-.80351,2.68281,4.22811,16.63341,10.65606,8.85327,61.1241,30.31573,79.87268,18.24309,16.07021-33.26682,19.55209-45.33945,27.5872-50.43678s22.4983-12.87748,23.83748-17.43825-5.36066-9.41576-5.36066-9.41576c13.60371-.09458,29.33076-.35893,39.91162-1.04719C335.10871,334.78309,325.46658,321.63733,323.32389,318.68624Z" style="fill: #e6e6e6;stroke: #1d1d1b;stroke-miterlimit: 10;stroke-width: 1.4173228740692139px"/>
        <path d="M305.44264,236.7686c-19.04508-2.76966-29.91045-2.30017-44.59882-.75755s-11.81189,3.62179-11.81189,3.62179-1.73629-3.68886-1.73629-3.95714,1.43575-5.46245,1.43575-5.46245c12.55956-4.70986,43.45085-8.398,56.71125-3.06628a89.56712,89.56712,0,0,1,0,9.62163" style="fill: #fff;stroke: #1d1d1b;stroke-miterlimit: 10;stroke-width: 0.075581746054191px"/>
        <path d="M135.51306,301.29416a20.532,20.532,0,0,1-6.0971-.93479c-6.98473-2.16616-12.9938-8.00441-16.92055-16.43953a24.378,24.378,0,0,1,.79069-22.12059,31.17542,31.17542,0,0,1,22.544-15.87677,2.83434,2.83434,0,0,0,2.40981-1.73335c3.8885-9.39611-23.74809-47.842-34.15235-62.315-5.22519-7.26873-5.37452-7.5323-5.37452-8.13383,0-1.68619,11.11636-18.58892,12.38388-20.5109,12.66055-19.19465,13.94484-19.19465,14.71248-19.19465,2.14729,0,122.91608,14.21521,136.68014,15.8359l.5921.06969,10.91358,23.2262-.16977.43072c-.12785.32906-3.07475,8.18361,3.94247,13.50678,7.57264,5.745,11.251,9.88395,10.34139,16.56057l-2.12738-.29029c.69585-5.101-1.52585-8.50272-9.51139-14.56-7.2834-5.52543-5.40963-13.54608-4.79761-15.54195l-10.027-21.33985C216.1461,146.57475,131.27925,136.63,126.01162,136.19512c-3.09676,2.35846-23.3179,33.36794-25.07587,37.46866.56224.9306,2.58692,3.74755,4.89455,6.95748,19.15588,26.64783,38.22163,55.13694,34.39286,64.38843a4.97947,4.97947,0,0,1-4.04517,3.02969,29.02375,29.02375,0,0,0-20.99454,14.76278,22.27679,22.27679,0,0,0-.742,20.21223c3.66738,7.87865,9.21115,13.31029,15.61006,15.29515a18.97339,18.97339,0,0,0,15.60116-2.08442l1.092,1.84862A21.9738,21.9738,0,0,1,135.51306,301.29416Zm-34.67477-127.371Zm25.29751-37.81239" style="fill: #231f20;stroke: #1d1d1b;stroke-miterlimit: 10;stroke-width: 0.075581746054191px"/>
        <path d="M291.64618,259.3952l-1.04273-1.87482a30.81522,30.81522,0,0,0,14.14971-24.53931c.75349-16.58206-14.33521-26.24016-24.66192-28.68561l.49464-2.08861c11.02152,2.6105,27.12465,12.98647,26.31143,30.87168A32.40392,32.40392,0,0,1,291.64618,259.3952Z" style="fill: #231f20;stroke: #1d1d1b;stroke-miterlimit: 10;stroke-width: 0.075581746054191px"/>
        <path d="M271.32181,290.43717l-.20959-2.13577,21.87955-2.14625c7.73508-.75873,12.452-3.44364,13.6383-7.76337,1.45878-5.309-2.72473-12.19734-7.61142-15.79084-5.657-4.1594-13.56914-4.08709-19.92928-4.0284-3.67628.03563-6.85269.06288-9.24625-.63507-2.993-.873-5.657-3.29063-8.477-5.85083-3.63332-3.29692-7.7508-7.034-13.46225-8.35233l.48207-2.09175c6.25744,1.44411,10.595,5.38133,14.42219,8.85536,2.74673,2.49208,5.11829,4.64461,7.63657,5.37924,2.08966.60887,5.12039.58372,8.62481.54914,6.67348-.06288,14.987-.13938,21.22143,4.4455,5.395,3.96762,10.17581,11.65554,8.40893,18.089-1.00605,3.66161-4.51152,8.25278-15.49845,9.33009Z" style="fill: #231f20;stroke: #1d1d1b;stroke-miterlimit: 10;stroke-width: 0.075581746054191px"/>
        <path d="M236.83725,341.69556l-.99348-1.901c.25047-.131,6.205-3.20784,12.30109-3.20784l2.70586.00629c4.82486.01258,13.80808.04087,24.11173-.03249,17.70129-.12261,31.13-.47368,39.91515-1.04483,6.38739-.415,10.26279-1.98276,11.51826-4.66033,1.80042-3.83872-2.14-9.25569-3.43525-11.03619a32.36532,32.36532,0,0,0-2.77608-2.95109,139.97634,139.97634,0,0,1-23.2-29.90178l1.84443-1.09618a138.00715,138.00715,0,0,0,22.872,29.4784,33.10171,33.10171,0,0,1,2.96681,3.16907c1.508,2.07289,6.01012,8.26221,3.671,13.24951-1.61283,3.43944-6.095,5.42116-13.32286,5.89065-8.825.57324-22.29665.92641-40.03881,1.049-10.31414.07231-19.30259.04506-24.13269.03249l-2.69958-.00629C242.57071,338.73295,236.89384,341.66622,236.83725,341.69556Z" style="fill: #231f20;stroke: #1d1d1b;stroke-miterlimit: 10;stroke-width: 0.075581746054191px"/>
        <path d="M213.45176,419.55358c-23.15494.0021-56.48673-14.72505-65.31274-22.04618l-.22531-.18654-.099-.27457c-4.91132-13.59534-4.40515-16.80213-4.25372-17.30621,10.212-49.91385-1.04692-70.89529-4.74679-77.79094l1.89159-1.01444c3.79051,7.06438,15.32554,28.56142,4.93438,79.32832-.0283.14776-.47945,3.06008,4.09233,15.77512,10.23973,8.20143,59.79884,29.5287,78.2641,18.14249,4.2359-8.76209,7.646-16.15658,10.39064-22.11011,7.78329-16.88073,11.33591-24.58437,17.50008-28.48911,1.64112-1.03959,3.54843-2.18921,5.55739-3.40067,7.13774-4.30507,16.91322-10.19991,17.86477-13.43395.92431-3.145-3.27282-7.01722-4.96843-8.24335l1.25757-1.73963c.29972.21693,7.30751,5.36038,5.76908,10.58871-1.10142,3.74545-8.49276,8.44141-18.81528,14.66532-1.99429,1.20307-3.888,2.34536-5.51652,3.37656-5.6297,3.5652-9.09849,11.08964-16.69943,27.57423-2.77817,6.02479-6.23438,13.522-10.54155,22.42345l-.132.27142-.25361.16348C225.31376,418.4595,219.75846,419.55253,213.45176,419.55358Z" style="fill: #231f20;stroke: #1d1d1b;stroke-miterlimit: 10;stroke-width: 0.075581746054191px"/>
        <path d="M173.0308,237.43993c.89275,4.1776,2.33751,8.7709,2.33751,8.7709s2.61715-1.96381,12.881-5.344,26.196-4.27729,26.196-4.27729l12.148-.28785s18.97259-.44186,20.48581,3.41205,1.81125-8.117,1.81125-8.117l-.159-1.38344-14.62622-2.77338H216.75634L190.55,232.09841Z" style="fill: #fff;stroke: #1d1d1b;stroke-miterlimit: 10;stroke-width: 0.075581746054191px"/>
        <path d="M242.8086,255.436l-1.66837-1.34979c8.48228-10.48705,7.23834-21.96758,5.74184-27.87867-2.29087-9.04924-8.09453-16.9064-14.4421-19.55148l.8258-1.98067c7.04866,2.93694,13.20968,11.18186,15.69652,21.00555C250.5573,231.98026,251.87879,244.22266,242.8086,255.436Z" style="fill: #231f20;stroke: #1d1d1b;stroke-miterlimit: 10;stroke-width: 0.075581746054191px"/>
        <path d="M249.09538,231.22257l-.72729-2.01892c28.63478-10.32095,57.72543-3.09256,58.01362-3.01816l-.53027,2.07918C305.56639,228.19341,277.093,221.1327,249.09538,231.22257Z" style="fill: #231f20;stroke: #1d1d1b;stroke-miterlimit: 10;stroke-width: 0.075581746054191px"/>
        <path d="M249.01573,240.19321l-.568-2.0687c21.6993-5.96715,42.58748-6.83592,57.30519-2.38309l-.6204,2.054C290.791,233.4579,270.33777,234.333,249.01573,240.19321Z" style="fill: #231f20;stroke: #1d1d1b;stroke-miterlimit: 10;stroke-width: 0.075581746054191px"/>
        <path d="M179.49486,255.503c-5.9944-6.26687-9.85251-22.25892-7.50557-31.11166l2.075.55019c-2.15515,8.12754,1.49912,23.34619,6.98159,29.07755Z" style="fill: #231f20;stroke: #1d1d1b;stroke-miterlimit: 10;stroke-width: 0.075581746054191px"/>
        <path d="M172.95552,240.0706l-1.13286-1.82347c9.09954-5.65486,25.70308-9.86089,44.41461-11.251,13.39308-.994,30.20464-.55228,33.51833,3.96553l-1.73125,1.27014C243.86076,226.55334,193.7478,227.14963,172.95552,240.0706Z" style="fill: #231f20;stroke: #1d1d1b;stroke-miterlimit: 10;stroke-width: 0.075581746054191px"/>
        <ellipse cx="287.84466" cy="229.00071" rx="3.23121" ry="5.01967" style="fill: #231f20;stroke: #1d1d1b;stroke-miterlimit: 10;stroke-width: 0.075581746054191px"/>
        <ellipse cx="214.44531" cy="232.3568" rx="4.00005" ry="4.78196" transform="translate(-23.32085 23.92521) rotate(-6.05706)" style="fill: #231f20;stroke: #1d1d1b;stroke-miterlimit: 10;stroke-width: 0.075581746054191px"/>
        <g>
          <path d="M69.7385,178.122c-30.04745-15.02372-33.98225-17.52759-33.98225-17.52759s37.20162-14.6661,33.98225-18.60084-12.51979-29.68969-12.51979-29.68969,31.47832,17.17,33.26682,16.09685,24.41355-63.68695,111.6048-28.259c27.54345,13.9506-12.16211-59.73714-12.16211-59.73714s38.63243,17.52766,62.95664,61.168c10.81061,17.52766-9.30044-47.5901-13.9506-59.37952,73.33,38.6175,101.23123,144.69344,16.09685,129.13252C192.79,157.375,153.442,146.28607,133.7682,151.65168c19.67384,17.88534,25.755,29.33207,25.755,35.41306-27.9012-14.666-39.34793-12.87748-39.34793-12.87748,45.78667,39.70555,40.77868,91.21546,38.27481,103.37757-13.593-42.38836-50.61573-30.4052-46.68164.7679-42.74533-16.50713-51.15144-34.55831-54.192-44.31231S58.47071,192.69864,69.7385,178.122Z" style="fill: #12d247;stroke: #1d1d1b;stroke-miterlimit: 10;stroke-width: 0.200000002980232px"/>
          <path d="M158.67638,281.78616l-1.24813-3.89321c-7.26349-22.65191-20.60784-28.30781-29.8279-26.26322-8.49014,1.88006-16.73244,10.99637-14.767,26.56923l.22479,1.7826-1.67623-.64765c-46.38795-17.914-52.7418-38.296-54.82988-44.99362-3.00244-9.63191.45063-40.29032,11.56227-55.83122C39.39466,164.13614,35.34058,161.60214,35.18024,161.5l-1.77788-1.13129,1.96023-.77236c15.696-6.18827,32.83086-14.39284,33.48637-16.99653-3.3446-4.2511-12.2597-28.879-12.63959-29.93112l-.96151-2.66185,2.48474,1.355c13.68494,7.46418,29.21012,15.37637,32.20836,15.9779.18706-.31649.46478-.82842.73568-1.3283,2.97362-5.48351,10.87271-20.04875,28.21821-29.50564,21.8455-11.91125,49.97358-11.02152,83.59933,2.64194,2.54238,1.28324,5.77747,2.46221,7.2069.9961,5.25243-5.38815-9.9201-39.19-20.71735-59.23032l-1.50908-2.80018,2.89659,1.31416c.38985.17658,39.235,18.176,63.4505,61.62283a19.66553,19.66553,0,0,0,1.179,1.73387c-.152-7.67639-12.41323-48.40424-17.06517-60.19759L236.875,39.89542l2.55915,1.34822a143.10732,143.10732,0,0,1,55.64835,53.70279c12.24241,21.19732,16.48564,42.72371,11.35058,57.58238-6.139,17.76155-24.467,24.81021-51.59479,19.85278-10.552-2.36422-20.24891-4.60164-29.62721-6.76518-43.45415-10.0249-72.73029-16.7775-89.22746-13.38941,21.37129,19.7637,24.61266,30.28272,24.61266,34.83773V188.841l-1.57248-.82633c-19.77785-10.39588-31.2327-12.42633-36.0235-12.758,18.47941,16.73244,30.4069,37.14745,35.4707,60.72263,4.68286,21.8041,1.6799,38.6471,1.03016,41.80255ZM38.22774,160.76429c3.21727,1.76583,11.52088,6.1626,31.99091,16.39761l1.16744.58372-.79855,1.03278c-11.141,14.41276-14.86967,45.67375-11.9867,54.92263,1.98748,6.37481,7.98712,25.61557,51.91809,42.99095-1.29791-15.82752,7.54173-25.14818,16.61716-27.15819,9.5224-2.11271,22.97154,3.0213,30.9377,23.72818a109.55153,109.55153,0,0,0-1.70138-36.832c-5.155-24.00013-17.56977-44.66875-36.90013-61.4321l-1.74592-1.51432,2.28353-.35631c.46844-.07388,11.62253-1.60864,38.24521,12.069-.89916-4.69072-5.49085-14.82513-25.209-32.75069l-1.4462-1.31468,1.88583-.51455c16.613-4.532,46.68609,2.40719,92.20737,12.90892,9.37516,2.16249,19.06889,4.39939,29.57271,6.75365,25.91739,4.73474,43.38708-1.81247,49.13835-18.45111,4.9349-14.27862.75559-35.14164-11.18081-55.80816A141.25958,141.25958,0,0,0,240.938,44.49864c2.36422,6.60379,6.49847,19.48861,10.04481,31.8269,7.96878,27.73143,6.26687,28.58343,5.14135,29.14724-1.33407.66651-2.577-.78126-4.15311-3.33674a155.36074,155.36074,0,0,0-59.5206-59.24289c2.44282,4.7033,7.31065,14.31739,11.644,24.34438,12.496,28.91354,8.46656,33.04674,7.143,34.40439-1.90416,1.95394-5.05227,1.77579-9.63191-.54285-32.921-13.37317-60.43182-14.297-81.68311-2.709-16.78851,9.15351-24.468,23.3137-27.35887,28.64421-.84676,1.56148-1.10247,2.03254-1.52585,2.28667-.61621.36784-2.21856,1.34036-31.83581-14.71667,3.08942,8.367,9.09482,23.932,11.36735,26.70966a1.945,1.945,0,0,1,.36836,1.76531C69.73449,147.69923,46.65239,157.37253,38.22774,160.76429Zm51.53087-33.14315Z" style="stroke: #1d1d1b;stroke-miterlimit: 10;stroke-width: 0.200000002980232px"/>
        </g>
        <path d="M122.58056,273.68429l-2.12738-.28714c.55123-4.085,2.12424-6.95644,4.67657-8.53363,3.41534-2.10957,7.39554-1.12971,8.33766-.852,3.71558-.09641,10.51954,1.76374,10.98536,9.46423l-2.14205.12995c-.4653-7.67639-8.596-7.45213-8.94653-7.44374l-.19911.00734-.19125-.06393c-.03458-.01258-3.78265-1.23765-6.729.5921C124.273,267.92359,123.0401,270.27419,122.58056,273.68429Z" style="fill: #231f20;stroke: #1d1d1b;stroke-miterlimit: 10;stroke-width: 0.075581746054191px"/>
        <path d="M141.98166,288.29407c-2.78551-.152-9.58894-1.06788-12.59243-6.28259-2.46693-4.28306-1.759-10.29947,2.1038-17.88364l1.91255.97461c-3.5128,6.89565-4.238,12.22354-2.15673,15.838,2.4795,4.304,8.41364,5.07847,10.85018,5.21156Z" style="fill: #231f20;stroke: #1d1d1b;stroke-miterlimit: 10;stroke-width: 0.075581746054191px"/>
        <path d="M174.43,246.90652l-.36417-1.15067c-.03877-.12156-.95523-3.02759-1.86434-6.86526l2.08861-.49464c.55595,2.34746,1.125,4.37109,1.47554,5.56578,11.95631-5.12773,29.02043-8.3691,45.97871-8.70655,13.69909-.27771,23.97864,1.463,27.46734,4.64147l-1.4462,1.58663c-2.9993-2.73416-13.18872-4.33756-25.97922-4.08185-17.21922.34269-34.51076,3.70982-46.25643,9.00837Z" style="fill: #231f20;stroke: #1d1d1b;stroke-miterlimit: 10;stroke-width: 0.075581746054191px"/>
      </g>
    </g>
    <path d="M200,8.50394a189.0578,189.0578,0,0,1,74.33109,15.10422A193.44556,193.44556,0,0,1,376.39185,125.66895a190.45154,190.45154,0,0,1,0,148.66211A193.44556,193.44556,0,0,1,274.33109,376.39185a190.4513,190.4513,0,0,1-148.66216,0A193.44559,193.44559,0,0,1,23.60814,274.33105a190.45158,190.45158,0,0,1,0-148.66211A193.44559,193.44559,0,0,1,125.66893,23.60815,189.05767,189.05767,0,0,1,200,8.50394M200,0C90,0,0,90,0,200S90,400,200,400s200-90,200-200S310,0,200,0Z"/>
  </g>
</svg>
