<svg xmlns="http://www.w3.org/2000/svg" width="400" height="400" viewBox="0 0 400 400">
  <title>meme</title>
  <g>
    <path d="M201.60081,399.37288h0C91.94572,399.37288,2.22792,309.65509,2.22792,200h0C2.22792,90.34492,91.94572.62712,201.60081.62712h0C311.2559.62712,400.97369,90.34492,400.97369,200h0C400.97369,309.65509,311.2559,399.37288,201.60081,399.37288Z" style="fill: #12d247"/>
    <path d="M200,8.50394a189.05738,189.05738,0,0,1,74.33105,15.10422A193.4452,193.4452,0,0,1,376.39185,125.66895a190.45119,190.45119,0,0,1,0,148.66211A193.4452,193.4452,0,0,1,274.33105,376.39185a190.45119,190.45119,0,0,1-148.66211,0A193.4452,193.4452,0,0,1,23.60815,274.33105a190.45119,190.45119,0,0,1,0-148.66211A193.4452,193.4452,0,0,1,125.66895,23.60815,189.05738,189.05738,0,0,1,200,8.50394M200,0C90,0,0,90,0,200S90,400,200,400s200-90,200-200S310,0,200,0Z"/>
    <g>
      <path d="M201.60081,339.447h0c-76.69582,0-139.447-62.75113-139.447-139.447h0c0-76.69582,62.75113-139.447,139.447-139.447h0c76.69583,0,139.447,62.75113,139.447,139.447h0C341.04776,276.69583,278.29664,339.447,201.60081,339.447Z" style="fill: #fff"/>
      <polygon points="201.349 268.978 132.623 200.252 230.539 102.336 201.853 73.65 103.937 171.566 75.754 199.748 75.251 200.252 201.349 326.35 201.853 325.846 230.035 297.664 327.951 199.748 316.446 188.243 299.265 171.062 279.245 151.042 253.397 125.194 250.559 122.356 187.509 185.405 216.196 214.091 250.559 179.728 270.578 199.748 201.349 268.978" style="fill: #010202"/>
    </g>
  </g>
</svg>
