<svg xmlns="http://www.w3.org/2000/svg" width="400" height="400" viewBox="0 0 400 400">
  <title>meme</title>
  <g>
    <polygon points="99.653 311.458 96.181 296.875 108.681 244.37 245.486 88.542 303.819 135.764 167.94 300.251 99.653 311.458" style="fill: #fff"/>
    <path d="M200,400h0C90,400,0,310,0,200H0C0,90,90,0,200,0h0C310,0,400,90,400,200h0C400,310,310,400,200,400Z" style="fill: #12d247"/>
    <path d="M200,332.63889h0c-72.95139,0-132.63889-59.6875-132.63889-132.63889h0c0-72.95139,59.6875-132.63889,132.63889-132.63889h0c72.95139,0,132.63889,59.6875,132.63889,132.63889h0C332.63889,272.95139,272.95139,332.63889,200,332.63889Z" style="fill: #fff"/>
    <g>
      <path d="M200.0012,339.57795a139.578,139.578,0,1,1,98.73121-238.2855c54.39989,54.42364,54.42359,142.96895,0,197.39254a138.72722,138.72722,0,0,1-98.73121,40.893Zm.0237-255.45121A115.86139,115.86139,0,1,0,281.972,118.05166,115.10143,115.10143,0,0,0,200.0249,84.12674Z"/>
      <path d="M200.0249,286.25425a86.28829,86.28829,0,0,1-86.27657-86.23055,5.93987,5.93987,0,0,1,5.92617-5.938h0A5.91306,5.91306,0,0,1,125.60068,200a74.41248,74.41248,0,0,0,148.82495.01185,5.92617,5.92617,0,0,1,11.85234,0,86.357,86.357,0,0,1-86.25307,86.2424Z"/>
      <g>
        <path d="M159.5373,166.04066a17.77852,17.77852,0,1,0,17.77852,17.77852,17.782,17.782,0,0,0-17.77852-17.77852Z"/>
        <path d="M240.51251,166.04066A17.77852,17.77852,0,1,0,258.291,183.81918a17.78272,17.78272,0,0,0-17.77852-17.77852Z"/>
      </g>
    </g>
    <path d="M200,8.50391a189.05686,189.05686,0,0,1,74.33105,15.10425A193.4452,193.4452,0,0,1,376.39185,125.66895a190.45119,190.45119,0,0,1,0,148.66211A193.44465,193.44465,0,0,1,274.33105,376.39185a190.45119,190.45119,0,0,1-148.66211,0A193.4452,193.4452,0,0,1,23.60815,274.33105a190.45119,190.45119,0,0,1,0-148.66211A193.44576,193.44576,0,0,1,125.66895,23.60815,189.05686,189.05686,0,0,1,200,8.50391M200,0C90,0,0,90,0,200S90,400,200,400s200-90,200-200S310,0,200,0Z"/>
  </g>
</svg>
