<svg xmlns="http://www.w3.org/2000/svg" width="400" height="400" viewBox="0 0 400 400">
  <title>meme</title>
  <g>
    <path d="M200,400h0C90,400,0,310,0,200H0C0,90,90,0,200,0h0C310,0,400,90,400,200h0C400,310,310,400,200,400Z" style="fill: #e6e6e6"/>
    <g>
      <path d="M87.33589,297.04441,216.4287,172.01125l18.40969,19.07128S106.42308,320.79735,106.42308,319.52487,87.33589,297.04441,87.33589,297.04441Z" style="fill: #3c3c3b"/>
      <polygon points="216.429 172.011 263.257 124.487 284.465 144.977 236.92 194.08 216.429 172.011" style="fill: #fff"/>
      <path d="M113.39339,98.74172l18.32474,12.40537-3.52545,23.503,17.05537-14.7733s18.70272,16.78784,18.03121,14.7733-4.36484-22.15995-4.36484-22.15995l17.665-17.12359h-21.694l-9.79659-21.1176-8.11027,22.79638Z" style="fill: #12d247"/>
      <path d="M225.891,304.17209l18.32474,12.40537-3.52545,23.503,17.05537-14.7733s18.70272,16.78784,18.03121,14.7733-4.36484-22.15995-4.36484-22.15995l17.665-17.12359h-21.694l-9.79659-21.1176-8.11027,22.79638Z" style="fill: #12d247"/>
      <path d="M108.33162,324.94948a5.1058,5.1058,0,0,1-3.62181-1.501L84.21864,302.95734a5.11984,5.11984,0,0,1,0-7.24363L212.80688,166.96955a5.11984,5.11984,0,0,1,7.24363,0l20.49117,20.49117a5.11987,5.11987,0,0,1,0,7.24363L111.95344,323.4485A5.1058,5.1058,0,0,1,108.33162,324.94948Zm-13.247-25.614,13.247,13.247,121.34409-121.5-13.247-13.247Z" style="fill: #1d1d1b"/>
      <path d="M232.71759,202.268l-7.24363-7.24363,50.30687-50.04695-13.247-13.247-50.3074,50.04643-7.24363-7.24363L258.912,120.86442a5.11984,5.11984,0,0,1,7.24363,0l20.49117,20.49117a5.11987,5.11987,0,0,1,0,7.24363Z" style="fill: #1d1d1b"/>
      <path d="M232.83575,353.13447a4.89242,4.89242,0,0,1-4.6716-6.3385l8.37813-27.07817-21.37014-16.51758a4.89013,4.89013,0,0,1,2.99-8.76014h25.82209l8.6672-26.00357a4.8917,4.8917,0,0,1,9.28056,0l8.6672,26.00357h25.82212a4.89152,4.89152,0,0,1,3.05454,8.71269L277.68265,320.587,286.388,346.6957a4.89232,4.89232,0,0,1-7.69483,5.36907l-21.40143-17.12409-21.40146,17.12409A4.87818,4.87818,0,0,1,232.83575,353.13447Zm-.34631-48.912,12.71761,9.83033a4.8883,4.8883,0,0,1,1.68112,5.31624L242.21461,334.477l12.02257-9.61952a4.90258,4.90258,0,0,1,6.10911,0L271.87,334.07591l-4.5449-13.63226a4.8956,4.8956,0,0,1,1.58573-5.36858l13.5677-10.85259H267.07415a4.89061,4.89061,0,0,1-4.6403-3.34362l-5.1421-15.42831-5.14213,15.42831a4.8906,4.8906,0,0,1-4.64027,3.34362Z" style="fill: #1d1d1b"/>
      <path d="M120.33817,147.70411a4.8924,4.8924,0,0,1-4.67158-6.3385l8.37814-27.07817L102.67459,97.76985a4.89013,4.89013,0,0,1,2.99-8.76014h25.82211l8.6672-26.00357a4.8917,4.8917,0,0,1,9.28056,0l8.66719,26.00357h25.82212a4.89152,4.89152,0,0,1,3.05454,8.71269L165.18508,115.1566l8.70536,26.10873a4.89232,4.89232,0,0,1-7.69483,5.36907l-21.40143-17.12409L123.39273,146.6344A4.87819,4.87819,0,0,1,120.33817,147.70411Zm-.3463-48.912,12.71761,9.83033a4.88827,4.88827,0,0,1,1.68111,5.31624L129.717,129.04663l12.02257-9.61952a4.90258,4.90258,0,0,1,6.10911,0l11.52365,9.21844-4.5449-13.63226a4.89562,4.89562,0,0,1,1.58573-5.36858l13.5677-10.85259H154.57657a4.8906,4.8906,0,0,1-4.64028-3.34362l-5.14212-15.42831-5.14212,15.42831a4.8906,4.8906,0,0,1-4.64028,3.34362Z" style="fill: #1d1d1b"/>
      <path d="M203.48856,343.35207a142.12787,142.12787,0,0,1-89.65372-31.92192l6.1859-7.57549a132.32568,132.32568,0,0,0,83.46782,29.715Z" style="fill: #1d1d1b"/>
      <path d="M319.90789,282.56572l-8.025-5.59847a131.24906,131.24906,0,0,0,23.668-75.46c0-72.81871-59.24369-132.06238-132.06238-132.06238v-9.7824c78.21368,0,141.84477,63.63352,141.84477,141.84477A141.00083,141.00083,0,0,1,319.90789,282.56572Z" style="fill: #1d1d1b"/>
      <path d="M93.56571,291.16347a141.882,141.882,0,0,1-6.4916-170.71459l8.0245,5.59847a132.0928,132.0928,0,0,0,6.04259,158.92582Z" style="fill: #1d1d1b"/>
      <path d="M276.85655,211.2897a9.7824,9.7824,0,1,1,9.7824-9.7824A9.79382,9.79382,0,0,1,276.85655,211.2897Z" style="fill: #1d1d1b"/>
      <path d="M223.05336,108.57451a9.7824,9.7824,0,1,1,9.7824-9.7824A9.79382,9.79382,0,0,1,223.05336,108.57451Z" style="fill: #1d1d1b"/>
      <path d="M144.79417,177.0513a9.7824,9.7824,0,1,1,9.7824-9.7824A9.79382,9.79382,0,0,1,144.79417,177.0513Z" style="fill: #1d1d1b"/>
      <path d="M213.271,269.98408a9.7824,9.7824,0,1,1,9.7824-9.7824A9.79382,9.79382,0,0,1,213.271,269.98408Z" style="fill: #1d1d1b"/>
      <path d="M296.42134,250.41929a9.7824,9.7824,0,1,1,9.7824-9.7824A9.79382,9.79382,0,0,1,296.42134,250.41929Z" style="fill: #1d1d1b"/>
      <path d="M114.3939,270.19881A111.41492,111.41492,0,0,1,90.991,201.5073h9.7824a101.71533,101.71533,0,0,0,21.36329,62.71153Z" style="fill: #1d1d1b"/>
      <path d="M315.98614,201.5073h-9.7824a102.71043,102.71043,0,0,0-13.72081-51.32873l8.46911-4.8912A112.49151,112.49151,0,0,1,315.98614,201.5073Z" style="fill: #1d1d1b"/>
      <rect x="219.67805" y="122.11846" width="8.11021" height="8.11021" style="fill: #1d1d1b"/>
      <rect x="139.90297" y="191.7249" width="9.7824" height="9.7824" style="fill: #1d1d1b"/>
      <rect x="252.40055" y="240.63689" width="9.7824" height="9.7824" style="fill: #1d1d1b"/>
      <rect x="90.99098" y="181.9425" width="9.7824" height="9.7824" style="fill: #1d1d1b"/>
      <rect x="183.92376" y="294.44008" width="9.7824" height="9.7824" style="fill: #1d1d1b"/>
    </g>
    <path d="M199.37288,8.50394a189.05738,189.05738,0,0,1,74.33105,15.10422A193.4452,193.4452,0,0,1,375.76473,125.66895a190.45119,190.45119,0,0,1,0,148.66211A193.4452,193.4452,0,0,1,273.70394,376.39185a190.45119,190.45119,0,0,1-148.66211,0A193.4452,193.4452,0,0,1,22.981,274.33105a190.45119,190.45119,0,0,1,0-148.66211A193.4452,193.4452,0,0,1,125.04183,23.60815,189.05738,189.05738,0,0,1,199.37288,8.50394m0-8.50394c-110,0-200,90-200,200s90,200,200,200,200-90,200-200-90-200-200-200Z"/>
  </g>
</svg>
