<svg xmlns="http://www.w3.org/2000/svg" width="400" height="400" viewBox="0 0 400 400">
  <title>meme</title>
  <path d="M200,400h0C90,400,0,310,0,200H0C0,90,90,0,200,0h0C310,0,400,90,400,200h0C400,310,310,400,200,400Z" style="fill: #333"/>
  <g>
    <g>
      <path d="M203.17372,77.825c1.62574-.36914,3.03381-1.51152,4.77035-1.38634,3.63416.02255,7.26951.015,10.90367.00372,1.59487-.04126,3.0222.88959,4.63514.76454,1.84986-.06381,3.59155.67446,5.42611.74327a19.08625,19.08625,0,0,1,6.83405,2.042c2.79676,1.37763,5.524,2.88787,8.232,4.42565,1.91556,1.04476,2.704,3.15694,4.08757,4.706a52.81159,52.81159,0,0,1,4.74462,5.9259,37.83279,37.83279,0,0,1,2.34588,6.41637c.3774,1.76919,1.55238,3.2957,1.72242,5.12254.73293,3.8364.07466,7.75031.46118,11.60656a48.33364,48.33364,0,0,1,.28719,7.61513c.06186,1.9519-.724,3.88008-.23574,5.82827a35.28666,35.28666,0,0,0,1.6322,5.97843c.50379,2.86032.87342,5.79828,2.145,8.45847.679,1.17992,1.86543,2.10206,2.17584,3.47341-.41093,2.475-1.55873,4.77352-2.09721,7.22217-.22544,1.18249-.04379,2.4-.25249,3.58616-.72145,1.15737-1.88085,2.00442-2.50957,3.2169-.11332,2.54384.96629,5.05374.42517,7.59258a5.32773,5.32773,0,0,0-.08759,1.59288,1.81483,1.81483,0,0,0,2.695.47548c.73293-3.97157,1.15163-8.00182,1.90144-11.977.39153-1.86182,1.70172-3.43215,1.88073-5.34663a8.08961,8.08961,0,0,1,.46515-2.6138,1.81221,1.81221,0,0,1,2.79675-.498c.86827.65576.82184,1.82684,1.07564,2.77524.25131,2.73027,3.38946,4.57467,2.67183,7.49123-.94294,3.43715-1.52785,6.95066-2.467,10.38666-.26542,1.12355.39034,2.27221-.00514,3.38334-1.60132,4.9224-4.96361,9.08655-8.63377,12.72268-.934,1.35251-1.26771,2.9905-2.0703,4.41182-.67238,1.32138-1.93231,2.36113-2.18862,3.87637a37.776,37.776,0,0,1-2.811,9.32436c-.73424,2.38855-2.09984,4.507-3.11111,6.77423-1.09754,3.25828-2.90241,6.21867-4.42513,9.298-2.01357,3.81256-3.84536,7.71892-6.0444,11.44141-1.53946,2.6589-2.62289,5.5806-4.56166,8.008-1.77269,2.22724-2.66022,5.0563-4.84,6.98193a20.15971,20.15971,0,0,1-6.33817,3.61614,4.23171,4.23171,0,0,1-2.07532.17515c.353-2.13461,2.42066-3.38833,3.732-4.96622,1.96845-2.53116,4.134-4.96238,5.45315-7.90406,1.86543-2.9805,3.49763-6.09234,5.40289-9.049,1.77256-2.95923,2.71048-6.285,4.40191-9.28054,1.40807-3.26828,2.89081-6.50888,4.286-9.786a90.14846,90.14846,0,0,0,5.65155-14.11274c.30789-.97595.62871-2.40739-.523-2.99306-.675-.50418-1.381.31788-1.71083.83334a73.91068,73.91068,0,0,0-3.875,8.66117c-.56157,1.39762-.80245,2.9017-1.46849,4.26178-1.67731,3.27328-2.4915,6.90185-4.37236,10.08121a35.29865,35.29865,0,0,0-2.20669,4.98006c-1.4673,3.297-3.44869,6.36627-4.71759,9.75089-1.01641,2.77524-3.49367,4.61836-5.52663,6.6716-2.025,1.92947-3.8943,4.12161-6.50426,5.33408-2.63067,1.16122-4.86573,3.048-7.629,3.9339-1.84735.72328-3.888.58311-5.78426,1.11112-1.886.50931-3.87121.03882-5.76487.48176a14.77454,14.77454,0,0,1-9.38228-.3266c-3.02866-1.27-6.26866-2.0207-9.17741-3.55349-1.98138-1.05487-4.2229-1.768-5.868-3.32209-2.521-2.97666-5.03181-5.96716-7.27215-9.15536-.6171-.93469-2.13849-2.15459-2.96429-.73942.73307,3.88508,3.04938,7.291,5.43125,10.43535.67383.92841,1.85382,1.77175,1.50081,3.05559-.54363-.02383-1.21086.12877-1.649-.27778-1.506-1.21-2.41288-2.92669-3.71133-4.31816-2.65388-2.66262-5.50209-5.52665-6.373-9.25542-1.037-3.80129-2.85216-7.33236-4.18676-11.031-.84519-2.027-2.1592-3.85882-2.69887-6.006a51.45469,51.45469,0,0,0-2.85731-6.65661c-.75114-1.68411-.97909-3.52351-1.58722-5.24772-.56684-1.69167-2.21064-2.76153-2.77354-4.4532-1.25611-3.46213-2.32911-6.98564-3.65091-10.42907a3.29133,3.29133,0,0,1-.255-2.4375c.79862-1.33381,2.579-2.012,2.89332-3.61986.27439-2.67761-.19326-5.394.25513-8.06179a9.93206,9.93206,0,0,0-.37623-5.643c-.13139-.57811-.77936-.50931-1.23671-.50559-.93779,2.36485-.75614,5.055-1.75712,7.42243-1.354,2.75654-2.95914,5.48168-3.213,8.58852-.84888.44793-1.79446-.25523-2.19772-.96839a17.25524,17.25524,0,0,1-1.71847-5.43543c-.49217-2.65519-.98172-5.31653-1.50978-7.96543-.43414-1.957.06688-3.99271-.46381-5.93589-.45868-1.75176-1.14135-3.436-1.67732-5.16264-.55009-1.74676-1.72626-3.36335-1.5665-5.26527a51.70274,51.70274,0,0,1,.24866-7.31352c.34522-2.05709.01675-4.14787.19708-6.21624a2.95774,2.95774,0,0,1,4.52684-1.83056c2.2931,1.439,2.68476,4.24179,3.86356,6.41509a2.71614,2.71614,0,0,0,3.85829-2.08323c.27307-2.10962,1.037-4.163.8965-6.31759a12.934,12.934,0,0,1,.56434-3.98528c.34391-1.16481-.24734-2.32974-.134-3.501.28863-1.41261,1.07182-2.71643,1.10282-4.17786a45.81978,45.81978,0,0,1,1.03568-9.56575c.56169-3.62114-.49984-7.39873.74849-10.92838.33362-1.57533.00514-3.22946.55009-4.7698.65694-1.87681.0463-3.979,1.08343-5.74819,1.90012-3.471,3.2115-7.3699,6.18225-10.16884,1.01641-.91227,1.81121-2.01583,2.72724-3.01061.95323-1.081,2.43992-1.41261,3.64181-2.1396,1.32945-.78453,2.64479-1.77418,4.25127-1.89936,1.5665.07636,3.06731.61437,4.63381.71944,3.15491.20769,6.09084,1.74933,9.29468,1.55278,3.2425-.11634,6.51984.23408,9.73647-.29777,1.64-.204,3.30054.01883,4.94039-.18386C198.10312,79.3352,200.59845,78.42063,203.17372,77.825Zm-43.93561,42.0744c-2.31632.72328-3.52982,2.86788-5.09633,4.487-3.1871,2.76525-4.35547,7.16451-4.05022,11.19361.10566.93341.8502,2.04825,1.94788,1.88937,1.92716-.88344,2.56748-3.028,3.60447-4.67461.17782.03741.5307.11006.70852.14389.01161,1.32625-.56935,2.65634-.19708,3.97016.63122,2.4899,2.38069,4.4869,3.53364,6.748.71367,1.27,1.26758,2.784,2.641,3.5335a1.50492,1.50492,0,0,0,1.91174-.57311c1.4673-1.75791-.147-4.233,1.11693-6.06095.62858-.95724,1.47891-2.48632,2.87788-1.79059.05158,1.1962-.68662,2.37741-.22676,3.55734a6.64243,6.64243,0,0,0,4.34268,3.805c2.25445-.02755,4.88763-.60809,6.15521-2.60637.99333-1.35251.53215-3.24445,1.62587-4.53572,1.58313-.08264,2.467,1.68667,2.19259,3.02048.03469.74327-.4162,1.60159.12742,2.24979a12.61037,12.61037,0,0,0,6.97335-1.40646c2.199-1.589,1.80738-4.48318,1.91687-6.81049.71235-2.05337,2.81483-3.69494,2.641-6.00982-.62357-1.579-2.5134-2.07451-4.00392-2.6-2.20933-.71572-4.30786-1.73677-6.5817-2.26235-2.436-.56556-4.626-1.90692-7.15619-2.10706-3.20767-.403-6.04572-2.00456-9.15683-2.72028C164.49034,120.05081,161.79912,118.69817,159.23811,119.89936Zm73.06535,1.60531a27.83549,27.83549,0,0,0-7.71406,1.93319c-2.77737,1.25757-6.0328.97595-8.68524,2.54256-3.29025,1.574-6.90885,3.7813-7.78873,7.50122a16.78238,16.78238,0,0,0,.59771,7.779c.44957,1.27243.62344,2.77524,1.70172,3.72992,1.47377.48176,2.10763-1.11983,3.07247-1.83184,1.39263-.4291,2.42844.90471,2.94753,1.97573a12.55671,12.55671,0,0,1-.21766,3.19063,3.11516,3.11516,0,0,0,1.69143,1.74676,33.12147,33.12147,0,0,0,6.71823,2.52,18.60132,18.60132,0,0,0,5.05885.35915c1.15822-.04625,2.42713.15888,3.47058-.46677.00514-.23767.009-.71572.009-.95839-1.45056-.93341-3.33261-.20641-4.94686-.5981a18.95174,18.95174,0,0,1-5.84469-2.19213c-1.12472-.70957-.69308-2.13717-.94307-3.21575-.8064-.91842-2.11013-1.37391-2.70784-2.4612a2.478,2.478,0,0,1,3.04924-2.80779c.41606,1.454.143,3.08185.84637,4.4532a9.02517,9.02517,0,0,0,7.31462,2.84776c1.8963-.20769,2.92828-2.027,4.66733-2.53244.11213.96839.06187,1.94818.201,2.91285.79611,1.01349,2.22609.94225,3.39064.82578,2.74135-.38528,5.29459-1.51524,8.009-2.012.71749-.25023,1.73391-.17758,2.114-.93841-.37227-.558-.8258-1.05475-1.1788-1.61659.13535-1.36264,1.58723-1.957,2.55205-2.72028,1.11311-.9033,2.46578-1.84555,2.76589-3.31453-.389-2.50118-1.76108-4.72342-2.52236-7.12453a27.35,27.35,0,0,0-4.32462-7.87293,4.5767,4.5767,0,0,0-2.41934-1.43259A19.899,19.899,0,0,0,232.30346,121.50467Zm-88.60416,30.33894c-1.533,1.35636-1.83443,3.635-1.59355,5.54062.65958,3.058,1.524,6.08106,2.355,9.09526a7.54753,7.54753,0,0,0,1.36547,0c.72791-1.07358.47661-2.40611.29377-3.59359-.54758-3.00292.067-6.0735-.3414-9.084C145.61234,152.84467,144.92189,151.45833,143.69929,151.84361Zm39.87115,24.577c-.55774,1.768,1.69024,2.67518,1.81517,4.2892-.99966,1.32881-2.74135.3954-4.1043.54557-1.74434.29277-3.33538,1.10869-5.04224,1.55162-2.09852.558-3.89311,1.83556-5.989,2.41482-2.0819.5694-4.10312,1.32638-6.172,1.93319a13.55316,13.55316,0,0,0-4.70731,2.19726c-1.31534,1.00465-.536,2.7764-.79228,4.14288-.20224,1.26116-1.29081,2.87531-2.80454,2.2922-.82963-1.32381-.52688-3.272-2.02373-4.1767a1.16449,1.16449,0,0,0-1.72626.47048c-.55141.7958.04248,1.75432.15975,2.59766.66591,2.03326.73939,4.1817,1.256,6.24993.38005,1.60531-.01161,3.55477,1.29463,4.83361,1.17234.97966,2.5688,1.7893,3.27086,3.1932.46514.78068,1.29858,2.26594,2.35365,1.37635,1.50213-1.26628-.465-2.9905-.07334-4.52457.33361-.34287.68266-.79452,1.21085-.83334,3.65355-.4054,7.22835.6482,10.73877,1.48525,3.51821.737,6.525,2.76525,9.86034,3.979a26.458,26.458,0,0,1,5.72227,3.12183c2.57143,1.74548,5.85641,2.06209,8.90962,1.89693,4.30521-.49047,8.52165-1.49653,12.78452-2.24723a47.54367,47.54367,0,0,0,4.76257-1.40517,1.956,1.956,0,0,1,1.84353.37657,3.52946,3.52946,0,0,1-.12888,1.2363,26.70529,26.70529,0,0,1-8.70462,5.50551c-1.03831.4054-2.32911.36029-3.14594,1.18864-.00383.22269-.00383.67062-.00646.89343,1.6194,1.41389,4.0993.94584,5.98.32775,3.81714-1.68411,7.78108-3.063,11.41643-5.12011,3.48351-2.49746,5.73664-6.34885,9.479-8.52843,2.57646-.72072,5.62834.73814,7.95877-.901a26.48169,26.48169,0,0,0,3.915-5.62928c.76775-1.49269,2.09457-2.79907,2.26857-4.52072-.39549-2.36242-1.12855-4.65962-1.70186-6.98449-.44693-2.06836-2.49005-3.08928-3.95353-4.41438a92.37482,92.37482,0,0,0-7.17558-6.59665c-1.35386-.93584-2.20669-3.12055-4.17-2.675-.12888,1.14854,1.05124,1.67155,1.7533,2.37984.96747.92085,2.03283,2.08451,1.70686,3.51595a2.618,2.618,0,0,1-2.01739.15772,57.76,57.76,0,0,0-6.57392-1.49909c-1.65278-.4004-3.41373.78837-4.95715-.16516-.42385-1.51652,1.24067-2.24223,2.03929-3.25188a.97571.97571,0,0,0-.4844-1.58289c-2.40773-.88459-5.00741-.19514-7.41514.32788-2.68845.08251-5.04725,1.40889-7.58386,2.08707-1.962.51546-3.75526,1.48141-5.70168,2.027-1.69538.558-2.98619-.926-4.38779-1.56405-1.90409-.88844-3.66385-2.04453-5.61423-2.83277C187.17373,174.90657,184.80333,174.83149,183.57044,176.42066Z" style="fill: #fff"/>
      <path d="M233.68449,139.10222c1.59737-.48676,2.57909,1.43516,2.05473,2.709a1.65385,1.65385,0,0,1-2.58292.96339C232.07155,141.82865,232.15268,139.569,233.68449,139.10222Z" style="fill: #fff"/>
      <path d="M185.64192,200.57962c2.07412.26663,4.23068-.51289,6.21325.37541,2.90493.96352,5.98649,1.20619,8.96357,1.87938,1.56783.42538,3.0995-.35414,4.5771-.78081a24.88492,24.88492,0,0,1,9.55113-1.27871c1.931.10007,4.38133-.53557,5.743,1.21247,1.31916,1.37507-.44192,3.66983-2.16818,3.23945a25.81473,25.81473,0,0,0-3.18841-1.07358c-1.39515.18015-2.59057,1.28384-4.06051.99478-1.02406-.19142-2.55588.05253-2.63318,1.31126-.37358,1.41645,1.64777,2.22353,1.23157,3.655-.19326.9033-1.27022,1.1698-2.0509,1.42632a42.81811,42.81811,0,0,1-10.25569.46421c-1.8215-.3052-3.7823-.53929-5.31781-1.6203-1.23289-.9885.11332-2.9805-1.10533-3.90892-1.68-.51674-3.63416.523-5.16333-.54429a7.758,7.758,0,0,1-1.86925-2.73142A1.88407,1.88407,0,0,1,185.64192,200.57962Z" style="fill: #fff"/>
    </g>
    <g>
      <path d="M192.19657,23.088a13.07864,13.07864,0,0,1,2.181-.14261q10.09278.02806,20.18424,0a17.848,17.848,0,0,1,5.1632.6669,8.23633,8.23633,0,0,1,2.94372,2.03826,26.723,26.723,0,0,0,5.87567,3.30326c2.15261,1.051,4.53845,1.53407,6.71823,2.52757,3.37521,1.5916,6.9037,3.13567,9.47633,5.88208,1.62192.82462,3.83639-.513,5.35647.79836,1.99034,1.7779,4.058,3.7599,6.81875,4.28049a33.0706,33.0706,0,0,1,6.7413,1.3939c1.99419.62437,3.29791,2.32731,4.70466,3.72121,2.3394,3.02919,2.92181,6.87174,3.98835,10.4128a5.455,5.455,0,0,0,2.99014,3.11312c2.48622,1.295,4.72906,2.97166,7.09815,4.44449a19.1493,19.1493,0,0,1,7.16,9.99485c.56949,3.89636.36976,7.983,1.97874,11.67537,1.23289,2.36613,3.18723,4.54084,3.25807,7.32864.0463,3.89508.01161,7.79772,0,11.69664-.10433,2.84776,1.36942,5.56048.97776,8.42464-.18165,1.19735-.15975,2.40982-.23573,3.616-.10949,1.86567-1.54975,3.3909-1.49949,5.28283.02058,1.92063-.85165,3.72492-.77552,5.64684a26.1454,26.1454,0,0,1-.72014,4.91741c-.35683,3.27327-1.39647,6.43393-1.73786,9.7072-.39166,1.85311-.63636,3.7412-1.19041,5.558-.5526,1.78917-2.15393,2.93041-3.43312,4.2154-1.45833,1.34765-2.82776,2.78024-4.14692,4.2555-1.54329,1.68411-4.64279,1.813-5.34867,4.20168-.81419,3.31953-1.12089,6.73669-1.60133,10.1126-.4547,3.19819-.55524,6.51388-1.87057,9.52693-.86049,1.92947-1.6566,3.88393-2.57514,5.787-.79492,1.6654-2.52883,2.57383-3.852,3.79373-.94162.86717-2.14878,1.40517-3.09172,2.27106a7.48065,7.48065,0,0,0-1.144,2.65634c-.64415,2.08335.03866,4.33558-.78318,6.39023-1.13238,2.9641-1.84736,6.06851-3.2065,8.95138a113.39573,113.39573,0,0,1-4.41484,10.77322c-1.77652,4.59325-4.31815,8.85131-6.49661,13.26569-2.382,5.07885-5.91565,9.52821-9.18124,14.084-.86194,1.26872-1.16851,2.79408-1.97492,4.09034-1.1143,1.42388-2.73106,2.38112-3.84668,3.805a19.93308,19.93308,0,0,1-5.53177,5.22145,57.47492,57.47492,0,0,1-10.60092,5.48924c-4.9495,1.50025-9.88725,3.77118-15.20651,3.34208-2.95136-.2528-5.99163-.44922-8.74195-1.63542-2.31883-.97223-4.82445-1.6467-6.87667-3.13438-4.48832-3.35963-9.62316-5.75318-14.47992-8.5447-2.61379-1.23131-4.35165-3.55605-6.44371-5.42543-2.00842-1.7442-3.26836-4.09034-4.97918-6.07978-1.40412-2.186-2.80058-4.37812-4.02951-6.65789-.98555-1.78559-2.22226-3.42716-3.09185-5.27027-1.36546-3.08557-1.04346-6.549-1.9852-9.74218a77.117,77.117,0,0,0-2.30076-7.97171c-.76393-1.8731-1.12208-3.86638-1.79195-5.767a38.455,38.455,0,0,1-2.37687-9.42314c-.29113-2.38855-.83477-4.73969-1.16192-7.12581a10.36424,10.36424,0,0,0-.81683-2.93784c-1.533-2.25235-4.64279-3.1832-5.61923-5.84582a55.667,55.667,0,0,0-2.45035-6.31759c-.85271-1.678-.60418-3.59231-1.05111-5.36163-.39944-1.72921-.85284-3.44843-1.27418-5.17392a4.00682,4.00682,0,0,0-.98673-2.05324c-.84123-.72943-1.95685-1.0723-2.784-1.82185a8.60207,8.60207,0,0,1-1.502-2.31975c-1.88085-3.72377-4.277-7.17091-6.28277-10.8246-.87988-1.61287-.74467-3.46713-.849-5.22517-.28718-1.58788-1.79578-2.54128-2.64215-3.82884a10.90948,10.90948,0,0,1-1.96713-5.9947c.02836-2.01827-.04129-4.03653.03087-6.05723.067-1.51408.8374-2.93169.74981-4.4532a13.11935,13.11935,0,0,0-1.93244-3.461c-1.37707-2.13461-1.82282-4.65462-2.45153-7.057-.51144-1.54906.2757-3.08557.47279-4.6158.30024-2.43378,1.75726-4.63719,1.60648-7.13837a58.0075,58.0075,0,0,0-.13139-5.93346,41.579,41.579,0,0,0-3.54907-6.006,6.05186,6.05186,0,0,1-.715-5.12254c.7072-2.21981,1.828-4.29176,2.61893-6.48146,2.17978-6.20369,6.39742-11.449,10.62809-16.45145a30.79655,30.79655,0,0,1,5.0421-5.2827c2.087-1.51652,4.2667-3.38961,7.04037-3.32581,1.17089-.03011,2.81984-.04511,3.19224-1.40517a41.49661,41.49661,0,0,1,2.83791-6.6529c.72659-1.594,2.13849-2.70516,3.3727-3.91135,1.45306-1.36636,2.74135-2.99806,4.66469-3.775,3.35977-1.49525,7.115-1.92063,10.52375-3.29954,2.03665-.97223,2.43992-3.37591,3.99864-4.8035a14.17487,14.17487,0,0,1,3.32495-2.79152c4.81284-2.14716,10.19-2.32116,15.22841-3.69622C184.94765,24.3768,188.63972,24.03022,192.19657,23.088Zm10.97714,54.737c-2.57527.59567-5.0706,1.51024-7.68834,1.92947-1.63985.2027-3.30041-.02012-4.94039.18386-3.21664.53185-6.494.18143-9.73647.29777-3.20385.19655-6.13978-1.34508-9.29468-1.55278-1.56651-.10506-3.06732-.64307-4.63381-.71944-1.60648.12518-2.92182,1.11483-4.25127,1.89936-1.20189.727-2.68858,1.05859-3.64181,2.1396-.916.99478-1.71082,2.09835-2.72724,3.01061-2.97075,2.79895-4.28213,6.69787-6.18225,10.16884-1.03713,1.76919-.42649,3.87137-1.08343,5.74819-.54495,1.54035-.21647,3.19448-.55009,4.7698-1.24832,3.52966-.18679,7.30724-.74849,10.92838a45.81978,45.81978,0,0,0-1.03568,9.56575c-.031,1.46142-.81419,2.76525-1.10282,4.17786-.11331,1.17121.47793,2.33615.134,3.501a12.934,12.934,0,0,0-.56434,3.98528c.14049,2.1546-.62344,4.208-.8965,6.31759a2.71614,2.71614,0,0,1-3.85829,2.08323c-1.1788-2.1733-1.57046-4.97609-3.86356-6.41509a2.95774,2.95774,0,0,0-4.52684,1.83056c-.18033,2.06836.14814,4.15915-.19708,6.21624a51.70274,51.70274,0,0,0-.24866,7.31352c-.15976,1.90193,1.01641,3.51851,1.5665,5.26527.536,1.72664,1.21864,3.41088,1.67732,5.16264.53069,1.94318.02967,3.97887.46381,5.93589.52806,2.64891,1.01761,5.31025,1.50978,7.96543a17.25524,17.25524,0,0,0,1.71847,5.43543c.40327.71316,1.34884,1.41632,2.19772.96839.25381-3.10684,1.859-5.832,3.213-8.58852,1.001-2.36741.81933-5.05758,1.75712-7.42243.45735-.00372,1.10533-.07252,1.23671.50559a9.93206,9.93206,0,0,1,.37623,5.643c-.44838,2.66774.01926,5.38418-.25513,8.06179-.31436,1.60787-2.0947,2.28605-2.89332,3.61986a3.29133,3.29133,0,0,0,.255,2.4375c1.3218,3.44343,2.39481,6.96694,3.65091,10.42907.56289,1.69167,2.20669,2.76153,2.77354,4.4532.60813,1.72421.83608,3.56361,1.58722,5.24772a51.45469,51.45469,0,0,1,2.85731,6.65661c.53966,2.14716,1.85368,3.979,2.69887,6.006,1.3346,3.69866,3.14976,7.22973,4.18676,11.031.87091,3.72877,3.71912,6.5928,6.373,9.25542,1.29845,1.39147,2.20538,3.10812,3.71133,4.31816.43809.40655,1.10533.25395,1.649.27778.353-1.28384-.827-2.12717-1.50081-3.05559-2.38188-3.14438-4.69819-6.55027-5.43125-10.43535.8258-1.41517,2.34719-.19527,2.96429.73942,2.24033,3.1882,4.7511,6.1787,7.27215,9.15536,1.64513,1.55406,3.88665,2.26722,5.868,3.32209,2.90875,1.53279,6.14875,2.28349,9.17741,3.55349a14.77454,14.77454,0,0,0,9.38228.3266c1.89366-.44294,3.87886.02755,5.76487-.48176,1.8963-.528,3.93691-.38784,5.78426-1.11112,2.76325-.88587,4.99831-2.77268,7.629-3.9339,2.61-1.21247,4.47922-3.40461,6.50426-5.33408,2.033-2.05324,4.51022-3.89636,5.52663-6.6716,1.2689-3.38462,3.25028-6.45391,4.71759-9.75089a35.29865,35.29865,0,0,1,2.20669-4.98006c1.88086-3.17936,2.695-6.80793,4.37236-10.08121.666-1.36007.90692-2.86416,1.46849-4.26178a73.91068,73.91068,0,0,1,3.875-8.66117c.32979-.51546,1.03581-1.33752,1.71083-.83334,1.15175.58567.83093,2.01711.523,2.99306a90.14846,90.14846,0,0,1-5.65155,14.11274c-1.39515,3.27712-2.87788,6.51772-4.286,9.786-1.69143,2.99549-2.62935,6.3213-4.40191,9.28054-1.90527,2.95667-3.53747,6.06851-5.40289,9.049-1.31916,2.94168-3.4847,5.3729-5.45315,7.90406-1.31138,1.57789-3.379,2.83162-3.732,4.96622a4.23171,4.23171,0,0,0,2.07532-.17515,20.15971,20.15971,0,0,0,6.33817-3.61614c2.17978-1.92563,3.06732-4.75469,4.84-6.98193,1.93877-2.42738,3.0222-5.34907,4.56166-8.008,2.199-3.72249,4.03083-7.62884,6.0444-11.44141,1.52272-3.07929,3.32759-6.03968,4.42513-9.298,1.01127-2.26722,2.37688-4.38568,3.11111-6.77423a37.776,37.776,0,0,0,2.811-9.32436c.25631-1.51524,1.51625-2.555,2.18862-3.87637.80259-1.42132,1.13634-3.0593,2.0703-4.41182,3.67016-3.63613,7.03245-7.80028,8.63377-12.72268.39548-1.11112-.26027-2.25979.00514-3.38334.93911-3.436,1.524-6.94951,2.467-10.38666.71762-2.91656-2.42052-4.761-2.67183-7.49123-.25381-.9484-.20737-2.11949-1.07564-2.77524a1.81221,1.81221,0,0,0-2.79675.498,8.08961,8.08961,0,0,0-.46515,2.6138c-.179,1.91448-1.4892,3.48481-1.88073,5.34663-.74981,3.97516-1.16851,8.00541-1.90144,11.977a1.81483,1.81483,0,0,1-2.695-.47548,5.32773,5.32773,0,0,1,.08759-1.59288c.54112-2.53885-.53848-5.04874-.42517-7.59258.62872-1.21247,1.78812-2.05952,2.50957-3.2169.2087-1.18621.027-2.40367.25249-3.58616.53848-2.44865,1.68628-4.74713,2.09721-7.22217-.31041-1.37135-1.49686-2.29348-2.17584-3.47341-1.27154-2.66018-1.64117-5.59815-2.145-8.45847a35.28666,35.28666,0,0,1-1.6322-5.97843c-.48822-1.94818.2976-3.87637.23574-5.82827a48.33364,48.33364,0,0,0-.28719-7.61513c-.38651-3.85626.27175-7.77017-.46118-11.60656-.17-1.82684-1.345-3.35335-1.72242-5.12254a37.83279,37.83279,0,0,0-2.34588-6.41637,52.81159,52.81159,0,0,0-4.74462-5.9259c-1.38355-1.54906-2.172-3.66125-4.08757-4.706-2.708-1.53778-5.43521-3.048-8.232-4.42565a19.08625,19.08625,0,0,0-6.83405-2.042c-1.83456-.0688-3.57625-.80708-5.42611-.74327-1.61294.12505-3.04027-.80579-4.63514-.76454-3.63416.01128-7.26951.01883-10.90367-.00372C206.20753,76.31344,204.79945,77.45582,203.17372,77.825Z" style="fill: #00000a"/>
      <path d="M159.23811,119.89936c2.561-1.2012,5.25224.15145,7.848.44037,3.11111.71572,5.94917,2.31732,9.15683,2.72028,2.53015.20014,4.72023,1.5415,7.15619,2.10706,2.27384.52558,4.37236,1.54663,6.5817,2.26235,1.49052.52545,3.38035,1.02092,4.00392,2.6.17387,2.31488-1.92862,3.95645-2.641,6.00982-.10949,2.32731.28217,5.22145-1.91687,6.81049a12.61037,12.61037,0,0,1-6.97335,1.40646c-.54363-.6482-.09274-1.50652-.12742-2.24979.27439-1.33381-.60945-3.10312-2.19259-3.02048-1.09372,1.29127-.63254,3.1832-1.62587,4.53572-1.26758,1.99828-3.90076,2.57882-6.15521,2.60637a6.64243,6.64243,0,0,1-4.34268-3.805c-.45986-1.17993.27834-2.36113.22676-3.55734-1.399-.69573-2.2493.83335-2.87788,1.79059-1.26389,1.828.35037,4.303-1.11693,6.06095a1.50492,1.50492,0,0,1-1.91174.57311c-1.37338-.74955-1.9273-2.2635-2.641-3.5335-1.15295-2.26107-2.90242-4.25806-3.53364-6.748-.37227-1.31382.20869-2.64391.19708-3.97016-.17782-.03383-.5307-.10647-.70852-.14389-1.037,1.64656-1.67731,3.79117-3.60447,4.67461-1.09768.15888-1.84222-.956-1.94788-1.88937-.30525-4.0291.86313-8.42836,4.05022-11.19361C155.70829,122.76724,156.92178,120.62264,159.23811,119.89936Z" style="fill: #00000a"/>
      <path d="M232.30346,121.50467a19.899,19.899,0,0,1,10.88441.22153,4.5767,4.5767,0,0,1,2.41934,1.43259,27.35,27.35,0,0,1,4.32462,7.87293c.76128,2.40111,2.13334,4.62336,2.52236,7.12453-.30011,1.469-1.65278,2.41123-2.76589,3.31453-.96483.76325-2.41671,1.35764-2.55205,2.72028.353.56184.80654,1.05859,1.1788,1.61659-.38005.76082-1.39647.68817-2.114.93841-2.71444.49675-5.26768,1.62671-8.009,2.012-1.16456.11647-2.59453.18771-3.39064-.82578-.13917-.96467-.08891-1.94446-.201-2.91285-1.73905.50546-2.771,2.32475-4.66733,2.53244a9.02517,9.02517,0,0,1-7.31462-2.84776c-.70338-1.37135-.43031-2.99921-.84637-4.4532a2.478,2.478,0,0,0-3.04924,2.80779c.59771,1.08729,1.90144,1.54278,2.70784,2.4612.25,1.07858-.18165,2.50618.94307,3.21575a18.95174,18.95174,0,0,0,5.84469,2.19213c1.61425.39169,3.4963-.33531,4.94686.5981,0,.24268-.00384.72072-.009.95839-1.04346.62565-2.31236.42052-3.47058.46677a18.60132,18.60132,0,0,1-5.05885-.35915,33.12147,33.12147,0,0,1-6.71823-2.52,3.11516,3.11516,0,0,1-1.69143-1.74676,12.55671,12.55671,0,0,0,.21766-3.19063c-.51909-1.071-1.5549-2.40483-2.94753-1.97573-.96484.712-1.5987,2.3136-3.07247,1.83184-1.07828-.95468-1.25215-2.45749-1.70172-3.72992a16.78238,16.78238,0,0,1-.59771-7.779c.87988-3.71992,4.49847-5.92718,7.78873-7.50122,2.65244-1.56662,5.90787-1.285,8.68524-2.54256A27.83549,27.83549,0,0,1,232.30346,121.50467Zm1.381,17.59755c-1.53181.46676-1.61294,2.72643-.52819,3.67239a1.65385,1.65385,0,0,0,2.58292-.96339C236.26358,140.53738,235.28186,138.61547,233.68449,139.10222Z" style="fill: #00000a"/>
      <path d="M143.69929,151.84361c1.2226-.38528,1.913,1.00106,2.07926,1.95831.40841,3.01048-.20619,6.08106.3414,9.084.18284,1.18749.43414,2.52-.29377,3.59359a7.54753,7.54753,0,0,1-1.36547,0c-.83093-3.0142-1.69539-6.03724-2.355-9.09526C141.86487,155.47859,142.16629,153.2,143.69929,151.84361Z" style="fill: #00000a"/>
      <path d="M183.57044,176.42066c1.23289-1.58917,3.60329-1.51408,5.34234-.85833,1.95038.78824,3.71014,1.94434,5.61423,2.83277,1.4016.63808,2.69241,2.122,4.38779,1.56405,1.94642-.54557,3.73969-1.51152,5.70168-2.027,2.53662-.67818,4.89541-2.00456,7.58386-2.08707,2.40773-.523,5.00741-1.21247,7.41514-.32788a.97571.97571,0,0,1,.4844,1.58289c-.79862,1.00965-2.46314,1.73536-2.03929,3.25188,1.54342.95353,3.30437-.23524,4.95715.16516a57.76,57.76,0,0,1,6.57392,1.49909,2.618,2.618,0,0,0,2.01739-.15772c.326-1.43144-.73939-2.5951-1.70686-3.51595-.70206-.70829-1.88218-1.23131-1.7533-2.37984,1.96331-.4455,2.81615,1.7392,4.17,2.675a92.37482,92.37482,0,0,1,7.17558,6.59665c1.46348,1.3251,3.5066,2.346,3.95353,4.41438.57331,2.32487,1.30637,4.62207,1.70186,6.98449-.174,1.72165-1.50082,3.028-2.26857,4.52072a26.48169,26.48169,0,0,1-3.915,5.62928c-2.33043,1.63914-5.38231.18028-7.95877.901-3.74233,2.17958-5.99546,6.031-9.479,8.52843-3.63535,2.05709-7.59929,3.436-11.41643,5.12011-1.88073.61809-4.36062,1.08614-5.98-.32775.00264-.22281.00264-.67075.00646-.89343.81683-.82834,2.10763-.78324,3.14594-1.18864a26.70529,26.70529,0,0,0,8.70462-5.50551,3.52946,3.52946,0,0,0,.12888-1.2363,1.956,1.956,0,0,0-1.84353-.37657,47.54367,47.54367,0,0,1-4.76257,1.40517c-4.26287.7507-8.47931,1.75676-12.78452,2.24723-3.05321.16516-6.33819-.15145-8.90962-1.89693a26.458,26.458,0,0,0-5.72227-3.12183c-3.33537-1.21375-6.34214-3.242-9.86034-3.979-3.51042-.83706-7.08522-1.89065-10.73877-1.48525-.52819.03882-.87724.49047-1.21085.83334-.39167,1.53407,1.57547,3.25828.07334,4.52457-1.05507.88959-1.8885-.59566-2.35365-1.37635-.70206-1.40389-2.09852-2.21353-3.27086-3.1932-1.30623-1.27884-.91458-3.2283-1.29463-4.83361-.51658-2.06824-.59006-4.21668-1.256-6.24993-.11727-.84334-.71116-1.80186-.15975-2.59766a1.16449,1.16449,0,0,1,1.72626-.47048c1.49685.90471,1.19411,2.85289,2.02373,4.1767,1.51373.58311,2.6023-1.031,2.80454-2.2922.25631-1.36648-.52306-3.13823.79228-4.14288a13.55316,13.55316,0,0,1,4.70731-2.19726c2.06883-.60681,4.09005-1.36379,6.172-1.93319,2.09588-.57926,3.89047-1.85682,5.989-2.41482,1.70686-.44294,3.29791-1.25885,5.04224-1.55162,1.363-.15017,3.10464.78324,4.1043-.54557C185.26068,179.09583,183.0127,178.18869,183.57044,176.42066Zm2.07148,24.159a1.88407,1.88407,0,0,0-1.533,2.62021,7.758,7.758,0,0,0,1.86925,2.73142c1.52917,1.0673,3.48338.02755,5.16333.54429,1.21864.92841-.12756,2.92041,1.10533,3.90892,1.5355,1.081,3.49631,1.3151,5.31781,1.6203a42.81811,42.81811,0,0,0,10.25569-.46421c.78068-.25651,1.85764-.523,2.0509-1.42632.4162-1.43144-1.60515-2.23852-1.23157-3.655.0773-1.25873,1.60912-1.50268,2.63318-1.31126,1.46994.28906,2.66537-.81463,4.06051-.99478a25.81473,25.81473,0,0,1,3.18841,1.07358c1.72626.43038,3.48735-1.86438,2.16818-3.23945-1.36165-1.748-3.812-1.1124-5.743-1.21247a24.88492,24.88492,0,0,0-9.55113,1.27871c-1.47759.42666-3.00926,1.20619-4.5771.78081-2.97709-.67318-6.05865-.91586-8.96357-1.87938C189.87261,200.06673,187.716,200.84626,185.64192,200.57962Z" style="fill: #00000a"/>
    </g>
  </g>
  <g>
    <g>
      <path d="M94.99854,270.55029c-8.37012,0-16.15088-2.28809-23.3125-4.76123-10.16895-3.51172-12.39111-8.73291-15.75439-16.63623-.9458-2.22217-2.01758-4.74072-3.38086-7.45117-3.19189-6.34521-4.56885-11.623-6.16309-17.73437-.4082-1.56494-.82959-3.18018-1.29883-4.877-.49756-1.80078-1.12646-3.5752-1.73486-5.291-1.85156-5.22412-3.60059-10.15869-2.17187-16.20215a43.65376,43.65376,0,0,1,2.92725-8.03369,37.43868,37.43868,0,0,0,2.99609-8.64551,35.36347,35.36347,0,0,0,.439-5.6084c.085-3.18018.17285-6.46875,1.55518-9.25977,3.50635-7.07861,10.06689-8.6875,16.41113-10.24316a55.66,55.66,0,0,0,6.20166-1.76953c6.22217-2.32373,13.355-5.728,13.28467-11.47559-.05078-4.126-2.73437-8.99121-5.32959-13.6958-2.04736-3.71143-3.981-7.2168-4.73926-10.40869C72.502,108.252,74.75977,89.96387,81.30615,81.6792c2.44678-3.09717,5.30029-4.66748,8.48047-4.66748,2.97266,0,6.21191,1.39307,9.62744,4.13965,9.47754,7.62109,10.61621,23.43408,11.71729,38.72607.627,8.7041,1.21875,16.92529,3.31738,23.26318a120.5901,120.5901,0,0,0,5.88525,13.876c3.35107,7.05127,6.81592,14.34229,7.96826,23.05371,2.00146,15.13135-1.68555,29.65186-4.939,42.4624,1.53174,4.32178.88965,8.22656.20947,12.36035-.24121,1.46875-.49121,2.98779-.64014,4.54395a39.59561,39.59561,0,0,0,.09619,6.35791,36.87861,36.87861,0,0,1-.084,8.40869c-1.97754,12.1958-13.627,14.97412-22.2168,16.00293A48.4128,48.4128,0,0,1,94.99854,270.55029Z" style="fill: #fff;fill-rule: evenodd"/>
      <path d="M89.7868,77.15364c2.79129,0,5.96871,1.23755,9.53852,4.10817,14.8056,11.90576,9.19495,44.423,14.98876,61.92334,4.26195,12.87325,11.98585,22.82719,13.8476,36.90382,1.94951,14.73984-1.38,28.40646-4.93573,42.40907,2.0769,5.95576.126,11.06686-.4345,16.92551-.43877,4.58644.83474,9.68849.013,14.75755-1.91705,11.826-13.05124,14.802-22.09344,15.88475a47.9147,47.9147,0,0,1-5.71317.34286c-7.92452,0-15.21972-1.97537-23.26544-4.75369-13.04071-4.50317-12.98055-11.93951-19.05534-24.01709-4.00621-7.96489-5.16316-14.30673-7.45158-22.58527-1.96237-7.09915-5.80824-13.37221-3.90565-21.42279,1.536-6.49918,4.6991-10.25429,5.92487-16.6857.89455-4.69363-.21815-10.3889,1.98211-14.83121,4.67058-9.42993,14.9211-9.09921,22.53548-11.94315,5.34995-1.99815,13.45194-5.42052,13.37621-11.61044-.08976-7.33545-8.3299-16.80215-10.07276-24.1349C71.92316,105.203,76.49206,77.15364,89.7868,77.15364m0-.28349c-3.22605,0-6.11678,1.58829-8.592,4.72071-6.57008,8.31474-8.83789,26.66292-6.40489,36.89919.76311,3.21053,2.7011,6.72379,4.75292,10.44336,2.587,4.68979,5.26213,9.53928,5.31218,13.62946.06924,5.65942-7.01363,9.03386-13.19195,11.34142a55.62589,55.62589,0,0,1-6.18626,1.76469c-6.37582,1.56357-12.96871,3.18036-16.50406,10.31818-1.39616,2.81885-1.48455,6.12315-1.57008,9.31868a35.21106,35.21106,0,0,1-.43645,5.58527,37.31506,37.31506,0,0,1-2.98647,8.61446,43.79531,43.79531,0,0,0-2.93582,8.05916c-1.43776,6.08376.39968,11.26834,2.17666,16.28221.60721,1.7133,1.23511,3.485,1.73166,5.28128.469,1.69653.89092,3.31377,1.299,4.87773,1.59626,6.11809,2.97484,11.40186,6.17258,17.75937,1.36121,2.7063,2.4321,5.22267,3.37695,7.44283,3.37834,7.93829,5.61021,13.18262,15.8391,16.71484,7.17316,2.477,14.96758,4.7692,23.358,4.7692a48.5262,48.5262,0,0,0,5.74686-.34485c8.63582-1.03409,20.34718-3.83026,22.33955-16.12085a36.9593,36.9593,0,0,0,.08587-8.44215,39.51806,39.51806,0,0,1-.0965-6.33377c.14842-1.55139.3979-3.068.63916-4.53468.67883-4.12682,1.32014-8.02652-.19122-12.43031,3.25111-12.803,6.92175-27.30733,4.92114-42.43375-1.15508-8.73346-4.625-16.03488-7.98069-23.09589a120.46144,120.46144,0,0,1-5.87884-13.85985c-2.09266-6.32094-2.68406-14.53371-3.31016-23.22868C110.16969,104.545,109.02879,88.701,99.503,81.04092c-3.44158-2.7675-6.71056-4.17076-9.71616-4.17076Z" style="fill: #00000a"/>
    </g>
    <path d="M97.80335,168.64062c-.70615,3.824-.27952,8.0955,1.3608,14.70093C96.77921,179.28992,95.55128,173.11524,97.80335,168.64062Zm5.67265,60.68822c-.70619,3.82389-.27952,8.09576,1.3608,14.70119C102.45137,239.97874,101.224,233.80323,103.476,229.32885Zm-16.02114-80.6616q.78314,4.21916,1.954,8.31707c-3.94419-.53193-8.27242-1.4149-12.23452-.52032a6.42877,6.42877,0,0,1,2.57148.96317,21.67679,21.67679,0,0,0-10.73258,2.09415,71.50109,71.50109,0,0,1,39.32883,4.57529c7.46213,3.17,10.9269,7.58719,11.63223,17.27552.84509,11.60807-3.30745,12.44023-12.17118,11.82805,1.319-7.55225.447-19.27817-3.65-25.57036,2.42092,8.31493,5.69158,22.34647-2.15509,25.5775-8.40557,3.46117-24.49333-3.33108-33.4225-3.55118,11.95844,5.0442,26.70146,5.5415,39.32879,6.01017,10.25774.38072,19.11593,12.5212,8.45469,22.44218-12.83731,11.946-38.82257,3.8279-52.02576-2.41343,10.1535,9.10238,26.72118,11.41953,39.076,9.529,8.39276-1.28427,14.74218-9.83924,17.89062,1.355a15.70968,15.70968,0,0,1-9.53656,19.26325,22.16671,22.16671,0,0,0-1.18552-10.28157c1.7585,12.75439-3.33778,12.04385-13.18425,12.06839-10.122.02523-19.5134-2.56378-29.39407-4.66438,13.24688,4.81931,39.5401,14.94451,51.83538,2.04913,1.80584,7.59908.72739,14.38143-5.54172,18.615a26.92013,26.92013,0,0,0-1.223-9.72446c1.6869,10.00739-4.1806,16.21447-12.72583,12.672a8.447,8.447,0,0,0,6.32064,1.44819c-8.85823,2.81724-22.51819,2.77244-29.2395-5.89946a15.343,15.343,0,0,0,1.21126,3.46479c-3.58353-1.002-7.63624-1.46012-11.09658-3.00828-8.10841-3.62772-8.014-8.70566-11.09812-17.16717a39.24159,39.24159,0,0,0,3.95653,1.42286c-9.14791-6.51491-14.599-19.01639-13.57906-31.31107,2.56327.86662,7.28156,2.78926,10.01056,2.09552C48.44056,214.48187,39.7052,209.5377,42.37061,197.64c2.16122-9.64712,7.55521-9.76152,14.815-9.79331-13.00121-2.10877-8.75589-24.48478,2.21646-26.31131,6.22541-1.03632,16.40736,5.97781,22.20949,2.258-3.002,1.9246-15.61945-4.423-18.75482-6.0191,3.97666-2.03468,7.70258-.86091,11.63733-1.92459C79.02674,154.62441,83.00688,151.02451,87.45486,148.66724Zm2.4732,8.45057c-.44744-10.35556-6.55544-17.00029-7.77285-26.64713a6.74245,6.74245,0,0,0,7.30787.32383c-15.70861,5.76131-21.686-50.61775,1.59209-49.62487,15.69949.66963,24.11025,42.70831,10.08633,49.79123a23.842,23.842,0,0,0,7.842-3.41745c.05988,6.93828,2.73593,13.38251,5.10711,19.59486,2.55172,6.68536,6.09212,9.11426-1.15022,11.1303,7.21273,2.22306,2.31229-3.3925,7.86526,4.88051,2.16881,3.23117,4.35674,10.40949,5.04616,14.41542,1.354,7.86744.72428,18.52923-3.53186,25.321a13.57494,13.57494,0,0,0-2.49236-7.82832,22.32681,22.32681,0,0,0,2.22594-7.098c.28421-5.40878.54794-10.8328-1.8134-15.81659-5.47557-11.5566-19.9933-13.62532-30.31206-15.02485Zm32.44459,47.30232a5.70481,5.70481,0,0,0,2.98253-2.4021c-.29243,2.32573-.84267,21.048-6.08635,16.194C121.6543,214.90043,122.40129,208.42307,122.37265,204.42014Zm.8533,18.07791c3.55573-14.0026,6.88524-27.66923,4.93575-42.40907-1.86178-14.07664-9.58566-24.03057-13.8476-36.90381-5.79383-17.50035-.18315-50.01758-14.98878-61.92335-20.57254-16.54317-28.06194,21.16527-24.2596,37.16269,1.74288,7.33273,9.983,16.79945,10.07277,24.13491.07574,6.18989-8.02627,9.61229-13.37622,11.61045-7.61437,2.84389-17.86489,2.51319-22.53548,11.94312-2.20024,4.44231-1.08753,10.13758-1.98209,14.83119-1.22576,6.43143-4.38891,10.18654-5.92486,16.68573-1.9026,8.05058,1.94327,14.32362,3.90566,21.42277,2.2884,8.27853,3.44537,14.62038,7.45156,22.58528,6.07479,12.07756,6.01463,19.5139,19.05536,24.01709,9.93826,3.43185,18.72883,5.63812,28.97859,4.41081,9.04222-1.08271,20.17641-4.05876,22.09346-15.88475.82172-5.06906-.45178-10.17111-.013-14.75754C123.35194,233.5649,125.30283,228.45382,123.22595,222.498ZM56.73858,240.5104c5.927.28717,12.84506,1.98214,18.55878,1.61762.563-.87937-18.3872-1.63585-18.55878-1.61762Zm49.65373-43.72951c2.76877,7.34192,1.56652,17.77985-3.24767,23.7671C109.22923,215.38514,111.59709,203.545,106.39231,196.78089Z" style="fill: #00000a;fill-rule: evenodd"/>
  </g>
  <g>
    <g>
      <path d="M308.47412,270.55029a48.41478,48.41478,0,0,1-5.73-.34375c-8.59033-1.02881-20.23926-3.80713-22.21582-16.00293a36.8602,36.8602,0,0,1-.085-8.40967,39.5828,39.5828,0,0,0,.09619-6.35693c-.14893-1.55615-.39893-3.0752-.64014-4.54395-.68018-4.13379-1.32227-8.03857.21289-12.44189-3.25684-12.729-6.94385-27.24951-4.94238-42.38086,1.15234-8.71143,4.61719-16.00244,7.96826-23.05371a120.59013,120.59013,0,0,0,5.88525-13.876c2.09863-6.33789,2.69043-14.55908,3.31738-23.26318,1.10107-15.292,2.23975-31.105,11.71729-38.72607,3.41553-2.74658,6.65479-4.13965,9.62744-4.13965,3.18018,0,6.03369,1.57031,8.48047,4.667,6.54639,8.28467,8.8042,26.57324,6.37842,36.77832-.7583,3.19189-2.69189,6.69678-4.73877,10.40771-2.5957,4.70508-5.27979,9.5708-5.33008,13.69678-.0708,5.74756,7.062,9.15186,13.28418,11.47559a55.66,55.66,0,0,0,6.20166,1.76953c6.34424,1.55566,12.90479,3.16455,16.41113,10.24316,1.38232,2.791,1.47021,6.07959,1.55518,9.25977a35.36346,35.36346,0,0,0,.439,5.6084,37.43868,37.43868,0,0,0,2.99609,8.64551,43.65377,43.65377,0,0,1,2.92725,8.03369c1.42871,6.04346-.32031,10.978-2.17187,16.20215-.6084,1.71582-1.2373,3.49023-1.73486,5.291-.46924,1.69727-.89062,3.3125-1.29883,4.87744-1.59424,6.11133-2.97119,11.38867-6.1626,17.73389-1.36328,2.71094-2.43555,5.22949-3.38135,7.45215-3.36328,7.90283-5.58545,13.12354-15.75439,16.63525C324.62451,268.26221,316.84375,270.55029,308.47412,270.55029Z" style="fill: #fff;fill-rule: evenodd"/>
      <path d="M313.68542,77.15364c13.29474-.00217,17.86362,28.04935,14.72107,41.27085-1.74286,7.33274-9.983,16.79945-10.07275,24.1349-.07574,6.18993,8.02628,9.61229,13.37622,11.61044,7.61438,2.84393,17.8649,2.51321,22.53549,11.94315,2.20023,4.44231,1.08752,10.13757,1.98209,14.83121,1.22574,6.43141,4.38889,10.18652,5.92487,16.6857,1.90259,8.05058-1.94327,14.32364-3.90567,21.42279-2.28839,8.27853-3.44537,14.62038-7.45157,22.58527-6.07477,12.07758-6.01462,19.51392-19.05536,24.01709-8.04568,2.77832-15.34091,4.75369-23.26541,4.75369a47.91432,47.91432,0,0,1-5.71317-.34286c-9.04224-1.08273-20.17639-4.05878-22.09348-15.88475-.82172-5.06906.45178-10.17111.013-14.75755-.56049-5.85864-2.51135-10.96974-.43448-16.92551-3.55573-14.00261-6.88525-27.66924-4.93576-42.40907,1.86179-14.07663,9.58566-24.03058,13.84763-36.90382,5.79382-17.50034.18314-50.01758,14.98877-61.92334,3.56979-2.87062,6.74722-4.10771,9.53851-4.10817m.00153-.28349v.28347l-.00034-.28347h-.00125c-3.0062.00053-6.27518,1.40376-9.71609,4.17076-9.52588,7.6601-10.66675,23.5041-11.77008,38.82648-.6261,8.695-1.2175,16.90774-3.31015,23.22868a120.4544,120.4544,0,0,1-5.87888,13.85988c-3.35565,7.061-6.82556,14.3624-7.98068,23.09586-2.00058,15.12628,1.67007,29.63065,4.92117,42.43375-1.51132,4.40378-.87006,8.30347-.19122,12.43027.24127,1.46671.49072,2.98334.63913,4.53473a39.51581,39.51581,0,0,1-.0965,6.33388,36.95966,36.95966,0,0,0,.08588,8.442c1.9924,12.29059,13.70377,15.08679,22.33957,16.12085a48.52627,48.52627,0,0,0,5.74686.34485c8.39044,0,16.18481-2.29218,23.358-4.7692,10.22894-3.53223,12.46082-8.77658,15.83914-16.7149.94485-2.22012,2.01572-4.73647,3.37692-7.44276,3.19775-6.35762,4.57636-11.64149,6.1727-17.7597.408-1.56387.82993-3.181,1.29886-4.8774.49655-1.7963,1.12442-3.56792,1.73163-5.2812,1.777-5.0139,3.61444-10.1985,2.1767-16.28229a43.79555,43.79555,0,0,0-2.93582-8.05914,37.31351,37.31351,0,0,1-2.98648-8.61447,35.21578,35.21578,0,0,1-.43646-5.58531c-.08551-3.1955-.17392-6.49982-1.57-9.31863-3.53534-7.13785-10.12827-8.75462-16.50409-10.31818a55.62669,55.62669,0,0,1-6.18625-1.76469c-6.17831-2.30756-13.2612-5.682-13.192-11.34142.05-4.09016,2.72513-8.93964,5.31216-13.62946,2.05182-3.71954,3.98984-7.23283,4.75293-10.44336,2.433-10.23643.16516-28.585-6.40512-36.9-2.47476-3.1319-5.36493-4.71992-8.59021-4.71992Z" style="fill: #00000a"/>
    </g>
    <path d="M328.97816,155.84974c3.93475,1.06369,7.66067-.11009,11.63733,1.92459-3.13537,1.59613-15.75282,7.9437-18.75482,6.0191,5.80214,3.71977,15.98409-3.29436,22.20949-2.258,10.97234,1.82653,15.21767,24.20254,2.21646,26.31131,7.25978.03179,12.65377.14619,14.815,9.79331,2.66541,11.89769-6.06994,16.84187-14.45938,19.98175,2.729.69374,7.44729-1.2289,10.01056-2.09552,1.01989,12.29468-4.43115,24.79616-13.57906,31.31107a39.2416,39.2416,0,0,0,3.95653-1.42286c-3.08413,8.46152-2.98971,13.53946-11.09812,17.16717-3.46034,1.54816-7.513,2.0063-11.09658,3.00828a15.343,15.343,0,0,0,1.21126-3.46479c-6.72131,8.67191-20.38126,8.7167-29.2395,5.89946a8.447,8.447,0,0,0,6.32064-1.44819c-8.54523,3.54248-14.41273-2.6646-12.72583-12.672a26.92013,26.92013,0,0,0-1.223,9.72446c-6.26911-4.23361-7.34757-11.016-5.54172-18.615,12.29528,12.89538,38.5885,2.77018,51.83538-2.04913-9.88067,2.1006-19.27207,4.68961-29.39407,4.66438-9.84648-.02454-14.94276.686-13.18425-12.06839a22.16671,22.16671,0,0,0-1.18552,10.28157,15.70968,15.70968,0,0,1-9.53656-19.26325c3.14843-11.19419,9.49785-2.63923,17.89062-1.355,12.35481,1.89055,28.9225-.4266,39.076-9.529-13.2032,6.24133-39.18845,14.35939-52.02576,2.41343-10.66124-9.921-1.803-22.06146,8.45469-22.44218,12.62734-.46867,27.37035-.966,39.32879-6.01017-8.92917.2201-25.01693,7.01235-33.4225,3.55118-7.84667-3.231-4.576-17.26256-2.15509-25.5775-4.097,6.2922-4.96906,18.01811-3.65,25.57036-8.86373.61218-13.01627-.22-12.17118-11.82805.70533-9.68833,4.17009-14.10551,11.63223-17.27552a71.50109,71.50109,0,0,1,39.32883-4.57529,21.67679,21.67679,0,0,0-10.73258-2.09415,6.42877,6.42877,0,0,1,2.57148-.96317c-3.96211-.89458-8.29033-.0116-12.23452.52032q1.17086-4.09791,1.954-8.31707C320.46534,151.02451,324.44548,154.62441,328.97816,155.84974Zm-15.434,1.26807c-10.31876,1.39954-24.83649,3.46826-30.31206,15.02485-2.36134,4.98378-2.09761,10.40781-1.8134,15.81659a22.32681,22.32681,0,0,0,2.22594,7.098,13.57494,13.57494,0,0,0-2.49236,7.82832c-4.25614-6.79178-4.88585-17.45357-3.53186-25.321.68942-4.00593,2.87735-11.18426,5.04616-14.41542,5.553-8.273.65253-2.65745,7.86526-4.88051-7.24234-2.016-3.70194-4.44493-1.15022-11.1303,2.37118-6.21235,5.04722-12.65658,5.10711-19.59486a23.842,23.842,0,0,0,7.842,3.41745c-14.02392-7.08292-5.61316-49.12159,10.08633-49.79123,23.27812-.99289,17.3007,55.38617,1.59209,49.62487a6.74245,6.74245,0,0,0,7.30787-.32383c-1.21741,9.64684-7.32541,16.29157-7.77285,26.64713Zm-29.34078,61.09425c-5.24367,4.854-5.79392-13.8683-6.08635-16.194a5.70481,5.70481,0,0,0,2.98253,2.4021C281.07093,208.42307,281.81792,214.90043,284.20339,218.21207Zm-3.52262,21.21149c.43878,4.58643-.83472,9.68848-.013,14.75754,1.91705,11.826,13.05124,14.802,22.09346,15.88475,10.24975,1.2273,19.04033-.979,28.97859-4.41081,13.04073-4.50318,12.98057-11.93953,19.05536-24.01709,4.00619-7.96489,5.16316-14.30674,7.45156-22.58528,1.96239-7.09916,5.80825-13.37219,3.90566-21.42277-1.536-6.49919-4.6991-10.2543-5.92486-16.68573-.89455-4.69362.21816-10.38889-1.98209-14.83119-4.67059-9.42994-14.92111-9.09923-22.53548-11.94312-5.34995-1.99815-13.452-5.42056-13.37622-11.61045.08976-7.33546,8.32989-16.80218,10.07277-24.13491,3.80234-15.99742-3.68705-53.70586-24.2596-37.16269-14.80563,11.90577-9.19495,44.423-14.98878,61.92335-4.26194,12.87324-11.98582,22.82717-13.8476,36.90381-1.94949,14.73984,1.38,28.40648,4.93575,42.40907C278.16939,228.45382,280.12028,233.5649,280.68077,239.42356Zm66.05287,1.08684c-.17158-.01823-19.12182.73826-18.55878,1.61762,5.71372.36451,12.63176-1.33045,18.55878-1.61762ZM300.32758,220.548c-4.81419-5.98725-6.01644-16.42518-3.24767-23.7671C291.87513,203.545,294.243,215.38514,300.32758,220.548Zm8.343-5.73827c1.64057-6.60543,2.06721-10.877,1.3608-14.70089C312.2836,204.58326,311.05593,210.75836,308.6706,214.80972Z" style="fill: #00000a;fill-rule: evenodd"/>
  </g>
  <path d="M200,400h0C90,400,0,310,0,200H0C0,90,90,0,200,0h0C310,0,400,90,400,200h0C400,310,310,400,200,400Z" style="fill: none"/>
  <g>
    <path d="M88.9751,278.60742h8.69238v35.376H88.9751Z" style="fill: #12d247"/>
    <path d="M130.86914,278.60742v7.833H120.55957v27.543h-8.64209v-27.543H101.55762v-7.833Z" style="fill: #12d247"/>
    <path d="M134.354,278.60742h8.69238v14.60547H134.354Z" style="fill: #12d247"/>
    <path d="M168.26416,289.27051a10.79033,10.79033,0,0,0-7.58057-3.48633c-2.37549,0-3.33545,1.36426-3.33545,2.42578,0,.8584.35352,1.86914,2.52686,2.83008l4.144,1.81836c6.6709,2.93164,9.09668,6.01465,9.09668,10.81543,0,5.40723-4.44727,10.916-12.9375,10.916a19.72218,19.72218,0,0,1-13.54395-5.30664l4.7002-6.2666a13.29945,13.29945,0,0,0,8.74268,3.791c2.42578,0,3.63867-1.31445,3.63867-2.78027s-1.1626-2.47559-3.689-3.58789l-4.043-1.76855c-5.35742-2.3252-8.03564-5.8125-8.03564-10.209,0-6.01367,5.40771-10.46094,12.23-10.46094a17.48591,17.48591,0,0,1,12.88672,5.1543Z" style="fill: #12d247"/>
    <path d="M182.918,278.60742H192.52l6.97412,23.39844h.05029l7.27734-23.39844H216.02l-11.92676,35.376H194.895Z" style="fill: #12d247"/>
    <path d="M246.84521,286.1377H227.894v6.06445h10.15771v7.47949H227.894v6.77148h18.95117v7.53027H219.20166v-35.376h27.64355Z" style="fill: #12d247"/>
    <path d="M264.835,301.60156h-4.19482V313.9834h-8.69238v-35.376h14.75684c7.8335,0,12.88721,4.95215,12.88721,11.16895A10.47679,10.47679,0,0,1,273.123,299.833l8.187,14.15039h-9.8042Zm.70752-15.46387h-4.90234v7.78223h4.90234c3.5376,0,5.00293-1.61719,5.00293-3.94141C270.54541,287.55273,269.08008,286.1377,265.54248,286.1377Z" style="fill: #12d247"/>
    <path d="M279.2876,278.60742h10.66309l7.0249,11.876h.354l6.92334-11.876h10.25928l-13.19043,21.02344V313.9834h-8.6416V299.78223Z" style="fill: #12d247"/>
    <path d="M137.95313,363.5293H127.42432V320.1748h13.25391L153.375,345.87793V320.1748h10.5293V363.5293H151.51709l-13.564-26.0752Z" style="fill: #12d247"/>
    <path d="M171.95361,320.1748h10.65283V363.5293H171.95361Z" style="fill: #12d247"/>
    <path d="M210.97168,319.43164c9.84766,0,19.75732,6.06934,22.17285,17.15527H221.06689c-1.30078-4.459-5.26465-7.12207-10.09521-7.12207-6.937,0-11.4585,5.26465-11.4585,12.38672,0,7.123,4.52148,12.3877,11.4585,12.3877,4.83057,0,8.79443-2.66309,10.09521-7.123h12.07764c-2.41553,11.08691-12.3252,17.15625-22.17285,17.15625-12.8208,0-22.73047-9.35254-22.73047-22.4209S198.15088,319.43164,210.97168,319.43164Z" style="fill: #12d247"/>
    <path d="M272.09863,329.40332H248.873V336.835h12.44922v9.167H248.873v8.29883h23.22559v9.22852H238.22021V320.1748h33.87842Z" style="fill: #12d247"/>
  </g>
  <path d="M200,8.50393a189.05783,189.05783,0,0,1,74.33109,15.10421A193.4454,193.4454,0,0,1,376.39185,125.66893a190.45166,190.45166,0,0,1,0,148.66216A193.44537,193.44537,0,0,1,274.33109,376.39185a190.45166,190.45166,0,0,1-148.66216,0A193.4454,193.4454,0,0,1,23.60814,274.33109a190.45169,190.45169,0,0,1,0-148.66216A193.44543,193.44543,0,0,1,125.66893,23.60814,189.0577,189.0577,0,0,1,200,8.50393M200,0C90,0,0,90,0,200S90,400,200,400s200-90,200-200S310,0,200,0Z"/>
</svg>
