<svg xmlns="http://www.w3.org/2000/svg" width="400" height="400" viewBox="0 0 400 400">
  <title>meme</title>
  <g>
    <path d="M200,400h0C90,400,0,310,0,200H0C0,90,90,0,200,0h0C310,0,400,90,400,200h0C400,310,310,400,200,400Z" style="fill: #e6e6e6"/>
    <path d="M200,400h0C90,400,0,310,0,200H0C0,90,90,0,200,0h0C310,0,400,90,400,200h0C400,310,310,400,200,400Z" style="fill: none"/>
    <path d="M200,8.50393a189.05783,189.05783,0,0,1,74.33109,15.10421A193.4454,193.4454,0,0,1,376.39185,125.66893a190.45166,190.45166,0,0,1,0,148.66216A193.44537,193.44537,0,0,1,274.33109,376.39185a190.45166,190.45166,0,0,1-148.66216,0A193.4454,193.4454,0,0,1,23.60814,274.33109a190.45169,190.45169,0,0,1,0-148.66216A193.44543,193.44543,0,0,1,125.66893,23.60814,189.0577,189.0577,0,0,1,200,8.50393M200,0C90,0,0,90,0,200S90,400,200,400s200-90,200-200S310,0,200,0Z"/>
    <g>
      <circle cx="215.07517" cy="65.61422" r="4.89207" transform="translate(105.94025 262.21565) rotate(-77.9307)" style="fill: #1d1d1b"/>
      <ellipse cx="224.91566" cy="62.01668" rx="7.2322" ry="3.13664" transform="translate(2.42372 132.2339) rotate(-32.9307)" style="fill: #1d1d1b"/>
      <ellipse cx="208.67859" cy="58.54486" rx="3.13664" ry="7.2322" transform="translate(1.70225 122.84921) rotate(-32.9307)" style="fill: #1d1d1b"/>
    </g>
    <g>
      <g>
        <path d="M118.05518,288.78613a28.09681,28.09681,0,0,1-3.36816-.14551,26.46171,26.46171,0,0,1-23.22949-26.16211v-.11328a26.54657,26.54657,0,0,1,15.85693-24.25488,27.51984,27.51984,0,0,1,4.78809-1.60547,25.82066,25.82066,0,0,1-6.22363-16.9248,26.25749,26.25749,0,0,1,21.73828-25.85742,25.0872,25.0872,0,0,1-3.91406-13.51758A25.41959,25.41959,0,0,1,149.061,154.78223h13.978c-4.56689-31.33887,27.36523-43.28125,27.69922-43.40234l4.34717-1.57227-.56982,4.58789c-.4541,3.65625-.18506,6.15039.80029,7.41309,1.2373,1.58594,4.28125,1.96094,8.13428,2.43457,7.41553.91211,17.57129,2.16016,26.5874,13.32324l.10693.124c.09961.11328.19727.22559.29639.35059,4.68945,5.9248,7.40137,11.542,8.09033,16.74121h13.90967a25.44754,25.44754,0,0,1,21.7168,38.56445h2.103a26.1669,26.1669,0,0,1,19.87207,43.19141,26.52546,26.52546,0,0,1,20.36963,23.53906,15.93327,15.93327,0,0,1,.03125,1.7168c-.00391.18945-.00781.68457-.00781.68457a26.264,26.264,0,0,1-23.688,26.2373,16.87071,16.87071,0,0,1-1.7168.07324Z" style="fill: #12d247"/>
        <path d="M191.70262,114.0459c-2.73709,22.03381,18.88608,3.95288,36.13013,25.30225.131.16235.25761.29089.38483.45178,5.81941,7.35242,7.71613,13.28,7.65312,17.817h16.57025a22.55653,22.55653,0,0,1,22.52325,22.58765,21.96648,21.96648,0,0,1-6.71793,15.97729h8.01425a23.3692,23.3692,0,0,1,22.84415,18.59668A23.75622,23.75622,0,0,1,299.594,219.58a23.17431,23.17431,0,0,1-9.96692,19.05591h.62537a23.29,23.29,0,0,1,4.431.493,23.638,23.638,0,0,1,18.99481,21.19092c.05789.67468.013,1.35571.013,2.04565v.11328a23.47173,23.47173,0,0,1-21.13614,23.417,14.06333,14.06333,0,0,1-1.42923.05835c-.28406,0-.57242-.0033-.87347-.0033H118.055a25.22125,25.22125,0,0,1-3.02017-.124,23.607,23.607,0,0,1-20.74271-23.348v-.11328A23.89026,23.89026,0,0,1,118.055,238.63586h.62537c-.133,0-.26363-.157-.3945-.25293a23.3493,23.3493,0,0,1,13.761-42.201h1.17665l.01222.01208.003.00134c.00565,0,.011-.01343.01678-.01343h-.032a22.54214,22.54214,0,0,1,15.83731-38.56494h17.39024c-.0217,0-.03862-.1355-.05954-.23193-6.87392-31.69788,25.311-43.33911,25.311-43.33911m6.76575-8.476-8.69408,3.14465a54.37632,54.37632,0,0,0-17.22305,11.01672c-6.67857,6.38635-13.81844,16.91748-12.6761,32.21631H149.06091A28.25356,28.25356,0,0,0,123.37656,191.839a29.00725,29.00725,0,0,0-15.87632,43.12842q-.67134.25873-1.33063.54968a29.38422,29.38422,0,0,0-17.54675,26.84839v.11328a29.299,29.299,0,0,0,25.71241,28.974,30.36072,30.36072,0,0,0,3.71976.16736H290.25241l.4173.00159.45615.00171a19.62642,19.62642,0,0,0,1.994-.08655,29.09073,29.09073,0,0,0,26.24066-29.05811v-.11328c0-.17273.00378-.34473.0072-.516a18.53293,18.53293,0,0,0-.041-2.01453,29.42726,29.42726,0,0,0-18.54868-24.82507A28.85094,28.85094,0,0,0,305.26324,219.58a29.0224,29.0224,0,0,0-26.59644-28.96655,28.26573,28.26573,0,0,0-26.22586-38.66577H240.88643c-1.17485-4.99023-3.92621-10.23694-8.22353-15.66626-.13016-.16455-.25978-.31531-.39241-.46582l-.04979-.05676c-9.715-12.02856-20.97409-13.41321-28.42442-14.32947-2.14337-.26355-5.73074-.70471-6.245-1.36414-.00761-.00977-.756-1.02673-.22258-5.32043l1.13971-9.1748Z" style="fill: #1d1d1b"/>
      </g>
      <g style="opacity: 0.08">
        <path d="M166.39164,157.32869c-3.40561.18323-6.9521.28821-10.65334.28821h10.71283a1.347,1.347,0,0,1-.05949-.28821Z" style="fill: #332e29"/>
      </g>
      <g style="opacity: 0.55">
        <path d="M235.87069,157.617c.063-4.53706-1.83368-10.46456-7.65311-17.817-7.26,4.957-26.81,15.67475-61.82595,17.561.02091.09651.03782.256.0595.256Z" style="fill: #1a1a1a"/>
      </g>
      <g style="opacity: 0.08">
        <path d="M133.2358,196.1617q-2.591.02-5.23981.02026h5.25959c-.00681,0-.013-.01392-.01978-.02026Z" style="fill: #332e29"/>
      </g>
      <g style="opacity: 0.55">
        <path d="M268.24629,196.18194a21.96673,21.96673,0,0,0,6.71793-15.97734,22.29533,22.29533,0,0,0-2.73631-10.73516c-9.633,6.41255-46.62888,26.02083-138.9921,26.7405.00681.00635.013-.028.01977-.028Z" style="fill: #1a1a1a"/>
      </g>
      <g style="opacity: 0.55">
        <path d="M289.627,238.63582a23.196,23.196,0,0,0,9.47762-23.793c-10.404,2.49924-28.80979,6.48436-55.54284,10.62867-30.65047,4.75163-72.246,9.6767-125.2759,12.93547.13086.09589.26156.22883.3945.22883H118.055a23.549,23.549,0,0,0-9.51544,2.06789l118.18928-.96749,67.99508-.62346a23.71028,23.71028,0,0,0-4.47156-.47694Z" style="fill: #1a1a1a"/>
      </g>
      <g style="opacity: 0.08">
        <path d="M124.97771,285.26534c-3.2447.19373-6.53278.34875-9.86181.52917a23.85064,23.85064,0,0,0,2.93914.15637h3.406a16.93459,16.93459,0,0,0,3.5167-.68555Z" style="fill: #332e29"/>
      </g>
      <g style="opacity: 0.55">
        <path d="M313.69123,262.4788v-.1133c0-.68992.04494-1.371-.013-2.04573-17.57384,4.50381-79.058,18.39507-188.74106,24.94558a16.56974,16.56974,0,0,1-3.47619.68548H278.49232l14.0628-.05506A23.47175,23.47175,0,0,0,313.69123,262.4788Z" style="fill: #1a1a1a"/>
      </g>
    </g>
    <g>
      <circle cx="281.24601" cy="102.5479" r="4.89207" transform="translate(77.67069 322.0302) rotate(-67.18617)" style="fill: #1d1d1b"/>
      <ellipse cx="291.58468" cy="100.848" rx="7.2322" ry="3.13664" transform="translate(-16.49353 117.57403) rotate(-22.18617)" style="fill: #1d1d1b"/>
      <ellipse cx="276.27952" cy="94.40996" rx="3.13664" ry="7.2322" transform="translate(-15.19558 111.31788) rotate(-22.18617)" style="fill: #1d1d1b"/>
    </g>
    <g>
      <circle cx="126.69129" cy="106.14847" r="4.89207" transform="translate(-26.94488 45.205) rotate(-18.32107)" style="fill: #1d1d1b"/>
      <ellipse cx="133.35974" cy="98.06704" rx="7.2322" ry="3.13664" transform="translate(-14.144 173.19766) rotate(-63.32107)" style="fill: #1d1d1b"/>
      <ellipse cx="117.5973" cy="103.2864" rx="3.13664" ry="7.2322" transform="translate(-27.49294 161.98926) rotate(-63.32107)" style="fill: #1d1d1b"/>
    </g>
  </g>
</svg>
