<svg xmlns="http://www.w3.org/2000/svg" xmlns:xlink="http://www.w3.org/1999/xlink" width="400" height="400" viewBox="0 0 400 400">
  <defs>
    <clipPath id="a">
      <circle cx="-250" cy="-250" r="200" style="fill: none"/>
    </clipPath>
    <clipPath id="b">
      <path d="M348.425,91.79344c5.7929-7.17277,8.97911-14.99515,8.97911-23.18409,0-34.6732-57.09515-62.78137-127.52561-62.78137S102.35292,33.93615,102.35292,68.60935a32.04777,32.04777,0,0,0,1.33582,9.11171c-54.60693,11.86187-91.04182,33.21536-91.04182,57.58721,0,37.271,85.20489,67.48518,190.31043,67.48518s190.31043-30.21415,190.31043-67.48518C393.26778,118.72683,376.403,103.5423,348.425,91.79344Z" style="fill: none"/>
    </clipPath>
  </defs>
  <title>meme</title>
  <g style="clip-path: url(#a)">
    <g>
      <path d="M-4.17363-127.16462a35.753,35.753,0,0,1,8.363,1.57927c1.15546.33053,2.28557.75009,3.42663,1.13091a1.78253,1.78253,0,0,1,1.14018,1.09506c.46721,1.16821.9629,2.325,1.44042,3.489Q18.543-99.52324,26.8954-79.17871c1.4999,3.64152,3.06939,7.25533,4.66463,10.85635,1.10757,2.50006,2.32235,4.95248,3.47448,7.433,3.57258,7.69162,6.91743,15.48376,10.2476,23.28207q4.8345,11.321,9.29352,22.79581c2.55505,6.57928,5.00875,13.19667,7.15511,19.92286a92.38295,92.38295,0,0,1,3.214,12.21126,8.67958,8.67958,0,0,1,.18786,3.736H44.76179a2.92858,2.92858,0,0,1-1.38973-2.1107Q41.00044,9.72334,38.09884.65107A185.84646,185.84646,0,0,0,29.58726-21.2138c-5.98758-12.798-11.27535-25.884-16.27155-39.09331C9.84937-69.47164,6.56155-78.7,3.5431-88.02066c-3.89512-12.02749-7.57323-24.12152-10.82158-36.343-.733-2.75759-.58649-2.97718,2.30787-2.92284A1.49251,1.49251,0,0,1-4.17363-127.16462Z" style="fill: #c1c1c1"/>
      <path d="M-4.17363-127.16462c-.65632.01945-1.31392.01993-1.9686.06385-.63358.04247-.83777.3355-.72418.99872a9.27715,9.27715,0,0,0,.22785.95785c1.84868,6.53059,3.673,13.06828,5.562,19.58724.99005,3.4168,2.06642,6.8095,3.15326,10.19718,1.5887,4.95192,3.16,9.91082,4.85161,14.82792q3.25834,9.471,6.757,18.85861,3.718,9.9203,7.73506,19.72032c1.78856,4.35275,3.66218,8.67145,5.55538,12.98009,1.91506,4.35841,3.955,8.66243,5.837,13.03471,1.276,2.96447,2.42739,5.986,3.54093,9.01634a278.75249,278.75249,0,0,1,8.40815,27.98043H23.40532a7.35968,7.35968,0,0,0-.2082-2.116C21.826,13.02313,20.49977,7.093,19.09,1.18282c-1.47339-6.1772-3.01593-12.33792-4.54711-18.50117-.39582-1.59335-.85594-3.17094-1.29989-4.752a7.48922,7.48922,0,0,1-.327-1.77043,93.43827,93.43827,0,0,0-2.9528-19.27444A118.00729,118.00729,0,0,0,3.315-62.51278c-1.08587-2.45157-2.14772-4.92-3.37272-7.30254A128.565,128.565,0,0,0-7.34622-82.66245a36.15981,36.15981,0,0,1-4.13477-8.7191,159.1606,159.1606,0,0,1-6.56344-25.91822c-.145-.919-.34083-1.83091-.45719-2.75314a18.07638,18.07638,0,0,1-.14788-2.2889,2.77942,2.77942,0,0,1,1.61425-2.64533,17.9677,17.9677,0,0,1,4.90471-1.82906,29.391,29.391,0,0,1,6.19232-.64144A3.90043,3.90043,0,0,1-4.17363-127.16462Z" style="fill: #919191"/>
      <path d="M7.00254,11.89422a40.79245,40.79245,0,0,1-2.9236,6.76626,9.59522,9.59522,0,0,0-1.0444,2.39815H-127.07563c-1.05242-1.48851-.17736-3.058-.01364-4.51138A89.70489,89.70489,0,0,1-123.256-.91056c.39562-1.2289.448-2.68091,1.79052-3.43413.75755.30045.73678,1.03289.87679,1.64978a63.674,63.674,0,0,0,1.62279,6.19176,16.04952,16.04952,0,0,0,2.87968,5.12671,8.79884,8.79884,0,0,0,8.78476,3.24105c7.39964-1.24542,14.69532-2.98284,22.00509-4.65645,6.0799-1.392,12.053-3.33675,18.24725-4.12282A142.12363,142.12363,0,0,1-41.664,2.40405c6.57343.34472,12.6338,2.52445,18.73367,4.62641,3.31328,1.1417,6.62388,2.28043,9.99219,3.2502,3.30246.95079,6.71785.85758,10.09222,1.06305,2.67325.1628,5.3637.00786,8.04593.0523C5.82674,11.40635,6.544,11.22065,7.00254,11.89422Z" style="fill: #797979"/>
      <path d="M4.02022,21.05863A5.70035,5.70035,0,0,1,4.764,19.24782,74.27577,74.27577,0,0,0,11.9324-3.14387c.33771-2.10268.59913-4.21763.89155-6.32753a4.2527,4.2527,0,0,0,.04552-.65391c-.04163-2.4073.47247-4.78708.35708-7.19818a1.15386,1.15386,0,0,1,.08659-.32379c.37481.0282.32748.36566.38014.57771,1.41058,5.67614,2.82349,11.35176,4.203,17.03548C18.70841,3.312,19.47237,6.66985,20.243,10.02585c.84406,3.67554,1.67084,7.355,2.50516,11.03278Z" style="fill: #919191"/>
      <path d="M-121.52887-4.26283a53.81672,53.81672,0,0,1,2.595-6.387,94.74771,94.74771,0,0,1,6.35528-11.67651,79.39387,79.39387,0,0,1,5.82149-7.94446q2.2214-2.63555,4.56175-5.1701A65.693,65.693,0,0,1-96.757-40.43662c.33061-.28653.69254-.53656,1.03289-.81226.48594-.39366.66093-.75514.44255-.893-.41792-.26371-.74981.01308-1.03305.23748-.94333.74732-1.91064,1.47636-2.77352,2.31088-2.00686,1.941-4.0136,3.88795-5.91747,5.92846a72.53822,72.53822,0,0,0-6.05732,7.5551,93.23416,93.23416,0,0,0-9.47665,16.86647c-.06546.1506-.12281.3053-.19693.45149-.30983.61108-.51129.76654-1.16693.62243A13.81727,13.81727,0,0,0-126.8-8.35139a1.03283,1.03283,0,0,1-1.17323-.683c-.31372-.69915-.59816-1.41191-.92693-2.10376a56.77923,56.77923,0,0,0-8.85823-13.56457,44.9966,44.9966,0,0,0-15.66362-11.41669c-.749-.329-1.54334-.55681-2.32265-.81334-.20776-.06838-.47933-.06915-.57821.15786-.14465.332.13282.48987.37888.61016.24526.11992.5054.21016.76128.30742a42.65872,42.65872,0,0,1,16.02284,10.89838,51.49347,51.49347,0,0,1,6.91831,9.35729,66.71206,66.71206,0,0,1,4.18522,8.72917,33.88762,33.88762,0,0,1-3.28264,14.447,11.734,11.734,0,0,1-2.907,3.73261,6.35321,6.35321,0,0,1-3.70058,1.568c-4.26139.43136-8.52923.24618-12.79491.28448a11.76176,11.76176,0,0,1-2.45284-.17415,4.09526,4.09526,0,0,0-.97744-.10528,48.60468,48.60468,0,0,1-6.875-.40489A60.79943,60.79943,0,0,1-174.719,9.8442c-2.95567-1.00141-5.90864-2.0124-8.88029-2.96451a82.12248,82.12248,0,0,0-14.38142-3.29844,63.60762,63.60762,0,0,0-11.78526-.54185,86.10182,86.10182,0,0,0-9.78051,1.04625,121.48382,121.48382,0,0,0-14.67575,3.53488c-2.20471.66587-4.348,1.49192-6.527,2.22168a6.20817,6.20817,0,0,0-1.3349.62014,11.68478,11.68478,0,0,1-5.12362,1.62359,8.79746,8.79746,0,0,1-4.30552-.85393c-.70527-.29656-1.37866-.66891-2.06652-1.007a29.80515,29.80515,0,0,1-.96489-5.32163c-.35792-2.49064-.54552-4.99965-.75685-7.508-.21678-2.57306-.21321-5.13866-.2244-7.70939-.0136-3.122.28043-6.22614.56879-9.33166a108.51453,108.51453,0,0,1,3.35788-18.05882,159.07792,159.07792,0,0,1,8.16277-23.21942,135.12063,135.12063,0,0,1,13.093-23.30264c2.018-2.86219,4.18655-5.6181,6.28417-8.42415,4.00275-5.3546,7.6762-10.93067,11.19638-16.611,3.49116-5.63355,6.718-11.41385,9.81552-17.27288a164.0601,164.0601,0,0,0,7.01142-14.84224c1.36091-3.34589,2.532-6.769,3.89164-10.11536,3.11231-7.66014,6.34566-15.2687,10.19546-22.597a46.48232,46.48232,0,0,1,3.67-6.02536c.22739-.30837.4842-.59606.69849-.91285a2.88714,2.88714,0,0,1,2.4999-1.31071c1.58423-.04273,3.15231-.38682,4.74777-.29242.273.01614.54779-.00156.82112.01063,1.58637.07075,1.78525.37029,1.11014,1.75946-.76583,1.57585-1.52365,3.15763-2.35409,4.69958a72.507,72.507,0,0,0-3.91578,9.0336,312.29933,312.29933,0,0,0-11.49308,37.50858c-1.60448,6.76743-2.91953,13.592-3.98787,20.46508q-.98367,6.32807-1.57117,12.7033c-.21377,2.28408-.309,4.58734-.49039,6.87339-.3735,4.7073-.2693,9.41116-.20994,14.11533a28.88664,28.88664,0,0,0,6.40664,17.74442,35.60018,35.60018,0,0,0,11.34767,9.30664,63.88606,63.88606,0,0,0,18.74184,6.37112c3.27939.62812,6.58476,1.05647,9.90911,1.40453a133.15658,133.15658,0,0,0,17.05333.52778c2.40324-.057,4.80147-.32254,7.20211-.49172.43673-.03076.87358-.0673,1.311-.079a77.28277,77.28277,0,0,0,14.468-1.867,70.31526,70.31526,0,0,0,12.67054-3.99455,63.0812,63.0812,0,0,0,15.05024-8.96307,54.27387,54.27387,0,0,0,5.02981-4.4683,68.36633,68.36633,0,0,0,7.38869-9.00126,65.62739,65.62739,0,0,0,8.95858-19.09773,3.35616,3.35616,0,0,1,.60234-1.491c.51362-.04785.79365.36277,1.181.53676a3.11516,3.11516,0,0,0,2.70509.021c1.65544-.78061,2.21526-1.9467,1.72218-3.58987a14.8928,14.8928,0,0,0-1.51719-3.272,60.58852,60.58852,0,0,1-3.20511-6.83392,4.6822,4.6822,0,0,1-.41311-1.91068q.03345-6.57064.06-13.14132c.001-.1997-.04644-.44227.22569-.54422.30875.09514.33791.39013.44166.62845,1.15815,2.65985,2.2453,5.35323,3.48595,7.974a86.178,86.178,0,0,0,8.07581,13.707q.19258.266.40019.521a2.94485,2.94485,0,0,0,3.93956.8419,20.98682,20.98682,0,0,0,1.83039-1.09706c.92015-.59359,1.82854-1.20559,2.73626-1.8182A21.83318,21.83318,0,0,1-29.986-99.998c.62925-.23266.74652-.55581.47211-1.15678-.29535-.64681-.62455-1.27947-.96535-1.90395-2.88626-5.28882-5.55522-10.6891-8.14171-16.1274-1.103-2.319-1.973-4.7511-2.90347-7.14941-2.2986-5.92461-4.33526-11.93821-6.04613-18.06023-.07276-.26014-.14435-.52068-.23788-.85834.49922-.00951.52814.37689.6505.609,1.3783,2.61513,2.70578,5.2577,4.118,7.85422,2.40613,4.42394,4.82666,8.84075,7.30832,13.22258,2.72463,4.8107,5.55012,9.56425,8.28185,14.371a44.31678,44.31678,0,0,0,4.50676,6.44961A181.70493,181.70493,0,0,1-5.35031-77.617,140.89485,140.89485,0,0,1,6.847-50.74527a114.30781,114.30781,0,0,1,4.66222,20.46692,93.15642,93.15642,0,0,1,.66117,17.36958A82.37574,82.37574,0,0,1,7.47777,10.849c-.13011.35852-.31581.69691-.47539,1.045a6.34236,6.34236,0,0,1-2.10452.29134c-2.90174-.00357-5.81471.15329-8.70185-.05274a53.82086,53.82086,0,0,1-7.51082-.6116,50.95132,50.95132,0,0,1-5.53476-1.53881C-20.63834,8.71168-24.41222,7.397-28.19524,6.10935A75.52937,75.52937,0,0,0-35.77934,3.971a47.17513,47.17513,0,0,0-5.52453-.70357c-4.64722-.49368-9.298-.17543-13.94543-.26716a12.7148,12.7148,0,0,0-2.77981.19572,5.46046,5.46046,0,0,1-1.14315.09794,60.99071,60.99071,0,0,0-8.49739.66506,60.1081,60.1081,0,0,0-5.93211,1.29218C-79.255,6.55775-84.88481,7.96556-90.53689,9.2774c-5.49169,1.27454-11.00086,2.47548-16.56285,3.40962a10.661,10.661,0,0,1-4.717-.165,10.25932,10.25932,0,0,1-5.44753-4.01067,18.11667,18.11667,0,0,1-2.91606-6.02816A29.70019,29.70019,0,0,1-121.52887-4.26283Z" style="fill: #a4a4a4"/>
      <path d="M195.94347-132.65512c-.38854-3.86507-.885-7.71268-1.53821-11.54174-.50611-2.96671-1.20147-5.89243-1.85222-8.82809-.3989-1.06155.27758-2.13953-.07361-3.2142-1.7334-5.304-2.81321-10.79942-4.6986-16.05956-.5651-.60541-.44778-1.43723-.71442-2.14538-2.67576-7.106-5.37541-14.2025-8.24486-21.2331a1.362,1.362,0,0,1-.17814-.27378c-3.39134-9.02733-7.25587-17.86319-10.84416-26.81079-.349-.87023-.67807-1.74253-1.71819-2.01718-1.59695-3.81523-3.14911-7.65005-4.8038-11.44007a101.69364,101.69364,0,0,1-3.89018-11.42474c.399-2.40792-.66378-4.53282-1.30483-6.73934-.04579-.15734-.07821-.31875-.128-.47436-2.46068-7.69557-4.82828-15.4207-7.33258-23.10241-.255-.78216-.49341-1.58423-1.38973-1.90124-.468-1.39436-.94629-2.78541-1.40234-4.18372q-2.58669-7.93252-5.16184-15.86884c-.376-.84965.26521-1.7085-.04813-2.57373-1.65444-4.56954-3.07149-9.23-5.27339-13.588a5.82058,5.82058,0,0,0-2.9581-2.9192,22.268,22.268,0,0,1-4.89128-3.26672c-1.31327-1.03306-2.442-2.391-4.266-2.59a12.69734,12.69734,0,0,0-4.44032-2.66134c-.772-.25811-1.5469-.51077-2.33092-.72833a79.4579,79.4579,0,0,0-10.88828-1.97563,2.87218,2.87218,0,0,0-1.78178-1.05186c-2.40111-.16737-4.78851-.4877-7.18635-.697-5.61138-.48986-11.21925-1.03112-16.83071-1.50146-4.22257-.35387-8.432-1.67731-12.723-.50669-.08815.02406-.2038-.06275-.30465-.10668-2.83017-.281-5.65826-.58572-8.49127-.8347a29.15133,29.15133,0,0,1-5.46758-1.04142,15.37538,15.37538,0,0,0-1.59762-.37214,27.57784,27.57784,0,0,0-5.34609-.78155,10.30879,10.30879,0,0,0-4.58563-.97374,2.95614,2.95614,0,0,0-.81335.14543c-.23772.073-.4721.1461-.70372.23977-.06777.03685-.13219.07031-.20054.10883a3.50615,3.50615,0,0,0-.34183.249c-.04988.04374-.09709.08262-.14648.12642-.08991.08044-.17572.158-.26053.24225-.00084.00453-.11706.109-.11715.1132-.076.06983-.1504.13728-.22184.21-.07261.06384-.14581.12527-.21549.191-.076.05732-.15383.11224-.228.17073-.08372.049-.16971.0967-.25218.14756-.09108.04376-.18316.0893-.27139.13956-.09275.04947-.188.09726-.28176.146-.09726.04775-.19619.09392-.294.1415-.09876.04859-.19837.09668-.29638.14775-.151.07157-.30482.13743-.45923.20091-.105.0403-.21165.07779-.31693.117-.16561.05147-.32947.11084-.49382.16632-.11213.03888-.22477.07813-.335.122-.23555.07027-.46926.14967-.70589.217-.18424.05387-.37158.09768-.55967.1349a10.084,10.084,0,0,0-1.00553.18182c-.21215.05026-.42656.09711-.641.13768-.39589.04769-.78669.13235-1.17707.20979a9.50641,9.50641,0,0,1-1.58442.14731,44.30737,44.30737,0,0,1-9.90715.00031,49.715,49.715,0,0,1-5.79646-.18264c-1.66839-.13745-3.34271-.04161-5.01085-.14437a26.29018,26.29018,0,0,1-3.88458-.18422c-1.537-.37434-2.88791.40143-4.31641.69683a18.80432,18.80432,0,0,0-3.18011-.07942c-1.22186-.34463-2.49344.08026-3.71672-.24048-.64991-.03894-1.29965-.10716-1.94973-.112q-5.45951-.04033-10.88878-.60569c-1.18752-.122-2.37478-.25412-3.55637-.422-.707-.1005-1.06369-.30883-1.05174-1.18.00142-.10821-.01379-.21658-.02122-.32489-.26438-.42263.0046-.935-.22945-1.36276l-.022-.63123a5.01769,5.01769,0,0,0,.30423-3.35777c-.47636-3.40858-.99107-6.81145-1.49885-10.21545-.97528-6.53841-1.96092-13.07514-3.08979-19.589-.17363-1.00215-.22811-2.10715-1.29539-2.70108q-.04663-.42715-.09333-.85425A96.62693,96.62693,0,0,0-32.801-393.15544a169.5391,169.5391,0,0,0-14.05912-36.7183,148.36463,148.36463,0,0,0-20.3875-29.31263c-.56334-.63282-1.0865-1.41065-2.08141-1.46252a1.23724,1.23724,0,0,0-.989.82255c-.27641,1.00165.49959,1.49624,1.02893,2.085A145.34256,145.34256,0,0,1-54.32269-437.8235c2.27268,3.61619,4.23519,7.40644,6.37936,11.09395.59125,1.01694,1.44462,1.90212,1.33583,3.19906.332.56472.66336,1.13.9452,1.72478A146.47717,146.47717,0,0,1-34.64542-389.7264a519.67852,519.67852,0,0,1,9.67118,61.73694q1.09907,12.08675,2.17274,24.176,1.14595,12.66208,2.46987,25.30535,1.439,13.78782,3.14335,27.54939c1.41972,11.45664,2.97289,22.89364,4.77915,34.29567.95038,5.99988,2.04757,11.97356,3.23192,17.932.356,1.79043-.093,2.21064-1.88589,1.92345-1.51314-.2424-3.02962-.45831-4.54636-.66328a8.18171,8.18171,0,0,0-2.70709.14435c-.81769.23429-1.87561.15195-2.21778,1.26138.24783,1.251,1.28536,1.01251,2.1013,1.05529a42.22447,42.22447,0,0,1,13.57239,2.8981Q9.78075-186.27565,24.58473-180.855c10.27355,3.78164,20.60291,7.40043,30.95793,10.94953,2.24067.768,2.46862,1.307,1.51,3.51977-.71868,1.659-1.31544,3.36327-1.92892,5.06174a147.82579,147.82579,0,0,0-7.3599,33.26829c-.09241.48622-.00836.9813-.07612,1.46785-.03284.159-.06125.31936-.079.48108-.27156,3.81452-.65267,7.62123-.73163,11.45-.02691,1.30863-.51806,1.61554-1.81119,1.36478a13.04333,13.04333,0,0,1-1.2725-.324q-14.07211-4.23981-27.82887-9.41178c-4.80388-1.81767-9.47156-4.03557-14.56539-5.03312-5.59743-1.096-11.18249-1.57088-16.67338.44645a16.45343,16.45343,0,0,0-9.38308,8.474c-.33.67247-.53711,1.41759.32262,1.84461a1.29154,1.29154,0,0,0,1.79348-.66917c.46316-.7798.911-1.56866,1.40126-2.3676-.1606.38186-.29379.74145-.40759,1.10718-.95882,3.08331-1.80334,6.19954-2.68687,9.30457-.112.39376-.09977.9663-.66445,1.00215-.4274.02711-.61164-.41908-.805-.73936-.62217-1.03043-1.15877-2.12094-1.83325-3.109a3.8787,3.8787,0,0,1-.09927-4.44509A42.31016,42.31016,0,0,0-23.30869-129.73a24.75546,24.75546,0,0,0-.16335-10.57619,7.10062,7.10062,0,0,0-1.3873-2.55652c-1.13321-1.50591-2.82307-1.15953-4.29042-1.55776-3.72415.46216-6.48831,2.70659-9.12413,4.77213a87.80243,87.80243,0,0,0,4.89329-14.51375,12.08338,12.08338,0,0,0,.374-4.55755c-.63178-3.96931-3.01275-5.85478-6.93426-4.7019a9.73715,9.73715,0,0,0-2.62813,1.3253,21.71679,21.71679,0,0,0-4.17912,3.69762,95.38339,95.38339,0,0,0,4.75425-17.5509c.588-3.90155.98731-7.8287-.19761-11.70856-.58691-1.92149-.48714-2.18657,1.35321-2.96215a60.23236,60.23236,0,0,1,12.15543-3.3705c2.09554-.40245,4.22207-.57809,6.32922-.88817.75035-.11046,1.74317-.17814,1.65719-1.388-.28677-.849-1.02491-.87953-1.73841-.94269a22.27515,22.27515,0,0,0-5.54462.4891c-3.89545.6314-4.25056.38741-4.58137-3.50319-.62994-7.40991-.961-14.83962-1.33675-22.2642-.33147-6.55107-.414-13.11433-.64-19.67144-.25794-7.48726-.23931-14.98723-.3064-22.47832-.11172-12.47067-.365-24.948.20446-37.42253a167.5376,167.5376,0,0,0-.27891-18.46961c-.1931-2.97882.62417-5.85507.51764-8.80465-.0793-.5966-.16945-1.18844-.20538-1.79026q-.456-7.61974-1.43727-15.19044c-1.62352-12.55281-4.04409-24.96108-6.79873-37.30784-.50076-2.24433-1.04823-4.4784-1.69362-6.68625-.214-.73186-.61289-1.3662-1.50052-1.17781-.9091.19294-.94654.97641-.86415,1.70564a25.216,25.216,0,0,0,.67615,3.0441q4.38363,18.21364,7.11383,36.74744c.71383,4.858,1.05023,9.76435,1.72571,13.719A27.04556,27.04556,0,0,0-43.46165-346.08c-3.57492-3.63439-6.26756-3.8479-10.41852-.887a8.79423,8.79423,0,0,0-1.12919.95107,42.011,42.011,0,0,0-3.83261,4.055c-.31969.41979-.63654,1.07409-1.2242.96513-.69177-.12824-.49-.8878-.5524-1.3881-.46709-3.74646-.60872-7.52058-.89966-11.28188q-.68972-8.915-1.46585-17.82258-.809-9.39964-1.816-18.78322c-.89064-8.272-1.82-16.53718-3.38232-24.71526a25.275,25.275,0,0,0-.97528-3.98435c-.3-.81813-.6012-1.8212-1.77559-1.483-1.10613.31849-.835,1.30251-.643,2.076A155.09691,155.09691,0,0,1-68.58-400.90891c1.28244,9.87637,2.21277,19.78991,3.08611,29.70762.52766,5.99175.96885,11.99243,1.44939,17.98855.5417,6.7591,1.08366,13.51959,1.48991,20.28581q.54559,9.08749,1.12117,18.1744.79425,12.35814,1.522,24.72027c.40016,6.93422.40308,13.88513.6342,20.82743.271,8.144.43182,16.29334.66361,24.44026.23805,8.36493.41553,16.73178.66019,25.09757.23989,8.20057.36632,16.40413.6647,24.60487.18324,5.03667.57889,10.05279,1.134,15.04931a212.29613,212.29613,0,0,0,6.38763,34.0183c3.26016,11.615,7.09252,23.02065,12.67164,33.76872,1.48807,2.86685,2.83552,5.80486,4.40055,8.63369.82705,1.495.71341,2.36584-.51563,3.11966-1.86809,1.14582-3.64519,2.43094-5.52757,3.54889-1.73181,1.02834-2.67877.79446-3.90831-.871a73.5435,73.5435,0,0,1-6.96376-11.69824,161.80067,161.80067,0,0,1-11.25526-32.364,299.43389,299.43389,0,0,1-7.6318-48.27641c-.12032-1.58124-.24332-3.16248-.34868-4.74522-.05155-.7742-.34518-1.43631-1.22462-1.48481-.94813-.05231-1.14064.66808-1.23406,1.41964a3.581,3.581,0,0,0-.04454.655c.23521,3.87715-.22168,7.73971-.14714,11.6301.18533,9.684.40141,19.35849,1.10212,29.02048a105.82571,105.82571,0,0,0,2.36584,17.8718c3.55729,14.39318,8.15771,28.40391,14.85116,41.67466a4.471,4.471,0,0,1,.53293,1.54439,1.22935,1.22935,0,0,1-.62885,1.39077,1.22231,1.22231,0,0,1-1.47579-.38837,6.767,6.767,0,0,1-1.195-1.95223,267.0593,267.0593,0,0,1-12.80743-32.52179,172.22621,172.22621,0,0,1-8.545-50.63732c-.084-5.524-.39564-11.03852-.6205-16.557-.33849-8.30483-.70982-16.6105-.96258-24.91625-.22636-7.43512-.65191-14.86271-.8146-22.30174-.07395-3.38487-.08439-6.78392-.296-10.16714-.49834-7.97064-.603-15.95616-.87017-23.93349-.172-5.13629-.3603-10.27948-.49207-15.41935-.0869-3.38631-.05089-6.78576-.27816-10.16756-.51354-7.64143-.54571-15.30059-.85747-22.94885q-.33039-8.108-.49884-16.24042c-.06835-3.38424-.1001-6.78208-.28384-10.16751-.44737-8.24615-.69261-16.49981-.91688-24.75325-.10687-3.93718-.28042-7.87523-.45288-11.80548-.14414-3.28163-.05832-6.56714-.27925-9.84061-.46408-6.87574-.59877-13.76556-.885-20.648-.134-3.22293-.52048-6.43783-.41578-9.67187a5.36781,5.36781,0,0,0-.46391-2.07323.96819.96819,0,0,0-1.01556-.67827.99174.99174,0,0,0-.91044.81724,6.85127,6.85127,0,0,0-.16636,2.12185c.23989,5.90126.52223,11.80094.76,17.70209.1123,2.78753.044,5.58256.26187,8.36217.543,6.92735.56585,13.87677.86415,20.81336.21357,4.96764.38854,9.94829.49006,14.92639.0701,3.43949.08331,6.89392.30206,10.33089.33005,5.18722.38528,10.382.583,15.57259.02181.5726.24967,1.37448-.37509,1.651-.69186.30613-.962-.528-1.361-.92816-4.32794-4.34139-8.51909-8.82-13.09754-12.909a93.138,93.138,0,0,0-13.74628-10.3691,3.6676,3.6676,0,0,1-1.95249-2.86213q-.85993-8.161-1.64533-16.32931-1.23343-12.98681-2.42617-25.97782c-.72745-7.95243-1.269-15.91671-1.89157-23.87589-.0737-.94192.37693-2.48058-1.103-2.47992-1.39182.00063-1.32606,1.53877-1.43552,2.57616-.62008,5.87759-.814,11.78919-.97562,17.68609-.294,10.72382-.08665,21.45661.34108,32.17578.109,2.72842.13486,5.46746.34952,8.19421.08356,1.06143.70564,2.3372-.31033,3.08985-1.02124.75659-2.0642-.24242-3.04191-.62595a60.60773,60.60773,0,0,0-27.9916-4.17624c-2.56663.23388-5.10435.61761-7.64237,1.03927-1.87026.31073-2.48976-.1757-2.7797-2.05-.05026-.32493-.05314-.65507-.08987-.98113-.83219-7.39355-1.468-14.8036-2.03634-22.22259-.66031-8.61921-1.0077-17.24868-1.23774-25.88616-.11957-4.48942.4462-8.95426.46529-13.43694.01228-.21331.05511-.42652.05811-.64073.01074-.76013.07516-1.60991-.88086-1.84233-1.04179-.25326-1.40786.55778-1.7049,1.33039a23.51633,23.51633,0,0,0-.83394,2.60951c.19753,1.04255-.44306,1.89349-.64991,2.84371a150.28452,150.28452,0,0,0-3.30515,29.12658,247.2735,247.2735,0,0,0,.918,29.49531c.3171,3.16352.07119,3.44353-2.72456,4.85117-.29324.14765-.58749.29335-.8812.44a95.4181,95.4181,0,0,0-21.87232,14.67332c-1.31361,1.19629-1.85238.99642-2.22747-.76908-.0569-.26763-.10382-.53719-.14292-.8081a245.27193,245.27193,0,0,1-2.01135-29.59079c-.05289-2.34651.33774-4.68091.33578-7.04028a163.28525,163.28525,0,0,1,1.153-16.34726c.33669-3.37214,1.04046-6.70054,1.17482-10.09284.10908-.75028.06534-1.49029-.84589-1.64343-.86077-.14466-1.24592.46829-1.43836,1.21738-.14815.57672-.33064,1.1436-.49462,1.71755a15.45338,15.45338,0,0,1-.54977,3.71014c-.90952,5.83918-1.83977,11.676-2.49327,17.55092-.76171,6.84814-1.4163,13.703-1.82878,20.58647-.223,3.72091-.00631,7.45177-.3575,11.149-.52608,5.53908.1484,11.0324.34083,16.54221.10737,3.07236.16394,6.01058-1.106,8.98321a196.0645,196.0645,0,0,0-8.39839,24.35481,75.31753,75.31753,0,0,0-2.17161,10.10029c-.18871-1.14956-.60633-2.38086-.94081-3.63425-4.17-15.62565-6.046-31.58486-6.65292-47.69335a246.8921,246.8921,0,0,1,.33628-25.10658c.13637-2.12422.25268-4.25585.43454-6.38122.38683-4.52053.94545-9.02331,1.31578-13.54356a5.45579,5.45579,0,0,1,.218-1.6139c.55541-3.28327.99341-6.5841,1.4445-9.88234.10319-.75473.08247-1.66064-.91917-1.82821-1.0819-.181-1.3594.639-1.514,1.51134-.77149,4.35308-1.39156,8.72692-1.82163,13.12776a17.83663,17.83663,0,0,1-.4736,3.55957c-.86286,8.10724-1.30675,16.24554-1.64228,24.38512-.29086,7.056-.017,14.12053.36013,21.16956.11067,2.06775.23914,4.1471.4172,6.21815.33273,3.87075.85688,7.72448,1.1142,11.598.4241,6.38523.95736,12.7622,1.45043,19.14118.62793,8.1237,1.25052,16.24874,1.81524,24.37611.50786,7.30922.96279,14.62476,1.45557,21.935.65091,9.65635,1.21676,19.31811,1.83037,28.97632.52,8.18411.91759,16.37821,1.31436,24.5699.38357,7.91923.66821,15.84417,1.00432,23.76633.34547,8.142.34029,16.29536.651,24.44191.336,8.80833-.03961,17.624-.3588,26.42732a72.33705,72.33705,0,0,1-1.44767,14.0236,248.40711,248.40711,0,0,1-9.22532,31.15955,35.23366,35.23366,0,0,1-3.53126,7.39633c-.43809.6479-.91236,1.29581-1.80944,1.19955a2.31593,2.31593,0,0,1-1.76615-1.55521,3.4603,3.4603,0,0,1,.38558-3.28614,130.89976,130.89976,0,0,0,5.64468-12.58027c5.98338-15.37982,8.70334-31.377,9.17778-47.81162.08072-2.797-.2129-5.57407-.31977-8.36084A120.76056,120.76056,0,0,0-226.42291-175.73a3.85776,3.85776,0,0,0-.42614-1.4056,1.21533,1.21533,0,0,0-1.19579-.70736c-.58156.06714-.80528.49779-.90551,1.01844a13.79032,13.79032,0,0,0-.13173,2.29248c-.13219,5.4695.01028,10.93641-.241,16.41334-.34384,7.49405-.84823,14.96408-1.75964,22.40449a129.512,129.512,0,0,1-6.41061,28.46094,47.2083,47.2083,0,0,1-6.03255,11.80921c-1.16341,1.60376-2.01047,1.76014-3.55432.5298a34.15578,34.15578,0,0,1-7.42115-8.27782,3.84228,3.84228,0,0,1-.16465-4.17373,75.35825,75.35825,0,0,0,5.92075-16.33626c4.15021-16.73859,5.38569-33.76379,4.91288-50.96382-.16833-6.12471-.435-12.24308-.64623-18.364-.22439-6.50461-.65129-13.00023-.79877-19.50969-.063-2.78208-.13662-5.57741-.30114-8.36033-.452-7.64366-.71759-15.29395-.95247-22.94582-.12659-1.7667.0061-3.541-.15349-5.3056-.33285-1.05888.16782-2.3521-.89912-3.20674-.82927.02283-.77587.59994-.85371,1.20734a62.23207,62.23207,0,0,0-.45643,7.77825c-.00969,4.46729.22694,8.934.35863,13.3993.19979,6.77581.62693,13.54133.81318,20.31792.07637,2.77906.14593,5.572.31823,8.35461.28706,4.6366.5961,9.27207.59088,13.92246a2.61085,2.61085,0,0,1-2.05133,2.7744,18.95507,18.95507,0,0,0-3.11644,1.01794c-1.063.54521-1.07714,1.14461-.12467,2.08359,1.19094.50807,2.23357-.23283,3.34-.40555,1.52789-.23847,2.12236.09634,2.22814,1.55876.14163,1.95771.38361,3.90418.38821,5.87881q.02406,10.40045-.62363,20.77692a175.29779,175.29779,0,0,1-3.3832,24.9662,89.41321,89.41321,0,0,1-3.97742,13.69815,2.743,2.743,0,0,1-2.94277,1.87611,55.07611,55.07611,0,0,0-7.3632.48551c-8.92819.91057-17.812,2.17454-26.6894,3.486-2.70613.39974-3.01772.13469-3.81682-2.5401-.7371-2.4672-1.30425-4.97718-1.915-7.47672-.38612-1.58015-.72724-1.76983-2.25421-1.46635-.60011.63111-.28184,1.35054-.16143,2.0271.48,2.698,1.26832,5.32131,1.95641,7.96945.468,1.80075.03685,2.44564-1.75746,2.73625-3.24044.52478-6.48213,1.04271-9.72783,1.53378-1.90523.28827-2.62863-.13829-3.49207-1.93164a44.90677,44.90677,0,0,1-2.892-8.19255,123.61565,123.61565,0,0,1-3.3321-20.54726c-.57692-6.59615-.73008-13.20524-.9343-19.81513-.01521-.49194-.00125-.98485.02716-1.47721a2.22684,2.22684,0,0,1,1.63864-2.21515c4.19659-1.24831,8.412-2.435,12.67524-3.4317,1.49455-.3494,2.165.31911,1.99172,1.90277-.1433,1.30985-.19431,2.61526-.22068,3.92887a160.60077,160.60077,0,0,0,1.03632,22.10795,122.1752,122.1752,0,0,0,2.19434,13.43791c.17188.73693.23187,1.56775,1.23331,1.71146a.97916.97916,0,0,0,.97156-.45129c.54885-1.02349.13921-2.03817-.04537-3.04454a147.2159,147.2159,0,0,1-2.78309-28.36861c.03292-2.73663.00209-5.47393.00731-8.21093a14.00977,14.00977,0,0,1,.13511-2.12762,2.96224,2.96224,0,0,1,2.33042-2.63578c7.11784-1.99088,14.108-4.38112,21.10162-6.76481,7.92454-2.70091,15.76431-5.64535,23.72746-8.22585a1.19937,1.19937,0,0,0,.50256-.71755,1.48975,1.48975,0,0,0-.01692-.613c-.1034-.4655-.47181-.66257-.85793-.84146-1.7329-.58645-2.06124-1.09418-1.83642-3.24566.42639-4.08178.59635-8.18219.85287-12.27341q.8724-13.91588,1.64658-27.83852.776-14.00342,1.30625-28.02057c.2607-7.10463.47607-14.21612.43107-21.33448-.04082-6.45339-.04571-12.90636.20426-19.36777.44858-11.59384.36824-23.19981,1.22579-34.79091.51137-6.91237.67786-13.86409,1.10513-20.78893.40041-6.48957.80708-12.98212,1.34373-19.46478.54187-6.54548,1.07325-13.09032,2.22146-19.5636a66.98233,66.98233,0,0,1,2.99862-10.69014,23.80474,23.80474,0,0,1,.8314-4.01824,216.82385,216.82385,0,0,1,10.49255-30.90864c-.04746-.73856-.17217-1.38624-1.17749-.99092-1.1312,2.61127-2.311,5.20269-3.38432,7.83755a184.21994,184.21994,0,0,0-7.50538,23.43914c-.83633,3.23114-1.55112,6.49646-2.625,9.66272a30.87525,30.87525,0,0,0-1.02659,3.80108,159.19075,159.19075,0,0,0-2.253,17.91018c-.30636,3.54425-.542,7.09521-.76409,10.646q-.47672,7.621-.88174,15.24636c-.17677,3.3345-.28455,6.67264-.43646,10.00852q-.2016,4.42928-.43433,8.85715c-.23446,4.3727-.52553,8.74271-.72014,13.11711-.202,4.53917-.31,9.08246-.47481,13.62338-.07349,2.02386-.18546,4.04631-.27992,6.06942-.3773,2.31381.10566,4.65926-.2566,6.97362q-.00119,2.06278-.00242,4.12556c.37262,1.32892-.54818,2.453-.54634,3.76545.01095,7.87284-.327,15.73849-.57976,23.6068-.24227,7.53972-.63349,15.0692-.98222,22.6028-.3715,8.02539-.8715,16.04179-1.31837,24.06213q-.74343,13.34171-1.66839,26.6701a3.32726,3.32726,0,0,1-2.49348,3.23509c-5.575,1.95859-11.13373,3.96471-16.72033,5.88983-10.349,3.56615-20.83808,6.63441-31.41791,9.47486a285.43558,285.43558,0,0,1-43.10325,8.48028c-8.20822.89528-16.4044,2.01235-24.356,4.40485-.3476.114-.69545.22377-1.03841.34944a18.09886,18.09886,0,0,0-3.29492,1.87971,3.874,3.874,0,0,1-1.7893-.0333c-.63295-.13018-.80144-.39276-.66687-1.05888.32508-1.60919.69077-3.21048.99509-4.82343a28.80067,28.80067,0,0,0,.62426-6.36185c-.14664-4.10271-.35169-8.20346-.54864-12.3042-.10236-2.13222-.23191-4.26327-.36172-6.39406-.29621-4.86237-.58887-9.725-.90476-14.58607-.2236-3.441-.38888-6.88956-.7493-10.31694-.4815-4.579-.7376-9.168-.83407-13.76414a351.50512,351.50512,0,0,1,1.21513-39.53835q.81813-8.91478,2.11726-17.76723c.20706-1.40761.45388-2.80939.68814-4.21288a1.92536,1.92536,0,0,1,.8667-1.4986,2.8309,2.8309,0,0,0,1.12063-1.38417,1.68765,1.68765,0,0,1,1.00156-1.00369,5.119,5.119,0,0,0,3.14309-3.555,1.15409,1.15409,0,0,1,1.29167-.96037c4.48925.02035,8.9787.009,13.468.0094a2.18991,2.18991,0,0,1,1.26259.26782,10.49128,10.49128,0,0,0,4.53165,1.31877,86.20605,86.20605,0,0,0,10.64684.64774c4.59946.02874,9.19582-.03829,13.79169-.25092,2.4748-.11452,1.98507-.31065,2.97548,1.88758a94.9262,94.9262,0,0,0,8.50773,15.3455,45.21978,45.21978,0,0,0,5.66837,6.80308,19.1153,19.1153,0,0,0,5.86577,4.15086,10.44587,10.44587,0,0,1,3.46416,2.42185c.50013.50515.96835,1.04209,1.44776,1.56758a1.74661,1.74661,0,0,0,.76129.59886,6.21673,6.21673,0,0,0,3.40066.17,2.6446,2.6446,0,0,0,2.1971-2.53008,11.77119,11.77119,0,0,0,.02444-1.4747q-.142-10.103-1.0697-20.16444c-.30716-3.2709-.66963-6.53387-1.27174-9.76443-.2805-1.50514-.6385-2.99582-.961-4.49315-.18683-.86735-.12254-.99272.7404-1.3407.91324-.36824,1.87064-.64966,2.73784-1.10425a14.49828,14.49828,0,0,1,4.19671-1.3497,17.69168,17.69168,0,0,0,3.62376-1.03828,8.66745,8.66745,0,0,0,3.00589-1.95758,2.5559,2.5559,0,0,0,.42706-3.15874,3.93678,3.93678,0,0,0-1.3393-1.41743,8.24572,8.24572,0,0,0-2.23487-1.01157,25.05568,25.05568,0,0,0-6.651-.88552,4.68731,4.68731,0,0,0-1.13158.16306,54.92875,54.92875,0,0,0-7.40586,2.13959c-1.01493.38733-1.05165.36567-1.56553-.50765-.05544-.09425-.10432-.19243-.15479-.28957q-3.36891-6.4847-6.73406-12.97132c-.14714-.28405-.333-.57951-.152-.93377a4.56691,4.56691,0,0,1,1.61579-.15573c3.55524-.14418,7.11124-.271,10.66635-.41912,3.9925-.16626,7.98387-.359,11.97649-.52165,3.93747-.16035,7.87913-.25995,11.79964-.68866a48.25815,48.25815,0,0,0,11.66586-2.60288,23.99763,23.99763,0,0,0,6.20948-3.307,14.46331,14.46331,0,0,0,4.00825-4.50817,4.1904,4.1904,0,0,0,.6042-1.68531c.12279-1.46827-.48772-2.13222-1.98424-2.11649a8.78923,8.78923,0,0,0-.98255.07027c-1.35756.16768-2.713.353-4.071.51653q-4.9707.59845-9.94333,1.18158c-3.10056.36151-6.21663.51651-9.33215.67619a3.44031,3.44031,0,0,1-1.94776-.00013,9.29149,9.29149,0,0,0-2.32423.002c-1.33011.32757-2.70693-.11-4.03528.24641a18.98874,18.98874,0,0,0-3.19239.07788c-1.98812.352-4.01113-.12371-5.99821.25249l-6.48719.0784a33.06535,33.06535,0,0,1-6.21913-.00253c-2.2944-.12364-4.58931-.23841-6.88283-.37686-.59873-.03618-1.19216-.15324-1.78951-.21994a1.3701,1.3701,0,0,1-1.11616-.84583c-.519-1.02521-1.09443-2.02326-1.57907-3.064a1.62623,1.62623,0,0,0-1.83555-1.03732c-1.1952.13668-2.39831.22661-3.58357.42359a52.47251,52.47251,0,0,0-8.54374,2.31145c-1.49827.5187-3.0033,1.03035-4.53232,1.44556a186.17518,186.17518,0,0,1-24.66351,4.59756c-3.41654.44824-6.85359.73046-10.25358,1.31732a100.508,100.508,0,0,0-14.04855,3.28752A37.14777,37.14777,0,0,0-394.59-321.5997a13.96146,13.96146,0,0,0-4.93924,4.476A34.27183,34.27183,0,0,0-402.122-312.561a75.28381,75.28381,0,0,0-3.57245,9.17118,192.47258,192.47258,0,0,0-5.58853,21.9362,27.87612,27.87612,0,0,1-1.017,4.47279c-.06839.541-.10315,1.08867-.2104,1.62177-1.23055,6.11632-2.48053,12.22875-3.709,18.34544q-3.863,19.23426-7.71,38.47172-2.94822,14.72865-5.88762,29.45906c-2.75447,13.79269-5.54332,27.57862-8.24381,41.38188-1.16546,5.95727-2.57173,11.874-3.27491,17.91541-.21483,1.84566-.35742,3.70072-.49182,5.55439-.15822,2.18135-.20651,4.37222-.41871,6.54764-.36694,3.76129-.30686,7.53863-.502,11.30607-.09,1.7377.19519,3.49178.23358,5.24009.0338,1.539.28627,3.05005.47143,4.5685a10.38567,10.38567,0,0,0,.57634,2.21987c.57592,1.60472,1.23657,2.03688,2.92242,2.094,3.8365.13,7.65469-.233,11.47418-.47344,1.36044-.08569,2.72752-.17894,4.08838-.30661,1.905-.17877,3.8085-.3735,5.71395-.547,2.28642-.20814,4.57326-.41327,6.86177-.59681,1.79761-.14422,3.598-.2536,5.39718-.37839a50.99849,50.99849,0,0,1,5.40558-.31146c6.29492.01613,12.58232-.29279,18.87315-.449,2.789-.06923,5.57641-.22665,8.36242-.38161q4.01451-.22329,8.02435-.52829c3.05415-.2345,6.10775-.48434,9.15605-.784,4.35927-.42848,8.65914-1.24663,12.96811-2.01565,6.73113-1.2013,13.474-2.33785,20.21792-3.46634q9.54929-1.59791,19.11145-3.11861,6.96818-1.11192,13.94995-2.138c4.27446-.63286,8.55147-1.25186,12.83508-1.81871,3.74132-.495,7.49326-.91048,11.24123-1.35488a3.00922,3.00922,0,0,1,.65229.01329.42459.42459,0,0,1,.40935.43157,9.92324,9.92324,0,0,1-.18679,1.45524q-4.33187,21.14645-9.31481,42.14894c-3.97056,16.82992-8.17968,33.59826-13.128,50.17228-2.34859,7.86655-4.86325,15.67837-7.89822,23.31285a3.91782,3.91782,0,0,1-.62526,1.32631,4.62341,4.62341,0,0,0-1.04309,1.30876c-2.16155,3.29057-3.41645,7.10589-5.92188,10.19947a1.09054,1.09054,0,0,0,.05,1.61379h.98568a6.8482,6.8482,0,0,0,3.07955-3.26166c3.78114-6.46534,6.33135-13.46218,8.71215-20.512,5.589-16.54942,10.03253-33.42651,14.19627-50.38114q3.13177-12.75232,6.07216-25.54943c2.23478-9.81561,4.29882-19.66832,6.44775-29.50257.43884-2.00839.90422-2.38226,2.90266-2.36948.93488.006,2.1389-.44114,2.70705.61164.50231.93091-.31405,1.77075-.79346,2.53229a3.428,3.428,0,0,0-.14347,3.71362c.586,1.11812,1.30751,2.14989,1.919,3.24821.29362.38478.823.456,1.07359.95272a16.36643,16.36643,0,0,0,4.24375,4.90824,4.44735,4.44735,0,0,1,1.56816,4.37047,262.73448,262.73448,0,0,1-5.35557,27.689c-4.7,19.36192-10.67274,38.35288-16.80569,57.2948-2.544,7.85744-5.32156,15.63668-8.012,23.445-.31221.90622-.82241,1.84169-.12692,2.81029h.98568a4.24669,4.24669,0,0,0,1.79427-2.63795c1.04509-3.17159,2.2141-6.30031,3.27817-9.46471,4.67554-13.90449,9.309-27.8229,13.43072-41.90491,5.42889-18.54757,10.724-37.12693,13.196-56.36631.1047-.815.40128-1.38129,1.32121-1.31244a2.3446,2.3446,0,0,0,2.02994-1.14724,43.12035,43.12035,0,0,0,6.08812-9.89219,23.59383,23.59383,0,0,1,1.84081-3.83737,2.02746,2.02746,0,0,1-.16365,1.15856c-1.83083,4.634-3.56251,9.34117-6.17957,13.583-1.42482,2.30944-1.02362,4.05922.3682,5.98283a12.25381,12.25381,0,0,0,2.0068,2.16q2.22653,1.89113,4.12072-.37835a20.18887,20.18887,0,0,0,1.65958-2.44293,62.55985,62.55985,0,0,0,4.66137-10.48336,19.06018,19.06018,0,0,0,.264,2.84705,6.79748,6.79748,0,0,1-1.35451,5.21519A124.70162,124.70162,0,0,0-241.03681-69.906c-7.86726,15.43785-13.37482,31.62777-15.51118,48.88517a87.31058,87.31058,0,0,0-.69532,12.92273c.08013,3.15346.20033,6.33089.54342,9.48995a98.07409,98.07409,0,0,0,3.40734,17.36891,3.28018,3.28018,0,0,0,1.69229,2.29791h.65714a1.4069,1.4069,0,0,0,.4609-1.59979c-.24161-.88738-.4754-1.7771-.71408-2.66544a45.988,45.988,0,0,1-1.632-6.56832A98.94737,98.94737,0,0,1-254.67743-5.066a100.10942,100.10942,0,0,1,1.48632-21.5693,138.37718,138.37718,0,0,1,6.4279-23.74546,132.33867,132.33867,0,0,1,17.88675-34.41382c7.11408-9.58992,14.09709-19.24953,20.06919-29.60831,4.5403-7.87524,9.019-15.79372,12.47123-24.21054,3.73756-9.1126,7.11295-18.37527,11.29658-27.302,2.20571-4.70637,4.3571-9.45013,7.42834-13.68988a3.616,3.616,0,0,1,2.42734-1.811,35.99618,35.99618,0,0,1,3.58507-.41273c2.10928-.02858,2.46845.53,1.55233,2.44832-1.22662,2.56847-2.69648,5.02681-3.73915,7.67508a307.68482,307.68482,0,0,0-10.75313,32.39913c-5.61109,20.74684-9.15476,41.76988-8.75234,63.35371a30.7056,30.7056,0,0,0,4.88314,16.29052c4.31478,6.74864,10.632,11.06768,17.87606,14.14986,10.33981,4.39925,21.28365,5.77766,32.375,6.23493,5.84818.241,11.69026-.20885,17.53677-.54755a88.94326,88.94326,0,0,0,18.93009-2.94118A63.936,63.936,0,0,0-70.79979-61.457,66.20915,66.20915,0,0,0-56.55133-86.32243c.42054-1.33.96049-1.85013,2.43135-1.65481a3.76958,3.76958,0,0,0,4.05262-5.3488,28.44814,28.44814,0,0,0-1.8132-3.67594c-1.90553-3.54-3.52245-7.12285-3.13842-11.355a41.36219,41.36219,0,0,0-.05231-7.22608,1.24083,1.24083,0,0,0,.06016.19987A90.81469,90.81469,0,0,0-43.98463-95.2863c1.49969,2.02907,3.39937,2.38711,5.59726,1.14557,2.99737-1.69317,5.66268-3.94307,8.89945-5.24435a1.40984,1.40984,0,0,0,.69386-2.07214c-.3786-.91178-.87359-1.76369-1.31812-2.64192-3.31121-6.54112-6.84619-12.96894-9.57785-19.79767-2.07523-5.18791-3.76434-10.514-5.58155-15.35994a15.58321,15.58321,0,0,0,.73313,1.54c3.044,5.50806,6.06167,11.03033,9.19039,16.49181,4.75926,8.30769,9.6325,16.48537,15.6574,24.02175C-7.66224-82.1573,1.66394-65.5491,7.11932-46.954c4.08579,13.92709,5.56016,28.086,3.31614,42.51843A66.77343,66.77343,0,0,1,6.207,11.55428a6.41236,6.41236,0,0,1-.549,1.85059c-.82371,1.88865-1.7583,3.72248-2.63958,5.58255-.32345.68262-.73221,1.3873.016,2.07122h.98564A4.93214,4.93214,0,0,0,5.874,18.86187a72.86439,72.86439,0,0,0,6.52349-19.8778c.90576-5.05769,1.77827-10.12444,1.16-15.29794.21675,1.25169.14113,2.54733.45388,3.78411C16.6797-1.98048,19.07245,8.63382,21.50907,19.23754a2.67883,2.67883,0,0,0,1.23916,1.82109h.6571c1.10371-.87113.66629-1.97939.42882-3.0254-3.064-13.49569-6.1281-26.99158-9.78273-40.34406a7.90345,7.90345,0,0,1-.33105-1.93632,76.53889,76.53889,0,0,0-1.57188-12.6805C9.14107-52.94125,2.79155-67.628-5.62653-81.48617a44.08653,44.08653,0,0,1-4.25976-7.92847A160.63947,160.63947,0,0,1-17.573-119.57643c-.53928-3.57245-.04947-4.56963,3.25481-5.71357A18.851,18.851,0,0,1-4.358-126.332c3.37848.09233,6.56627,1.10647,9.78749,1.982a4.71191,4.71191,0,0,1,3.33787,3.0798c3.35224,8.50318,6.8492,16.94807,10.3383,25.39572,3.78147,9.15547,7.40385,18.37966,11.50351,27.39939,2.966,6.52541,6.07646,12.9862,8.92067,19.56655C46.08831-33.73517,52.57579-18.5301,58.1047-2.94247c2.59713,7.32192,5.24857,14.642,6.28753,22.407a2.29252,2.29252,0,0,0,.74032,1.59411h.98573c1.24693-1.67825.65952-6.14694-1.03335-7.86074-.173-.511-.363-1.01689-.516-1.53378-.55449-1.87336-1.05708-3.763-1.652-5.62333-.99166-3.10119-2.03947-6.1845-3.06363-9.27537.32512-1.96857-.47486-3.70234-1.12928-5.47046-.7216-1.94956-1.47186-3.88834-2.23725-5.82032-2.53764-6.40518-4.98779-12.84615-7.76365-19.155q-4.57991-11.11-9.49638-22.07452-3.014-6.6425-6.12426-13.24084c-2.4347-5.13845-4.37807-10.49121-6.74108-15.66212-2.93587-7.49163-6.11933-14.8827-9.09631-22.358-.10679-.60007-.60136-.981-.80173-1.57192-1.54239-4.54828-3.52428-8.92547-5.34475-13.36576a2.48921,2.48921,0,0,0-.29972-.55908,5.50059,5.50059,0,0,0,1.89316.97687c4.56992,1.78337,9.2188,3.351,13.81446,5.06107,5.74557,1.89032,11.48914,3.78795,17.28334,5.53116,2.33585.70272,4.72793,1.20055,7.03745,1.99092,8.63858,2.52916,17.39548,4.59052,26.15171,6.65973,2.37687.56163,4.81917.81051,7.15276,1.5568,8.85483,1.73143,17.69913,3.52662,26.66174,4.63794a6.32931,6.32931,0,0,0,1.42106.34923c6.649,1.0181,13.35105,1.56578,20.04124,2.19021,2.34579.219,4.75091.93806,7.1058-.06856.9279.03451,1.85924.02945,2.783.11076,2.99587.26362,5.98739.57529,8.98325.83854,5.55615.48818,11.1143.95318,16.6712,1.4323,1.30742.11276,2.622.1842,3.91842.37572,5.14112.75954,10.29435,1.39578,15.48369,1.71552a31.81834,31.81834,0,0,0,6.71267-.15893,5.816,5.816,0,0,0,1.87728-.5529,1.4162,1.4162,0,0,0,.81778-1.31248c.04136-1.585.14238-3.16871.17572-4.75379C197.063-108.18593,197.1721-120.43536,195.94347-132.65512Zm-242.38085-9.5857c.15542.3316.31167.74224.48137,1.20055Q-46.19452-141.6464-46.43738-142.24083Zm242.65776,38.00909c-.01345,1.93511-.41712,2.24235-2.26173,1.83642-3.26191-.71784-6.55692-1.25144-9.86169-1.7189-4.16918-.58975-8.34371-1.14181-12.51731-1.69993-2.27543-.30423-4.55037-.61883-6.8319-.86975-1.6831-.185-3.3763-.28-5.06583-.4045-1.1449-.08439-2.29357-.21712-3.41959-.37973-1.84628-.26646-3.72323-.11623-5.54946-.52031a2.977,2.977,0,0,0-.65308-.06037c-3.77471.01817-7.52969-.51864-11.31233-.36222a41.44743,41.44743,0,0,1-5.40332-.21783c-1.79139-.16026-3.59054-.33181-5.391-.43876-.92582-.055-1.84779-.201-2.76734-.33469-4.06064-.59063-8.12679-1.15155-12.15551-1.93765-6.39381-1.24751-12.78395-2.51445-19.11392-4.06327-4.148-1.01489-8.30042-2.01139-12.44437-3.0422q-3.10733-.773-6.19035-1.6432c-1.87494-.527-2.13063-.91178-1.87486-2.8054.46174-3.41833,1.12844-6.80015,1.83333-10.17645a163.68128,163.68128,0,0,1,5.89548-20.16424c.78928-2.27393,1.69764-4.50792,2.5968-6.742.61741-1.534.84869-1.64027,2.4931-1.21455,4.18664,1.08386,8.35992,2.21974,12.55,3.29016,5.35879,1.36884,10.76578,2.52874,16.23119,3.37488a42.45713,42.45713,0,0,0,6.83767.80925,4.81176,4.81176,0,0,1,.814.09413,2.04225,2.04225,0,0,1,1.8086,1.64888,84.76868,84.76868,0,0,1,2.46026,12.05411c.16478,1.63075.48146,3.25168.55432,4.88485a41.792,41.792,0,0,1-.12617,7.5388c-.19912,1.462-.32145,2.93144-.62225,4.38225a27.65968,27.65968,0,0,1-2.20825,6.68442c-.17965.36418-.548.75356-.18124,1.19608.21934.26479.659-.08932.998-.79263a30.93225,30.93225,0,0,0,2.45809-7.80881c.40341-2.15649.4741-4.34661.70748-6.51919a11.9934,11.9934,0,0,0-.2-4.08617,3.03111,3.03111,0,0,1-.06952-.65217,63.678,63.678,0,0,0-1.55793-11.69319,45.22485,45.22485,0,0,0-1.29-5.09128,4.90582,4.90582,0,0,1-.2043-.79321.90216.90216,0,0,1,.06392-.47573c.30264-.6845,2.04055-.89594,2.41531-.26592.4182.70305.75344,1.45691,1.10371,2.1986.35044.74186.66044,1.50286,1.013,2.24364,1.24651,2.61919,2.47372,5.24816,3.76317,7.84621q3.94383,7.94631,8.61752,15.48949a77.75571,77.75571,0,0,0,7.42884,10.41965,39.0516,39.0516,0,0,0,6.266,6.01651,20.25127,20.25127,0,0,0,2.11166,1.2539.4551.4551,0,0,0,.42815-.1011.43951.43951,0,0,0-.00927-.42994,3.19259,3.19259,0,0,0-.74207-.62693,37.20049,37.20049,0,0,1-4.18748-3.16114,8.37249,8.37249,0,0,1-1.15568-1.16421,88.42047,88.42047,0,0,1-7.04113-9.06706,124.4341,124.4341,0,0,1-6.4462-10.67884c-.93367-1.79523-1.99067-3.52612-2.93119-5.318-1.32271-2.52-2.65069-5.039-3.77763-7.65682-.30281-.70343-.64924-1.38793-.97211-2.08279-.78394-1.68736-1.57113-3.37325-2.345-5.06525a3.24935,3.24935,0,0,1-.37375-1.74443,62.45743,62.45743,0,0,0,.121-6.72825,26.24146,26.24146,0,0,0-.26529-5.56647,8.45578,8.45578,0,0,1-.05256-1.63856,17.89414,17.89414,0,0,0-.26571-4.08738,3.59045,3.59045,0,0,1-.05582-.81778,27.16113,27.16113,0,0,0-.26713-3.92461c-.17288-1.18405-.1682-2.39267-.33014-3.58992-.21925-1.622-.26513-3.2668-.40943-4.89968-.11071-1.25219-.23446-2.50421-.39447-3.75093-.52223-4.06749-1.01614-8.13945-1.60982-12.19675-.75235-5.142-1.45615-10.29226-2.44514-15.39816-.83257-4.29815-1.53662-8.62189-2.41531-12.9102-1.05466-5.14722-2.1938-10.27819-3.37179-15.39883-1.01865-4.428-2.08534-8.84676-3.23551-13.24224-1.27467-4.87117-2.65119-9.716-4.01627-14.56307-.80106-2.84492-1.65544-5.67505-2.51023-8.50447a2.35467,2.35467,0,0,1,.1235-1.89951,20.72807,20.72807,0,0,0,1.99376-6.56715,5.78594,5.78594,0,0,0-.429-3.043,1.83907,1.83907,0,0,0-1.93084-1.23462,2.93258,2.93258,0,0,0-1.83141.61912,4.81712,4.81712,0,0,0-.72545.66445,2.8965,2.8965,0,0,1-3.13415.88984,8.85745,8.85745,0,0,1-3.195-1.24651,5.63633,5.63633,0,0,0-3.411-.95429c-5.63987.02914-11.28008-.00825-16.92.025-1.59987.00944-3.15321-.32564-4.73244-.45764a3.57667,3.57667,0,0,1-1.82857-.69129,25.13219,25.13219,0,0,0-6.26714-3.20158,36.54834,36.54834,0,0,0-6.57856-2.04066c-.16168-.02843-.32036-.07545-.48263-.09866-1.43911-.20561-1.99986.08968-2.5038,1.46856a9.43738,9.43738,0,0,1-3.50924,4.43512,3.96724,3.96724,0,0,1-2.2497.90267c-.79572.01784-1.11131.45439-1.27308,1.21367a14.45341,14.45341,0,0,1-1.82665,4.37373q-4.87846,8.17668-9.76168,16.35049c-1.15418,1.924-2.305,3.85406-3.55562,5.71526-1.92316,2.862-3.61971,5.872-5.69945,8.63215-.98748,1.31049-1.8879,2.68673-2.82248,4.03685a30.888,30.888,0,0,1-4.31215,4.935,3.66784,3.66784,0,0,1-.38044.31171.465.465,0,0,1-.76112-.27735,5.21167,5.21167,0,0,1,.09893-2.278c.45054-1.80618.862-3.62388,1.37485-5.41239,1.70574-5.94713,3.54367-11.85418,5.56208-17.70309,1.42858-4.13952,2.8915-8.26719,4.35693-12.3938a8.48356,8.48356,0,0,1,.71809-1.46929q4.19074-7.05974,8.40011-14.10833c.83967-1.41055,1.66931-2.82708,2.50254-4.24146a1.60022,1.60022,0,0,0,.22836-.43262.57062.57062,0,0,0-.05874-.44185.38488.38488,0,0,0-.57747.04,7.99718,7.99718,0,0,0-.8,1.03463c-.41419.64433-.79839,1.30815-1.18785,1.96815q-2.37788,4.03024-4.75249,8.06245c-1.5611,2.63736-3.13892,5.26491-4.69283,7.90649a9.16371,9.16371,0,0,0-.697,1.48331c-.64114,1.747-1.26113,3.502-1.87469,5.259-.9564,2.73916-1.93978,5.46977-2.84112,8.22708-1.25846,3.85-2.46344,7.71772-3.66834,11.585-.56978,1.82884-1.11875,3.66547-1.61876,5.51439a38.77915,38.77915,0,0,0-1.57222,7.70545,1.67528,1.67528,0,0,1-.11548.47486.53144.53144,0,0,1-.48789.37058.49309.49309,0,0,1-.5087-.33594,2.4139,2.4139,0,0,1-.153-.79806c-.0071-2.19006-.038-4.38139.02557-6.5698.03-1.03281.23864-2.0589.32186-3.09689.18316-2.28711.45789-4.56835.75035-6.84492.36214-2.82038.77508-5.6343,1.17507-8.44974.35387-2.49126.70405-4.98324,1.08516-7.47039.38938-2.54165.8314-5.0753,1.21543-7.61772a5.1712,5.1712,0,0,1,1.14691-2.66329,41.059,41.059,0,0,0,3.64527-5.25862c1.774-2.95626,3.566-5.902,5.31124-8.87507,1.27408-2.17019,2.48349-4.37824,3.72557-6.56728.297-.52345.61707-1.0339.91144-1.55876a3.225,3.225,0,0,0,.55073-1.35568.38929.38929,0,0,0-.12843-.28251.32115.32115,0,0,0-.43609.03785,1.79987,1.79987,0,0,0-.30966.37743c-.371.60721-.75335,1.20882-1.0931,1.83342-2.58936,4.76043-5.32344,9.4368-8.12671,14.07382a75.13265,75.13265,0,0,1-4.19232,6.2799,2.06288,2.06288,0,0,1-.29462.39305c-1.216.97672-1.46292,2.36816-1.68042,3.79213-.72678,4.759-1.50219,9.51065-2.20516,14.273-.42313,2.86662-.75185,5.74727-1.11248,8.62291-.30607,2.44029-.67021,4.87637-.87543,7.32548a62.09264,62.09264,0,0,0-.42079,8.35085,11.83994,11.83994,0,0,1-.07395,1.80125.648.648,0,0,1-.64314.62777.6954.6954,0,0,1-.7404-.52946,5.51109,5.51109,0,0,1-.16778-1.29123c-.01872-1.58774-.00744-3.17585-.008-4.76382-.00058-1.2594.00142-2.51886-.00125-3.77828a13.41462,13.41462,0,0,1,.18424-2.45174,10.59617,10.59617,0,0,0,.13637-1.79657c.017-1.80685.00376-3.61394.00869-5.421a30.20761,30.20761,0,0,1,.24048-4.41914,25.84514,25.84514,0,0,0,.085-3.60736,15.63206,15.63206,0,0,1,.23922-3.43273,4.246,4.246,0,0,0,.08172-1.14355,28.948,28.948,0,0,1,.51572-5.38254c.27139-1.94981.56176-3.89783.78109-5.85363a5.31876,5.31876,0,0,1,.7318-2.323,6.96652,6.96652,0,0,0,.94044-2.2624,4.5927,4.5927,0,0,1,.573-1.35407c1.97571-3.34482,3.98786-6.66928,5.9-10.05018,1.72371-3.04759,3.34489-6.15346,4.988-9.246a10.81025,10.81025,0,0,0,.82363-1.96477,14.00085,14.00085,0,0,1,1.75479-3.69434,27.22475,27.22475,0,0,0,2.12169-4.79576.65641.65641,0,0,0-.03534-.62783.29336.29336,0,0,0-.42481-.11656,2.03694,2.03694,0,0,0-.644,1.11528,37.34765,37.34765,0,0,1-1.72137,3.72551c-.14706.2936-.30148.58375-.46048.87111a1.39494,1.39494,0,0,1-1.505.76127c-.9767-.12026-1.959-.21025-2.92752-.3791a13.16744,13.16744,0,0,0-4.73369.0042,3.41522,3.41522,0,0,1-.81377.09425c-2.08827-.12293-4.14252.30139-6.21876.37672-.87092.03163-1.73624.20559-2.60507.3067q-2.52377.29379-5.049.57594a10.57257,10.57257,0,0,1-1.14591.0748c-1.20523.002-2.39818.151-3.59581.24144a27.45209,27.45209,0,0,1-6.551-.11243c-.86131-.14173-1.75153-.11886-2.60666-.28435-1.17991-.2283-2.35239-.51918-3.50465-.86181a60.08742,60.08742,0,0,1-10.72944-4.0758c-.388-.20194-.77683-.40594-1.14649-.63873a1.56428,1.56428,0,0,1-.75979-1.21073c-.13929-1.5235-.2607-3.04867-.37843-4.574a4.99458,4.99458,0,0,1,.0188-.82035c.06091-.6864.2673-.88287.91947-.86432.43742.01241.87585.03812,1.31093.08471,1.73816.186,3.47331.40383,5.21365.56581.81535.07593,1.64006.057,2.46068.07178a44.26789,44.26789,0,0,1,6.06117.26463,25.21323,25.21323,0,0,0,3.77237.06346,13.78217,13.78217,0,0,1,2.45116.19143,11.57607,11.57607,0,0,0,1.797.13319,63.93159,63.93159,0,0,1,6.88237.26918,40.40726,40.40726,0,0,0,5.08656.06463,16.89548,16.89548,0,0,1,3.59765.23728,6.98493,6.98493,0,0,0,1.472.08609c3.833.00639,7.668.07957,11.49842-.01913a20.75066,20.75066,0,0,0,9.17067-2.2479,5.72253,5.72253,0,0,0,1.50161-.99043,3.84341,3.84341,0,0,1,2.84688-1.02138,37.20733,37.20733,0,0,1,8.45643.993c1.12569.22911,2.236.537,3.34781.82981a14.663,14.663,0,0,0,3.39778.51847c1.03452.02523,2.06579.20058,3.09756.31781,1.57439.17885,3.14652.37789,4.72233.54377,1.52175.16016,3.04742.28313,4.57017.43408.97887.09707,1.95574.21489,2.93345.32376,1.629.18142,3.25707.37187,4.88736.54212,1.52191.15893,3.04642.29327,4.56925.44448q2.60925.25913,5.21741.52992a4.41361,4.41361,0,0,0,.65016.08456,37.41337,37.41337,0,0,1,5.5564.42974c1.84729.18213,3.70961.19022,5.55139.49065,1.23506.20148,2.49887.25456,3.7493.38858a87.66547,87.66547,0,0,1,13.41163,2.30464,25.42286,25.42286,0,0,1,3.39218,1.23157,8.89663,8.89663,0,0,1,2.29,1.57416q2.53567,2.207,5.127,4.34966a16.79712,16.79712,0,0,0,4.16458,2.60415,4.23012,4.23012,0,0,1,2.11693,1.97129,16.469,16.469,0,0,1,.81811,1.60944c.78661,1.92571,1.6048,3.84189,2.29766,5.80181q2.21669,6.2711,4.31323,12.58454,2.77306,8.33814,5.46056,16.70465,2.34692,7.26683,4.63326,14.55321,2.66978,8.4563,5.3094,16.92213c.71742,2.29887,1.36391,4.6206,2.11835,6.907.47954,1.4534,1.07238,2.87158,1.6587,4.28718q3.20447,7.73634,6.44144,15.45918c4.91719,11.71023,9.63534,23.50127,14.30686,35.31073,1.69087,4.27455,3.378,8.55381,4.82427,12.921.37835,1.1424.87944,2.23671,1.19278,3.40764q1.91,7.13563,3.99663,14.22247a96.25816,96.25816,0,0,1,2.84672,13.1508c.326,2.21832.67247,4.43481.934,6.66107.19745,1.68113.14848,3.39832.43609,5.06019.39422,2.27832.15993,4.58613.53318,6.86612a27.61929,27.61929,0,0,1,.08205,4.09937,24.26644,24.26644,0,0,0,.27307,5.073,4.57249,4.57249,0,0,1,.04988.98234C196.22656-110.036,196.24052-107.13369,196.22038-104.23174Z" style="stroke: #000;stroke-miterlimit: 10;stroke-width: 2.8346457481384277px"/>
    </g>
  </g>
  <g>
    <path d="M132.21378,228.16126c-6.35241,14.51981-5.14243,36.602-5.14243,36.602" style="fill: #fff;stroke: #000;stroke-miterlimit: 10;stroke-width: 2.8346457481384277px"/>
    <path d="M140.4975,228.16126c-6.35241,14.51981-5.14243,36.602-5.14243,36.602" style="fill: #fff;stroke: #000;stroke-miterlimit: 10;stroke-width: 2.8346457481384277px"/>
    <path d="M142.80114,242.846c-8.39989-6.35241-21.17472-5.14243-21.17472-5.14243" style="fill: #fff;stroke: #000;stroke-miterlimit: 10;stroke-width: 2.8346457481384277px"/>
    <path d="M142.80114,251.12977c-8.39989-6.35241-21.17472-5.14243-21.17472-5.14243" style="fill: #fff;stroke: #000;stroke-miterlimit: 10;stroke-width: 2.8346457481384277px"/>
  </g>
  <g>
    <path d="M200,400.62687h0c-110,0-200-90-200-200H0c0-110,90-200,200-200h0c110,0,200,90,200,200h0C400,310.62688,310,400.62687,200,400.62687Z" style="fill: #12d247"/>
    <path d="M200,8.50391a189.05686,189.05686,0,0,1,74.33105,15.10425A193.4452,193.4452,0,0,1,376.39185,125.66895a190.45119,190.45119,0,0,1,0,148.66211A193.44465,193.44465,0,0,1,274.33105,376.39185a190.45119,190.45119,0,0,1-148.66211,0A193.4452,193.4452,0,0,1,23.60815,274.33105a190.45119,190.45119,0,0,1,0-148.66211A193.44576,193.44576,0,0,1,125.66895,23.60815,189.05686,189.05686,0,0,1,200,8.50391M200,0C90,0,0,90,0,200S90,400,200,400s200-90,200-200S310,0,200,0Z"/>
    <g style="clip-path: url(#b)">
      <g>
        <path d="M311.63732,255.45052a12.853,12.853,0,0,0-1.02293-1.57072c-.38043-.62175-.62222-1.33156-.99347-1.96283a6.60871,6.60871,0,0,0-2.88446-2.55795c-.77538-.405-1.54759-.40908-.81465-1.12879.33642-.33027,1.172-.71274,1.01862-1.18526-.14419-.444-1.2398-.821-1.55659-1.22793-.36245-.46266-.56518-1.09154-1.04016-1.43354,1.03951-.43646,2.37613.33852,3.474.14883a4.19147,4.19147,0,0,0-.09052-.52946,1.16991,1.16991,0,0,0,.39109-.22768c.56538-.5018.299-1.35095.06112-2.07369-.29238-.89338-.65657-1.84673-.97389-2.71024a12.98281,12.98281,0,0,0-1.3922-2.56416,11.92619,11.92619,0,0,1-1.64732-2.43282,8.34207,8.34207,0,0,0,2.31557-3.82971,26.66278,26.66278,0,0,0,.51307-4.94792,14.97977,14.97977,0,0,0-3.63089-10.51219.70472.70472,0,0,1,.15861-.29739c.5956-.60368,2.6982-.01292,2.923.69825.55631-.55483.05457-2.80083-.093-3.54853-.26553-1.3255-.62377-2.69264-.84747-4.02955-.20689-1.233-.41895-2.49182-.71731-3.71a24.109,24.109,0,0,0-.85338-3.59677c1.84268-.19722,3.00766.82956,4.47354,1.66927a16.47654,16.47654,0,0,1,2.0275.9576c.58066.43382,1.16934.793,1.73816,1.2588.05648-3.125-2.58394-5.48957-4.5312-7.48665a10.22412,10.22412,0,0,0-4.17648-2.67643,9.40087,9.40087,0,0,1,1.488.10859,9.05089,9.05089,0,0,0,2.88166.42911c-.02241-.64763-.91851-1.52712-1.362-1.93084-.57534-.52489-1.183-1.196-1.81851-1.67615-1.35972-1.02844-2.81368-1.91573-4.23621-2.86955-.39157-.26162-1.649-.71911-1.39342-1.18749.25826-.47381,1.5935-.39673,2.0286-.38984a17.76759,17.76759,0,0,1,4.05425.85583,13.12153,13.12153,0,0,1,3.2699,1.05762,7.63854,7.63854,0,0,0,3.16037.95347c-1.662-2.969-6.12493-4.03412-9.024-4.95109-1.39467-.44012-2.77464-1.103-4.18619-1.60427,1.25753-.31988,1.16152-1.45,1.22528-2.78721a30.80531,30.80531,0,0,0-.35794-4.49961,49.96509,49.96509,0,0,0-1.59043-8.748,16.27237,16.27237,0,0,0-1.928-4.74633A17.32406,17.32406,0,0,1,294.501,159.789c-.26948-.5645-1.08461-1.41935-1.11875-2.05406a2.98357,2.98357,0,0,0-.15236-.2843c1.02956.00724,2.13746.81842,3.09733,1.1205a15.66093,15.66093,0,0,1,2.60984,1.19033c1.66957.8917,3.42749,1.33789,4.77068,2.86165.12241-1.28272-1.5256-3.28539-2.22149-4.3439a10.6342,10.6342,0,0,0-3.05268-2.73157,12.27809,12.27809,0,0,1-1.39155-1.48919,17.6365,17.6365,0,0,0-1.49789-1.20674,16.18466,16.18466,0,0,0-5.004-2.39865c-.04827-.01706-.098-.0287-.145-.04507-.01153-.14071-.02559-.28275-.04755-.42752-.02717-.18214-.06213-.35476-.10365-.51933a2.76517,2.76517,0,0,1,.31762-.06735c.47577-.06443.96682.04109,1.44257-.01242.737-.083,1.43928-.38886,2.16856-.50649.90185-.14453,5.30461-.59406,5.4216-1.72525a42.12153,42.12153,0,0,0-4.8339-1.07868,12.69108,12.69108,0,0,0-2.17215-.45165,15.138,15.138,0,0,1-2.31608-.28679c-.70665-.15272-1.463-.23428-2.18659-.41967-.79012-.20186-1.41961-.37219-.55749-.974l.217-.07984c.944-.34353,1.95051-.568,2.89834-.8769.17779-.05807.98166-.217,1.06946-.38812.15077-.29191-.03324-.38192-.20817-.50594.11508-.0453.23017-.09875.34652-.13932-.19456-.06832-.38388-.1461-.5732-.22054a.53682.53682,0,0,1,.0173-.17524l-.52524-.03015a35.76571,35.76571,0,0,1-5.74578-3.36825,17.27311,17.27311,0,0,0-3.63581-1.799c-.0821-.10473-.16294-.2075-.232-.31088a7.41223,7.41223,0,0,0-.91381-1.23494c.0786-.10994.1572-.21856.22664-.33394.3499-.57969,1.85182-1.66154,1.725-2.34665-.10617-.56964-.96348-.45356-1.4468-.54619a15.85441,15.85441,0,0,1-2.38831-.83049c-.78742-.29356-1.58267-.545-2.38324-.78156a2.22811,2.22811,0,0,1-.45382-.505c-.53367-1.169.86434-1.10538,1.68634-1.18617,1.712-.16822,3.36723.68407,4.98373.60134a11.69834,11.69834,0,0,0-2.24556-3.28729,21.07485,21.07485,0,0,0-3.25146-2.63952,13.66866,13.66866,0,0,0-4.23423-1.75513,14.14365,14.14365,0,0,1-4.21213-2.489,20.032,20.032,0,0,1-3.30207-2.81356,15.8,15.8,0,0,1-2.5276-3.37072,5.67239,5.67239,0,0,0-1.46854-2.29452,6.06454,6.06454,0,0,0,1.60135-1.168c.50144-.54679.57489-.73495-.21529-.90549a10.07742,10.07742,0,0,1-1.81153-.434,30.10648,30.10648,0,0,1-3.89977-1.77493,3.06088,3.06088,0,0,1-1.466-1.46824c-.21442-.67921.4041-.92952.87539-1.45124a5.13424,5.13424,0,0,0,1.67314-2.6179,12.18183,12.18183,0,0,1-1.999-.03205c-.68182-.15818-1.33424-.64041-2.03949-.8353a45.26657,45.26657,0,0,1-4.48038-1.511,29.52171,29.52171,0,0,1-4.17841-2.33806,10.044,10.044,0,0,0-1.93483-.88813,17.37213,17.37213,0,0,0,2.11945-.80626c.76518-.45051.44291-.70449-.05137-1.22048a11.91727,11.91727,0,0,0-2.82348-2.32342,7.8997,7.8997,0,0,0-3.67086-1.15414c-.64417-.00044-1.27-.0444-1.89578-.07877a4.14121,4.14121,0,0,0-1.07817.09252c.09317-.21519.18633-.42843.2821-.63888.24131-.533,1.14517-1.81635.66012-2.40906-.2777-.33956-1.267-.22169-1.6666-.37394a17.30158,17.30158,0,0,0-2.096-.60982c-1.08015-.26624-2.17744-.41492-3.26942-.60778,1.12045-.39081,2.50087-.74644,2.83144-1.48384-.88328-.715-2.02893-.86242-2.95422-1.50823a7.87328,7.87328,0,0,0-3.2008-1.73835,28.68105,28.68105,0,0,0-9.53931-.16766,31.66371,31.66371,0,0,0-4.07992,1.11467c.4808-.72829,1.02817-1.41361,1.4842-2.15753.44811-.73239.11108-.77376-.73012-.91795a13.59313,13.59313,0,0,0-2.23416-.07936,15.80665,15.80665,0,0,0-3.837.42673,15.2289,15.2289,0,0,0-4.7112,1.9541c-.84637.54556-2.22161.9243-2.82676,1.78757a9.08374,9.08374,0,0,1-1.38622-1.55306c-.63613-.84305-.77277-1.88764-1.49661-2.65069-.53284.56107-.53423,2.111-.6585,2.92821a15.94658,15.94658,0,0,0-.22134,2.53821l-1.01056-1.19426c-1.60589.02639-3.91775-1.20962-5.3891-1.87135a41.96051,41.96051,0,0,0-5.75347-2.00587c-3.57047-1.02552-7.29481-2.99991-10.9788-3.38624,2.06117.37666,3.81531,4.44858,4.774,6.15452-3.78453-2.62821-9.22359-2.87973-13.65594-1.95661,3.32343-.42763,10.37894,4.166,11.24041,7.6656-4.20641-1.25772-8.78709-.7154-13.03971-.23228-3.86185.43893-8.59389,1.62043-11.58038,4.34408.1437-.0106.71229-.09184,1.43366-.16941a16.186,16.186,0,0,0,3.47986,1.30535c-.03015.02646-.05367.05021-.08637.07729.13327.00566.28477.01.44552.01575a15.62431,15.62431,0,0,0,2.25192.40761c.34059.21665.48376.55124.22146,1.08147-.41042.83168-2.889,1.553-3.7168,1.94569-1.98254.941-5.57163,1.56251-6.12073,3.22773-.57022.334-1.09743.69116-1.45706.87395-1.52492.774-3.18908,1.25422-4.7257,2.02136a27.55521,27.55521,0,0,0-2.79361,1.50221,14.26636,14.26636,0,0,0-2.40452,2.408c-1.01719,1.09564-2.10894,2.24682-2.25281,3.83253a3.46471,3.46471,0,0,0-.06394.66578c2.01962-.49722,4.61571-1.8659,6.71685-1.20312-1.98768.93355-2.86025,3.02627-4.20249,4.68119a29.51256,29.51256,0,0,0-3.20984,4.86983c-.51777.97281-.60985.56831-1.28168-.0621a11.26108,11.26108,0,0,0-1.59077-1.11582,16.29634,16.29634,0,0,1-1.51906-1.07291c-.32351-.26825-1-1.20851-1.392-1.26292l-.1109-.08787c.10216,1.364,1.19518,3.21279,1.7325,4.51025.14309.34544.28362.70306.42279,1.06756-.87671-.03828-1.84655.153-2.68523.06318a30.94544,30.94544,0,0,0-3.4006-.31041,19.15028,19.15028,0,0,0-3.7653.503c-1.11882.21958-2.42154.21387-3.3037,1.06851,1.7411.35981,3.54724.88485,5.32638,1.134.77336.10873,1.54764.422,2.33143.5355.6923.10044,1.56.07136,2.07385.58327-3.22243,1.653-6.96278,2.841-9.698,5.34623-1.31529,1.20582-2.49227,2.55188-3.69925,3.8313a13.1824,13.1824,0,0,0-2.52163,3.6078c-.24267.54453-.45145,1.10951-.64315,1.65956a14.98366,14.98366,0,0,0,3.28716-1.33351,18.53564,18.53564,0,0,1,4.06971-1.23631c1.13708-.18621,2.2718-.4791,3.41926-.63607,1.188-.1624,2.36662-.19017,3.55707-.25466-.06547.06376-.12961.12884-.19113.18718-.69237.66064-1.37681,1.30765-2.09789,1.93428a25.72656,25.72656,0,0,0-4.26016,4.03822,32.29659,32.29659,0,0,0-2.81226,4.68433,21.86856,21.86856,0,0,0-2.04566,4.87251,7.4637,7.4637,0,0,0,2.8069-.87908,28.08583,28.08583,0,0,1-3.70946,4.42655,32.78019,32.78019,0,0,0-5.18036,5.71094,10.7307,10.7307,0,0,0-1.77148,3.52618,21.28564,21.28564,0,0,0-3.71192,7.30359,30.18943,30.18943,0,0,0-1.10645,5.77656,18.23284,18.23284,0,0,0-3.66458,1.96547,13.9015,13.9015,0,0,0-3.9798,3.59229,14.503,14.503,0,0,1,4.69246-.20576c1.09867.12426,3.7722.02975,4.426,1.21733-.82037.64-1.96923.83777-2.83409,1.5157a21.47476,21.47476,0,0,0-2.93583,2.895c-.94535,1.10593-2.01715,2.054-2.93634,3.15521a26.52341,26.52341,0,0,0-2.16855,3.46369c1.076-.36779,1.88378-1.27009,3.0171-1.56569a16.48563,16.48563,0,0,1,4.57387-.36566c.35409.01009.70682.02226,1.05962.0338a13.27247,13.27247,0,0,0-2.35977,2.22119,14.486,14.486,0,0,0-2.56233,4.45641A26.36455,26.36455,0,0,0,93.49,205.08655a27.30352,27.30352,0,0,0-.22328,3.6282,12.45693,12.45693,0,0,0-.005,2.85936.61873.61873,0,0,1-.06206.36547,22.88236,22.88236,0,0,0,2.8003-2.33738,14.747,14.747,0,0,1,2.03018-1.32751c-.35531.68969-.64125,1.3429-.78559,1.66606-.84738,1.88826-.9023,4.11762-1.09535,6.15712a12.66907,12.66907,0,0,0,.22409,3.3531,1.14966,1.14966,0,0,0-.12565.12412,4.5708,4.5708,0,0,0-.47191,3.839,10.8057,10.8057,0,0,0,.9608,2.69734,14.34775,14.34775,0,0,0-2.03728.15881c-2.78127.45037-6.06576,1.70978-7.83,4.09379,1.99884.17066,4.202.06105,6.06284.69766a9.336,9.336,0,0,1-1.70805,1.66242c.94176.179,1.75237.63572,2.70451.84739.73273.1623,1.98482-.025,2.59693.36264-2.43992,1.00477-3.645,3.423-5.55421,5.0281a11.9311,11.9311,0,0,0-3.69366,5.86232,19.101,19.101,0,0,1,6.74219-2.257c.26929-.04844.53853-.1037.80781-.15625-.21974.86124-.35472,1.84223-.46419,2.41553a14.48441,14.48441,0,0,0-.57463,2.78836c1.49305.22891,3.00255-.71028,4.468-1.093a9.96151,9.96151,0,0,0,1.46406,2.5949,2.37248,2.37248,0,0,1,.05824,1.07917c-.15642.49848-.91324.68947-1.302,1.04957a3.70406,3.70406,0,0,0-.93061,1.65773c-.4729,1.40707-.82943,2.81915-1.271,4.22969A15.30768,15.30768,0,0,0,95.1267,261.703c-.00092.51984-.01143,1.3223.41256,1.67708.46707.39152,1.13.13315,1.68268.13273,1.32105.001,2.65989.23848,3.97815.30871a14.58845,14.58845,0,0,0,5.71692-.98334c1.89463-.75092,4.04868-1.182,5.98133-2.01845.03531.00953.06533.01911.10317.02871a8.86292,8.86292,0,0,0,1.73733.28709c.844.0463,1.10178-.16116,1.24386.75506a6.65237,6.65237,0,0,0,.25436,1.74812c.28646.56042.6615.52031,1.31873.51263,1.35635-.01521,2.71472-.46746,4.12334-.537a96.37754,96.37754,0,0,0,9.98631-1.336,102.74032,102.74032,0,0,1,10.56778-.64254c.40772-.01967.82184.01439,1.22562-.0135-.63114-.71453-1.84552-1.15364-1.64346-2.38383a6.57178,6.57178,0,0,1,1.79887.21518c.59307.06965,1.19808.04964,1.80821.08063a17.68748,17.68748,0,0,1,4.05218.55071,9.9651,9.9651,0,0,1,1.60544.94941,10.61943,10.61943,0,0,0,2.15215.6772c.87372.21759,1.7565.49775,2.64593.71815a5.39512,5.39512,0,0,0,2.20537.88583c.54194.15723,1.03257.54274,1.6033.68778a9.24031,9.24031,0,0,0,2.15562.15055c.31884-.00006.63248-.01106.94739-.01733l.00125.01225c.56238,1.20231,2.87525,1.10723,3.89581,1.06687,3.63653-.14034,7.25262-.51312,10.93206-.50663,1.02048.0018,2.5161.2504,3.43682-.23449.616-.32511.64835-.89312.80511-1.58121a2.49177,2.49177,0,0,0,.4045-.43278,6.83686,6.83686,0,0,0,.7183-1.29114c.06909.083.13819.16265.20865.2334.49564.50172,1.13459.50347,1.735.85181a5.18413,5.18413,0,0,0,1.8816.72223c1.24347.22026,2.45219.90735,3.67073,1.22546a11.69805,11.69805,0,0,0,2.2377.307,7.76439,7.76439,0,0,1,2.33127.58915c1.73938.60508,4.02394.25035,5.84934.25356,1.54831.00273,3.92692.452,5.37439-.14138.76883-.316.89523-.86547,1.08462-1.57863.1171-.44421-.11677-.44733.29128-.6953a2.69171,2.69171,0,0,1,1.22964-.05489c1.78993.08874,3.60391-.10783,5.35429.14192,1.65119.23462,3.36821.167,5.00775.33161a37.154,37.154,0,0,1,3.81908.8289,20.85678,20.85678,0,0,0,3.16272.34262c1.81983,1.64491,4.42233,1.08143,6.82216,1.333a1.94164,1.94164,0,0,0,1.80774-.37527,7.325,7.325,0,0,1,2.17236-1.18191,18.26963,18.26963,0,0,1,11.666.47444c1.41425.451,2.93756.55967,4.39253.91083a29.325,29.325,0,0,0,4.57984.68419c1.4214.11933,2.84607.5785,4.265.59255,1.8306.01749.30408-1.264.43411-2.3945,1.0826-.40173,2.76144.43161,3.83772.65227.78892.16177,1.53575.48379,2.31554.62927.70014.129,1.42685-.01384,2.13489.07035a30.79719,30.79719,0,0,0,5.24915.46452,35.39867,35.39867,0,0,0,4.10651-.59485c1.107-.18418,1.08027-.5974.14307-1.12634-.3355-.1902-.64088-.3871-.93321-.59009.50338-.17035,1.01086-.46573,1.44105-.6335a4.2447,4.2447,0,0,1,2.1041-.26265c1.24494.14351,2.56442.27769,3.77654.519,1.56088.31127,3.00451,1.13738,4.59407,1.49623a48.23532,48.23532,0,0,0,4.851,1.004c.9079.10555,1.83428.1289,2.76163.32285a12.194,12.194,0,0,0,2.80337.36238,8.65636,8.65636,0,0,0,4.95956-2.0087c1.61827-1.13056,6.32472-3.3497,3.61231-5.63626a6.13327,6.13327,0,0,0-3.74979-1.61707C307.25607,255.5414,309.77261,255.54444,311.63732,255.45052ZM156.0891,90.82138l-.49077-.3073A.76676.76676,0,0,1,156.0891,90.82138ZM102.36916,192.10331l-.012.12091-.24671-.12269C102.19669,192.10168,102.28292,192.10316,102.36916,192.10331Zm175.55056,70.89491a.51621.51621,0,0,1,.28465.07795.50293.50293,0,0,1,.15622.33461C278.20931,263.27733,278.06183,263.14111,277.91972,262.99822Z" style="fill: #fff;stroke: #000;stroke-miterlimit: 10;stroke-width: 2.8346457481384277px"/>
        <path d="M199.2903,109.17545a12.59324,12.59324,0,0,0-1.50439,8.409c-2.70153-2.53933-5.14226-5.50758-9.09612-5.51455a.60363.60363,0,0,0-.00212,1.204c.80359.00142,1.64893,1.51957,2.24641,2.77023-4.492-1.54559-8.35574-1.5334-11.343,3.13225a.60818.60818,0,0,0,.49754.90669,8.269,8.269,0,0,1,6.44158,3.72755c.43662.61635,1.44383.01883.99932-.60638a9.63714,9.63714,0,0,0-6.38721-4.20318c2.88772-3.7301,6.63637-2.94885,10.76112-1.32709.51316.202.86186-.45647.65483-.88357a22.29373,22.29373,0,0,0-1.67084-3.1334c2.89626,1.02433,4.92172,3.8968,7.3185,5.87971a.58628.58628,0,0,0,.96792-.584c-.60884-3.00587-.61826-6.542,1.115-9.16724C200.7133,109.14331,199.70954,108.53952,199.2903,109.17545Z" style="fill: #231f20;stroke: #000;stroke-miterlimit: 10;stroke-width: 0.140478613983039px"/>
        <path d="M242.70784,129.32253c-3.4605-6.333-8.03222-12.34854-15.00533-14.05075a12.59455,12.59455,0,0,1,7.19883-1.11328c.56305.05944.80909-.8778.29466-1.12134-5.49759-2.606-13.40931-4.75362-18.63345-.88284a62.4814,62.4814,0,0,1,4.57461-6.74758.60642.60642,0,0,0-.49754-.90738c-3.71759.16267-7.19425,2.193-8.28815,6.04724a.58044.58044,0,1,0,1.11531.322,7.13777,7.13777,0,0,1,5.92006-5.02607c-2.00272,2.75258-4.02081,5.3753-5.11254,8.72128-.22728.69952.6921.9709,1.05752.46667,3.80244-5.25475,10.96743-4.212,16.52735-2.12219a12.43722,12.43722,0,0,0-6.12788,2.11874.61289.61289,0,0,0,.2907,1.12307c6.14354.83578,10.41358,5.277,13.68031,10.37571a16.238,16.238,0,0,0-10.21934-3.54605.6117.6117,0,0,0-.29466,1.12134c2.95441,2.12054,4.62579,5.73984,7.70475,7.63968.64474.398,1.22933-.642.5872-1.038-2.54255-1.56867-4.15786-4.36019-6.32836-6.47114a17.24973,17.24973,0,0,1,10.64532,5.819C242.25228,130.56111,243.02827,129.90883,242.70784,129.32253Z" style="fill: #231f20;stroke: #000;stroke-miterlimit: 10;stroke-width: 0.140478613983039px"/>
        <path d="M167.51979,112.85744c-4.79042-1.26689-9.85781-1.0869-13.957,2.04246-.40689.31122-.347,1.19125.2907,1.12307a8.78281,8.78281,0,0,1,3.821.50278c-3.50893,1.10141-6.27615,3.23289-7.48,7.15828a.58034.58034,0,0,0,1.11531.32134c1.28259-4.178,4.56542-5.975,8.48407-6.78961.61958-.12937.48123-.96334.002-1.16124a15.88785,15.88785,0,0,0-3.95168-1.20223c3.49718-1.87469,7.498-1.85678,11.36649-.83478A.60162.60162,0,0,0,167.51979,112.85744Z" style="fill: #231f20;stroke: #000;stroke-miterlimit: 10;stroke-width: 0.140478613983039px"/>
        <path d="M172.46371,131.60689a28.73076,28.73076,0,0,0-3.34256-4.32076c-.93646-.976-2.2788-2.19061-3.70728-2.011-.73057.09244-.74184,1.29791-.00212,1.2041,1.24026-.15549,2.3435,1.08855,3.13773,1.91762a25.36628,25.36628,0,0,1,2.91357,3.81645C171.87742,132.85344,172.882,132.25313,172.46371,131.60689Z" style="fill: #231f20;stroke: #000;stroke-miterlimit: 10;stroke-width: 0.140478613983039px"/>
        <path d="M160.27593,141.00337a12.917,12.917,0,0,0-8.778-2.90747c-.45476.02912-.83085.66311-.41076,1.02671,2.51792,2.18017,3.652,5.22364,4.43947,8.40036a15.856,15.856,0,0,0-10.986-3.01664c-.52267.03171-.85861.85127-.29466,1.12064a48.443,48.443,0,0,1,6.93954,4.42764c.61985.43869,1.19923-.6047.58586-1.03858-1.62469-1.14852-3.21022-2.31325-4.89792-3.32188a13.69916,13.69916,0,0,1,9.21274,3.87375.58535.58535,0,0,0,.96792-.58333c-.76081-3.51164-1.74111-7.02778-4.0923-9.66975a12.38768,12.38768,0,0,1,6.72825,2.72712C160.29028,142.5051,160.86832,141.461,160.27593,141.00337Z" style="fill: #231f20;stroke: #000;stroke-miterlimit: 10;stroke-width: 0.140478613983039px"/>
        <path d="M145.322,151.90886c-5.17191-4.28523-11.7054-5.54565-17.29342-1.3283-.42912.32266-.33652,1.15049.29071,1.12167a13.74808,13.74808,0,0,1,11.807,5.75715c-3.58159-.67353-7.32761-.71-10.69763.908-3.69174,1.7731-6.4318,4.7737-8.81574,8.11267-.18594.24564-.36668.49679-.53968.75943-.42575.64615.57015,1.23224.99853.6099.15454-.224.31306-.44178.47026-.66235a10.25027,10.25027,0,0,1,7.25912-4.196,12.0509,12.0509,0,0,1-.62355,3.86115c-.202.45088.12753,1.05076.653.88588a78.01559,78.01559,0,0,0,8.24791-3.25794c.68526-.30321.09649-1.34115-.5822-1.04-2.28184,1.01047-4.56493,1.97815-6.91825,2.77857.26216-1.205.22379-2.43634.43773-3.71612a.60648.60648,0,0,0-.55654-.76338,11.47435,11.47435,0,0,0-4.05608.90541,18.63526,18.63526,0,0,1,4.00214-2.94542c3.67383-1.97492,7.96557-1.68876,11.86812-.77a.602.602,0,0,0,.65616-.88357,15.15234,15.15234,0,0,0-11.62488-7.50047c4.728-2.53438,9.93269-1.31971,14.19785,2.2137C145.08059,153.23757,145.90654,152.39236,145.322,151.90886Z" style="fill: #231f20;stroke: #000;stroke-miterlimit: 10;stroke-width: 0.140478613983039px"/>
        <path d="M153.34774,196.88034a12.152,12.152,0,0,0-10.04966-4.20817.61149.61149,0,0,0-.29466,1.12134,11.68739,11.68739,0,0,1,2.64806,2.52017,17.02417,17.02417,0,0,0-12.68962,2.042c-.62126.35906-.16279,1.18886.44361,1.10156a11.5059,11.5059,0,0,1,5.86528.81289c.70385.26551,1.00641-.89861.31045-1.16076a14.06029,14.06029,0,0,0-3.66089-.88095,16.318,16.318,0,0,1,11.07422-.35358c.60468.17029.90385-.55694.56493-1.00466a22.54426,22.54426,0,0,0-2.5531-2.98341,11.12289,11.12289,0,0,1,7.522,3.84294C153.0369,198.3,153.855,197.448,153.34774,196.88034Z" style="fill: #231f20;stroke: #000;stroke-miterlimit: 10;stroke-width: 0.140478613983039px"/>
        <path d="M138.26015,204.30388c-3.33144-.23013-5.94337,1.24387-8.13382,3.77457a.612.612,0,0,0,.40714,1.02878,17.23823,17.23823,0,0,1,2.3748.36907c-6.08376,2.29214-11.01948,7.818-14.09095,13.55576a.58959.58959,0,0,0,.90806.73137c3.09205-2.52974,6.40582-4.87979,10.20586-5.80944-4.13312,3.84828-3.81364,12.37185-3.49724,17.43813a.57952.57952,0,1,0,1.159.002c.22888-5.32555,4.28834-10.38892,9.47414-11.02258.73183-.0891.74312-1.2945.00212-1.2041a12.37261,12.37261,0,0,0-9.66056,7.81636c-.05064-5.394.73051-11.94171,5.57817-13.46479.61313-.19187.51951-1.20792-.15079-1.18259-4.31213.16225-8.00942,2.12224-11.42542,4.62629,3.40116-5.20439,8.35482-9.78573,14.2917-11.06565.67579-.14493.4672-1.134-.15207-1.18259-1.28422-.10149-2.51835-.44885-3.78151-.66108a8.0851,8.0851,0,0,1,6.48922-2.54554C139.00407,205.55954,139.001,204.35543,138.26015,204.30388Z" style="fill: #231f20"/>
        <path d="M248.15036,204.72241a12.15106,12.15106,0,0,1,10.06443-4.1728.61194.61194,0,0,1,.2907,1.12307,11.73247,11.73247,0,0,0-2.65818,2.51019,17.02627,17.02627,0,0,1,12.68367,2.08738c.62.36055.1586,1.18935-.44755,1.1a11.49819,11.49819,0,0,0-5.86811.79144c-.70471.2631-1.00317-.90138-.30629-1.16109a14.007,14.007,0,0,1,3.664-.86811A16.31437,16.31437,0,0,0,254.5001,205.74c-.6066.16746-.90195-.56012-.56138-1.00734a22.62539,22.62539,0,0,1,2.56226-2.97377,11.11708,11.11708,0,0,0-7.53414,3.81641C248.45626,206.1438,247.63979,205.28888,248.15036,204.72241Z" style="fill: #231f20;stroke: #000;stroke-miterlimit: 10;stroke-width: 0.140478613983039px"/>
        <path d="M263.21169,212.19971c3.33229-.21832,5.939,1.26418,8.12053,3.80322a.61158.61158,0,0,1-.41083,1.02671,17.32759,17.32759,0,0,0-2.37609.36139c6.077,2.31287,10.99186,7.85609,14.04317,13.60533a.58967.58967,0,0,1-.91071.72816c-3.083-2.54132-6.38859-4.90233-10.18526-5.84538,4.11946,3.86275,3.77,12.38452,3.4357,17.44958a.57948.57948,0,1,1-1.159-.002c-.21011-5.32563-4.2517-10.4039-9.43523-11.05513-.73158-.09237-.73855-1.29781.00212-1.2041a12.37384,12.37384,0,0,1,9.633,7.84959c.06965-5.393-.68842-11.94351-5.532-13.4836-.61112-.1941-.514-1.21044.15629-1.182,4.31154.17675,8.00189,2.15045,11.409,4.66583-3.38279-5.21572-8.32027-9.81511-14.25267-11.11532-.67529-.14794-.46315-1.13624.15495-1.18275,1.2859-.09626,2.52126-.43928,3.78515-.64767a8.08618,8.08618,0,0,0-6.48027-2.56769C262.46342,213.4528,262.47076,212.248,263.21169,212.19971Z" style="fill: #231f20"/>
        <path d="M196.95179,200.16856c-3.98249-5.24739-12.06228-6.92371-18.15035-6.63135-.62984.03013-.81711,1.026-.15629,1.18274,3.58.84546,6.87867,2.633,8.757,5.91759-4.12-.57261-8.25812-1.31036-12.41914-.91545-4.34656.41164-8.04827,2.68007-11.27689,5.60508a.60369.60369,0,0,0,.56138,1.008c5.5121-1.90718,11.656-1.98945,16.91943.77183.66443.34838,1.253-.68887.5872-1.03865a21.78971,21.78971,0,0,0-15.05068-1.67908,17.878,17.878,0,0,1,9.70406-3.57475c3.9987-.2335,8.05677.65567,12.0084,1.16953.482.062.65951-.5438.50073-.90555a12.45919,12.45919,0,0,0-6.32346-6.25307c5.031.43832,10.51174,2.231,13.51916,6.19234C196.59514,201.62746,197.40939,200.77068,196.95179,200.16856Z" style="fill: #231f20;stroke: #000;stroke-miterlimit: 10;stroke-width: 0.140478613983039px"/>
        <path d="M180.85644,210.02017c-5.19049-1.14186-9.56476,2.38857-12.90848,6.1281a48.70687,48.70687,0,0,0-9.06784,15.5284c-.2416.66.72078,1.0205,1.05752.46527a10.89687,10.89687,0,0,1,6.52113-5.05555c-.46965,1.07344-.78651,2.18931-1.34244,3.25313-.26742.50984.2802,1.16041.79036.825a11.262,11.262,0,0,1,2.75394-1.23592c-3.64274,4.37365-6.09933,10.40737-4.78842,16.12571.17241.75519,1.29018.43716,1.11637-.31741-1.3939-6.07857,1.905-12.56072,6.05558-16.6644.4057-.40153-.007-1.21086-.5614-1.008-1.24606.45648-2.48659.76818-3.67,1.27508a16.11,16.11,0,0,1,1.23842-2.80285.60241.60241,0,0,0-.65178-.88587,11.636,11.636,0,0,0-5.94877,2.83122,52.70107,52.70107,0,0,1,5.85243-9.6971c3.08949-4.077,7.80691-8.80072,13.2443-7.60471C181.27486,211.34052,181.58656,210.18045,180.85644,210.02017Z" style="fill: #231f20"/>
        <path d="M196.86767,147.83094c-5.6524,2.17941-6.98381,7.37388-5.45885,12.46066a9.76963,9.76963,0,0,0-6.7548-2.46833c-.45736.01958-.82959.67055-.41076,1.02671,1.03592.88175,1.97492,1.86527,3.01214,2.7267a12.27682,12.27682,0,0,0-5.99233,2.34393.61117.61117,0,0,0,.29072,1.12167,16.49975,16.49975,0,0,1,8.58037,2.34178c.63951.40338,1.22282-.6366.58586-1.03865a16.62952,16.62952,0,0,0-7.29458-2.37889,12.38681,12.38681,0,0,1,5.4653-1.31944.61117.61117,0,0,0,.29466-1.12134,18.82568,18.82568,0,0,1-2.8782-2.39352,9.99508,9.99508,0,0,1,6.71277,4.82949.5849.5849,0,0,0,1.00061-.60575c-2.8164-4.81038-3.15476-10.77973,1.66126-13.64084-1.76839,4.01075-1.531,8.67666-.40165,12.90244a.57979.57979,0,1,0,1.1151-.31811c-1.20067-4.5011-1.3722-9.51341,1.12409-13.58264C197.78017,148.29254,197.3488,147.64489,196.86767,147.83094Z" style="fill: #231f20;stroke: #000;stroke-miterlimit: 10;stroke-width: 0.140478613983039px"/>
        <path d="M216.28988,216.47671c5.64336,2.19932,6.95778,7.39782,5.41356,12.47912a9.78072,9.78072,0,0,1,6.76474-2.44444c.45727.02119.82855.67417.40846,1.02809-1.04029.87816-1.98282,1.85836-3.02307,2.71676a12.26928,12.26928,0,0,1,5.98411,2.36441.61118.61118,0,0,1-.29466,1.12064,16.49238,16.49238,0,0,0-8.58729,2.31146c-.64227.40181-1.22185-.64084-.58353-1.04064a16.64392,16.64392,0,0,1,7.3029-2.35317,12.4006,12.4006,0,0,0-5.46062-1.33876.61074.61074,0,0,1-.29071-1.12167,18.86446,18.86446,0,0,0,2.888-2.38405,9.99484,9.99484,0,0,0-6.73109,4.8058.58488.58488,0,0,1-.99847-.6092c2.83341-4.80043,3.19273-10.76791-1.61317-13.64661,1.75432,4.017,1.50043,8.68193.35752,12.9037a.58094.58094,0,0,1-1.11658-.32128c1.21786-4.49753,1.40832-9.50927-1.07493-13.58728C215.3757,216.93378,215.80934,216.289,216.28988,216.47671Z" style="fill: #231f20"/>
        <path d="M233.00255,184.02042c-4.37776-1.14043-9.73807-.82437-12.78767,2.82327a27.54268,27.54268,0,0,0-4.60049-13.41474.58223.58223,0,0,0-1.05789.46155c1.16812,4.48-.75159,9.06059-1.39851,13.62161-1.125-2.2267-2.9552-3.93683-4.50373-6.06777a.58508.58508,0,0,0-1.00061.60638c1.28369,2.6,1.80308,5.19463.69939,7.9671-.28614.717.83309,1.02883,1.114.32134a9.24957,9.24957,0,0,0,.40172-5.54812,12.0155,12.0155,0,0,1,3.11363,5.95586c.10076.67762,1.15813.511,1.13709-.15769-.15106-4.74181,2.03531-9.4374,1.93128-14.14524a26.5044,26.5044,0,0,1,3.08967,12.14688.57949.57949,0,0,0,1.07868.30632c2.47883-4.52864,8.09138-4.85782,12.4744-3.7153A.60231.60231,0,0,0,233.00255,184.02042Z" style="fill: #231f20;stroke: #000;stroke-miterlimit: 10;stroke-width: 0.140478613983039px"/>
        <path d="M280.13539,156.40694c-5.70531-1.12447-11.74905-.05605-17.365,1.45614a9.88516,9.88516,0,0,1,1.41152-1.682.61013.61013,0,0,0-.40721-1.02885,14.11082,14.11082,0,0,0-10.80739,6.1359,16.09674,16.09674,0,0,1,.16581-2.18087.59164.59164,0,0,0-.84808-.68172,14.37839,14.37839,0,0,0-2.35682,1.30933,11.16831,11.16831,0,0,1,2.29377-5.58145c.35484-.42069.02569-1.2163-.56265-1.008-4.42306,1.57274-8.86882,5.61342-10.07027,10.43781a.58043.58043,0,1,0,1.11531.322c.93432-3.75324,4.08123-7.04125,7.49333-8.81763a18.23958,18.23958,0,0,0-1.65707,6.0997c-.07545.52514.54549,1.10382.96586.58744a6.88631,6.88631,0,0,1,2.38778-1.83176,25.85839,25.85839,0,0,1-.27036,3.658c-.13312.63852.74806,1.10411,1.05625.466a13.45481,13.45481,0,0,1,9.63266-7.54929,12.42527,12.42527,0,0,1-1.65643,2.01723.60359.60359,0,0,0,.56265,1.00665c5.00827-1.444,10.46432-2.7152,15.7398-2.34373a27.824,27.824,0,0,0-12.84093,8.56836c-.36007.42945-.02692,1.19383.56138,1.00734a7.91383,7.91383,0,0,1,5.29236-.287,16.02218,16.02218,0,0,0-3.544,2.4943.609.609,0,0,0,.40848,1.02885c3.10646-.37848,8.06785-1.94756,10.89864-.063.63166.42034,1.21364-.62166.5872-1.03858-2.52409-1.6801-6.23874-.98541-9.3651-.43649a7.41809,7.41809,0,0,1,2.66772-1.285.61647.61647,0,0,0,.14049-1.09983,6.88642,6.88642,0,0,0-5.4626-.97249,27.46039,27.46039,0,0,1,13.83084-7.5453A.6139.6139,0,0,0,280.13539,156.40694Z" style="fill: #231f20;stroke: #000;stroke-miterlimit: 10;stroke-width: 0.140478613983039px"/>
      </g>
    </g>
    <path d="M96.38019,187.32943c-2.5834,25.707-5.91085,94.37361.13906,114.33835-17.24227,3.025-18.75475,11.79734,4.83994,16.63728,14.507,2.9758,94.68123,27.22464,141.8706,11.49485s64.12914-23.44766,64.12914-23.44766,10.69624,11.38689,15.1248,3.48293-13.91481-18.75475-16.93977-29.6446-2.07828-86.24748-2.07828-86.24748Z" style="fill: #999;stroke: #000;stroke-miterlimit: 10;stroke-width: 2.8346457481384277px"/>
    <path d="M372.25252,228.87452c4.04343-5.00658,6.2674-10.46657,6.2674-16.18244,0-24.20181-39.85227-43.82124-89.01256-43.82124s-89.01256,19.61943-89.01256,43.82124a22.36927,22.36927,0,0,0,.9324,6.35995c-38.1155,8.27956-63.547,23.18424-63.547,40.19573,0,26.01509,59.4728,47.10449,132.8362,47.10449s132.8362-21.0894,132.8362-47.10449C403.55264,247.67395,391.7811,237.07519,372.25252,228.87452Z" style="fill: none"/>
    <path d="M89.42785,181.01118c-6.19955,3.05123-5.9374,29.11015,9.67577,26.19913s119.40779,9.4608,146.01616,8.24787,72.12847-10.9163,71.46875-19.40676-5.27769-21.34744-18.03212-15.04024-59.02036,10.23039-72.43449,10.54414S103.7216,173.97623,89.42785,181.01118Z" style="fill: #999;stroke: #000;stroke-miterlimit: 10;stroke-width: 2.8346457481384277px"/>
  </g>
</svg>
