<svg xmlns="http://www.w3.org/2000/svg" width="400" height="400" viewBox="0 0 400 400">
  <title>meme</title>
  <g>
    <polygon points="99.653 312.085 96.181 297.502 108.681 244.996 245.486 89.169 303.819 136.391 167.94 300.878 99.653 312.085" style="fill: #fff"/>
    <path d="M200,400.62687h0c-110,0-200-90-200-200H0c0-110,90-200,200-200h0c110,0,200,90,200,200h0C400,310.62688,310,400.62687,200,400.62687Z" style="fill: #666"/>
    <path d="M200,333.26576h0c-72.95139,0-132.63889-59.6875-132.63889-132.63889h0C67.36111,127.67548,127.04861,67.988,200,67.988h0c72.95139,0,132.63889,59.6875,132.63889,132.63889h0C332.63889,273.57827,272.95139,333.26576,200,333.26576Z" style="fill: #fff"/>
    <g>
      <path d="M200.0012,340.20482a139.578,139.578,0,1,1,98.73121-238.2855c54.39989,54.42364,54.42359,142.96895,0,197.39254a138.72722,138.72722,0,0,1-98.73121,40.893Zm.0237-255.45121A115.86139,115.86139,0,1,0,281.972,118.67853,115.10143,115.10143,0,0,0,200.0249,84.75361Z"/>
      <g>
        <path d="M239.9658,267.27347a6.516,6.516,0,0,1-6.50478-6.50478,33.44439,33.44439,0,0,0-66.88877,0,6.514,6.514,0,0,1-13.028,0,46.46315,46.46315,0,0,1,92.92629-.01227A6.51859,6.51859,0,0,1,239.9658,267.27347Z"/>
        <path d="M200.0059,217.87809a42.91186,42.91186,0,0,1,42.906,42.88314,2.95394,2.95394,0,0,1-2.94713,2.953h0a2.94061,2.94061,0,0,1-2.94713-2.94124,37.00592,37.00592,0,0,0-74.01183-.00589,2.94713,2.94713,0,1,1-5.89427,0,42.946,42.946,0,0,1,42.89434-42.889Z"/>
      </g>
      <g>
        <path d="M159.5373,166.66754a17.77852,17.77852,0,1,0,17.77852,17.77852,17.782,17.782,0,0,0-17.77852-17.77852Z"/>
        <path d="M240.51251,166.66754A17.77852,17.77852,0,1,0,258.291,184.44605a17.78272,17.78272,0,0,0-17.77852-17.77852Z"/>
      </g>
    </g>
    <path d="M200,8.50391a189.05686,189.05686,0,0,1,74.33105,15.10425A193.4452,193.4452,0,0,1,376.39185,125.66895a190.45119,190.45119,0,0,1,0,148.66211A193.44465,193.44465,0,0,1,274.33105,376.39185a190.45119,190.45119,0,0,1-148.66211,0A193.44465,193.44465,0,0,1,23.60815,274.33105a190.45119,190.45119,0,0,1,0-148.66211A193.4452,193.4452,0,0,1,125.66895,23.60815,189.05686,189.05686,0,0,1,200,8.50391M200,0C90,0,0,90,0,200S90,400,200,400s200-90,200-200S310,0,200,0Z"/>
  </g>
</svg>
