<svg xmlns="http://www.w3.org/2000/svg" xmlns:xlink="http://www.w3.org/1999/xlink" width="400" height="400" viewBox="0 0 400 400">
  <defs>
    <clipPath id="a">
      <circle cx="200" cy="200" r="200" style="fill: none"/>
    </clipPath>
  </defs>
  <title>meme</title>
  <g>
    <path d="M200,399.37313h0C90.34492,399.37313.62712,309.65534.62712,200.00024h0C.62712,90.34516,90.34492.62736,200,.62736h0c109.65509,0,199.37288,89.7178,199.37288,199.37288h0C399.37288,309.65534,309.65509,399.37313,200,399.37313Z" style="fill: #999"/>
    <g style="clip-path: url(#a)">
      <g>
        <g>
          <polygon points="253.832 209.507 215.94 324.091 231.624 326.529 262.328 210.827 253.832 209.507" style="fill: #ccc"/>
          <path d="M232.59687,328.01885l-18.402-2.861,38.73367-117.12961,11.05414,1.71833Zm-14.91207-4.99422,12.96694,2.01572L260.67353,211.908l-5.93787-.92315Z"/>
        </g>
        <g>
          <polygon points="203.06 83.885 163.306 197.807 355.281 269.028 398.305 144.003 203.06 83.885" style="fill: #f2f2f2"/>
          <path d="M356.09017,270.73835,161.63054,198.59542,202.23123,82.24686,400,143.14118ZM164.98112,197.01873l189.49,70.29936,42.14-122.45356L203.88807,85.52321Z"/>
        </g>
        <g>
          <path d="M208.89479,260.83364a36.55826,36.55826,0,0,1-26.7008-2.478l3.29136-7.99958c7.86066,3.94674,14.15559,5.35813,22.48582,2.59094,8.33521-2.76536,17.71885-9.37543,21.66424-17.23477l3.4886,1.75159c-4.41128,8.79019-13.51483,19.84344-22.84063,22.93669Q209.592,260.63075,208.89479,260.83364Z" style="fill: #12d247"/>
          <path d="M198.70189,263.60271a38.1053,38.1053,0,0,1-17.10062-4.06515l-1.09667-.55016,4.30038-10.45206,1.2736.63942c7.14247,3.586,13.22676,5.25928,21.47592,2.5176,7.26976-2.41149,16.91048-8.62671,20.89957-16.573l.593-1.18183,5.85133,2.938-.59274,1.18138c-4.57249,9.11129-13.9099,20.38221-23.606,23.59844-.47524.15849-.9548.30787-1.43505.44769l-.00273.00046A38.00241,38.00241,0,0,1,198.70189,263.60271Zm-14.81051-5.89779a35.3402,35.3402,0,0,0,24.63636,1.85906c.44677-.13071.89378-.26961,1.338-.41763,8.21045-2.72346,16.81849-12.45959,21.46681-21.1027l-1.14153-.57293c-4.63124,8.087-14.13784,14.18794-21.8036,16.731-8.56842,2.84642-15.17439,1.31755-22.21644-2.038Z"/>
        </g>
        <g style="opacity: 0.1">
          <path d="M208.79411,259.65683c.46636-.13571.92818-.27963,1.39-.43222,9.01339-2.989,17.81725-13.41189,22.37837-22.04269l.56155.28191c-4.41128,8.79019-13.51483,19.84344-22.84063,22.93669q-.69135.23022-1.38858.43311a36.55826,36.55826,0,0,1-26.7008-2.478l.38848-.945A36.52871,36.52871,0,0,0,208.79411,259.65683Z"/>
        </g>
        <g>
          <path d="M253.69336,215.70941c-4.46911-5.05434-15.8343,2.26533-21.61825,9.10629a13.43223,13.43223,0,0,0-2.978,13.0999c.43539,1.451,2.0877,4.609,3.73361,4.77653,2.77581.2842,7.87977-5.14,7.86932-7.93219-.00639-1.31755-2.314-3.29729-4.07746-4.62165C243.98911,224.61167,258.11333,220.70867,253.69336,215.70941Z" style="fill: #12d247"/>
          <path d="M233.043,244.02478q-.17386,0-.34681-.01731c-2.69886-.27508-4.52422-4.57523-4.86511-5.712a14.76548,14.76548,0,0,1,3.2349-14.33367c4.57158-5.40684,12.59235-11.18895,18.45188-11.25407a6.55836,6.55836,0,0,1,5.16592,2.12594h0a3.97427,3.97427,0,0,1,1.11056,3.44349c-.56587,3.07-5.00743,5.39636-10.15057,8.08976-2.34841,1.22965-4.76081,2.493-6.81024,3.83789,2.81773,2.37688,3.18458,3.71811,3.18845,4.54881.0082,2.15918-2.01458,4.96143-4.02279,6.78132C236.94666,242.48862,234.95439,244.02478,233.043,244.02478Zm16.57893-28.67372-.07469.00046c-4.89015.0542-12.21047,5.28843-16.46257,10.31771-3.07436,3.63386-3.98977,7.62659-2.721,11.86753.55972,1.865,2.05216,3.7846,2.60095,3.84017.57361.0542,1.79689-.47638,3.259-1.80122,1.95287-1.76979,3.15794-3.87523,3.15452-4.81068h0c-.00114,0-.15621-1.02107-3.54938-3.56964l-1.40818-1.0575,1.40864-1.057a64.73348,64.73348,0,0,1,8.58777-5.05616c3.95835-2.07265,8.44454-4.4222,8.777-6.22661.02755-.14892.10019-.54424-.491-1.2128A3.86583,3.86583,0,0,0,249.62189,215.35106Z"/>
        </g>
        <g>
          <path d="M230.33248,146.85929a10.03771,10.03771,0,0,0-5.68533-5.28524c-2.09952-.69043-3.34466.23637-3.653,1.17409-.2498.7592-.2309,1.75522,1.41023,3.23536l3.13334,2.81272c5.04318,4.52968,6.29059,7.95951,4.89516,12.20227-1.57214,4.77835-7.10376,8.35391-14.60693,5.88549a18.34907,18.34907,0,0,1-10.42633-8.62671l5.97521-4.17172a12.37188,12.37188,0,0,0,6.62442,5.89141c2.1437.705,3.59765-.10338,4.0237-1.39862s-.30741-2.52626-2.217-4.24367l-3.05911-2.73849c-4.05809-3.61154-5.41139-7.47175-4.13323-11.35745,1.74839-5.31439,7.81992-7.67259,13.84933-5.68966a16.26955,16.26955,0,0,1,9.89007,8.302Z"/>
          <path d="M250.25767,177.6166l4.1576-12.639-10.9421-3.5997-4.1576,12.63948-7.68193-2.52717,10.284-31.26283,7.68193,2.52671-3.952,12.01418,10.9421,3.59924,3.952-12.01373,7.68193,2.52671-10.284,31.26329Z"/>
          <path d="M274.02962,150.79055l7.68193,2.52671-10.284,31.26329-7.68193-2.52671Z"/>
          <path d="M284.8704,189.00275l-7.63729-2.51259,10.284-31.26283,11.29939,3.71675c7.81582,2.57089,10.20408,8.70186,8.26487,14.59737s-7.57422,9.63457-15.39027,7.06323l-3.66209-1.20461Zm8.095-24.60858-2.74714,8.35163,2.1437.705c3.12606,1.02836,5.80124.72049,6.859-2.49483,1.04316-3.17114-.98555-4.82844-4.11183-5.8568Z"/>
          <path d="M321.90668,166.53969l7.68193,2.52717-10.284,31.26283-7.68193-2.52671Z"/>
          <path d="M358.9309,178.71919l-2.27714,6.9225-9.11129-2.99717-8.00665,24.34033-7.63707-2.51214,8.00665-24.34079-9.15546-3.01129,2.27737-6.9225Z"/>
          <path d="M358.56929,203.89159a4.72514,4.72514,0,1,1-5.94971,3.04135A4.73516,4.73516,0,0,1,358.56929,203.89159Zm-2.88058-2.82866,6.32384-21.33041,8.1731,2.68839-7.57444,20.91961Z"/>
        </g>
        <g>
          <g>
            <path d="M-80.56544,119.13508c3.3872,48.08178,19.67447,72.28412,46.7881,102.99953,27.1141,30.71722,94.00208,70.65551,131.0254,60.54361C111.87663,247.19542,80.5489,175.8677,53.43476,145.1523,26.32,114.43554-43.54035,109.02187-80.56544,119.13508Z" style="fill: #12d247"/>
            <path d="M84.36337,285.583c-15.6551,0-35.31978-5.70879-56.94235-16.68687C3.18248,256.59-20.64709,239.00734-34.76831,223.00953c-13.743-15.56834-24.5266-29.2257-32.48474-45.275C-75.61038,160.881-80.25938,142.29-81.88412,119.228l-.07628-1.0821,1.04657-.286c19.22929-5.25245,46.53719-6.14645,71.26623-2.33407,28.88277,4.45317,51.63775,14.66386,64.07343,28.7516,14.12144,15.9969,28.61042,41.8242,37.813,67.40238C102.96986,241.50672,105.183,266.9,98.47024,283.182l-.24752.60025-.62621.17124A50.28576,50.28576,0,0,1,84.36337,285.583ZM-79.16749,120.13025c1.66778,22.203,6.21568,40.16052,14.28312,56.42976,7.82926,15.78922,18.494,29.28855,32.09808,44.69977,13.91514,15.76417,37.44367,33.11414,61.40417,45.27907,27.32475,13.87278,51.30666,19.19582,67.6515,15.03048,6.16057-15.70087,3.85588-40.15915-6.51831-68.9941-9.09694-25.28534-23.39236-50.78474-37.30727-66.548C25.84661,115.89659-42.73123,110.63458-79.16749,120.13025Z"/>
          </g>
          <g style="opacity: 0.1">
            <path d="M-29.08326,219.25764c-21.74506-17.87144-48.095-52.04079-51.48218-100.12257,3.3872,48.08178,19.67447,72.28412,46.7881,102.99953,27.1141,30.71722,94.00208,70.65551,131.0254,60.54361a45.26873,45.26873,0,0,0,2.37-7.78552C51.28107,266.10843-6.057,238.18249-29.08326,219.25764Z"/>
          </g>
        </g>
        <g>
          <path d="M187.33208,287.74986l.04169-.43721c.01778-.18855.03577-.37616.05372-.56425q.03484-.36684.07014-.73372.02357-.248.04762-.49592.04436-.46316.089-.92455l.03143-.327q.1274-1.31779.25547-2.61916l.00546-.05512q.06086-.61825.12209-1.231l.01772-.17852q.05533-.554.11048-1.10256c.00751-.07289.01478-.14527.02206-.21816q.06114-.60594.12251-1.20554l.0034-.03232q.13116-1.28155.26279-2.52491c.005-.04873.01049-.09742.01548-.14616q.05533-.52129.11067-1.03475l.026-.23864q.05393-.50073.10838-.99376c.00639-.05918.0132-.11883.01959-.17806q.12913-1.17088.25869-2.28851l.01777-.15348q.0533-.45841.10656-.90632c.01091-.09472.02229-.18808.03325-.28191q.04715-.39419.09425-.77924c.01138-.09336.0228-.18673.03418-.2787q.05121-.41538.102-.81934c.00774-.0624.01595-.12568.0237-.18762q.06351-.4994.12661-.98192l.01455-.1075q.054-.41329.10885-.812c.01231-.09015.02462-.17852.03647-.26778q.04372-.31423.08651-.61937c.01413-.09975.02826-.199.04235-.29693.02873-.20039.05787-.39622.08656-.59022.01227-.0852.025-.17125.03777-.25505.04053-.27189.08153-.53832.1221-.79654,1.39907-8.874,6.0854-27.26645,7.55644-35.1299.44724-2.0385,10.02759-45.61927,12.50968-56.17607.08651-.32291.15893-.654.22315-.98873.01-.05149.02094-.102.03008-.15348.05871-.32244.1061-.65034.14434-.98238.00686-.06053.01324-.12111.01959-.18216.03554-.33839.06193-.68084.077-1.02879.00135-.03964.00182-.0797.00317-.11934.01321-.35658.01684-.71684.00867-1.08256l-.00047-.046c-.00867-.37211-.031-.75009-.061-1.13082-.0041-.05055-.00728-.10064-.01184-.15166q-.04849-.56222-.12751-1.13628c-.00639-.04645-.01366-.09336-.02005-.14028q-.17691-1.23237-.48818-2.509l-.00187-.00821q-.15712-.64078-.34884-1.29069l-.01959-.06786c-3.69169-12.49783-16.53975-27.25937-34.24769-33.48347a142.70672,142.70672,0,0,0-42.54513-7.45081c-24.21922-.3493-41.79621,20.037-39.16609,36.84708,1.81623,14.06382-3.07941,54.19517-8.49965,91.19778-4.80684,32.82451-14.272,63.18329-16.7158,70.71152a20.668,20.668,0,0,0-6.91861-.73507c-10.3357.337-25.10115,5.38452-23.72507,13.05121,1.46441,8.164,17.18422-4.05652,27.59528-5.61131a67.12178,67.12178,0,0,1,10.12234-.75331l2.61254-6.06265c16.1358-2.90424,46.86239-8.12209,59.32217-8.12209,11.01248,0,25.077,4.64856,37.62244,8.76608l3.21964,7.47264a55.16136,55.16136,0,0,1,8.281.61438c8.51765,1.27157,21.3771,11.26954,22.574,4.59162,1.12584-6.27307-10.95214-10.40015-19.40851-10.677a15.99877,15.99877,0,0,0-6.10178.76054l-.00456-.00592h.00065C184.70658,316.50922,185.98175,301.95829,187.33208,287.74986Z" style="fill: #12d247"/>
          <path d="M206.46557,334.39119c-2.5866,0-6.031-1.53479-9.87686-3.249-3.51317-1.56576-7.14566-3.18481-10.13372-3.63067a51.47845,51.47845,0,0,0-8.08134-.5998l-.87305.00273-3.3294-7.72724C161.96,315.17943,148.16309,310.673,137.527,310.673c-12.08136,0-41.458,4.93729-58.38924,7.97545l-2.677,6.212-.87328-.00273a63.28673,63.28673,0,0,0-9.92217.7387c-3.69124.55107-8.14965,2.5381-12.46118,4.45955-6.07336,2.70615-11.3192,5.04341-14.41474,3.40387a4.39237,4.39237,0,0,1-2.21588-3.326,7.2762,7.2762,0,0,1,1.73267-6.03624c4.2168-5.21146,15.12635-8.30518,23.25049-8.56978a24.49545,24.49545,0,0,1,6.08838.45588c3.109-9.717,11.74206-38.30647,16.28108-69.30288,7.03271-48.01027,9.97068-79.42112,8.49646-90.83687-1.23717-7.90531,1.7099-16.67412,8.09113-24.02335A41.86865,41.86865,0,0,1,132.919,117.50607a144.29793,144.29793,0,0,1,42.94341,7.5182c19.133,6.72439,31.60121,22.525,35.098,34.36338l.02482.08562c.13207.44951.25458.90311.35979,1.33258l.01252.05146c.21064.86668.3796,1.73882.50211,2.59229l.02118.14847q.08334.608.135,1.20278l.0123.158c.0353.44723.05647.84117.06513,1.20734l.00068.07651c.0082.34749.005.73825-.00956,1.13128l-.003.11613q-.02391.55744-.08334,1.12126l-.02072.19219c-.04327.37482-.0961.73415-.15758,1.07117l-.02391.12433c-.08516.44222-.16532.79609-.253,1.12308-2.50554,10.65974-12.39788,55.6733-12.49511,56.11734-.6146,3.28864-1.8101,8.49373-3.0755,14.0044-1.71651,7.47448-3.66209,15.94589-4.46638,21.048-.04008.25413-.08038.51737-.12046.78561l-.28737,2.013q-.05431.39622-.10794.80474l-.55038,4.47594q-.12877,1.1142-.258,2.28215l-.27895,2.58182q-.13185,1.24605-.26278,2.52444l-.40328,4.02006q-.12775,1.29592-.25527,2.61461l-.33337,3.48083c-.18422,1.93876-.36707,3.88343-.54788,5.80852-.97894,10.41244-1.9112,20.32983-2.71162,25.37962a21.19608,21.19608,0,0,1,4.47-.266c6.70071.21952,15.70679,2.78221,19.19992,7.09966a6.26445,6.26445,0,0,1,1.4667,5.13221,3.82743,3.82743,0,0,1-1.936,2.89014A4.4694,4.4694,0,0,1,206.46557,334.39119ZM179.24079,324.272a57.01432,57.01432,0,0,1,7.60382.62439c3.34534.49915,7.14543,2.19288,10.82028,3.8306,3.83834,1.711,8.18791,3.64934,9.68672,2.856.11727-.06194.429-.22726.57133-1.02061a3.61083,3.61083,0,0,0-.92-3.00218c-2.89037-3.57283-11.03069-5.91737-17.23065-6.12049a14.868,14.868,0,0,0-5.60017.6795l-.9129.33747-.973-1.26518.13435-.613c.84209-3.68441,1.91348-15.08149,3.04772-27.14759.1808-1.92373.36366-3.8684.54788-5.80625l.3336-3.484q.12775-1.31983.256-2.62235l.40078-3.99547c.09109-.88854.17876-1.732.26665-2.56178l.28032-2.59412q.13014-1.1791.25982-2.299l.55676-4.526c.03484-.26734.07173-.54059.10839-.80929l.29261-2.049c.04031-.27143.082-.541.123-.80246.81886-5.1937,2.77515-13.71293,4.50122-21.22885,1.25949-5.4838,2.44906-10.66338,3.06184-13.93927.10543-.48412,10.00256-45.51863,12.52221-56.23529.08084-.30468.14688-.59752.21177-.93545l.02664-.13481c.05215-.28692.09655-.58887.13276-.90311l.018-.16851c.03393-.3229.05784-.64215.071-.9482l.00273-.10794c.01275-.34476.01548-.68269.0082-1.00741-.00774-.36161-.02641-.70728-.05761-1.10259l-.0107-.138c-.031-.35706-.07127-.71411-.12069-1.07435l-.02-.14164c-.10885-.75647-.2605-1.54026-.45-2.32086l-.02528-.10475q-.14585-.59023-.32244-1.18821l1.249-.43994-1.26791.37436c-3.3121-11.21354-15.18282-26.20121-33.41814-32.6109a141.63681,141.63681,0,0,0-42.1307-7.37611,39.32686,39.32686,0,0,0-30.36587,13.4046c-5.8691,6.75946-8.59187,14.74766-7.47015,21.91609,1.53115,11.85387-1.32962,42.65854-8.49782,91.59424-4.77265,32.5904-14.0397,62.52839-16.76634,70.92785l-.40533,1.24878-1.25152-.39668a19.46012,19.46012,0,0,0-6.47618-.674c-7.64367.24912-17.69359,3.15657-21.28145,7.59061a4.68989,4.68989,0,0,0-1.18548,3.90575c.17876.99648.57111,1.30844.851,1.45646,1.95788,1.03883,7.34719-1.36355,12.10117-3.4822,4.47344-1.99341,9.099-4.05513,13.14683-4.65948a68.98787,68.98787,0,0,1,9.44648-.76466l2.55062-5.91919.69885-.1257c16.89637-3.04089,47.10124-8.143,59.55627-8.143,11.12678,0,25.24572,4.63443,37.70281,8.72326l.89788.29466Z"/>
        </g>
        <g>
          <path d="M210.76339,167.32524c3.043-11.792,5.7855-28.559,3.75274-36.67056-2.05673-8.21275-13.01568-26.07393-17.661-28.90169q-.45841,1.878-.83711,3.72405a35.40355,35.40355,0,0,0-3.77773-3.72405c1.23738,2.261,2.314,4.452,3.25489,6.435a96.26255,96.26255,0,0,0-.825,29.4779" style="fill: #12d247"/>
          <path d="M211.40354,167.49062l-1.28021-.33064c3.24743-12.58392,5.66689-28.70242,3.75159-36.34449C211.9981,123.321,202.134,106.901,197.26843,102.86772c-.2079.89082-.41011,1.80941-.603,2.743l-.2605,1.2588-.87237-.9441q-.43516-.47137-.83548-.89218c.54947,1.0994,1.02244,2.0854,1.3952,2.87147l.09086.19128-.03735.20859a95.50331,95.50331,0,0,0-.82023,29.2758l-1.31072.17124a96.75228,96.75228,0,0,1,.79244-29.47118c-.74394-1.56439-1.8504-3.84153-3.14678-6.21021l-1.02631-1.87545,1.90551.96869a25.27711,25.27711,0,0,1,3.09463,2.93933c.187-.85666.38074-1.696.57862-2.50667l.21428-.87761.77149.46955c4.80112,2.92248,15.87826,20.99931,17.95865,29.30586C217.129,138.36147,214.69264,154.74457,211.40354,167.49062Z"/>
        </g>
        <g>
          <path d="M87.07945,264.85944a36.49387,36.49387,0,0,0-24.40881-2.13668q-.70432.18035-1.40317.39164c-9.19116,2.76146-18.38709,13.12278-23.151,21.67582a10.20811,10.20811,0,0,0-.99739-.65325,7.77177,7.77177,0,0,0-4.68157-1.26612,1.915,1.915,0,0,0-1.30207,1.23834c-.01338.30118,1.26632.51708,2.77566.78163a8.94039,8.94039,0,0,0-4.59851,1.00092,2.55419,2.55419,0,0,0-.961,2.19018c.174.47325,2.7452-.25569,5.32156-.803a8.19437,8.19437,0,0,0-3.05968,2.50585,2.55686,2.55686,0,0,0,.05055,2.39188c.3985.39622,2.88764-1.83717,5.24243-3.52589,1.28021-.9722,2.5176-1.78271,3.38041-2.32581l.19122-.02232.04167.02243a2.86941,2.86941,0,0,1,.116,4.52177c-.95617.547-1.5332,2.03078-1.262,2.38507a2.01329,2.01329,0,0,0,1.867.27827,6.25682,6.25682,0,0,0,2.81841-3.43757,3.47329,3.47329,0,0,0-1.30947-3.74914c4.403-7.32433,13.54448-13.26661,21.61858-15.69264,7.51476-2.26184,13.31-1.23029,19.98769,1.99035q1.1871.57254,2.41571,1.23548" style="fill: #12d247"/>
          <path d="M39.62785,294.28988a2.41814,2.41814,0,0,1-1.78664-.66675,1.25738,1.25738,0,0,1-.15416-1.03838,3.72925,3.72925,0,0,1,1.62064-2.31175,2.15176,2.15176,0,0,0,.71343-1.54208,2.07131,2.07131,0,0,0-.65764-1.67233c-1.10828.70682-2.1355,1.41866-3.05706,2.11865-.71935.516-1.42845,1.06479-2.11387,1.59536-2.33771,1.809-3.305,2.55859-3.99456,1.87272a3.14091,3.14091,0,0,1-.13777-3.22215,5.29738,5.29738,0,0,1,.6401-.80429c-1.85541.39486-2.6959.43493-2.96893-.30878a3.139,3.139,0,0,1,1.23193-2.97941,6.20485,6.20485,0,0,1,1.67506-.71183.74926.74926,0,0,1-.16327-.53923,2.50971,2.50971,0,0,1,1.85792-1.86133,8.3257,8.3257,0,0,1,5.13062,1.35444c.1405.08016.28578.16851.43379.26369,4.90427-8.5042,14.08865-18.6238,23.1799-21.355.47661-.14392.95776-.27827,1.42936-.399a36.95156,36.95156,0,0,1,24.847,2.17512l-.54833,1.20324a35.63674,35.63674,0,0,0-23.96916-2.09816q-.693.17762-1.37767.38438c-8.96555,2.6934-18.085,12.96284-22.76455,21.36457l-.36525.65582-.14437-.10657-4.20451,2.20381a7.55566,7.55566,0,0,0-2.80862,2.27486,2.036,2.036,0,0,0-.12114,1.2884c.54469-.31652,1.55551-1.09895,2.33316-1.701.695-.53786,1.41365-1.09394,2.138-1.61312,1.01378-.77058,2.16715-1.56394,3.41366-2.34818l.12593-.07924.54765-.06376.31083.1758a3.42689,3.42689,0,0,1,1.42116,3.01675,3.37987,3.37987,0,0,1-1.37562,2.605,2.45258,2.45258,0,0,0-.98691,1.42959,1.56988,1.56988,0,0,0,.97279.06649,5.6266,5.6266,0,0,0,2.50257-3.10784A2.849,2.849,0,0,0,41.338,286.8409l-.45338-.36115.29853-.49687c4.75193-7.90486,14.471-13.72431,21.99511-15.98505,7.111-2.14051,13.04072-1.553,20.46487,2.028.77992.37573,1.57874.78425,2.44178,1.24878l-.62621,1.16407c-.84573-.455-1.62747-.85484-2.38986-1.22237-7.09556-3.42254-12.7481-3.98864-19.50984-1.95242-7.13336,2.14324-16.29338,7.5724-20.95946,14.94076a3.96131,3.96131,0,0,1,1.05728,4.15031,6.79026,6.79026,0,0,1-3.13539,3.75363A2.05649,2.05649,0,0,1,39.62785,294.28988Zm-5.84928-8.73875a8.14926,8.14926,0,0,0-4.10955.89719,2.03536,2.03536,0,0,0-.65263,1.11853c.62895-.05693,1.88274-.34248,2.84733-.56245.54036-.123,1.10623-.25185,1.6721-.37208L38.168,285.649l-.44359-.32654a9.54843,9.54843,0,0,0-.93272-.61118,7.22217,7.22217,0,0,0-4.2414-1.18912,1.12489,1.12489,0,0,0-.51031.33292c.48594.12205,1.25493.25686,1.8652.36343l.12.02095-.12046,1.31209C33.86259,285.55113,33.82046,285.55113,33.77856,285.55113Zm-1.9925-1.35262Z"/>
        </g>
        <g>
          <path d="M113.38068,124.31487c-1.59243-10.10411-27.6283-38.74366-34.67469-41.154q-.49527,3.41745-.761,6.719c-3.58172-3.65279-6.41084-6.30744-7.22356-6.719,2.47505,4.52129,4.76674,8.96466,6.89109,13.23724C77.144,120.08531,84.97168,138.754,93.7717,150.43223" style="fill: #12d247"/>
          <path d="M93.24375,150.82971c-10.72714-14.2353-16.66228-34.0127-16.2952-54.28242-2.33794-4.69819-4.56566-8.97511-6.80682-13.069l-1.02335-1.86953,1.90164.96232c1.03655.52465,4.3088,3.73086,6.39284,5.82856.17079-1.793.38506-3.58148.639-5.33351l.11431-.78835.75373.25777c7.12517,2.437,33.43955,31.05288,35.1137,41.67618l-1.30571.20585c-1.52249-9.66053-25.76218-36.43057-33.48759-40.3099-.2621,1.91872-.47592,3.87432-.63646,5.82629l-.11864,1.441L77.473,90.34255c-1.91894-1.95743-3.41343-3.41844-4.53037-4.46365,1.72584,3.2308,3.46079,6.60279,5.26178,10.22481l.07219.14528-.00319.16213c-.39645,20.03654,5.44487,39.58122,16.026,53.62342Z"/>
        </g>
        <path d="M106.80658,124.53643c-.96186-6.09954-16.67934-23.38915-20.93373-24.84494-3.95173,27.26235,10.404,45.64161,18.2886,48.46937C106.19266,139.4244,107.88615,131.38266,106.80658,124.53643Z" style="fill: #1a171b"/>
        <ellipse cx="137.62958" cy="180.78251" rx="29.69979" ry="29.82676"/>
        <g>
          <ellipse cx="139.31323" cy="179.09103" rx="28.01573" ry="28.13621" style="fill: #fff"/>
          <path d="M139.313,207.88888a28.7974,28.7974,0,1,1,28.67737-28.79851A28.77,28.77,0,0,1,139.313,207.88888Zm0-56.27264a27.47576,27.47576,0,1,0,27.35526,27.47413A27.44535,27.44535,0,0,0,139.313,151.61624Z"/>
        </g>
        <ellipse cx="138.38655" cy="179.09063" rx="9.29677" ry="9.33649" style="fill: #1a171b"/>
        <ellipse cx="194.11249" cy="187.65985" rx="22.21349" ry="22.31003"/>
        <g>
          <ellipse cx="192.94173" cy="186.09398" rx="21.04238" ry="21.13389" style="fill: #fff"/>
          <path d="M192.94164,207.88888a21.79491,21.79491,0,1,1,21.70363-21.79495A21.77389,21.77389,0,0,1,192.94164,207.88888Zm0-42.26778a20.47327,20.47327,0,1,0,20.38153,20.47284A20.45031,20.45031,0,0,0,192.94164,165.62109Z"/>
        </g>
        <ellipse cx="188.51644" cy="184.48634" rx="7.77004" ry="7.80354" style="fill: #1a171b"/>
        <path d="M155.09556,211.41929c-2.49254,6.07039,2.28832,11.30554,10.67978,11.69313,8.39263.38848,17.21607-4.21821,19.70908-10.289C187.97607,206.75389,157.5881,205.34889,155.09556,211.41929Z" style="fill: #1a171b"/>
        <g>
          <path d="M188.98257,220.7214c-6.082-.36161-11.56353,5.48106-13.56537,13.73844-14.02944,12.1303-31.82482,18.146-49.69855,18.83466q-1.24468,8.16968-2.48774,16.338c14.61421-11.39023,34.066-19.49866,52.80888-19.62481,1.99476,5.676,5.90572,9.60767,10.61487,9.88683,7.26614.43269,13.67762-7.98727,14.31933-18.80411C201.6184,230.27264,196.24894,221.15362,188.98257,220.7214Z" style="fill-rule: evenodd"/>
          <path d="M188.93295,223.30139c-6.76336-.7715-13.12886,6.33729-14.21687,15.879-.02985.25594-.05261.51052-.07424.76464.00709-.13935.01231-.27874.02071-.41809a29.09841,29.09841,0,0,1,.48026-3.81467c-14.04539,11.91083-31.76653,15.49731-49.78436,16.19139-.82956,5.44552-2.11479,13.89192-2.94435,19.3379,14.63674-11.40847,34.2691-21.774,53.34057-22.0245,1.6926,4.77336,5.04776,8.15991,9.234,8.63718,6.76382.77243,13.12886-6.33724,14.21687-15.87893C200.29538,232.43365,195.696,224.07335,188.93295,223.30139Z" style="fill: #12d247;fill-rule: evenodd"/>
          <ellipse cx="189.42148" cy="240.26402" rx="11.93978" ry="7.91089" transform="translate(-70.77476 401.215) rotate(-83.48806)"/>
        </g>
      </g>
    </g>
    <path d="M200,8.50394a189.0578,189.0578,0,0,1,74.33109,15.10422A193.44556,193.44556,0,0,1,376.39185,125.66895a190.45154,190.45154,0,0,1,0,148.66211A193.44556,193.44556,0,0,1,274.33109,376.39185a190.4513,190.4513,0,0,1-148.66216,0A193.44559,193.44559,0,0,1,23.60814,274.33105a190.45158,190.45158,0,0,1,0-148.66211A193.44559,193.44559,0,0,1,125.66893,23.60815,189.05767,189.05767,0,0,1,200,8.50394M200,0C90,0,0,90,0,200S90,400,200,400s200-90,200-200S310,0,200,0Z"/>
  </g>
</svg>
