<svg xmlns="http://www.w3.org/2000/svg" xmlns:xlink="http://www.w3.org/1999/xlink" width="400" height="400" viewBox="0 0 400 400">
  <defs>
    <clipPath id="a">
      <circle cx="200" cy="200" r="200" style="fill: none"/>
    </clipPath>
  </defs>
  <title>meme</title>
  <g>
    <path d="M200,399.37313h0C90.34492,399.37313.62712,309.65534.62712,200.00024h0C.62712,90.34516,90.34492.62736,200,.62736h0c109.65509,0,199.37288,89.7178,199.37288,199.37288h0C399.37288,309.65534,309.65509,399.37313,200,399.37313Z" style="fill: #12d247"/>
    <g>
      <path d="M87.96017,154.5163a19.88415,19.88415,0,0,0-13.08581-5.14817c-2.87311,0-4.30757,1.5181-4.30757,3.03621,0,.92843.33875,2.53436,3.20767,3.54642l9.71085,3.37914c9.28427,3.20767,14.18152,9.36791,14.18152,17.22191,0,11.47988-9.53938,19.07876-22.70883,19.07876-11.14531,0-19.83991-4.05246-25.41465-9.3721l9.45574-12.40831c3.71789,3.46278,9.96177,6.92138,15.19777,6.92138,3.37914,0,5.06453-1.85685,5.06453-3.4586,0-1.77321-.67332-2.87311-4.89724-4.30757l-8.611-2.95675c-9.20063-3.124-13.5082-9.96177-13.5082-17.38919,0-9.45574,8.36-18.15452,22.37426-18.15452,7.68253,0,16.04255,2.112,22.62519,8.27639Z" style="fill: #fff"/>
      <path d="M121.67212,194.6185H104.78478V135.52117H127.159c15.53234,0,23.38633,9.53938,23.38633,21.01926,0,11.5677-7.854,21.61312-23.38633,21.61312h-5.48692Zm3.4586-44.32195h-3.4586v12.998h3.4586c4.39121,0,7.93764-1.85685,7.93764-6.499S129.52193,150.29655,125.13072,150.29655Z" style="fill: #fff"/>
      <path d="M215.75275,165.06775c0,17.81577-13.93059,30.56282-31.15668,30.56282-17.22191,0-31.1525-12.74706-31.1525-30.56282,0-17.81158,13.93059-30.56282,31.1525-30.56282C201.82216,134.50492,215.75275,147.25616,215.75275,165.06775Zm-18.15452,0c0-8.52731-5.06453-14.68755-13.00216-14.68755-7.93345,0-13.00216,6.16024-13.00216,14.68755,0,8.44367,5.06871,14.69173,13.00216,14.69173C192.5337,179.75948,197.59823,173.51142,197.59823,165.06775Z" style="fill: #fff"/>
      <path d="M269.98628,150.29655H239.67857v6.83774h15.36505v15.53234H239.67857v7.09285h30.30771v14.859h-47.2787V135.52117h47.2787Z" style="fill: #fff"/>
      <path d="M302.43523,194.6185H278.12048V135.52117h24.31476c19.50534,0,31.1525,11.98591,31.1525,29.54657S321.94057,194.6185,302.43523,194.6185Zm-.92843-43.39352h-6.41535v27.68972h6.41535c7.17649,0,13.93059-3.79735,13.93059-13.84695C315.4374,155.106,308.6833,151.225,301.50681,151.225Z" style="fill: #fff"/>
      <path d="M349.15771,176.63545a9.49765,9.49765,0,1,1-9.45574,9.53938A9.47461,9.47461,0,0,1,349.15771,176.63545Zm-7.59888-2.44653-1.5181-38.66774h18.48909l-1.52229,38.66774Z" style="fill: #fff"/>
    </g>
    <g>
      <path d="M96.06927,220.81939H80.57039V261.574H64.44419V220.81939H48.94531V206.49986h47.124Z" style="fill: #fff"/>
      <path d="M156.81853,234.039c0,16.59877-12.98544,28.48013-29.03217,28.48013-16.05092,0-29.03217-11.88136-29.03217-28.48013,0-16.603,12.98125-28.48013,29.03217-28.48013C143.83309,205.55888,156.81853,217.43606,156.81853,234.039Zm-16.91661,0c0-7.946-4.7216-13.69221-12.11556-13.69221-7.39814,0-12.11556,5.74621-12.11556,13.69221,0,7.86654,4.71741,13.688,12.11556,13.688C135.18031,247.727,139.90191,241.90556,139.90191,234.039Z" style="fill: #fff"/>
      <path d="M207.33835,220.26735H179.09242v6.37353h14.31953v14.47845H179.09242V247.727h28.24594V261.574H163.27988V206.49986h44.05847Z" style="fill: #fff"/>
      <path d="M258.24711,220.81939H242.74823V261.574H226.622V220.81939H211.12316V206.49986h47.124Z" style="fill: #fff"/>
      <path d="M307.98071,220.26735H279.73477v6.37353H294.0543v14.47845H279.73477V247.727h28.24594V261.574H263.92223V206.49986h44.05847Z" style="fill: #fff"/>
      <path d="M336.465,243.24383h-5.11471V261.574H315.53777V206.49986h25.41047c13.29909,0,21.16563,8.498,21.16563,18.25489,0,7.70762-3.46278,12.90179-10.15,16.20566L364,261.574H346.29715Zm3.06966-13.37437c4.56268,0,6.36935-2.04923,6.36935-4.80106s-1.80667-4.80106-6.36935-4.80106h-8.18438v9.60211Z" style="fill: #fff"/>
    </g>
    <g style="clip-path: url(#a)">
      <g>
        <path d="M139.69684,312.25348V465.55927c0,6.31856,16.73244,11.44073,37.37305,11.44073s37.37305-5.12217,37.37305-11.44073V312.25348Z" style="fill: #fff;stroke: #1d1d1b;stroke-miterlimit: 10;stroke-width: 2.8346457481384277px"/>
        <ellipse cx="177.06989" cy="312.25348" rx="37.37305" ry="11.44073" style="fill: #d9d9d9;stroke: #1d1d1b;stroke-miterlimit: 10;stroke-width: 2.8346457481384277px"/>
        <path d="M94.43966,259.152l-8.1329,10.23931c7.05512,23.54884,55.48754,43.7608,55.48754,43.7608L152.754,300.4187Z" style="fill: #333;stroke: #1d1d1b;stroke-miterlimit: 10;stroke-width: 2.8346457481384277px"/>
        <path d="M280.03051,88.2537l.006-.00726S247.25131,57.57456,239.2428,56.04913c-.53489,1.00283-2.11994.82442-2.11994.82442,6.61026,6.48308,13.422,42.43226-53.95124,131.67-21.356,27.96623-50.08495,65.59352-50.08495,65.59352h-4.57629l-10.37012,13.59639c-12.1352-7.33508-21.9722-11.06328-23.7006-8.58139-2.16711,3.11194,9.22111,14.78888,25.43645,26.0812s31.11715,17.9239,33.28426,14.812c1.68175-2.415-4.81948-9.99286-15.38586-18.54166l9.85627-12.19916-1.08616-4.44557s24.94113-28.60164,51.83122-64.22255c70.69642-86.62871,105.8397-85.79366,113.70651-80.911,0,0,.76365-.68292,1.6109-1.44052C311.2551,112.93833,291.09891,96.83286,280.03051,88.2537ZM127.11706,273.55015" style="fill: #4d4d4d;stroke: #1d1d1b;stroke-linecap: round;stroke-linejoin: round;stroke-width: 2.8346457481384277px"/>
        <ellipse cx="274.74342" cy="87.74384" rx="6.78103" ry="50.6579" transform="translate(29.83528 240.06892) rotate(-49.59204)" style="fill: #4d4d4d;stroke: #1d1d1b;stroke-miterlimit: 10;stroke-width: 2.8346457481384277px"/>
        <path d="M139.69684,286.15209c2.71592-3.22694,26.88572-31.6337,26.88572-31.6337,5.72037-5.339,17.35178-4.38561,17.35178,11.82209v19.81161s2.28815-.74372,2.28815.97239v20.40264c-3.52756,3.52756-13.44286,3.52756-16.97042,0v-21.375H154.76047s-4.718,5.449-6.37057,7.29228S136.98091,289.379,139.69684,286.15209Z" style="fill: #4d4d4d;stroke: #1d1d1b;stroke-miterlimit: 10;stroke-width: 2.8346457481384277px"/>
        <path d="M133.08667,254.137c0,5.56684,9.91527,11.18649,13.66463,10.61446" style="fill: none;stroke: #1d1d1b;stroke-miterlimit: 10;stroke-width: 2.8346457481384277px"/>
      </g>
    </g>
    <path d="M200,8.50393a189.05763,189.05763,0,0,1,74.33105,15.10421A193.44559,193.44559,0,0,1,376.39185,125.66893a190.4513,190.4513,0,0,1,0,148.66216A193.44556,193.44556,0,0,1,274.33105,376.39185a190.45154,190.45154,0,0,1-148.66211,0A193.44556,193.44556,0,0,1,23.60815,274.33109a190.45166,190.45166,0,0,1,0-148.66216A193.44559,193.44559,0,0,1,125.66895,23.60814,189.05763,189.05763,0,0,1,200,8.50393M200,0C90,0,0,90,0,200S90,400,200,400s200-90,200-200S310,0,200,0Z"/>
  </g>
</svg>
