<svg xmlns="http://www.w3.org/2000/svg" width="400" height="400" viewBox="0 0 400 400">
  <title>meme</title>
  <g>
    <path d="M200,400h0C90,400,0,310,0,200H0C0,90,90,0,200,0h0C310,0,400,90,400,200h0C400,310,310,400,200,400Z" style="fill: #12d247"/>
    <path d="M200,400h0C90,400,0,310,0,200H0C0,90,90,0,200,0h0C310,0,400,90,400,200h0C400,310,310,400,200,400Z" style="fill: none"/>
    <path d="M200,8.50393a189.05783,189.05783,0,0,1,74.33109,15.10421A193.4454,193.4454,0,0,1,376.39185,125.66893a190.45166,190.45166,0,0,1,0,148.66216A193.44537,193.44537,0,0,1,274.33109,376.39185a190.45166,190.45166,0,0,1-148.66216,0A193.4454,193.4454,0,0,1,23.60814,274.33109a190.45169,190.45169,0,0,1,0-148.66216A193.44543,193.44543,0,0,1,125.66893,23.60814,189.0577,189.0577,0,0,1,200,8.50393M200,0C90,0,0,90,0,200S90,400,200,400s200-90,200-200S310,0,200,0Z"/>
    <g>
      <g>
        <path d="M168.90621,292.04574a17.75545,17.75545,0,0,1-9.68894-3.34075c-1.19914-.85817-3.46785-2.89752-4.919-4.2316H137.697a4.16152,4.16152,0,0,1-4.16225-4.16145V189.91332a4.16282,4.16282,0,0,1,4.16225-4.163h24.41709c.57808-.31212,2.36545-1.45894,5.54618-5.0805,5.60562-6.38183,10.569-14.33333,15.36631-22.0204a184.17542,184.17542,0,0,1,11.40377-16.93206,53.21105,53.21105,0,0,1,11.815-11.42647c3.29233-2.41849,6.70011-4.92048,13.19586-13.08816,10.40907-13.08346,11.82895-21.408,13.20209-29.45773.24494-1.4262.4946-2.89992.79267-4.36821,1.17334-5.82012,6.36617-11.84149,13.02106-11.83989a12.10689,12.10689,0,0,1,6.95759,2.307c8.50857,5.87549,12.97584,22.96909,11.29217,34.32685-1.73193,11.66509-10.50262,27.9598-15.54414,33.61687-4.37987,4.91737-6.44422,7.61212-5.54075,15.10722.43061,3.57243,5.86534,3.71048,6.09622,3.71519l33.719.13182c9.8349.08277,28.39679,5.30284,28.39831,24.47325,0,8.74417-3.51235,14.17731-7.61445,17.34485,3.893,3.49829,6.92948,9.18732,5.845,17.80973-1.05327,8.36813-5.15384,13.355-9.93476,15.91555,2.64171,3.55445,4.42045,8.70358,3.25805,15.68458a17.77775,17.77775,0,0,1-9.36363,13.04135c1.97072,3.03956,3.19711,7.27907,2.161,12.82917-2.43568,13.02889-13.60466,13.78409-18.373,14.10708-.39945.02652-.77086.053-1.1016.08117-.12327.01246-.25277.01718-.37452.01718Z" style="fill: #fff"/>
        <path d="M246.4585,75.69757a8.0426,8.0426,0,0,1,4.59214,1.57207c6.74692,4.65917,11.094,19.80545,9.53684,30.29178-1.55722,10.48392-9.86143,26.213-14.53306,31.45657-4.67171,5.24276-7.67844,9.15448-6.56749,18.37463.8847,7.33355,10.18283,7.38117,10.18283,7.38117l33.7518.13342s24.25091.20132,24.25243,20.30788c0,15.73452-12.99454,16.9641-12.99454,16.9641s13.15687,2.55583,11.25478,17.66936c-1.73512,13.80278-12.5311,14.46283-14.5877,14.46283-.21682,0-.33857-.00623-.33857-.00623s10.49647,3.63713,8.273,16.98127c-1.835,11.01287-13.32536,11.99432-13.32536,11.99432s8.10753,3.24712,6.13992,13.79352c-2.01753,10.79286-11.59024,10.43239-15.75944,10.81H168.90781a13.55574,13.55574,0,0,1-7.26421-2.56206c-1.52989-1.09537-5.71163-5.01188-5.71163-5.01188H137.6985v-90.397h24.99134c.17392,0,2.50118-.128,8.09969-6.49727,10.38494-11.8212,18.43471-28.48643,26.89726-39.10537,10.46835-13.13035,12.03962-8.20507,25.01394-24.51695,12.97425-16.31108,12.8775-26.00394,14.81387-35.5923.75208-3.70737,4.305-8.50306,8.94389-8.50386m-.00152-8.326c-8.78635.0008-15.59255,7.7183-17.10454,15.18064-.30734,1.52989-.56322,3.03717-.81136,4.4922-1.34654,7.87816-2.61671,15.31948-12.35638,27.56586-6.15087,7.7346-9.18883,9.96512-12.40471,12.32442A57.52433,57.52433,0,0,0,191.17626,139.121a186.83205,186.83205,0,0,0-11.68155,17.32528c-4.7107,7.545-9.57814,15.34993-14.96214,21.47579a29.98423,29.98423,0,0,1-3.68315,3.66374H137.69778a8.3275,8.3275,0,0,0-8.32682,8.32754v90.39863a8.3282,8.3282,0,0,0,8.32682,8.326h14.98946c1.43234,1.29038,3.05434,2.69779,4.10913,3.453a22.11488,22.11488,0,0,0,12.11143,4.12087H276.336c.25117,0,.50083-.01246.75048-.03587.3043-.028.64135-.04682,1.00645-.07334a29.56169,29.56169,0,0,0,11.44668-2.62917c4.00232-1.9863,9.11557-6.179,10.73829-14.86851a22.153,22.153,0,0,0-.87375-12.17231,21.46674,21.46674,0,0,0,8.09035-13.77937,24.98524,24.98524,0,0,0-1.785-15.16658c4.28-3.55605,7.53488-9.02346,8.48828-16.59892.87687-6.9826-.59917-13.23485-4.19269-18.08759C313.24444,199.11309,316,193.53639,316,185.21508c-.00152-11.66357-6.11339-20.67066-17.21216-25.36338a43.74551,43.74551,0,0,0-15.29608-3.272l-.03586-.0008-33.65977-.13182a6.85967,6.85967,0,0,1-2.08624-.458c-.58351-5.38081.59917-6.98411,4.5625-11.43341,5.49865-6.17116,14.68125-23.17736,16.55211-35.77325a49.76058,49.76058,0,0,0-1.93014-20.98511c-1.4027-4.59446-4.71221-12.95867-11.11274-17.37833a16.42208,16.42208,0,0,0-9.32465-3.04739Z"/>
      </g>
      <g>
        <path d="M141.88887,284.7308a7.44489,7.44489,0,0,1-7.41792,7.47256l-38.89086-.0032a7.44057,7.44057,0,0,1-7.41632-7.47088V185.53185a7.44373,7.44373,0,0,1,7.4156-7.47409l38.89238-.00151a7.44534,7.44534,0,0,1,7.41712,7.4756Z"/>
        <path d="M134.47175,296.36474H95.57937A11.61925,11.61925,0,0,1,84.0008,284.72928L84,185.53185a11.62209,11.62209,0,0,1,11.57937-11.63857h38.89238a11.62292,11.62292,0,0,1,11.58089,11.63857v99.19744a11.62224,11.62224,0,0,1-11.58089,11.63546Z"/>
      </g>
      <circle cx="127.11238" cy="278.08452" r="7.04925" style="fill: #fff"/>
      <circle cx="127.11238" cy="278.08452" r="7.04925" style="fill: #fff"/>
    </g>
  </g>
</svg>
