<svg xmlns="http://www.w3.org/2000/svg" xmlns:xlink="http://www.w3.org/1999/xlink" width="400" height="400" viewBox="0 0 400 400">
  <defs>
    <clipPath id="a">
      <path d="M650,400h0c-110,0-200-90-200-200h0C450,90,540,0,650,0h0C760,0,850,90,850,200h0C850,310,760,400,650,400Z" style="fill: none"/>
    </clipPath>
  </defs>
  <title>meme</title>
  <g>
    <path d="M200,400h0C90,400,0,310,0,200H0C0,90,90,0,200,0h0C310,0,400,90,400,200h0C400,310,310,400,200,400Z" style="fill: #12d247"/>
    <g>
      <path d="M53.33969,200.92059a5.86549,5.86549,0,0,1,2.46271,4.90323c.11833,4.48538-3.60531,8.17944-8.86722,8.30886-5.25821.13682-9.13346-3.36126-9.24439-7.83925-.07026-2.70306.99839-4.37075,2.20017-5.17686a17.91577,17.91577,0,0,1-2.29261.21817l-8.29777.20338-.15531-5.92011,25.92868-.67669.15161,5.9349Zm-6.56352,7.06272a3.50658,3.50658,0,1,0-.17749-6.99986,3.50506,3.50506,0,1,0,.17749,6.99986Z"/>
      <path d="M46.51363,192.33809a9.27608,9.27608,0,1,1,10.0653-8.20163A8.96618,8.96618,0,0,1,46.51363,192.33809Zm.6582-5.90162a3.35579,3.35579,0,1,0,.74325-6.63378,3.35337,3.35337,0,1,0-.74325,6.63378Z"/>
      <path d="M55.00368,154.41389l-2.95081,11.80324a3.08719,3.08719,0,0,0,3.06174-2.44422,3.13829,3.13829,0,0,0-.8209-3.15419l2.35177-5.45789c3.48329,2.4738,4.29679,6.07911,3.33538,9.98025a9.07651,9.07651,0,1,1-17.63091-4.319c1.17589-4.71464,5.19165-8.27188,12.32463-6.49326Zm-6.5894,11.097,1.4865-5.983a3.23207,3.23207,0,0,0-1.4865,5.983Z"/>
      <path d="M55.64709,140.50292a6.00513,6.00513,0,0,0-2.92493,2.9693c-.29212.76174-.07765,1.23505.19968,1.34229.38087.14791.69888.037,1.113-.52508l1.6492-2.1373c2.53666-3.19486,4.563-3.609,6.84825-2.73634,2.52557.96881,4.57043,4.21544,2.75483,8.95227-1.52717,3.98249-3.94551,5.94969-5.4468,6.64857l-2.55885-4.404a8.41838,8.41838,0,0,0,3.70515-3.97139c.25145-.6545.12572-1.14261-.29582-1.30161-.41415-.1627-.79132.01479-1.47171.94293L57.777,148.30889c-1.95611,2.69567-4.54824,3.254-6.72992,2.41833-2.94342-1.13151-4.21544-4.833-2.74374-8.67124a11.20077,11.20077,0,0,1,5.12509-6.01255Z"/>
      <path d="M73.03394,114.74064l-6.73731-6.52284,3.22444-5.19535,12.43186,12.66112-3.56834,5.76111-9.21111-2.72895,6.53764,7.05532-3.54245,5.73152L55.44,125.78215l3.31319-5.36545,8.49745,3.254-6.29358-6.81127,3.01737-4.88474Z"/>
      <path d="M89.19684,106.84223l-3.89374,4.47059L65.73457,94.292l3.81609-4.39294,6.28619,5.47268a19.31515,19.31515,0,0,1,1.6418,1.61592,6.3666,6.3666,0,0,1,1.468-5.29149,6.01407,6.01407,0,0,1,8.93378-.68039l8.5825,7.45838-3.89,4.478-7.12928-6.20114a2.36063,2.36063,0,0,0-3.58683.1701,3.45291,3.45291,0,0,0-.68778,2.93972Z"/>
      <path d="M87.81758,85.05874A15.83867,15.83867,0,0,1,92.351,78.39168c3.85306-3.40933,7.52124-3.28361,9.93957-.53617l7.60259,8.59359-4.43731,3.92332-.9836-1.10933a5.39451,5.39451,0,0,1-2.08184,4.404c-3.02107,2.67348-6.28619,2.00418-8.124-.074-2.22605-2.52927-1.67508-5.591,1.18328-8.11288l2.16689-1.91174c.69148-.61013.75434-1.20917.3328-1.68248l-.04437-.05916c-.44373-.4955-1.36077-.477-2.52927.551a13.27312,13.27312,0,0,0-3.03956,4.71834Zm13.61884.76913-.758-.86528a1.674,1.674,0,0,1-.599,1.22026l-.99839.88746c-.83569.72476-1.05016,1.61592-.43634,2.3074a1.77052,1.77052,0,0,0,2.52187-.05916A2.31968,2.31968,0,0,0,101.43642,85.82787Z"/>
      <path d="M104.52405,61.51142l3.572,5.02525,2.814-2.00049,2.93972,4.15258-2.81769,1.99309,3.50917,4.93281c.57315.8209,1.35708.45113,1.90435.05916a16.23667,16.23667,0,0,0,1.50869-1.20547l2.94342,4.14888s-2.1373,1.78971-3.32059,2.62911c-2.27042,1.61592-4.66287,2.34808-6.72252-.551L106.188,74.12077l-2.08554,1.4791-2.94342-4.14149,2.09293-1.4865-3.572-5.029Z"/>
      <path d="M120.39483,48.38808a3.57107,3.57107,0,1,1,3.32059,6.32317,3.57106,3.57106,0,0,1-3.32059-6.32317Zm15.146,21.97578-5.24342,2.75853-5.64278-10.74568-2.00418,1.04647-2.35917-4.48908,7.24761-3.80869Z"/>
      <path d="M136.02155,44.52392l2.40354,5.665,3.17268-1.346,1.9857,4.67027-3.17268,1.346,2.36287,5.554c.392.92814,1.23505.72846,1.84518.46222a15.12021,15.12021,0,0,0,1.73055-.85048l1.9857,4.67027s-2.46271,1.29791-3.7939,1.86c-2.55885,1.08714-5.04374,1.29791-6.44149-1.9783l-3.14309-7.39921-2.35177,1.00579-1.98939-4.67027,2.35177-1.00579-2.40354-5.65757Z"/>
      <path d="M164.83818,47.80013a6.06263,6.06263,0,0,0-4.123-.64711c-.78762.20338-1.05016.6619-.97991.94293.10724.39936.38826.59164,1.076.60273l2.71415.09984c4.07493.20338,5.59841,1.59743,6.21593,3.97509.68409,2.618-.76544,6.18265-5.68345,7.46577-4.1267,1.08344-7.14407.25145-8.58619-.55466l2.08923-4.65178a8.36838,8.36838,0,0,0,5.395.69518c.68039-.17379,1.00209-.56206.89116-.99839-.11463-.42524-.477-.636-1.627-.64711h-2.496c-3.33538-.01109-5.30258-1.79341-5.89423-4.05644-.795-3.05435,1.4791-6.25291,5.45789-7.29568a11.20338,11.20338,0,0,1,7.891.6656Z"/>
      <path d="M170.54752,42.09819a15.75612,15.75612,0,0,1,7.47317-3.03216c5.10291-.69888,8.09069,1.44213,8.58619,5.06963l1.55306,11.3817-5.87944.80241-.196-1.47171a5.3882,5.3882,0,0,1-4.18216,2.51817c-4.001.54357-6.34535-1.823-6.71883-4.57782-.45852-3.35017,1.70467-5.58731,5.48377-6.0976l2.86946-.392c.917-.122,1.30161-.59164,1.21286-1.22026l-.0074-.06286c-.08875-.6656-.869-1.16479-2.41094-.94293a13.05436,13.05436,0,0,0-5.15467,2.23345Zm10.91578,8.19423-.15531-1.13151a1.67416,1.67416,0,0,1-1.17958.68039l-1.3238.18489c-1.09823.14791-1.76383.758-1.63811,1.67878a1.774,1.774,0,0,0,2.12991,1.36077A2.34193,2.34193,0,0,0,181.4633,50.29242Z"/>
      <path d="M196.02137,55.2733l-1.29422.01109L188.83293,38.075l6.64857-.06286L198.558,48.96862l2.82139-11.01932,6.497-.06656-6.33426,19.96419c-.78762,2.533-2.04116,3.91593-5.26561,3.9603l-4.123.03328-.05177-5.08442,2.6365-.02958a.98.98,0,0,0,1.06865-.795Z"/>
      <path d="M220.49683,45.15993a5.955,5.955,0,0,0-3.61271-2.04856c-.81351-.09614-1.22026.23666-1.24984.53248-.04068.40675.14791.68778.79132.94293l2.49968,1.04647c3.73474,1.627,4.65178,3.47219,4.39294,5.90162-.281,2.68457-2.88795,5.49487-7.93539,4.95869-4.23023-.45482-6.75211-2.28152-7.80966-3.54615l3.59052-3.59792a8.43175,8.43175,0,0,0,4.7886,2.55145c.69518.07765,1.13521-.17749,1.18328-.61753.04437-.44373-.21817-.76544-1.29422-1.18328l-2.32219-.87637c-3.11351-1.187-4.31159-3.54245-4.06753-5.86464.3328-3.132,3.57943-5.31738,7.66175-4.881a11.22006,11.22006,0,0,1,7.12188,3.39824Z"/>
      <path d="M233.14686,49.95962A9.2596,9.2596,0,1,1,239.544,61.23409,8.96166,8.96166,0,0,1,233.14686,49.95962Zm5.69455,1.63071a3.35173,3.35173,0,1,0,6.40821,1.83779,3.34854,3.34854,0,1,0-6.40821-1.83779Z"/>
      <path d="M262.4331,50.93953a4.33959,4.33959,0,0,1-.758,1.36447,6.28482,6.28482,0,0,1,5.45789-.18859c3.12461,1.36447,4.99567,4.56673,3.34647,8.32735L265.92379,70.863l-5.4357-2.374,3.7939-8.65275a2.36113,2.36113,0,0,0-1.23505-3.37236,3.45034,3.45034,0,0,0-3.01.22187l-4.25982,9.73989-5.42831-2.38136,6.90741-15.77464,5.32477,2.32589Z"/>
      <path d="M292.6142,59.68473,289.301,64.86159l2.899,1.86367-2.73634,4.27091-2.899-1.85627-3.254,5.08811c-.54727.83939.09614,1.42364.65081,1.77862a15.84117,15.84117,0,0,0,1.68618.94663l-2.73634,4.27831s-2.45531-1.3127-3.67557-2.08923c-2.34438-1.50129-3.91962-3.43152-2.00418-6.4304l4.33747-6.77059-2.1484-1.37926,2.73634-4.27831,2.1521,1.38666,3.31319-5.18056Z"/>
      <path d="M289.61532,86.29749,285.019,82.55166l16.39586-20.1232,4.51126,3.683-5.273,6.46368a19.63187,19.63187,0,0,1-1.56415,1.68248,6.39977,6.39977,0,0,1,5.35066,1.30531,6.02822,6.02822,0,0,1,.96142,8.9116l-7.19214,8.83025-4.60371-3.74953,5.983-7.329a2.36444,2.36444,0,0,0-.28843-3.58313,3.44644,3.44644,0,0,0-2.9656-.59534Z"/>
      <path d="M317.10076,103.052l-8.32735-8.882a3.299,3.299,0,0,0,3.49068,4.91432l3.3058,4.93651c-3.9566,1.58264-7.43249.31431-10.17623-2.61431a9.07072,9.07072,0,1,1,13.1862-12.45775c3.32059,3.54245,4.1193,8.845-1.23875,13.86659Zm-5.74632-11.55919,4.21544,4.49647a3.22984,3.22984,0,0,0-4.21544-4.49647Z"/>
      <path d="M340.32268,107.37841l-5.08811,3.44631,1.93023,2.85467-4.20065,2.83988-1.93763-2.85467-4.992,3.38715c-.8283.56206-.47331,1.34229-.09614,1.90065a16.10532,16.10532,0,0,0,1.16849,1.53087l-4.20065,2.84358s-1.73795-2.17428-2.55145-3.37605c-1.55306-2.29631-2.24084-4.68876.70257-6.68555l6.64857-4.50387-1.42733-2.11512,4.20065-2.84358,1.431,2.11512,5.09181-3.44631Z"/>
      <path d="M327.77249,131.913l-2.90644-5.16947,10.59777-5.94969-1.10193-1.9746,4.42252-2.49229,4.00837,7.14037ZM349.3452,116.1347a3.57622,3.57622,0,1,1-6.23442,3.50547,3.57621,3.57621,0,0,1,6.23442-3.50547Z"/>
      <path d="M347.16723,133.20355a4.42949,4.42949,0,0,1-1.4865.477,6.34662,6.34662,0,0,1,4.1304,3.58683,6.04888,6.04888,0,0,1-3.23184,8.38282l-10.44617,4.52236-2.35547-5.4468,8.67494-3.74953a2.35881,2.35881,0,0,0,1.39405-3.31319,3.43679,3.43679,0,0,0-2.35177-1.88955L331.73278,140l-2.35547-5.4431,15.81531-6.84455,2.3111,5.33956Z"/>
      <path d="M354.37416,163.43642l4.14888,2.55885-2.64759,4.55564L351.61563,167.87l-2.6328,4.31528-4.356-2.92123,2.56624-4.1156-4.15628-2.59213,2.57364-4.54454,4.29679,2.68087,2.59213-4.31528,4.41882,2.87316Z" style="fill: #fff"/>
      <path d="M346.63105,195.50337a5.91656,5.91656,0,0,1-2.59213-4.85146c-.233-4.48168,3.39084-8.27558,8.65645-8.54922,5.26561-.27733,9.237,3.12091,9.46626,7.60259.14051,2.70676-.88746,4.39294-2.06335,5.23972a18.85623,18.85623,0,0,1,2.28521-.27733l8.30147-.42894.31431,5.9312-25.94347,1.36077-.31061-5.92751Zm6.38973-7.24761a3.509,3.509,0,1,0,.36608,6.99616,3.50685,3.50685,0,1,0-.36608-6.99616Z"/>
      <path d="M353.6346,204.15982a9.27065,9.27065,0,1,1-9.85822,8.442A8.97674,8.97674,0,0,1,353.6346,204.15982Zm-.51769,5.91271a3.356,3.356,0,1,0-.58425,6.64857,3.3523,3.3523,0,1,0,.58425-6.64857Z"/>
      <path d="M346.08378,242.05814l2.6402-11.8735a3.307,3.307,0,0,0-2.09293,5.65757l-2.21126,5.49857c-3.53136-2.38136-4.4447-5.96079-3.572-9.86932a9.06178,9.06178,0,1,1,17.70486,3.86785c-1.05016,4.74053-4.97718,8.38282-12.13974,6.78539Zm6.29358-11.24488-1.33119,6.00516a3.22069,3.22069,0,0,0,1.33119-6.00516Z"/>
      <path d="M345.76947,256.01348a6.03992,6.03992,0,0,0,2.851-3.03216c.27363-.76913.04437-1.24614-.22926-1.346-.38457-.14051-.70257-.01109-1.09823.55466l-1.60852,2.18168c-2.45161,3.254-4.46689,3.71994-6.77059,2.89165-2.54776-.89856-4.67027-4.09712-2.9767-8.87462,1.42733-4.02316,3.805-6.04583,5.2841-6.77429l2.66608,4.33007a8.48671,8.48671,0,0,0-3.609,4.06384c-.23666.6656-.09244,1.1463.3254,1.29791.42154.14421.79872-.03328,1.44952-.97621l1.39775-2.067c1.88586-2.74743,4.46689-3.365,6.66336-2.581,2.9693,1.05756,4.33747,4.72573,2.95821,8.60838a11.19872,11.19872,0,0,1-4.97718,6.13088Z"/>
      <path d="M328.91509,282.19361l6.86674,6.38233-3.12091,5.26191-12.687-12.41337,3.4574-5.83876,9.25919,2.54406-6.67815-6.9185,3.43891-5.80548,16.83959,5.38763-3.206,5.4357-8.56031-3.08763,6.41931,6.68555-2.92123,4.9439Z"/>
      <path d="M313.04062,290.4544l3.77911-4.563,19.99747,16.529-3.71255,4.478-6.4267-5.30628a18.49744,18.49744,0,0,1-1.67139-1.57894,6.35567,6.35567,0,0,1-1.34229,5.32847,6.011,6.011,0,0,1-8.91529.906l-8.77108-7.2513,3.78281-4.563,7.28458,6.01255a2.35451,2.35451,0,0,0,3.57943-.25145,3.45231,3.45231,0,0,0,.61753-2.95451Z"/>
      <path d="M315.00043,312.16024a15.911,15.911,0,0,1-4.356,6.79278c-3.768,3.51287-7.43619,3.49438-9.93957.80981l-7.83185-8.405,4.33747-4.04535,1.00949,1.09084a5.41208,5.41208,0,0,1,1.96721-4.47059c2.95081-2.75113,6.24182-2.16319,8.13507-.13682,2.29631,2.46271,1.8193,5.54294-.96881,8.14246l-2.11512,1.982c-.67669.62862-.72476,1.22766-.29582,1.68988l.05177.05177c.45482.4955,1.37557.44373,2.51448-.62492A13.23833,13.23833,0,0,0,310.43,310.2448Zm-13.64473-.40675.78023.84679a1.67965,1.67965,0,0,1,.57315-1.23875l.96881-.90965c.81351-.76174,1.00579-1.6455.37717-2.32219a1.7755,1.7755,0,0,0-2.52557.11833A2.32973,2.32973,0,0,0,301.3557,311.75349Z"/>
      <path d="M298.64894,336.25483l-3.67927-4.9476-2.76962,2.05965-3.03956-4.07863,2.77332-2.05965-3.61271-4.86255c-.59534-.80241-1.37187-.41415-1.91174-.01479a15.7433,15.7433,0,0,0-1.4828,1.24245l-3.03586-4.07863s2.10033-1.84148,3.26882-2.71046c2.22605-1.66029,4.6-2.44792,6.72992.40675l4.81448,6.46368,2.056-1.52717,3.03216,4.086-2.056,1.52348,3.67927,4.9402Z"/>
      <path d="M267.51382,328.09018l5.16947-2.88425,5.92381,10.60887,1.9746-1.10563,2.4738,4.43361-7.14777,3.98988Zm15.70438,21.6097a3.5735,3.5735,0,0,1-4.89213-1.39036,3.57476,3.57476,0,1,1,4.89213,1.39036Z"/>
      <path d="M267.7209,353.93751l-2.55145-5.6132-3.14309,1.42733-2.10772-4.62959,3.14309-1.42733-2.50708-5.50226c-.41415-.917-1.24984-.69518-1.86-.41415a16.704,16.704,0,0,0-1.70836.88746l-2.11142-4.6222s2.44792-1.36077,3.76432-1.95981c2.53666-1.1463,5.01786-1.41994,6.49326,1.8193l3.33538,7.33265,2.32959-1.065,2.10772,4.62959-2.32959,1.065,2.55145,5.6132Z"/>
      <path d="M238.78964,351.26033a6.04175,6.04175,0,0,0,4.1267.56206c.78392-.22926,1.03907-.68409.954-.96881-.10724-.38826-.392-.57685-1.07975-.57685l-2.71415-.03328c-4.07493-.11463-5.61689-1.4828-6.28989-3.83088-.73585-2.59952.62492-6.19374,5.50966-7.57671,4.09342-1.16849,7.12558-.41415,8.5825.36978l-1.982,4.68136a8.4516,8.4516,0,0,0-5.40612-.58425c-.673.19228-.9873.59164-.86528,1.02058.122.42524.4881.62862,1.6418.61383l2.48489-.05916c3.33168-.06286,5.33217,1.67878,5.96818,3.92332.86528,3.03216-1.33119,6.2751-5.28779,7.39921a11.20151,11.20151,0,0,1-7.87992-.48071Z"/>
      <path d="M233.19123,357.173a15.86815,15.86815,0,0,1-7.40661,3.23184c-5.09181.8246-8.13507-1.23505-8.723-4.86255l-1.84888-11.34472,5.86095-.954.24035,1.46061a5.41963,5.41963,0,0,1,4.123-2.62171c3.98988-.65081,6.39342,1.66029,6.84455,4.41512.53987,3.328-1.56785,5.628-5.33956,6.23442l-2.85467.46962c-.917.14791-1.29052.62122-1.19068,1.24245l.01479.08135c.10354.6582.89486,1.12782,2.43312.87637a13.35613,13.35613,0,0,0,5.10291-2.37026Zm-11.13765-7.928.18119,1.14261a1.64007,1.64007,0,0,1,1.1611-.71737l1.3201-.21817c1.09823-.18119,1.74534-.8172,1.59743-1.73055a1.78586,1.78586,0,0,0-2.16689-1.30531A2.34312,2.34312,0,0,0,222.05359,349.24505Z"/>
      <path d="M207.56577,344.597l1.29422-.04807,6.31577,17.01708-6.62638.24405-3.35387-10.86031-2.533,11.06369-6.48217.23666,5.80918-20.08252c.72476-2.55145,1.93763-3.96769,5.15837-4.086l4.10821-.14421.17749,5.077-2.62541.09614a.98059.98059,0,0,0-1.04277.80981Z"/>
      <path d="M182.99047,355.2761a6.014,6.014,0,0,0,3.67927,1.98939c.80981.06286,1.21286-.27363,1.23875-.56206.02958-.41415-.1664-.69148-.8172-.92814l-2.52557-1.00209c-3.7865-1.542-4.74792-3.37236-4.54454-5.81657.22556-2.69936,2.777-5.57992,7.85034-5.151,4.25242.35129,6.82606,2.1373,7.9132,3.38345l-3.51287,3.68666a8.51855,8.51855,0,0,0-4.86625-2.45531c-.69888-.05547-1.13151.20707-1.17219.64341-.03328.44743.233.77653,1.3201,1.1574l2.35177.832c3.14679,1.12412,4.40773,3.4611,4.208,5.79069-.25884,3.14679-3.4685,5.41352-7.573,5.06593a11.18617,11.18617,0,0,1-7.218-3.24663Z"/>
      <path d="M170.48466,350.8129a9.28061,9.28061,0,1,1-6.68185-11.14134A8.97714,8.97714,0,0,1,170.48466,350.8129Zm-5.74632-1.505a3.35562,3.35562,0,1,0-4.15628,2.71785A3.3663,3.3663,0,0,0,164.73834,349.30791Z"/>
      <path d="M141.13555,350.49489a4.49816,4.49816,0,0,1,.72846-1.37557,6.31324,6.31324,0,0,1-5.45789.31061c-3.15789-1.29791-5.09921-4.46319-3.53506-8.26819l4.33377-10.52382,5.48747,2.25933-3.60162,8.7341a2.35723,2.35723,0,0,0,1.309,3.35017,3.4336,3.4336,0,0,0,3.00258-.281l4.05644-9.84343,5.48377,2.263L146.37527,353.05l-5.38394-2.215Z"/>
      <path d="M110.53661,342.4005l3.206-5.26191-2.94711-1.79341,2.6439-4.34856,2.95081,1.79711,3.14679-5.16577c.52508-.85048-.12942-1.43473-.70257-1.78232a16.549,16.549,0,0,0-1.70836-.90225l2.64759-4.34487s2.49968,1.26463,3.731,2.019c2.37766,1.43843,4.00467,3.34277,2.1484,6.386l-4.18956,6.88892,2.18538,1.3238-2.64759,4.34487-2.18168-1.33119-3.20965,5.26561Z"/>
      <path d="M113.15832,315.83211l4.69985,3.6312-15.90406,20.55214-4.60741-3.56464,5.1103-6.61529a19.68643,19.68643,0,0,1,1.52717-1.72685,6.38213,6.38213,0,0,1-5.38763-1.1574,6.03807,6.03807,0,0,1-1.187-8.9042l6.974-9.004,4.69615,3.6312-5.79069,7.488a2.35666,2.35666,0,0,0,.36978,3.57573,3.44518,3.44518,0,0,0,2.98409.514Z"/>
      <path d="M85.133,299.59526l8.53812,8.68973a3.30141,3.30141,0,0,0-3.60531-4.833l-3.42412-4.86255c3.92332-1.67139,7.43249-.4881,10.24279,2.37026A9.07755,9.07755,0,1,1,83.9867,313.73548c-3.40194-3.47219-4.33007-8.7489.90965-13.90357ZM91.153,311.02133l-4.319-4.39663a3.23067,3.23067,0,0,0,4.319,4.39663Z"/>
      <path d="M61.87411,295.91969l5.00307-3.57943-2.00788-2.8029,4.1304-2.95081,2.00049,2.7955,4.918-3.50547c.81351-.58794.43634-1.36077.04437-1.908a15.93627,15.93627,0,0,0-1.20547-1.50129l4.1267-2.94711s1.79711,2.12621,2.6365,3.3021c1.61592,2.25563,2.36287,4.637-.52878,6.70034l-6.53764,4.68136,1.4865,2.07814-4.1267,2.95821-1.4902-2.07814-4.99937,3.57943Z"/>
      <path d="M52.64081,287.40375a3.58245,3.58245,0,1,1,6.15677-3.66448,3.58247,3.58247,0,0,1-6.15677,3.66448Zm21.20664-16.34409,3.03956,5.1066-10.46835,6.227,1.1574,1.95242-4.37075,2.59952L59.012,279.8936Z"/>
      <path d="M54.50078,270.3312a4.46166,4.46166,0,0,1,1.47541-.51769,6.31586,6.31586,0,0,1-4.22284-3.4685c-1.431-3.09872-.70627-6.73731,3.02107-8.46047l10.31674-4.77011,2.48489,5.36914-8.564,3.964a2.34872,2.34872,0,0,0-1.309,3.34277,3.43658,3.43658,0,0,0,2.39615,1.83409l9.64375-4.47429,2.48489,5.38394L56.6085,275.75951l-2.44792-5.273Z"/>
      <path d="M46.53951,240.25364l-4.21914-2.45531,2.53666-4.6222,4.32638,2.57364,2.52557-4.38554,4.43361,2.81769-2.4701,4.17477,4.22654,2.48859-2.46271,4.60741L51.073,242.88644,48.58807,247.272l-4.49647-2.76962Z" style="fill: #fff"/>
    </g>
    <g>
      <path d="M127.64081,121.05893c-1.85638,45.53736,4.01873,97.04632,4.01873,97.04632-7.96193,30.172-8.81541,76.25247-8.81541,76.25247h.026c-.00357.08727,0,.17166,0,.25926,0,11.80328,33.58113,21.39026,75.00825,21.39026s75.00774-9.587,75.00774-21.39026c0-.0876.00357-.172,0-.25926-.00427-.09653-.01743-.18876-.026-.28526a390.11,390.11,0,0,0-20.50841-95.10161c14.90736-25.13259,23.43876-54.733,23.43876-54.733l-148.14967-23.179Z"/>
      <path d="M132.22685,126.58893c-1.759,43.14977,3.808,91.958,3.808,91.958-7.54451,28.58926-8.35313,72.254-8.35313,72.254h.02458c-.00357.0826,0,.16276,0,.24536,0,11.18465,30.98968,20.26873,70.24468,20.26873,39.254,0,71.07453-9.08408,71.07453-20.26873,0-.0826.00354-.16276,0-.24536-.00427-.09154-.01637-.17914-.02422-.27031-4.00589-49.28363-20.902-90.11492-20.902-90.11492,14.12638-23.81468,22.20935-51.863,22.20935-51.863Z" style="fill: #fff"/>
      <path d="M150.53545,217.59075c.80257,7.87893,7.74217,21.48745,7.74217,21.48745s-6.07631-5.65695-9.63826-16.343c-3.56177-10.68569-.419-12.15225-.419-12.15225Z"/>
      <path d="M131.58172,189.27379l-.674,1.52962s57.56893,26.1038,115.32548,13.45685l-.33726-1.608C188.83223,215.14787,131.58172,189.27379,131.58172,189.27379Z"/>
      <path d="M240.96977,206.775c-50.07,19.1223-106.61372,4.90015-106.61372,4.90015l-.41491,1.60762s56.91092,14.41627,107.62518-4.95215l-.59656-1.55562Z"/>
      <path d="M255.12606,216.47162s-5.99531,3.82639-19.679,6.71542c-13.68336,2.88867-34.99058,4.80329-65.38889.80381l-.20747,1.6329c30.56551,4.02194,52.05333,2.12723,65.93362-.80381,13.87956-2.92995,20.22351-6.94795,20.22351-6.94795Z"/>
      <path d="M156.60173,224.25011l-.51855,1.58129s50.11078,16.4128,101.9465,1.452l-.46655-1.58162c-51.25058,14.792-100.96158-1.45165-100.96158-1.45165Z"/>
      <path d="M147.42342,223.88721l-.726,1.50329c56.47752,27.18572,114.2626,9.645,114.2626,9.645l-.46692-1.58129s-57.24195,17.30494-113.0697-9.567Z"/>
      <path d="M126.0852,289.58684l-1.01125,1.32269s5.64805,4.38338,17.34553,8.71122c11.69744,4.3282,29.49938,8.63394,53.98093,8.63394,26.86235,0,45.30337-4.3029,57.04038-8.63394,11.73665-4.33068,16.853-8.73722,16.853-8.73722l-1.08907-1.27069s-4.79118,4.19283-16.33447,8.45229c-11.54288,4.25983-29.78482,8.53066-56.46983,8.53066-24.28691,0-41.89046-4.268-53.41059-8.53066-11.52028-4.26231-16.90462-8.47829-16.90462-8.47829Z"/>
      <path d="M275.89124,143.74748c-1.84194,11.65864-36.5063,15.86985-77.42592,9.40588s-72.59842-21.15518-70.75682-32.81386h0c1.84179-11.65864,36.50648-15.86967,77.42592-9.4057,40.91962,6.46379,72.59842,21.15518,70.75682,32.81368Z"/>
      <path d="M267.75557,142.31918c-1.65,10.44437-32.70416,14.21683-69.36221,8.42611C161.73553,144.9546,133.356,131.79359,135.006,121.349h0c1.64985-10.44441,32.70434-14.21683,69.36235-8.42614,36.65768,5.79068,65.03721,18.95173,63.38721,29.39632Z" style="fill: #848484"/>
      <path d="M129.58537,131.689l-1.08893,1.24454s5.3222,4.76109,16.25646,10.21542c10.93,5.45218,27.51624,11.646,50.1177,14.62316.00908.00055.01692-.00069.02582,0,27.31285,4.30238,46.1403,3.84561,58.18109,2.30746,12.04507-1.53873,17.3719-4.20034,17.3719-4.20034l-.75217-1.47783s-4.95752,2.52828-16.827,4.04473c-11.86983,1.51627-30.54626,1.95255-57.74055-2.33346H195.104c-22.42448-2.95063-38.81606-9.06256-49.59934-14.44155-10.78342-5.37917-15.91952-9.98213-15.91952-9.98213Z"/>
      <path d="M277.12921,105.39064c1.23867,11.73789-31.15492,24.77731-72.35306,29.12455-41.19832,4.3471-75.6-1.64446-76.83867-13.38256h0c-1.23848-11.73807,31.15511-24.7775,72.35306-29.12474,41.19846-4.34688,75.60069,1.64449,76.83867,13.38274Z"/>
      <path d="M271.63714,105.08134c1.22193,10.26648-28.50666,21.91819-66.3998,26.02488-37.89365,4.10666-69.60272-.88681-70.82447-11.15311h0c-1.22175-10.26669,28.50648-21.91822,66.40013-26.02488,37.89314-4.10669,69.60258.88678,70.82414,11.15311Z" style="fill: #fff"/>
      <path d="M201.11573,96.50991c-14.04017,1.52159-26.57282,4.44016-35.52514,7.94888A40.51923,40.51923,0,0,0,155.0867,110.101c-2.45042,1.98657-3.83708,4.12715-3.5776,6.30836s2.1121,3.95371,4.96674,5.36527a41.407,41.407,0,0,0,11.56232,3.25069c9.54851,1.5038,22.44815,1.66619,36.48763.1446,14.0398-1.52163,26.55535-4.43827,35.50731-7.947a40.65021,40.65021,0,0,0,10.5215-5.64393c2.45064-1.98657,3.82176-4.10848,3.56214-6.28983-.25926-2.18121-2.09623-3.97241-4.95109-5.384a41.55346,41.55346,0,0,0-11.5803-3.24891c-9.54815-1.50361-22.4305-1.668-36.46961-.14635Zm.14208,1.19892c13.94225-1.51091,26.73449-1.34264,36.11422.13464a40.46013,40.46013,0,0,1,11.19424,3.13866c2.66358,1.317,4.09812,2.83436,4.28936,4.44377.192,1.60923-.85155,3.378-3.13833,5.23172a39.57811,39.57811,0,0,1-10.1714,5.45415c-8.79386,3.44671-21.22035,6.348-35.1626,7.85916-13.94221,1.51091-26.75156,1.34461-36.1318-.13249a40.46892,40.46892,0,0,1-11.19392-3.13888c-2.66376-1.31718-4.07836-2.81956-4.27-4.42879-.19161-1.60959.83215-3.393,3.11838-5.24667A39.59472,39.59472,0,0,1,166.0776,105.57c8.794-3.44675,21.23833-6.35,35.18022-7.86113Z"/>
      <path d="M241.43668,206.30806C221.945,218.335,196.0731,222.58268,175.088,223.78356a242.10137,242.10137,0,0,1-37.05034-.62252l-.18143,1.6589a244.62453,244.62453,0,0,0,37.33557.62256c21.12918-1.2084,47.22689-5.45575,67.12561-17.73411l-.88072-1.40033Z"/>
      <path d="M252.66262,208.92711s-22.16271,12.00415-52.762,12.00415v1.65926c31.03418,0,53.56584-12.21213,53.56584-12.21213Z"/>
    </g>
    <path d="M200,8.50393a189.05741,189.05741,0,0,1,74.33105,15.10421A193.445,193.445,0,0,1,376.39185,125.66893a190.4513,190.4513,0,0,1,0,148.66216A193.445,193.445,0,0,1,274.33105,376.39185a190.45154,190.45154,0,0,1-148.66211,0A193.445,193.445,0,0,1,23.60815,274.33109a190.4513,190.4513,0,0,1,0-148.66216A193.445,193.445,0,0,1,125.66895,23.60814,189.05741,189.05741,0,0,1,200,8.50393M200,0C90,0,0,90,0,200S90,400,200,400s200-90,200-200S310,0,200,0Z"/>
  </g>
  <g style="clip-path: url(#a)">
    <path d="M474.78207,357.75527a31.14769,31.14769,0,0,0-8.571-4.02353c-2.15586-.60166-4.24061-1.38016-6.32629-2.17925-1.49993-.57452-3.02607-1.09664-4.57-1.53923a10.51085,10.51085,0,0,0-7.31252.44633c-2.33084,1.018-4.686,1.97995-7.02807,2.97086a56.02677,56.02677,0,0,1-6.72022,2.46745,23.11684,23.11684,0,0,1-7.3827.97313,41.64843,41.64843,0,0,1-6.33378-.8019,37.343,37.343,0,0,1-8.98088-3.013,2.34765,2.34765,0,0,1-1.28285-1.45408,16.24732,16.24732,0,0,1-.8702-6.90549,22.92344,22.92344,0,0,1,1.3549-5.74616,37.61513,37.61513,0,0,1,3.76059-7.335c1.048-1.61128,2.169-3.17391,3.25344-4.76086.131-.19182.39206-.37147.11883-.67-1.22577.56049-2.44125,1.14249-3.67919,1.674a14.78447,14.78447,0,0,1-5.28485,1.18367,89.68108,89.68108,0,0,1-17.246-.97032,92.31753,92.31753,0,0,1-19.08367-5.04906,27.5835,27.5835,0,0,1-5.4065-2.74535,18.1419,18.1419,0,0,1-4.39406-3.93463,12.19025,12.19025,0,0,1-2.56476-5.9333,22.137,22.137,0,0,1-.05708-5.43924,35.1147,35.1147,0,0,1,1.615-7.2882c.88611-2.66021,1.84146-5.298,2.72851-7.95722.57546-1.72357,1.07232-3.47333,1.62251-5.20438a2.0749,2.0749,0,0,0-.2517-1.92849c-.625-.89173-1.20238-1.82369-1.89667-2.65833a18.44046,18.44046,0,0,0-4.12552-3.54538c-1.56169-1.02834-3.17858-1.97153-4.73934-3.0008-1.51678-1.00027-3.02326-2.02112-4.47641-3.10934a14.20878,14.20878,0,0,1-3.19917-3.38725c-.28633-.4192-.52774-.8702-.76166-1.26039.15439-.16843.21053-.26948.29568-.3172a21.16269,21.16269,0,0,1,17.58-1.79842,2.10071,2.10071,0,0,1,.5006.36773c-.20118.42387-.36492.80377-.55581,1.16869-.89079,1.703-1.79281,3.40035-2.678,5.1052a3.40947,3.40947,0,0,0-.19088.64564,42.665,42.665,0,0,0,3.06536-3.16455c5.44673-5.938,10.82048-11.9349,15.86111-18.22751a73.98807,73.98807,0,0,1,13.83718-13.20371c1.96217-1.45221,3.87662-2.97086,5.78546-4.49418a37.97652,37.97652,0,0,0,10.06162-12.167c1.15747-2.20732,2.29247-4.43243,3.30958-6.70619a173.82881,173.82881,0,0,1,9.02393-17.42654,189.13283,189.13283,0,0,0,10.17578-19.98476q2.859-6.48723,5.84534-12.91739a99.15824,99.15824,0,0,1,12.15573-19.9099c1.32121-1.6693,2.5657-3.40128,3.81861-5.12485a48.09692,48.09692,0,0,0,5.84908-10.62117c.99465-2.50956,1.9079-5.05186,2.80524-7.59791,1.382-3.91686,2.69015-7.86085,4.08435-11.774a37.834,37.834,0,0,1,5.69469-10.333c1.16869-1.52707,2.32709-3.06162,3.50889-4.5784a55.22516,55.22516,0,0,0,6.0016-9.64336c1.05267-2.14463,2.10908-4.28833,3.14771-6.43951a54.33088,54.33088,0,0,1,5.27082-8.63467c.67932-.9198,1.35677-1.84146,2.04826-2.751a100.151,100.151,0,0,0,6.49378-9.33739c.37054-.625.79535-1.21829,1.21454-1.81246A29.21068,29.21068,0,0,1,509.08964,45.7a1.88913,1.88913,0,0,0,.29755-.27135,2.13631,2.13631,0,0,0-1.41478-.56236,36.86274,36.86274,0,0,0-5.86967,6.00722c-1.63842,2.081-3.19449,4.22751-4.77115,6.35717-1.70111,2.29622-3.332,4.6467-5.08836,6.89988a67.17362,67.17362,0,0,0-5.91084,8.78439c-1.65713,3.0008-3.28432,6.02125-4.80484,9.09223a62.07849,62.07849,0,0,1-6.05587,9.79307q-2.10674,2.8029-4.15265,5.65352a39.79576,39.79576,0,0,0-4.74963,8.56637c-.82248,2.07539-1.64029,4.15359-2.40663,6.2505-1.46157,3.9992-2.83986,8.02927-4.33511,12.01537a53.45023,53.45023,0,0,1-7.73733,13.99719c-1.557,2.01551-3.05788,4.07312-4.60647,6.09424a93.34228,93.34228,0,0,0-10.97019,18.26587q-2.15586,4.75244-4.15827,9.57412a177.13458,177.13458,0,0,1-10.59216,21.858,211.51455,211.51455,0,0,0-9.677,18.84507c-1.10132,2.40663-2.32709,4.75992-3.59872,7.0814a32.87391,32.87391,0,0,1-7.276,9.08007c-1.84146,1.60286-3.71755,3.16736-5.60112,4.72156-1.44285,1.19021-2.91659,2.34394-4.38751,3.49953a67.77506,67.77506,0,0,0-11.76086,11.991c-1.87328,2.42628-3.75872,4.84414-5.68159,7.23205a45.87092,45.87092,0,0,1-4.86659,5.04344,2.17527,2.17527,0,0,1-2.28312.55487,30.4504,30.4504,0,0,1-3.18326-1.24168c-1.03863-.47066-2.04638-1.01617-3.04665-1.56543a5.03664,5.03664,0,0,0-3.76808-.39393,19.76276,19.76276,0,0,0-11.78986,7.87207,39.636,39.636,0,0,0-4.26119,7.24235q-1.252,2.852-2.3954,5.75083c-1.149,2.896-2.2513,5.81072-3.3835,8.71327a21.49144,21.49144,0,0,1-2.40663,4.35476,28.21211,28.21211,0,0,1-3.915,4.64015c-1.935,1.80872-3.9206,3.565-5.937,5.28392-2.29341,1.95468-4.66542,3.81673-6.96351,5.76674a39.63678,39.63678,0,0,0-5.5403,5.68533,2.73228,2.73228,0,0,0-.247.48,9.44272,9.44272,0,0,0,2.18393-1.22951,203.55834,203.55834,0,0,0,17.216-13.89894,44.33775,44.33775,0,0,0,3.77182-3.93463,21.20585,21.20585,0,0,0,4.06282-6.95883c.60072-1.71514,1.21174-3.42655,1.80965-5.14356a75.13626,75.13626,0,0,1,3.11589-7.97687,27.14544,27.14544,0,0,1,3.74843-5.90523,7.869,7.869,0,0,1,.78225-.70552c3.64082,2.82489,7.21147,5.59176,10.77556,8.36706a12.15666,12.15666,0,0,1,1.2894,1.13033c1.15559,1.193,2.36265,2.34862,3.406,3.63521,1.43818,1.77316,1.26975,1.25852,1.1715,3.67451a23.0121,23.0121,0,0,1-1.37548,6.53589c-.79348,2.30744-1.66368,4.58869-2.49459,6.883a36.0255,36.0255,0,0,0-1.89948,7.218,10.18284,10.18284,0,0,0,.422,4.75712,19.12827,19.12827,0,0,0,5.05186,7.75979,29.55659,29.55659,0,0,0,10.12057,6.29448,83.49994,83.49994,0,0,0,25.90121,4.963c4.46611.21428,8.9369.15533,13.40582.01778a2.78606,2.78606,0,0,1,1.42508.1441c-.305.64657-.56049,1.20425-.829,1.75538-1.00214,2.05387-2.04171,4.09-3.00454,6.16161a22.03481,22.03481,0,0,0-2.02673,9.36639c-.01029,4.83852.3434,9.6574.67,14.47908.27323,4.04318.54271,8.08822.72611,12.13608a79.81642,79.81642,0,0,1-.48657,10.7372c-.45007,5.02379-1.16869,10.00922-2.04638,14.97219-1.23794,7.00842-2.78091,13.95321-4.46518,20.86713-.22925.94132-.42668,1.89106-.63909,2.83705a4.88673,4.88673,0,0,0,.86272-1.49151,68.66368,68.66368,0,0,0,3.09624-10.44526c1.70392-7.76166,3.30584-15.54484,4.55968-23.39352a69.45227,69.45227,0,0,0,1.0377-12.7237c-.07111-2.80337-.28445-5.603-.42668-8.40543q-.29054-5.68159-.56423-11.36506a11.05413,11.05413,0,0,1,.08889-1.27069,8.27206,8.27206,0,0,1,.83839.11322c1.26039.30878,2.518.62973,3.7765.94787a75.42649,75.42649,0,0,0,10.522,2.1306,25.67623,25.67623,0,0,0,10.47894-.9357c2.0782-.65125,4.12177-1.41666,6.1719-2.15586a52.99346,52.99346,0,0,1,6.826-2.15212,17.57642,17.57642,0,0,1,6.34407-.35744,43.04025,43.04025,0,0,1,11.0123,3.27964,84.30541,84.30541,0,0,1,11.43991,6.33c2.27376,1.45876,4.51571,2.96712,6.78011,4.43991.23486.15346.436.46692.83184.29568a1.81488,1.81488,0,0,0-.2358-.35837A72.37724,72.37724,0,0,0,474.78207,357.75527Z"/>
  </g>
</svg>
